<?xml version="1.0" encoding="UTF-8" standalone="no"?>
<svg
   viewBox="0 0 762.86758 553.90281"
   width="2383.9612"
   height="1730.9463"
   version="1.1"
   id="svg1"
   sodipodi:docname="reddit-4.svg"
   inkscape:export-filename="reddit-4.svg"
   inkscape:export-xdpi="96"
   inkscape:export-ydpi="96"
   xml:space="preserve"
   xmlns:inkscape="http://www.inkscape.org/namespaces/inkscape"
   xmlns:sodipodi="http://sodipodi.sourceforge.net/DTD/sodipodi-0.dtd"
   xmlns="http://www.w3.org/2000/svg"
   xmlns:svg="http://www.w3.org/2000/svg"><defs
     id="defs1" /><sodipodi:namedview
     id="namedview1"
     pagecolor="#ffffff"
     bordercolor="#000000"
     borderopacity="0.25"
     inkscape:showpageshadow="2"
     inkscape:pageopacity="0.0"
     inkscape:pagecheckerboard="0"
     inkscape:deskcolor="#d1d1d1" /><path
     fill="#1d9bf0"
     d="m 675.86251,143.64879 c 0.45124,5.76452 0.45124,11.52905 0.45124,17.34671 0,177.26589 -152.81768,381.70735 -432.25141,381.70735 v -0.10622 c -82.5456,0.10622 -163.376524,-20.77357 -232.866458,-60.14238 12.002809,1.27512 24.065779,1.91268 36.158832,1.93923 68.406966,0.0498 134.858576,-20.21568 188.675696,-57.53903 -65.00771,-1.08915 -122.0135,-38.51874 -141.927924,-93.16214 22.772244,3.87844 46.236374,3.08151 68.587444,-2.31112 C 91.816216,318.73642 40.826867,263.74759 40.826867,199.88619 v -1.70015 c 21.117722,10.38681 44.762329,16.15133 68.948443,16.7889 C 43.022863,175.57954 22.446631,97.160697 62.75681,35.849497 139.88763,119.66097 253.68866,170.61196 375.85256,176.00459 363.60909,129.4102 380.3348,80.584367 419.80268,47.830147 c 61.18722,-50.7915899 157.42023,-48.18825989 214.93745,5.81766 34.02298,-5.92391 66.6321,-16.94824 96.47366,-32.56825 -11.34099,31.05408 -35.07585,57.43278 -66.78251,74.19505 30.11229,-3.13461 59.53271,-10.25395 87.23843,-21.11888 -20.39575,26.989683 -46.08595,50.499383 -75.8072,69.493133 z"
     id="path1-0"
     style="fill:none;stroke:#000000;stroke-width:22.4;stroke-linejoin:round;stroke-dasharray:none;stroke-opacity:1"
     inkscape:export-filename="./twitter.svg"
     inkscape:export-xdpi="96"
     inkscape:export-ydpi="96" /></svg>
