<svg xmlns="http://www.w3.org/2000/svg" width="932" height="932" viewBox="0 0 932 932"><g fill="none" fill-rule="evenodd"><path stroke="#979797" d="M495 489.904214 480.135581 489.904214 480.135581 516 453.438788 516 453.438788 489.904214 405 489.904214 405 469.235762 452.551351 405 480.135581 405 480.135581 469.979245 495 469.979245 495 489.904214ZM453.438788 469.979245 453.438788 432.285339 425.558753 469.979245 453.438788 469.979245ZM546.030094 518C539.145219 518 532.829962 517.132889 527.084324 515.398666 521.388216 513.664423 516.435069 510.98874 512.224882 507.371619 508.064242 503.754499 504.819927 499.220712 502.491938 493.77026 500.163979 488.270261 499 481.804051 499 474.37163 499 466.394139 500.263048 459.60585 502.789145 454.006762 505.315257 448.407655 508.732929 443.799541 513.042162 440.182421 517.202787 436.713954 522.081638 434.162153 527.678715 432.527018 533.325292 430.842339 539.194765 430 545.287134 430 549.89355 430 554.499975 430.545041 559.106407 431.635124 563.712839 432.675681 568.344037 434.360369 573 436.68919L573 458.986482 569.656631 458.986482C568.616471 457.995488 567.32865 456.905395 565.793167 455.716204 564.307231 454.52703 562.672695 453.436947 560.889559 452.445954 559.007361 451.405416 556.877503 450.538294 554.499983 449.84459 552.122478 449.101359 549.472547 448.729744 546.55019 448.729744 539.912968 448.729744 534.761698 451.058564 531.09638 455.716204 527.480577 460.324318 525.672676 466.542794 525.672676 474.37163 525.672676 482.7455 527.604404 488.988738 531.46786 493.101346 535.380847 497.213973 540.556882 499.270286 546.995966 499.270286 550.265038 499.270286 553.137865 498.898661 555.614447 498.15541 558.091028 497.412162 560.220886 496.520268 562.004023 495.47973 563.737613 494.439191 565.223549 493.373881 566.461832 492.283798 567.700115 491.14415 568.765048 490.128384 569.656631 489.236499L573 489.236499 573 511.533791C571.514048 512.177933 569.780451 512.921173 567.799207 513.763512 565.867463 514.605852 563.886197 515.299547 561.855407 515.844598 559.329311 516.538284 556.951806 517.058553 554.722894 517.405405 552.543497 517.801802 549.645897 518 546.030094 518L546.030094 518ZM656 515 629.901165 515 629.901165 473.833549C629.901165 470.483071 629.752871 467.157236 629.456282 463.856043 629.209137 460.505564 628.714841 458.041976 627.973392 456.465281 627.083671 454.592963 625.798496 453.26263 624.117867 452.474282 622.437269 451.636668 620.188222 451.217861 617.370728 451.217861 615.245254 451.217861 613.095066 451.612035 610.920163 452.400383 608.745245 453.188731 606.422047 454.445153 603.950571 456.169651L603.950571 515 578 515 578 400 603.950571 400 603.950571 441.166453C608.201519 437.569619 612.328902 434.761134 616.332721 432.740998 620.385953 430.720861 624.859332 429.710793 629.752855 429.710793 638.254767 429.710793 644.754769 432.396101 649.252861 437.766717 653.750954 443.088046 656 450.823686 656 460.973637L656 515ZM714.173158 494.013498 714.173158 476.636283C709.76974 477.081849 706.207413 477.477912 703.486176 477.824472 700.76497 478.121509 698.093232 478.740355 695.470963 479.681009 693.19504 480.473134 691.413884 481.686074 690.127495 483.319829 688.890566 484.90408 688.272102 487.032913 688.272102 489.706329 688.272102 493.617434 689.311119 496.315609 691.389154 497.800853 693.516649 499.236577 696.63367 499.954439 700.740217 499.954439 703.01617 499.954439 705.341577 499.434609 707.716436 498.394948 710.091326 497.35527 712.243567 495.894786 714.173158 494.013498L714.173158 494.013498ZM714.173158 506.935031C712.391994 508.420258 710.784004 509.756965 709.349187 510.945154 707.963831 512.133342 706.083715 513.32153 703.708841 514.509719 701.383442 515.648385 699.107519 516.514766 696.881073 517.108861 694.704086 517.702954 691.636526 518 687.678391 518 680.306372 518 674.171267 515.524617 669.273075 510.573852 664.424358 505.623066 662 499.385087 662 491.859912 662 485.671454 663.236913 480.671175 665.71074 476.859076 668.184581 473.046976 671.746901 470.027002 676.397698 467.799154 681.098002 465.521802 686.713611 463.937551 693.244524 463.046399 699.775452 462.155267 706.801139 461.462167 714.321586 460.967099L714.321586 460.521513C714.321586 455.917287 712.614636 452.748795 709.200736 451.016035 705.836344 449.233751 700.764986 448.34261 693.986662 448.34261 690.91911 448.34261 687.332052 448.911952 683.22549 450.050637 679.118943 451.139802 675.111332 452.550774 671.202658 454.283553L668.976219 454.283553 668.976219 434.158632C671.549013 433.416029 675.705051 432.549649 681.444334 431.559491 687.183617 430.51983 692.972391 430 698.810656 430 713.158886 430 723.598458 432.401119 730.129371 437.203358 736.70979 441.956112 740 449.233752 740 459.036278L740 515.772161 714.173158 515.772161 714.173158 506.935031ZM830 516 803.90115 516 803.90115 474.490471C803.90115 471.112071 803.752863 467.758518 803.45629 464.429814 803.209145 461.051412 802.714849 458.567293 801.9734 456.977457 801.083664 455.089536 799.79849 453.748116 798.117877 452.953198 796.437263 452.108604 794.188218 451.686306 791.37074 451.686306 789.245266 451.686306 787.095079 452.083765 784.920176 452.878683 782.745259 453.673601 780.422062 454.940494 777.950586 456.679364L777.950586 516 752 516 752 432.310238 777.950586 432.310238 777.950586 441.551131C782.201533 437.924321 786.328908 435.09243 790.33271 433.055458 794.385941 431.018486 798.859325 430 803.752863 430 812.254772 430 818.754772 432.707687 823.252863 438.123061 827.750954 443.488738 830 451.288847 830 461.523386L830 516Z"/><path stroke="#000" stroke-width="10" d="M282.328318,427.190422 C280.879963,422.380752 277.983024,412.760721 276.157447,401.411296 C274.331892,390.061847 273.577906,376.983625 274.232651,366.568345 C274.887373,356.153065 276.950919,348.40151 279.188429,342.347593 C281.42594,336.293652 283.855942,331.90412 286.395928,329.10143 C288.935915,326.298717 291.594702,325.066428 293.876749,324.450317 C296.158772,323.83423 298.06355,323.83423 300.424843,324.54989 C302.786158,325.265619 305.603621,326.696664 308.837839,329.399988 C312.072056,332.103334 315.722935,336.078455 318.18324,339.397843 C320.643567,342.717231 321.913434,345.380565 322.548207,346.711921 C323.18298,348.043255 323.18298,348.043255 323.18298,348.043255 C323.18298,348.043255 323.18298,348.043255 323.579808,347.486727 C323.976636,346.930223 324.770314,345.817168 325.702857,344.724005 C326.6354,343.630818 327.706922,342.557478 329.790555,341.583457 C331.874187,340.609459 334.969471,339.734942 338.402355,339.794709 C341.835215,339.854499 345.605125,340.848273 348.978229,342.995161 C352.351357,345.14205 355.327588,348.441408 357.609221,353.072652 C359.890877,357.703896 361.478211,363.666611 361.894759,369.430641 C362.311306,375.19467 361.55732,380.759876 358.442064,387.259227 C355.326807,393.758601 349.850534,401.192097 341.596329,407.57226 C333.342101,413.952446 322.310147,419.279159 312.210576,423.174897 C302.110982,427.070658 292.944183,429.535237 288.360439,430.767619 C283.776696,432 283.776696,432 283.776696,432 C283.776696,432 283.776696,432 283.776696,432 C283.776696,432 283.776696,432 282.328318,427.19033 L282.328318,427.190422 Z"/><path stroke="#000" stroke-width="3" d="M282.328318,427.190422 C280.879963,422.380752 277.983024,412.760721 276.157447,401.411296 C274.331892,390.061847 273.577906,376.983625 274.232651,366.568345 C274.887373,356.153065 276.950919,348.40151 279.188429,342.347593 C281.42594,336.293652 283.855942,331.90412 286.395928,329.10143 C288.935915,326.298717 291.594702,325.066428 293.876749,324.450317 C296.158772,323.83423 298.06355,323.83423 300.424843,324.54989 C302.786158,325.265619 305.603621,326.696664 308.837839,329.399988 C312.072056,332.103334 315.722935,336.078455 318.18324,339.397843 C320.643567,342.717231 321.913434,345.380565 322.548207,346.711921 C323.18298,348.043255 323.18298,348.043255 323.18298,348.043255 C323.18298,348.043255 323.18298,348.043255 323.579808,347.486727 C323.976636,346.930223 324.770314,345.817168 325.702857,344.724005 C326.6354,343.630818 327.706922,342.557478 329.790555,341.583457 C331.874187,340.609459 334.969471,339.734942 338.402355,339.794709 C341.835215,339.854499 345.605125,340.848273 348.978229,342.995161 C352.351357,345.14205 355.327588,348.441408 357.609221,353.072652 C359.890877,357.703896 361.478211,363.666611 361.894759,369.430641 C362.311306,375.19467 361.55732,380.759876 358.442064,387.259227 C355.326807,393.758601 349.850534,401.192097 341.596329,407.57226 C333.342101,413.952446 322.310147,419.279159 312.210576,423.174897 C302.110982,427.070658 292.944183,429.535237 288.360439,430.767619 C283.776696,432 283.776696,432 283.776696,432 C283.776696,432 283.776696,432 283.776696,432 C283.776696,432 283.776696,432 282.328318,427.19033 L282.328318,427.190422 Z"/><path stroke="#000" stroke-width="10" d="M206.190422 418.671682C201.380752 420.120037 191.760721 423.016976 180.411296 424.842553 169.061847 426.668108 155.983625 427.422094 145.568345 426.767349 135.153065 426.112627 127.40151 424.049081 121.347593 421.811571 115.293652 419.57406 110.90412 417.144058 108.10143 414.604072 105.298717 412.064085 104.066428 409.405298 103.450317 407.123251 102.83423 404.841228 102.83423 402.93645 103.54989 400.575157 104.265619 398.213842 105.696664 395.396379 108.399988 392.162161 111.103334 388.927944 115.078455 385.277065 118.397843 382.81676 121.717231 380.356433 124.380565 379.086566 125.711921 378.451793 127.043255 377.81702 127.043255 377.81702 127.043255 377.81702 127.043255 377.81702 127.043255 377.81702 126.486727 377.420192 125.930223 377.023364 124.817168 376.229686 123.724005 375.297143 122.630818 374.3646 121.557478 373.293078 120.583457 371.209445 119.609459 369.125813 118.734942 366.030529 118.794709 362.597645 118.854499 359.164785 119.848273 355.394875 121.995161 352.021771 124.14205 348.648643 127.441408 345.672412 132.072652 343.390779 136.703896 341.109123 142.666611 339.521789 148.430641 339.105241 154.19467 338.688694 159.759876 339.44268 166.259227 342.557936 172.758601 345.673193 180.192097 351.149466 186.57226 359.403671 192.952446 367.657899 198.279159 378.689853 202.174897 388.789424 206.070658 398.889018 208.535237 408.055817 209.767619 412.639561 211 417.223304 211 417.223304 211 417.223304 211 417.223304 211 417.223304 211 417.223304 211 417.223304 211 417.223304 206.19033 418.671682L206.190422 418.671682ZM198.174762 503.658511C200.068924 508.317022 203.8575 517.634712 206.744252 528.778812 209.631003 539.922888 211.615678 552.892799 211.948337 563.3411 212.280973 573.789377 210.961479 581.71533 209.308684 587.96497 207.655912 594.214587 205.654547 598.822766 203.394024 601.859027 201.133502 604.895289 198.606554 606.376863 196.395965 607.208132 194.185375 608.039401 192.291695 608.220457 189.876512 607.731145 187.461352 607.241855 184.525126 606.082635 181.054421 603.694283 177.583694 601.305931 173.578671 597.688954 170.819206 594.612726 168.059718 591.536499 166.545718 589.001344 165.788901 587.734066 165.032085 586.466788 165.032085 586.466788 165.032085 586.466788 165.032085 586.466788 165.032085 586.466788 164.690118 587.059482 164.348151 587.652153 163.664217 588.837518 162.840318 590.016249 162.016419 591.195003 161.052511 592.367192 159.072971 593.536502 157.093432 594.705834 154.098744 595.872103 150.680174 596.138781 147.261626 596.405459 143.419792 595.772776 139.86355 593.952539 136.307308 592.13228 133.036795 589.125066 130.331046 584.723673 127.625296 580.32228 125.484105 574.527192 124.525652 568.818901 123.567177 563.11061 123.791235 557.489369 126.2746 550.712132 128.757965 543.934895 133.500385 536.001732 141.104086 528.854897 148.707765 521.708061 159.172517 515.347714 168.84549 510.502941 178.518441 505.658168 187.399199 502.329199 191.839911 500.664611 196.2806 499 196.2806 499 196.2806 499 196.2806 499 196.2806 499 196.2806 499L198.174762 503.658511ZM273.923907 512.707836C278.84779 511.633694 288.696319 509.485295 300.19014 508.546598 311.683985 507.607924 324.8225 507.879137 335.187094 509.353312 345.551712 510.827488 353.141601 513.504626 359.020106 516.222849 364.898588 518.941073 369.097405 521.721572 371.700642 524.487691 374.303878 527.25381 375.327267 530.015704 375.764 532.351552 376.200734 534.6874 376.050996 536.596694 375.14957 538.907406 374.248145 541.218094 372.595493 543.929878 369.637693 546.959524 366.679894 549.989169 362.417454 553.336561 358.904372 555.542065 355.391313 557.747569 352.627934 558.811325 351.246591 559.343064 349.865248 559.874803 349.865248 559.874803 349.865248 559.874803 349.865248 559.874803 349.865248 559.874803 350.390611 560.316268 350.915973 560.757734 351.966721 561.640711 352.986673 562.661326 354.006625 563.681941 354.995826 564.840286 355.806085 567.005374 356.616343 569.170461 357.24759 572.341784 356.917941 575.778134 356.588269 579.21446 355.298047 582.915306 352.885817 586.127853 350.473588 589.3404 346.939998 592.064602 342.129012 593.988022 337.318049 595.911418 331.230105 597.034286 325.43287 597 319.635658 596.964117 314.129294 595.771311 307.874334 592.13828 301.619397 588.505249 294.61584 582.432201 288.884097 573.657363 283.152353 564.882503 278.692516 553.406015 275.590446 542.976478 272.488376 532.546941 270.744257 523.164794 269.872129 518.473386 269 513.781955 269 513.781955 269 513.781955 269 513.781955 269 513.781955 269 513.781955L273.923907 512.707836Z"/><path stroke="#000" stroke-width="3" d="M273.923907,512.707836 C278.84779,511.633694 288.696319,509.485295 300.19014,508.546598 C311.683985,507.607924 324.8225,507.879137 335.187094,509.353312 C345.551712,510.827488 353.141601,513.504626 359.020106,516.222849 C364.898588,518.941073 369.097405,521.721572 371.700642,524.487691 C374.303878,527.25381 375.327267,530.015704 375.764,532.351552 C376.200734,534.6874 376.050996,536.596694 375.14957,538.907406 C374.248145,541.218094 372.595493,543.929878 369.637693,546.959524 C366.679894,549.989169 362.417454,553.336561 358.904372,555.542065 C355.391313,557.747569 352.627934,558.811325 351.246591,559.343064 C349.865248,559.874803 349.865248,559.874803 349.865248,559.874803 C349.865248,559.874803 349.865248,559.874803 350.390611,560.316268 C350.915973,560.757734 351.966721,561.640711 352.986673,562.661326 C354.006625,563.681941 354.995826,564.840286 355.806085,567.005374 C356.616343,569.170461 357.24759,572.341784 356.917941,575.778134 C356.588269,579.21446 355.298047,582.915306 352.885817,586.127853 C350.473588,589.3404 346.939998,592.064602 342.129012,593.988022 C337.318049,595.911418 331.230105,597.034286 325.43287,597 C319.635658,596.964117 314.129294,595.771311 307.874334,592.13828 C301.619397,588.505249 294.61584,582.432201 288.884097,573.657363 C283.152353,564.882503 278.692516,553.406015 275.590446,542.976478 C272.488376,532.546941 270.744257,523.164794 269.872129,518.473386 C269,513.781955 269,513.781955 269,513.781955 C269,513.781955 269,513.781955 269,513.781955 L273.923907,512.707836 Z"/><path d="M273.923907,512.707836 C278.84779,511.633694 288.696319,509.485295 300.19014,508.546598 C311.683985,507.607924 324.8225,507.879137 335.187094,509.353312 C345.551712,510.827488 353.141601,513.504626 359.020106,516.222849 C364.898588,518.941073 369.097405,521.721572 371.700642,524.487691 C374.303878,527.25381 375.327267,530.015704 375.764,532.351552 C376.200734,534.6874 376.050996,536.596694 375.14957,538.907406 C374.248145,541.218094 372.595493,543.929878 369.637693,546.959524 C366.679894,549.989169 362.417454,553.336561 358.904372,555.542065 C355.391313,557.747569 352.627934,558.811325 351.246591,559.343064 C349.865248,559.874803 349.865248,559.874803 349.865248,559.874803 C349.865248,559.874803 349.865248,559.874803 350.390611,560.316268 C350.915973,560.757734 351.966721,561.640711 352.986673,562.661326 C354.006625,563.681941 354.995826,564.840286 355.806085,567.005374 C356.616343,569.170461 357.24759,572.341784 356.917941,575.778134 C356.588269,579.21446 355.298047,582.915306 352.885817,586.127853 C350.473588,589.3404 346.939998,592.064602 342.129012,593.988022 C337.318049,595.911418 331.230105,597.034286 325.43287,596.999201 C319.635658,596.964117 314.129294,595.771311 307.874334,592.13828 C301.619397,588.505249 294.61584,582.432201 288.884097,573.657363 C283.152353,564.882503 278.692516,553.406015 275.590446,542.976478 C272.488376,532.546941 270.744257,523.164794 269.872129,518.473386 C269,513.781955 269,513.781955 269,513.781955 L273.923907,512.707836 Z"/></g></svg>