<?xml version="1.0" encoding="UTF-8"?>
<svg width="932px" height="932px" viewBox="0 0 932 932" version="1.1" xmlns="http://www.w3.org/2000/svg" xmlns:xlink="http://www.w3.org/1999/xlink">
    <title>4chan</title>
    <g id="4chan" stroke="none" stroke-width="1" fill="none" fill-rule="evenodd">
        <g id="8chan" transform="translate(135.000000, 225.000000)" fill-rule="nonzero">
            <g id="#239623ff" fill="#239623">
                <path d="M429.159308,11.5886427 C470.105759,-4.48473634 517.283191,-3.81720803 557.737722,13.4624064 C584.067134,24.5761672 607.474308,42.4647548 625.183414,64.8855083 C637.996748,81.0525755 647.852709,99.5559918 654.066122,119.224655 C661.667451,143.173697 663.810815,168.803271 660.478645,193.69505 C655.547737,231.433822 637.36428,267.199286 609.963187,293.590076 C595.527689,307.567182 578.620881,318.991285 560.24417,327.118735 C538.219055,336.891584 514.097426,341.845346 490.010934,341.65797 C468.764692,341.535004 447.39547,337.922154 427.71283,329.771282 C418.793859,326.123298 410.448794,321.263223 401.986606,316.690069 C363.845268,295.545817 326.312973,273.324151 288.435164,251.711458 C267.762828,239.842336 246.87967,228.283556 225.258632,218.212077 C214.090885,213.024094 202.75331,208.134741 191.029226,204.346225 C185.389719,202.595428 179.644801,200.979306 173.735909,200.563565 C153.274396,199.667672 132.766034,207.004628 117.089024,220.08584 C101.154343,233.231464 89.9748844,251.933967 85.7584306,272.141338 C81.547833,291.903689 84.0659929,313.059652 93.0493819,331.18246 C101.95664,349.38139 117.159299,364.394921 135.465735,373.096211 C155.335774,382.658261 178.731236,384.485181 199.889635,378.301761 C224.959966,371.146326 246.358469,352.525799 257.10457,328.793411 C257.87173,339.854472 256.987446,351.27272 252.700718,361.601842 C249.140157,370.355832 243.131711,377.991419 235.858328,383.969896 C229.088577,389.561909 221.334987,393.836433 213.294444,397.308751 C224.497328,395.183201 235.448395,391.464951 245.386342,385.831949 C262.316575,376.46313 274.907375,361.437888 289.723525,349.32869 C296.791941,343.543445 304.486969,338.572115 312.340114,333.928695 C320.778878,329.092042 329.528019,324.606721 338.915485,321.936607 C332.333132,358.750208 313.054569,393.069361 285.249399,418.054828 C270.46253,431.399539 253.333186,442.150258 234.862776,449.616035 C193.769921,466.368654 146.112281,466.111011 105.206824,448.925085 C71.1296786,434.819158 41.9600173,409.289128 23.3607713,377.452712 C11.5019951,357.268764 3.8948098,334.602079 1.18339579,311.355698 C-2.24247288,282.376772 1.78658292,252.513663 13.0538843,225.57831 C25.9843425,194.362578 48.4720958,167.233994 76.6637741,148.625178 C94.2030505,137.001988 113.914972,128.652028 134.481896,124.225262 C154.843854,119.763362 175.990541,119.253932 196.610171,122.111422 C211.350191,124.190129 225.855963,128.201154 239.383752,134.45484 C247.494569,138.278489 255.27744,142.7521 263.148154,147.032479 C304.486969,170.05635 345.164035,194.251324 386.35059,217.550404 C405.845832,228.535343 425.663165,239.016709 446.148103,248.045908 C457.216294,252.81815 468.436746,257.426437 480.195967,260.196094 C489.208637,262.403622 498.648808,261.572139 507.67319,259.868185 C526.073326,256.185069 542.939141,245.973057 555.242987,231.872985 C568.126596,217.222495 576.178851,198.414592 577.865433,178.98015 C579.475884,161.273083 575.774775,143.109286 567.230599,127.504348 C557.567893,109.662605 541.738623,95.2463354 523.051534,87.3296838 C502.390911,78.4527284 478.398118,77.738356 457.216294,85.2802548 C434.236621,93.3081611 414.934632,111.062072 404.89713,133.225183 C404.124114,122.216821 404.996685,110.86884 409.230708,100.574851 C412.7737,91.7915836 418.758722,84.1091525 426.055529,78.1131088 C432.813568,72.5093843 440.561301,68.2172943 448.601844,64.7508315 C437.117864,66.8705267 425.914981,70.7820084 415.795492,76.6433754 C400.463997,85.3446654 388.652071,98.6659541 375.417091,110.049068 C366.913909,117.427013 357.444457,123.604578 347.693908,129.196591 C339.858331,133.564803 331.75337,137.634383 323.086215,140.058565 C329.709561,103.004888 349.198947,68.4749368 377.308639,43.4543362 C392.499585,29.851983 410.150129,18.9841537 429.159308,11.5886427 Z" id="Path"></path>
            </g>
            <g id="#000000ff" transform="translate(322.000000, 356.000000)" fill="#000000">
                <path d="M92.8906403,0.00884144996 C98.2192704,-0.00294714999 103.553756,-0.00294714999 108.882386,0.00884144996 C108.882386,17.5974326 108.905809,35.1860237 108.870675,52.7746148 C111.523279,47.7231997 115.528535,43.0549142 121.021122,41.1097952 C126.578122,39.1528876 132.796809,39.6362202 138.289397,41.5931278 C146.604402,44.6935296 152.342927,52.5683143 154.749594,60.932326 C156.933747,68.123372 156.225214,75.7152303 156.342327,83.1184711 C156.336472,96.7048325 156.348183,110.291194 156.336472,123.877555 C151.031264,123.88345 145.726057,123.88345 140.426705,123.877555 C140.409138,106.95502 140.420849,90.032485 140.420849,73.1099497 C140.520395,68.418087 139.062341,63.5965496 135.859308,60.1189126 C132.398626,56.4408694 126.964594,55.6510332 122.174683,56.1107886 C116.17851,56.7120072 111.330043,61.3743985 108.946798,66.7146343 C108.806263,85.7650118 108.929231,104.827178 108.882386,123.877555 C103.553756,123.88345 98.225126,123.88345 92.896496,123.877555 C92.8847847,82.5879841 92.8906403,41.2984128 92.8906403,0.00884144996 L92.8906403,0.00884144996 Z" id="Path"></path>
                <path d="M20.8780116,44.1453597 C30.5632359,37.9150846 42.7722399,36.3589894 53.9038066,38.8110182 C62.3886251,40.6971942 70.1297778,45.4656829 75.9444257,51.9317299 C78.5326174,54.9024571 80.880728,58.0794848 83.2171274,61.2565125 C77.9119199,63.2075258 72.612568,65.176222 67.3015049,67.1272353 C65.0060951,64.3451257 62.7575303,61.4451301 59.7945778,59.340865 C53.2011301,54.3483929 44.2947056,53.0693298 36.4013064,55.1500177 C29.7902918,56.9359906 24.1161791,61.521756 20.4388388,67.2745928 C16.4218716,73.5638108 15.479114,81.5505873 17.2006714,88.7593162 C18.869528,95.6202813 23.5189041,101.514581 29.3569746,105.316405 C37.1039829,110.291194 47.4099047,110.692006 55.672209,106.778191 C60.4738317,104.5973 64.0926156,100.642225 67.3015049,96.557475 C72.612568,98.4377567 77.9060642,100.371087 83.2171274,102.269052 C79.4695194,107.397093 75.8097461,112.743223 70.7387641,116.657038 C56.1172375,128.72267 33.338808,129.129377 18.2371192,117.718012 C10.3144418,111.788346 4.02548721,103.37718 1.50756313,93.6928453 C-0.571188147,85.6824916 -0.506776136,77.0886022 1.74178862,69.125403 C4.71059678,58.7632236 11.9305977,49.9276679 20.8780116,44.1453597 L20.8780116,44.1453597 Z" id="Path"></path>
                <path d="M203.77299,38.4691488 C210.834889,37.3256546 218.28326,37.6911012 224.923552,40.5380481 C229.918411,42.6069474 234.315995,45.919544 238.098737,49.7685218 C238.087025,47.9118173 238.092881,46.0610072 238.098737,44.2160913 C243.427367,44.2043027 248.755997,44.2043027 254.090482,44.2160913 C254.096338,70.7934899 254.096338,97.3767827 254.090482,123.954181 C248.755997,123.960076 243.427367,123.96597 238.098737,123.954181 C238.087025,120.629796 238.092881,117.311305 238.098737,113.992814 C231.909328,120.500122 223.565044,125.168407 214.535652,125.834463 C204.381976,126.641982 193.888674,123.912921 185.714204,117.712118 C177.973052,111.918021 171.807066,103.742627 169.218874,94.3117468 C165.717203,81.4916443 167.696408,66.9209348 175.736198,56.1815202 C182.429192,47.0276724 192.500888,40.1667072 203.77299,38.4691488 M208.545335,54.4839618 C195.176914,55.4683099 183.711576,67.8168684 183.887245,81.3619697 C183.307537,93.215407 191.593264,104.520674 202.683842,108.157457 C207.748968,109.784284 213.270834,109.890382 218.423795,108.605424 C225.105077,106.907866 230.884591,102.357466 234.597065,96.5692636 C236.75194,93.097521 238.420797,89.0717141 238.104592,84.8985497 C237.858655,80.8550599 238.731145,76.6406354 237.237958,72.7680803 C235.176773,66.7146343 230.808468,61.5748047 225.438848,58.2150537 C220.432278,55.0851804 214.377549,53.9416862 208.545335,54.4839618 Z" id="Shape"></path>
                <path d="M294.834007,42.3122324 C300.730634,39.2884565 307.798388,39.317928 314.087343,40.9978035 C321.922186,43.1374344 327.900792,49.6270586 330.998424,56.9890393 C333.323112,62.4176896 334.096056,68.3886155 333.990655,74.2711268 C333.990655,90.798744 333.978943,107.326361 333.99651,123.853978 C328.685447,123.912921 323.374384,123.871661 318.069176,123.871661 C318.057465,106.760508 318.086743,89.6493555 318.057465,72.5382026 C318.133588,67.1390239 315.158925,62.0345601 310.80233,59.0048899 C304.419686,54.3542872 294.804729,55.1618063 289.288719,60.8262286 C287.906788,62.3587466 286.167664,63.9030532 285.705069,65.9837411 C285.664079,85.2816792 285.705069,104.579617 285.687502,123.877555 C280.353016,123.88345 275.024386,123.88345 269.695756,123.877555 C269.6899,97.323734 269.6899,70.7699127 269.695756,44.2160913 C275.024386,44.2043027 280.353016,44.2043027 285.687502,44.2160913 C285.687502,47.2929159 285.705069,50.3756347 285.669935,53.4583536 C287.397348,48.8784825 290.407145,44.5815379 294.834007,42.3122324 L294.834007,42.3122324 Z" id="Path"></path>
            </g>
        </g>
    </g>
</svg>