<svg xmlns="http://www.w3.org/2000/svg" width="932" height="932" viewBox="0 0 932 932"><g fill="none" fill-rule="evenodd"><path stroke="#979797" d="M495 489.904214 480.135581 489.904214 480.135581 516 453.438788 516 453.438788 489.904214 405 489.904214 405 469.235762 452.551351 405 480.135581 405 480.135581 469.979245 495 469.979245 495 489.904214ZM453.438788 469.979245 453.438788 432.285339 425.558753 469.979245 453.438788 469.979245ZM546.030094 518C539.145219 518 532.829962 517.132889 527.084324 515.398666 521.388216 513.664423 516.435069 510.98874 512.224882 507.371619 508.064242 503.754499 504.819927 499.220712 502.491938 493.77026 500.163979 488.270261 499 481.804051 499 474.37163 499 466.394139 500.263048 459.60585 502.789145 454.006762 505.315257 448.407655 508.732929 443.799541 513.042162 440.182421 517.202787 436.713954 522.081638 434.162153 527.678715 432.527018 533.325292 430.842339 539.194765 430 545.287134 430 549.89355 430 554.499975 430.545041 559.106407 431.635124 563.712839 432.675681 568.344037 434.360369 573 436.68919L573 458.986482 569.656631 458.986482C568.616471 457.995488 567.32865 456.905395 565.793167 455.716204 564.307231 454.52703 562.672695 453.436947 560.889559 452.445954 559.007361 451.405416 556.877503 450.538294 554.499983 449.84459 552.122478 449.101359 549.472547 448.729744 546.55019 448.729744 539.912968 448.729744 534.761698 451.058564 531.09638 455.716204 527.480577 460.324318 525.672676 466.542794 525.672676 474.37163 525.672676 482.7455 527.604404 488.988738 531.46786 493.101346 535.380847 497.213973 540.556882 499.270286 546.995966 499.270286 550.265038 499.270286 553.137865 498.898661 555.614447 498.15541 558.091028 497.412162 560.220886 496.520268 562.004023 495.47973 563.737613 494.439191 565.223549 493.373881 566.461832 492.283798 567.700115 491.14415 568.765048 490.128384 569.656631 489.236499L573 489.236499 573 511.533791C571.514048 512.177933 569.780451 512.921173 567.799207 513.763512 565.867463 514.605852 563.886197 515.299547 561.855407 515.844598 559.329311 516.538284 556.951806 517.058553 554.722894 517.405405 552.543497 517.801802 549.645897 518 546.030094 518L546.030094 518ZM656 515 629.901165 515 629.901165 473.833549C629.901165 470.483071 629.752871 467.157236 629.456282 463.856043 629.209137 460.505564 628.714841 458.041976 627.973392 456.465281 627.083671 454.592963 625.798496 453.26263 624.117867 452.474282 622.437269 451.636668 620.188222 451.217861 617.370728 451.217861 615.245254 451.217861 613.095066 451.612035 610.920163 452.400383 608.745245 453.188731 606.422047 454.445153 603.950571 456.169651L603.950571 515 578 515 578 400 603.950571 400 603.950571 441.166453C608.201519 437.569619 612.328902 434.761134 616.332721 432.740998 620.385953 430.720861 624.859332 429.710793 629.752855 429.710793 638.254767 429.710793 644.754769 432.396101 649.252861 437.766717 653.750954 443.088046 656 450.823686 656 460.973637L656 515ZM714.173158 494.013498 714.173158 476.636283C709.76974 477.081849 706.207413 477.477912 703.486176 477.824472 700.76497 478.121509 698.093232 478.740355 695.470963 479.681009 693.19504 480.473134 691.413884 481.686074 690.127495 483.319829 688.890566 484.90408 688.272102 487.032913 688.272102 489.706329 688.272102 493.617434 689.311119 496.315609 691.389154 497.800853 693.516649 499.236577 696.63367 499.954439 700.740217 499.954439 703.01617 499.954439 705.341577 499.434609 707.716436 498.394948 710.091326 497.35527 712.243567 495.894786 714.173158 494.013498L714.173158 494.013498ZM714.173158 506.935031C712.391994 508.420258 710.784004 509.756965 709.349187 510.945154 707.963831 512.133342 706.083715 513.32153 703.708841 514.509719 701.383442 515.648385 699.107519 516.514766 696.881073 517.108861 694.704086 517.702954 691.636526 518 687.678391 518 680.306372 518 674.171267 515.524617 669.273075 510.573852 664.424358 505.623066 662 499.385087 662 491.859912 662 485.671454 663.236913 480.671175 665.71074 476.859076 668.184581 473.046976 671.746901 470.027002 676.397698 467.799154 681.098002 465.521802 686.713611 463.937551 693.244524 463.046399 699.775452 462.155267 706.801139 461.462167 714.321586 460.967099L714.321586 460.521513C714.321586 455.917287 712.614636 452.748795 709.200736 451.016035 705.836344 449.233751 700.764986 448.34261 693.986662 448.34261 690.91911 448.34261 687.332052 448.911952 683.22549 450.050637 679.118943 451.139802 675.111332 452.550774 671.202658 454.283553L668.976219 454.283553 668.976219 434.158632C671.549013 433.416029 675.705051 432.549649 681.444334 431.559491 687.183617 430.51983 692.972391 430 698.810656 430 713.158886 430 723.598458 432.401119 730.129371 437.203358 736.70979 441.956112 740 449.233752 740 459.036278L740 515.772161 714.173158 515.772161 714.173158 506.935031ZM830 516 803.90115 516 803.90115 474.490471C803.90115 471.112071 803.752863 467.758518 803.45629 464.429814 803.209145 461.051412 802.714849 458.567293 801.9734 456.977457 801.083664 455.089536 799.79849 453.748116 798.117877 452.953198 796.437263 452.108604 794.188218 451.686306 791.37074 451.686306 789.245266 451.686306 787.095079 452.083765 784.920176 452.878683 782.745259 453.673601 780.422062 454.940494 777.950586 456.679364L777.950586 516 752 516 752 432.310238 777.950586 432.310238 777.950586 441.551131C782.201533 437.924321 786.328908 435.09243 790.33271 433.055458 794.385941 431.018486 798.859325 430 803.752863 430 812.254772 430 818.754772 432.707687 823.252863 438.123061 827.750954 443.488738 830 451.288847 830 461.523386L830 516Z"/><path stroke="#000" stroke-width="10" d="M300.19014,508.546598 C311.683985,507.607924 324.8225,507.879137 335.187094,509.353312 C345.551712,510.827488 353.141601,513.504626 359.020106,516.222849 C364.898588,518.941073 375.327267,530.015704 375.764,532.351552 C376.200734,534.6874 372.595493,543.929878 369.637693,546.959524 C366.679894,549.989169 362.417454,553.336561 358.904372,555.542065 C355.391313,557.747569 349.865248,559.874803 349.865248,559.874803 C349.865248,559.874803 357.24759,572.341784 356.917941,575.778134 C356.588269,579.21446 355.298047,582.915306 352.885817,586.127853 C350.473588,589.3404 346.939998,592.064602 342.129012,593.988022 C337.318049,595.911418 331.230105,597.034286 325.43287,596.999201 C319.635658,596.964117 314.129294,595.771311 307.874334,592.13828 C301.619397,588.505249 294.61584,582.432201 288.884097,573.657363 C283.152353,564.882503 278.692516,553.406015 275.590446,542.976478 C272.488376,532.546941 269,513.781955 269,513.781955 C282.130879,510.917515 292.527593,509.172396 300.19014,508.546598 Z"/><path stroke="#000" stroke-width="10" d="M146.19014,518.546598 C157.683985,517.607924 170.8225,517.879137 181.187094,519.353312 C191.551712,520.827488 199.141601,523.504626 205.020106,526.222849 C210.898588,528.941073 221.327267,540.015704 221.764,542.351552 C222.200734,544.6874 218.595493,553.929878 215.637693,556.959524 C212.679894,559.989169 208.417454,563.336561 204.904372,565.542065 C201.391313,567.747569 195.865248,569.874803 195.865248,569.874803 C195.865248,569.874803 203.24759,582.341784 202.917941,585.778134 C202.588269,589.21446 201.298047,592.915306 198.885817,596.127853 C196.473588,599.3404 192.939998,602.064602 188.129012,603.988022 C183.318049,605.911418 177.230105,607.034286 171.43287,606.999201 C165.635658,606.964117 160.129294,605.771311 153.874334,602.13828 C147.619397,598.505249 140.61584,592.432201 134.884097,583.657363 C129.152353,574.882503 124.692516,563.406015 121.590446,552.976478 C118.488376,542.546941 115,523.781955 115,523.781955 C128.130879,520.917515 138.527593,519.172396 146.19014,518.546598 Z" transform="rotate(75 168.4 562.5)"/><g fill-rule="nonzero" stroke="#000" stroke-width="10" transform="rotate(-180 186.4 217.8)"><path d="M188.595083,9.14428304 C200.088927,8.20560903 213.227442,8.47682205 223.592037,9.95099748 C233.956654,11.4251729 241.546544,14.1023108 247.425049,16.8205345 C253.303531,19.5387583 263.73221,30.6133896 264.168943,32.9492377 C264.605676,35.2850857 261.000435,44.5275635 258.042636,47.557209 C255.084836,50.5868545 250.822396,53.9342463 247.309314,56.1397505 C243.796255,58.3452547 238.270191,60.472488 238.270191,60.472488 C238.270191,60.472488 245.652533,72.9394693 245.322884,76.3758189 C244.993211,79.8121455 243.702989,83.5129913 241.29076,86.7255382 C238.878531,89.9380852 235.344941,92.6622872 230.533954,94.5857068 C225.722991,96.5091033 219.635047,97.6319713 213.837812,97.5968868 C208.0406,97.5618022 202.534237,96.3689958 196.279276,92.7359648 C190.024339,89.1029338 183.020782,83.0298859 177.289039,74.2550486 C171.557296,65.4801882 167.097458,54.0036999 163.995388,43.5741632 C160.893318,33.1446264 157.404942,14.3796405 157.404942,14.3796405 C170.535822,11.5152003 180.932535,9.77008109 188.595083,9.14428304 Z"/><path d="M34.5950827,19.144283 C46.0889273,18.205609 59.2274422,18.476822 69.5920366,19.9509975 C79.956654,21.4251729 87.5465436,24.1023108 93.4250487,26.8205345 C99.3035308,29.5387583 109.73221,40.6133896 110.168943,42.9492377 C110.605676,45.2850857 107.000435,54.5275635 104.042636,57.557209 C101.084836,60.5868545 96.822396,63.9342463 93.309314,66.1397505 C89.796255,68.3452547 84.2701907,70.472488 84.2701907,70.472488 C84.2701907,70.472488 91.6525327,82.9394693 91.3228836,86.3758189 C90.9932113,89.8121455 89.7029889,93.5129913 87.2907598,96.7255382 C84.8785307,99.9380852 81.3449407,102.662287 76.5339544,104.585707 C71.7229912,106.509103 65.6350469,107.631971 59.8378122,107.596887 C54.0406005,107.561802 48.5342367,106.368996 42.2792764,102.735965 C36.0243391,99.1029338 29.0207821,93.0298859 23.2890389,84.2550486 C17.5572956,75.4801882 13.0974584,64.0036999 9.9953882,53.5741632 C6.893318,43.1446264 3.40494233,24.3796405 3.40494233,24.3796405 C16.5358215,21.5152003 26.932535,19.7700811 34.5950827,19.144283 Z" transform="rotate(75 56.805 63.098)"/></g></g></svg>