<svg xmlns="http://www.w3.org/2000/svg" width="932" height="932" viewBox="0 0 932 932"><defs><linearGradient id="a" x1="-100.851%" x2="-100.851%" y1="30.477%" y2="85.246%"><stop offset="0%" stop-color="#8EBF6A"/><stop offset="64.179%" stop-color="#48982F"/><stop offset="65.041%" stop-color="#0F730D"/><stop offset="100%" stop-color="#0B6E09"/></linearGradient><linearGradient id="b" x1="34.356%" x2="34.356%" y1=".461%" y2="108.477%"><stop offset="0%" stop-color="#8EBF6A"/><stop offset="64.179%" stop-color="#48982F"/><stop offset="65.041%" stop-color="#0F730D"/><stop offset="100%" stop-color="#0B6E09"/></linearGradient><linearGradient id="c" x1="19.309%" x2="19.309%" y1="11.556%" y2="86.081%"><stop offset="0%" stop-color="#8EBF6A"/><stop offset="64.179%" stop-color="#48982F"/><stop offset="65.041%" stop-color="#0F730D"/><stop offset="100%" stop-color="#0B6E09"/></linearGradient><linearGradient id="d" x1="-88.719%" x2="-88.719%" y1="7.984%" y2="99.442%"><stop offset="0%" stop-color="#8EBF6A"/><stop offset="64.179%" stop-color="#48982F"/><stop offset="65.041%" stop-color="#0F730D"/><stop offset="100%" stop-color="#0B6E09"/></linearGradient></defs><g fill="none" transform="translate(103 324)"><path fill="#A10000" d="M392 165.904214 377.135581 165.904214 377.135581 192 350.438788 192 350.438788 165.904214 302 165.904214 302 145.235762 349.551351 81 377.135581 81 377.135581 145.979245 392 145.979245 392 165.904214ZM350.438788 145.979245 350.438788 108.285339 322.558753 145.979245 350.438788 145.979245ZM443.030094 194C436.145219 194 429.829962 193.132889 424.084324 191.398666 418.388216 189.664423 413.435069 186.98874 409.224882 183.371619 405.064242 179.754499 401.819927 175.220712 399.491938 169.77026 397.163979 164.270261 396 157.804051 396 150.37163 396 142.394139 397.263048 135.60585 399.789145 130.006762 402.315257 124.407655 405.732929 119.799541 410.042162 116.182421 414.202787 112.713954 419.081638 110.162153 424.678715 108.527018 430.325292 106.842339 436.194765 106 442.287134 106 446.89355 106 451.499975 106.545041 456.106407 107.635124 460.712839 108.675681 465.344037 110.360369 470 112.68919L470 134.986482 466.656631 134.986482C465.616471 133.995488 464.32865 132.905395 462.793167 131.716204 461.307231 130.52703 459.672695 129.436947 457.889559 128.445954 456.007361 127.405416 453.877503 126.538294 451.499983 125.84459 449.122478 125.101359 446.472547 124.729744 443.55019 124.729744 436.912968 124.729744 431.761698 127.058564 428.09638 131.716204 424.480577 136.324318 422.672676 142.542794 422.672676 150.37163 422.672676 158.7455 424.604404 164.988738 428.46786 169.101346 432.380847 173.213973 437.556882 175.270286 443.995966 175.270286 447.265038 175.270286 450.137865 174.898661 452.614447 174.15541 455.091028 173.412162 457.220886 172.520268 459.004023 171.47973 460.737613 170.439191 462.223549 169.373881 463.461832 168.283798 464.700115 167.14415 465.765048 166.128384 466.656631 165.236499L470 165.236499 470 187.533791C468.514048 188.177933 466.780451 188.921173 464.799207 189.763512 462.867463 190.605852 460.886197 191.299547 458.855407 191.844598 456.329311 192.538284 453.951806 193.058553 451.722894 193.405405 449.543497 193.801802 446.645897 194 443.030094 194L443.030094 194ZM553 191 526.901165 191 526.901165 149.833549C526.901165 146.483071 526.752871 143.157236 526.456282 139.856043 526.209137 136.505564 525.714841 134.041976 524.973392 132.465281 524.083671 130.592963 522.798496 129.26263 521.117867 128.474282 519.437269 127.636668 517.188222 127.217861 514.370728 127.217861 512.245254 127.217861 510.095066 127.612035 507.920163 128.400383 505.745245 129.188731 503.422047 130.445153 500.950571 132.169651L500.950571 191 475 191 475 76 500.950571 76 500.950571 117.166453C505.201519 113.569619 509.328902 110.761134 513.332721 108.740998 517.385953 106.720861 521.859332 105.710793 526.752855 105.710793 535.254767 105.710793 541.754769 108.396101 546.252861 113.766717 550.750954 119.088046 553 126.823686 553 136.973637L553 191ZM611.173158 170.013498 611.173158 152.636283C606.76974 153.081849 603.207413 153.477912 600.486176 153.824472 597.76497 154.121509 595.093232 154.740355 592.470963 155.681009 590.19504 156.473134 588.413884 157.686074 587.127495 159.319829 585.890566 160.90408 585.272102 163.032913 585.272102 165.706329 585.272102 169.617434 586.311119 172.315609 588.389154 173.800853 590.516649 175.236577 593.63367 175.954439 597.740217 175.954439 600.01617 175.954439 602.341577 175.434609 604.716436 174.394948 607.091326 173.35527 609.243567 171.894786 611.173158 170.013498L611.173158 170.013498ZM611.173158 182.935031C609.391994 184.420258 607.784004 185.756965 606.349187 186.945154 604.963831 188.133342 603.083715 189.32153 600.708841 190.509719 598.383442 191.648385 596.107519 192.514766 593.881073 193.108861 591.704086 193.702954 588.636526 194 584.678391 194 577.306372 194 571.171267 191.524617 566.273075 186.573852 561.424358 181.623066 559 175.385087 559 167.859912 559 161.671454 560.236913 156.671175 562.71074 152.859076 565.184581 149.046976 568.746901 146.027002 573.397698 143.799154 578.098002 141.521802 583.713611 139.937551 590.244524 139.046399 596.775452 138.155267 603.801139 137.462167 611.321586 136.967099L611.321586 136.521513C611.321586 131.917287 609.614636 128.748795 606.200736 127.016035 602.836344 125.233751 597.764986 124.34261 590.986662 124.34261 587.91911 124.34261 584.332052 124.911952 580.22549 126.050637 576.118943 127.139802 572.111332 128.550774 568.202658 130.283553L565.976219 130.283553 565.976219 110.158632C568.549013 109.416029 572.705051 108.549649 578.444334 107.559491 584.183617 106.51983 589.972391 106 595.810656 106 610.158886 106 620.598458 108.401119 627.129371 113.203358 633.70979 117.956112 637 125.233752 637 135.036278L637 191.772161 611.173158 191.772161 611.173158 182.935031ZM727 192 700.90115 192 700.90115 150.490471C700.90115 147.112071 700.752863 143.758518 700.45629 140.429814 700.209145 137.051412 699.714849 134.567293 698.9734 132.977457 698.083664 131.089536 696.79849 129.748116 695.117877 128.953198 693.437263 128.108604 691.188218 127.686306 688.37074 127.686306 686.245266 127.686306 684.095079 128.083765 681.920176 128.878683 679.745259 129.673601 677.422062 130.940494 674.950586 132.679364L674.950586 192 649 192 649 108.310238 674.950586 108.310238 674.950586 117.551131C679.201533 113.924321 683.328908 111.09243 687.33271 109.055458 691.385941 107.018486 695.859325 106 700.752863 106 709.254772 106 715.754772 108.707687 720.252863 114.123061 724.750954 119.488738 727 127.288847 727 137.523386L727 192Z"/><path fill="url(#a)" stroke="#036106" stroke-width="10" d="M179.328318,103.190422 C177.879963,98.3807515 174.983024,88.7607212 173.157447,77.4112958 C171.331892,66.0618474 170.577906,52.9836249 171.232651,42.5683451 C171.887373,32.1530653 173.950919,24.4015102 176.188429,18.3475926 C178.42594,12.293652 180.855942,7.90411966 183.395928,5.10142986 C185.935915,2.29871706 188.594702,1.06642764 190.876749,0.450317418 C193.158772,-0.165769805 195.06355,-0.165769805 197.424843,0.549890322 C199.786158,1.26561944 202.603621,2.69666374 205.837839,5.3999876 C209.072056,8.10333446 212.722935,12.078455 215.18324,15.397843 C217.643567,18.7172311 218.913434,21.3805649 219.548207,22.7119213 C220.18298,24.0432547 220.18298,24.0432547 220.18298,24.0432547 C220.18298,24.0432547 220.18298,24.0432547 220.579808,23.4867273 C220.976636,22.9302228 221.770314,21.8171679 222.702857,20.7240046 C223.6354,19.6308183 224.706922,18.5574776 226.790555,17.5834568 C228.874187,16.609459 231.969471,15.7349422 235.402355,15.7947089 C238.835215,15.8544986 242.605125,16.848273 245.978229,18.9951614 C249.351357,21.1420498 252.327588,24.4414083 254.609221,29.0726522 C256.890877,33.703896 258.478211,39.6666113 258.894759,45.4306407 C259.311306,51.19467 258.55732,56.7598755 255.442064,63.2592266 C252.326807,69.7586007 246.850534,77.1920975 238.596329,83.57226 C230.342101,89.9524456 219.310147,95.2791591 209.210576,99.1748972 C199.110982,103.070658 189.944183,105.535237 185.360439,106.767619 C180.776696,108 180.776696,108 180.776696,108 C180.776696,108 180.776696,108 180.776696,108 C180.776696,108 180.776696,108 179.328318,103.19033 L179.328318,103.190422 Z"/><path fill="url(#a)" stroke="#97C580" stroke-width="3" d="M179.328318,103.190422 C177.879963,98.3807515 174.983024,88.7607212 173.157447,77.4112958 C171.331892,66.0618474 170.577906,52.9836249 171.232651,42.5683451 C171.887373,32.1530653 173.950919,24.4015102 176.188429,18.3475926 C178.42594,12.293652 180.855942,7.90411966 183.395928,5.10142986 C185.935915,2.29871706 188.594702,1.06642764 190.876749,0.450317418 C193.158772,-0.165769805 195.06355,-0.165769805 197.424843,0.549890322 C199.786158,1.26561944 202.603621,2.69666374 205.837839,5.3999876 C209.072056,8.10333446 212.722935,12.078455 215.18324,15.397843 C217.643567,18.7172311 218.913434,21.3805649 219.548207,22.7119213 C220.18298,24.0432547 220.18298,24.0432547 220.18298,24.0432547 C220.18298,24.0432547 220.18298,24.0432547 220.579808,23.4867273 C220.976636,22.9302228 221.770314,21.8171679 222.702857,20.7240046 C223.6354,19.6308183 224.706922,18.5574776 226.790555,17.5834568 C228.874187,16.609459 231.969471,15.7349422 235.402355,15.7947089 C238.835215,15.8544986 242.605125,16.848273 245.978229,18.9951614 C249.351357,21.1420498 252.327588,24.4414083 254.609221,29.0726522 C256.890877,33.703896 258.478211,39.6666113 258.894759,45.4306407 C259.311306,51.19467 258.55732,56.7598755 255.442064,63.2592266 C252.326807,69.7586007 246.850534,77.1920975 238.596329,83.57226 C230.342101,89.9524456 219.310147,95.2791591 209.210576,99.1748972 C199.110982,103.070658 189.944183,105.535237 185.360439,106.767619 C180.776696,108 180.776696,108 180.776696,108 C180.776696,108 180.776696,108 180.776696,108 C180.776696,108 180.776696,108 179.328318,103.19033 L179.328318,103.190422 Z"/><path fill="url(#a)" d="M179.328318,103.190422 C177.879963,98.3807515 174.983024,88.7607212 173.157447,77.4112958 C171.331892,66.0618474 170.577906,52.9836249 171.232651,42.5683451 C171.887373,32.1530653 173.950919,24.4015102 176.188429,18.3475926 C178.42594,12.293652 180.855942,7.90411966 183.395928,5.10142986 C185.935915,2.29871706 188.594702,1.06642764 190.876749,0.450317418 C193.158772,-0.165769805 195.06355,-0.165769805 197.424843,0.549890322 C199.786158,1.26561944 202.603621,2.69666374 205.837839,5.3999876 C209.072056,8.10333446 212.722935,12.078455 215.18324,15.397843 C217.643567,18.7172311 218.913434,21.3805649 219.548207,22.7119213 C220.18298,24.0432547 220.18298,24.0432547 220.18298,24.0432547 C220.18298,24.0432547 220.18298,24.0432547 220.579808,23.4867273 C220.976636,22.9302228 221.770314,21.8171679 222.702857,20.7240046 C223.6354,19.6308183 224.706922,18.5574776 226.790555,17.5834568 C228.874187,16.609459 231.969471,15.7349422 235.402355,15.7947089 C238.835215,15.8544986 242.605125,16.848273 245.978229,18.9951614 C249.351357,21.1420498 252.327588,24.4414083 254.609221,29.0726522 C256.890877,33.703896 258.478211,39.6666113 258.894759,45.4306407 C259.311306,51.19467 258.55732,56.7598755 255.442064,63.2592266 C252.326807,69.7586007 246.850534,77.1920975 238.596329,83.57226 C230.342101,89.9524456 219.310147,95.2791591 209.210576,99.1748972 C199.110982,103.070658 189.944183,105.535237 185.360439,106.767619 C180.776696,108 180.776696,108 180.776696,108 C180.776696,108 180.776696,108 180.776696,108 C180.776696,108 180.776696,108 179.328318,103.19033 L179.328318,103.190422 Z"/><path fill="url(#b)" stroke="#036106" stroke-width="10" d="M103.190422,94.6716821 C98.3807515,96.1200368 88.7607212,99.0169757 77.4112958,100.842553 C66.0618474,102.668108 52.9836249,103.422094 42.5683451,102.767349 C32.1530653,102.112627 24.4015102,100.049081 18.3475926,97.8115707 C12.293652,95.57406 7.90411966,93.1440583 5.10142986,90.6040715 C2.29871706,88.0640848 1.06642764,85.4052976 0.450317418,83.1232511 C-0.165769805,80.8412276 -0.165769805,78.9364499 0.549890322,76.5751573 C1.26561944,74.2138417 2.69666374,71.3963785 5.3999876,68.1621613 C8.10333446,64.9279441 12.078455,61.2770646 15.397843,58.8167601 C18.7172311,56.3564328 21.3805649,55.0865656 22.7119213,54.4517928 C24.0432547,53.8170199 24.0432547,53.8170199 24.0432547,53.8170199 C24.0432547,53.8170199 24.0432547,53.8170199 23.4867273,53.4201922 C22.9302228,53.0233644 21.8171679,52.229686 20.7240046,51.2971431 C19.6308183,50.3646002 18.5574776,49.2930781 17.5834568,47.2094455 C16.609459,45.1258129 15.7349422,42.030529 15.7947089,38.5976454 C15.8544986,35.1647847 16.848273,31.3948753 18.9951614,28.0217706 C21.1420498,24.648643 24.4414083,21.672412 29.0726522,19.3907788 C33.703896,17.1091226 39.6666113,15.5217887 45.4306407,15.1052412 C51.19467,14.6886938 56.7598755,15.4426802 63.2592266,18.5579364 C69.7586007,21.6731925 77.1920975,27.1494658 83.57226,35.403671 C89.9524456,43.6578992 95.2791591,54.6898527 99.1748972,64.7894239 C103.070658,74.8890182 105.535237,84.055817 106.767619,88.6395607 C108,93.2233045 108,93.2233045 108,93.2233045 C108,93.2233045 108,93.2233045 108,93.2233045 C108,93.2233045 108,93.2233045 103.19033,94.6716821 L103.190422,94.6716821 Z"/><path fill="url(#b)" stroke="#97C580" stroke-width="3" d="M103.190422,94.6716821 C98.3807515,96.1200368 88.7607212,99.0169757 77.4112958,100.842553 C66.0618474,102.668108 52.9836249,103.422094 42.5683451,102.767349 C32.1530653,102.112627 24.4015102,100.049081 18.3475926,97.8115707 C12.293652,95.57406 7.90411966,93.1440583 5.10142986,90.6040715 C2.29871706,88.0640848 1.06642764,85.4052976 0.450317418,83.1232511 C-0.165769805,80.8412276 -0.165769805,78.9364499 0.549890322,76.5751573 C1.26561944,74.2138417 2.69666374,71.3963785 5.3999876,68.1621613 C8.10333446,64.9279441 12.078455,61.2770646 15.397843,58.8167601 C18.7172311,56.3564328 21.3805649,55.0865656 22.7119213,54.4517928 C24.0432547,53.8170199 24.0432547,53.8170199 24.0432547,53.8170199 C24.0432547,53.8170199 24.0432547,53.8170199 23.4867273,53.4201922 C22.9302228,53.0233644 21.8171679,52.229686 20.7240046,51.2971431 C19.6308183,50.3646002 18.5574776,49.2930781 17.5834568,47.2094455 C16.609459,45.1258129 15.7349422,42.030529 15.7947089,38.5976454 C15.8544986,35.1647847 16.848273,31.3948753 18.9951614,28.0217706 C21.1420498,24.648643 24.4414083,21.672412 29.0726522,19.3907788 C33.703896,17.1091226 39.6666113,15.5217887 45.4306407,15.1052412 C51.19467,14.6886938 56.7598755,15.4426802 63.2592266,18.5579364 C69.7586007,21.6731925 77.1920975,27.1494658 83.57226,35.403671 C89.9524456,43.6578992 95.2791591,54.6898527 99.1748972,64.7894239 C103.070658,74.8890182 105.535237,84.055817 106.767619,88.6395607 C108,93.2233045 108,93.2233045 108,93.2233045 C108,93.2233045 108,93.2233045 108,93.2233045 C108,93.2233045 108,93.2233045 103.19033,94.6716821 L103.190422,94.6716821 Z"/><path fill="url(#b)" d="M103.190422,94.6716821 C98.3807515,96.1200368 88.7607212,99.0169757 77.4112958,100.842553 C66.0618474,102.668108 52.9836249,103.422094 42.5683451,102.767349 C32.1530653,102.112627 24.4015102,100.049081 18.3475926,97.8115707 C12.293652,95.57406 7.90411966,93.1440583 5.10142986,90.6040715 C2.29871706,88.0640848 1.06642764,85.4052976 0.450317418,83.1232511 C-0.165769805,80.8412276 -0.165769805,78.9364499 0.549890322,76.5751573 C1.26561944,74.2138417 2.69666374,71.3963785 5.3999876,68.1621613 C8.10333446,64.9279441 12.078455,61.2770646 15.397843,58.8167601 C18.7172311,56.3564328 21.3805649,55.0865656 22.7119213,54.4517928 C24.0432547,53.8170199 24.0432547,53.8170199 24.0432547,53.8170199 C24.0432547,53.8170199 24.0432547,53.8170199 23.4867273,53.4201922 C22.9302228,53.0233644 21.8171679,52.229686 20.7240046,51.2971431 C19.6308183,50.3646002 18.5574776,49.2930781 17.5834568,47.2094455 C16.609459,45.1258129 15.7349422,42.030529 15.7947089,38.5976454 C15.8544986,35.1647847 16.848273,31.3948753 18.9951614,28.0217706 C21.1420498,24.648643 24.4414083,21.672412 29.0726522,19.3907788 C33.703896,17.1091226 39.6666113,15.5217887 45.4306407,15.1052412 C51.19467,14.6886938 56.7598755,15.4426802 63.2592266,18.5579364 C69.7586007,21.6731925 77.1920975,27.1494658 83.57226,35.403671 C89.9524456,43.6578992 95.2791591,54.6898527 99.1748972,64.7894239 C103.070658,74.8890182 105.535237,84.055817 106.767619,88.6395607 C108,93.2233045 108,93.2233045 108,93.2233045 C108,93.2233045 108,93.2233045 108,93.2233045 C108,93.2233045 108,93.2233045 103.19033,94.6716821 L103.190422,94.6716821 Z"/><path fill="url(#c)" stroke="#036106" stroke-width="10" d="M95.174762,179.658511 C97.0689241,184.317022 100.8575,193.634712 103.744252,204.778812 C106.631003,215.922888 108.615678,228.892799 108.948337,239.3411 C109.280973,249.789377 107.961479,257.71533 106.308684,263.96497 C104.655912,270.214587 102.654547,274.822766 100.394024,277.859027 C98.1335018,280.895289 95.6065539,282.376863 93.3959646,283.208132 C91.1853753,284.039401 89.2916947,284.220457 86.876512,283.731145 C84.4613522,283.241855 81.525126,282.082635 78.0544214,279.694283 C74.5836939,277.305931 70.5786714,273.688954 67.8192061,270.612726 C65.0597179,267.536499 63.545718,265.001344 62.7889014,263.734066 C62.0320849,262.466788 62.0320849,262.466788 62.0320849,262.466788 C62.0320849,262.466788 62.0320849,262.466788 61.6901178,263.059482 C61.3481507,263.652153 60.6642165,264.837518 59.8403179,266.016249 C59.0164194,267.195003 58.0525105,268.367192 56.0729713,269.536502 C54.0934322,270.705834 51.0987441,271.872103 47.6801737,272.138781 C44.2616262,272.405459 40.4197924,271.772776 36.8635502,269.952539 C33.3073079,268.13228 30.0367949,265.125066 27.3310456,260.723673 C24.6252964,256.32228 22.4841046,250.527192 21.5256522,244.818901 C20.5671769,239.11061 20.7912346,233.489369 23.2745997,226.712132 C25.7579649,219.934895 30.5003854,212.001732 38.1040864,204.854897 C45.7077646,197.708061 56.1725169,191.347714 65.8454902,186.502941 C75.5184406,181.658168 84.3991993,178.329199 88.8399111,176.664611 C93.2806,175 93.2806,175 93.2806,175 C93.2806,175 93.2806,175 93.2806,175 L95.174762,179.658511 Z"/><path fill="url(#c)" stroke="#97C580" stroke-width="3" d="M95.174762,179.658511 C97.0689241,184.317022 100.8575,193.634712 103.744252,204.778812 C106.631003,215.922888 108.615678,228.892799 108.948337,239.3411 C109.280973,249.789377 107.961479,257.71533 106.308684,263.96497 C104.655912,270.214587 102.654547,274.822766 100.394024,277.859027 C98.1335018,280.895289 95.6065539,282.376863 93.3959646,283.208132 C91.1853753,284.039401 89.2916947,284.220457 86.876512,283.731145 C84.4613522,283.241855 81.525126,282.082635 78.0544214,279.694283 C74.5836939,277.305931 70.5786714,273.688954 67.8192061,270.612726 C65.0597179,267.536499 63.545718,265.001344 62.7889014,263.734066 C62.0320849,262.466788 62.0320849,262.466788 62.0320849,262.466788 C62.0320849,262.466788 62.0320849,262.466788 61.6901178,263.059482 C61.3481507,263.652153 60.6642165,264.837518 59.8403179,266.016249 C59.0164194,267.195003 58.0525105,268.367192 56.0729713,269.536502 C54.0934322,270.705834 51.0987441,271.872103 47.6801737,272.138781 C44.2616262,272.405459 40.4197924,271.772776 36.8635502,269.952539 C33.3073079,268.13228 30.0367949,265.125066 27.3310456,260.723673 C24.6252964,256.32228 22.4841046,250.527192 21.5256522,244.818901 C20.5671769,239.11061 20.7912346,233.489369 23.2745997,226.712132 C25.7579649,219.934895 30.5003854,212.001732 38.1040864,204.854897 C45.7077646,197.708061 56.1725169,191.347714 65.8454902,186.502941 C75.5184406,181.658168 84.3991993,178.329199 88.8399111,176.664611 C93.2806,175 93.2806,175 93.2806,175 C93.2806,175 93.2806,175 93.2806,175 L95.174762,179.658511 Z"/><path fill="url(#c)" d="M95.174762,179.658511 C97.0689241,184.317022 100.8575,193.634712 103.744252,204.778812 C106.631003,215.922888 108.615678,228.892799 108.948337,239.3411 C109.280973,249.789377 107.961479,257.71533 106.308684,263.96497 C104.655912,270.214587 102.654547,274.822766 100.394024,277.859027 C98.1335018,280.895289 95.6065539,282.376863 93.3959646,283.208132 C91.1853753,284.039401 89.2916947,284.220457 86.876512,283.731145 C84.4613522,283.241855 81.525126,282.082635 78.0544214,279.694283 C74.5836939,277.305931 70.5786714,273.688954 67.8192061,270.612726 C65.0597179,267.536499 63.545718,265.001344 62.7889014,263.734066 C62.0320849,262.466788 62.0320849,262.466788 62.0320849,262.466788 C62.0320849,262.466788 62.0320849,262.466788 61.6901178,263.059482 C61.3481507,263.652153 60.6642165,264.837518 59.8403179,266.016249 C59.0164194,267.195003 58.0525105,268.367192 56.0729713,269.536502 C54.0934322,270.705834 51.0987441,271.872103 47.6801737,272.138781 C44.2616262,272.405459 40.4197924,271.772776 36.8635502,269.952539 C33.3073079,268.13228 30.0367949,265.125066 27.3310456,260.723673 C24.6252964,256.32228 22.4841046,250.527192 21.5256522,244.818901 C20.5671769,239.11061 20.7912346,233.489369 23.2745997,226.712132 C25.7579649,219.934895 30.5003854,212.001732 38.1040864,204.854897 C45.7077646,197.708061 56.1725169,191.347714 65.8454902,186.502941 C75.5184406,181.658168 84.3991993,178.329199 88.8399111,176.664611 C93.2806,175 93.2806,175 93.2806,175 C93.2806,175 93.2806,175 93.2806,175 L95.174762,179.658511 Z"/><path fill="url(#d)" stroke="#036106" stroke-width="10" d="M170.923907,188.707836 C175.84779,187.633694 185.696319,185.485295 197.19014,184.546598 C208.683985,183.607924 221.8225,183.879137 232.187094,185.353312 C242.551712,186.827488 250.141601,189.504626 256.020106,192.222849 C261.898588,194.941073 266.097405,197.721572 268.700642,200.487691 C271.303878,203.25381 272.327267,206.015704 272.764,208.351552 C273.200734,210.6874 273.050996,212.596694 272.14957,214.907406 C271.248145,217.218094 269.595493,219.929878 266.637693,222.959524 C263.679894,225.989169 259.417454,229.336561 255.904372,231.542065 C252.391313,233.747569 249.627934,234.811325 248.246591,235.343064 C246.865248,235.874803 246.865248,235.874803 246.865248,235.874803 C246.865248,235.874803 246.865248,235.874803 247.390611,236.316268 C247.915973,236.757734 248.966721,237.640711 249.986673,238.661326 C251.006625,239.681941 251.995826,240.840286 252.806085,243.005374 C253.616343,245.170461 254.24759,248.341784 253.917941,251.778134 C253.588269,255.21446 252.298047,258.915306 249.885817,262.127853 C247.473588,265.3404 243.939998,268.064602 239.129012,269.988022 C234.318049,271.911418 228.230105,273.034286 222.43287,273 C216.635658,272.964117 211.129294,271.771311 204.874334,268.13828 C198.619397,264.505249 191.61584,258.432201 185.884097,249.657363 C180.152353,240.882503 175.692516,229.406015 172.590446,218.976478 C169.488376,208.546941 167.744257,199.164794 166.872129,194.473386 C166,189.781955 166,189.781955 166,189.781955 C166,189.781955 166,189.781955 166,189.781955 L170.923907,188.707836 Z"/><path fill="url(#d)" stroke="#97C580" stroke-width="3" d="M170.923907,188.707836 C175.84779,187.633694 185.696319,185.485295 197.19014,184.546598 C208.683985,183.607924 221.8225,183.879137 232.187094,185.353312 C242.551712,186.827488 250.141601,189.504626 256.020106,192.222849 C261.898588,194.941073 266.097405,197.721572 268.700642,200.487691 C271.303878,203.25381 272.327267,206.015704 272.764,208.351552 C273.200734,210.6874 273.050996,212.596694 272.14957,214.907406 C271.248145,217.218094 269.595493,219.929878 266.637693,222.959524 C263.679894,225.989169 259.417454,229.336561 255.904372,231.542065 C252.391313,233.747569 249.627934,234.811325 248.246591,235.343064 C246.865248,235.874803 246.865248,235.874803 246.865248,235.874803 C246.865248,235.874803 246.865248,235.874803 247.390611,236.316268 C247.915973,236.757734 248.966721,237.640711 249.986673,238.661326 C251.006625,239.681941 251.995826,240.840286 252.806085,243.005374 C253.616343,245.170461 254.24759,248.341784 253.917941,251.778134 C253.588269,255.21446 252.298047,258.915306 249.885817,262.127853 C247.473588,265.3404 243.939998,268.064602 239.129012,269.988022 C234.318049,271.911418 228.230105,273.034286 222.43287,273 C216.635658,272.964117 211.129294,271.771311 204.874334,268.13828 C198.619397,264.505249 191.61584,258.432201 185.884097,249.657363 C180.152353,240.882503 175.692516,229.406015 172.590446,218.976478 C169.488376,208.546941 167.744257,199.164794 166.872129,194.473386 C166,189.781955 166,189.781955 166,189.781955 C166,189.781955 166,189.781955 166,189.781955 L170.923907,188.707836 Z"/><path fill="url(#d)" d="M170.923907,188.707836 C175.84779,187.633694 185.696319,185.485295 197.19014,184.546598 C208.683985,183.607924 221.8225,183.879137 232.187094,185.353312 C242.551712,186.827488 250.141601,189.504626 256.020106,192.222849 C261.898588,194.941073 266.097405,197.721572 268.700642,200.487691 C271.303878,203.25381 272.327267,206.015704 272.764,208.351552 C273.200734,210.6874 273.050996,212.596694 272.14957,214.907406 C271.248145,217.218094 269.595493,219.929878 266.637693,222.959524 C263.679894,225.989169 259.417454,229.336561 255.904372,231.542065 C252.391313,233.747569 249.627934,234.811325 248.246591,235.343064 C246.865248,235.874803 246.865248,235.874803 246.865248,235.874803 C246.865248,235.874803 246.865248,235.874803 247.390611,236.316268 C247.915973,236.757734 248.966721,237.640711 249.986673,238.661326 C251.006625,239.681941 251.995826,240.840286 252.806085,243.005374 C253.616343,245.170461 254.24759,248.341784 253.917941,251.778134 C253.588269,255.21446 252.298047,258.915306 249.885817,262.127853 C247.473588,265.3404 243.939998,268.064602 239.129012,269.988022 C234.318049,271.911418 228.230105,273.034286 222.43287,273 C216.635658,272.964117 211.129294,271.771311 204.874334,268.13828 C198.619397,264.505249 191.61584,258.432201 185.884097,249.657363 C180.152353,240.882503 175.692516,229.406015 172.590446,218.976478 C169.488376,208.546941 167.744257,199.164794 166.872129,194.473386 C166,189.781955 166,189.781955 166,189.781955 C166,189.781955 166,189.781955 166,189.781955 L170.923907,188.707836 Z"/></g></svg>