<svg xmlns="http://www.w3.org/2000/svg" width="932" height="932" viewBox="0 0 932 932"><g fill="none" transform="translate(175 379)"><path fill="#D4D2D3" d="M233.445098.593936703C241.155609-.463742752 249.571763.199227878 257.355552.269326439 257.78708.87594861 258.134474 1.57585579 258.297315 2.30488083 259.695031 8.50779473 258.576858 39.5040308 258.57143 47.7311754L258.568716 105.486729C258.574144 115.291091 259.030098 125.344573 258.500866 135.125209 258.376021 137.42633 258.343453 138.291508 257.038013 140.227306 250.562378 141.760308 239.852883 140.545716 233 140.506353 233.113989 140.342969 233.146557 140.30765 233.238833 140.150468 233.898338 139.040753 233.903766 137.694591 233.939048 136.440097 234.766822 105.934011 233.958047 75.1868949 233.963475 44.6557359 233.963475 36.1010152 235.125072 6.84403233 233.445098.593936703ZM541.990514 36.1937304C550.504244 35.5557896 559.699827 36.4645442 567.76348 39.3490759 575.975362 42.2863635 583.405673 47.3806922 587.211114 55.5327002 588.712268 58.7483768 591.005774 64.7614701 589.792992 68.1589518 587.405159 70.1268831 568.431858 69.2744014 564.020026 69.3431194 564.146694 68.9467736 564.243717 68.5523216 564.265278 68.1343323 564.383861 65.8890942 562.906962 63.0170075 561.397722 61.4386584 557.659658 57.532285 551.380142 56.1538674 546.18674 56.0302291 541.478451 55.9182242 535.481917 56.6735809 531.954069 60.1570953 530.339722 61.7497831 529.356021 63.9417242 529.396447 66.2307903 529.560846 75.4168145 563.893358 80.2408704 571.54736 82.9084265 576.961758 84.796277 582.1336 87.4654563 586.251668 91.5355084 591.361523 96.5854679 594.002693 102.992743 594 110.186757 593.997303 118.303865 591.04081 126.154217 585.219456 131.876747 574.037606 142.865672 557.616537 144.190251 542.861022 143.98058 531.344983 142.80994 520.43803 141.146369 511.773376 132.680802 507.167499 128.181127 501.914806 117.530653 502.001048 111.024088 502.025304 109.250407 502.45382 108.533738 503.666602 107.330091 509.746683 105.348904 519.540571 106.768173 526.049168 106.895599 528.857432 109.623216 528.321113 115.815138 533.153376 119.9347 537.228323 123.408204 546.016951 125.020371 551.323546 124.518243 556.069566 124.0686 564.106268 122.090117 567.221771 118.239746 568.601647 116.534783 568.992432 114.324445 568.749876 112.179037 567.437376 100.437192 539.635022 97.8935443 530.062129 95.0439127 524.248861 93.3129772 518.492189 90.9451831 513.729998 87.0994113 508.52851 82.8986869 505.011443 77.5219112 504.321504 70.7718581 503.610006 63.7883262 505.29712 55.4074387 509.741292 49.9189286 517.354869 40.5213396 530.587668 37.3627477 541.990514 36.1937304ZM319.996181 36.2677339C327.660513 35.5150503 335.630445 36.3259227 342.864775 38.9982997 355.045492 43.4985069 364.651599 52.923754 369.995537 64.6444975 373.86827 73.1309105 376.913449 88.0048971 373.557261 96.8851624 362.314978 99.3053877 306.501115 94.9608894 301.725105 97.7461419 301.02466 98.8414932 300.637928 99.8040338 300.694721 101.120557 300.93271 106.653077 306.006206 113.992685 309.946549 117.558907 310.568566 118.133253 311.218528 118.674732 311.896437 119.183346 312.574345 119.69196 313.275692 120.165103 314.000477 120.602777 314.727065 121.04045 315.473486 121.440409 316.239739 121.802653 317.005992 122.165076 317.788471 122.487898 318.587177 122.77112 319.387686 123.054342 320.199914 123.296526 321.023862 123.497672 321.847809 123.698819 322.679869 123.85794 323.520043 123.975036 324.360217 124.092312 325.203997 124.166844 326.051382 124.198632 326.898768 124.230421 327.746153 124.219466 328.593539 124.165767 335.00302 123.810707 340.479474 121.055357 344.744348 116.296532 346.788891 114.014775 349.055197 110.715252 348.852365 107.519175 348.849661 107.467991 348.844252 107.416806 348.841547 107.365621L363.442722 107.531567 372.361907 107.777523C372.451153 108.092982 372.524172 108.406555 372.583669 108.729018 373.44638 113.472757 369.803523 120.04702 367.085579 123.851116 359.680871 134.207115 348.868592 141.073669 336.255167 143.141798 322.535634 145.391497 307.215082 143.383982 295.761855 135.145141 284.87926 127.318471 279.067457 115.371976 276.968825 102.406907 274.377989 86.4057812 276.793038 68.9030594 286.526253 55.5538363 294.877509 44.0987142 306.187402 38.423146 319.996181 36.2677339Z"/><path fill="#232223" d="M322.735376,56.2961354 C325.314339,55.9956739 327.982417,55.7598513 330.518172,56.4432163 C336.788696,58.1339627 343.072723,63.0569298 346.245792,68.7873358 C347.722957,71.4569786 349.651102,76.8934966 348.784247,79.9537119 L326.453943,79.9953438 L300,80 C302.476344,75.9880037 303.507929,71.1617211 306.073389,67.03825 C310.053903,60.6365303 315.708717,57.9047136 322.735376,56.2961354 Z"/><path fill="#D4D2D3" d="M58.0297266,3.07071583 C65.9218945,2.92093258 73.8366676,3.05233088 81.7312574,3.07368987 C82.0805613,31.8301812 82.1935872,60.7451075 81.6238828,89.4975434 C87.4056957,89.3564118 93.2152269,89.4818621 99,89.4905138 L98.9905812,108.713599 L81.8144122,108.69224 C81.8987331,119.425084 81.8133358,130.156576 81.5582202,140.886716 C73.9168621,141.057047 66.2528989,140.974045 58.6085807,141 L58.5789787,124.386226 L58.6112718,108.647629 C39.221679,109.02425 19.6286395,108.991806 0.243352473,108.529479 C-0.164886306,100.833215 0.0595508341,93.0650343 0.0786575931,85.3584968 C5.57709842,76.6318652 11.9119309,68.2845582 17.8829276,59.8761484 C31.2980253,40.9845333 45.0468185,22.2594641 58.0297266,3.07071583 Z"/><path fill="#232223" d="M57.7603431,35 C59.7654971,37.8485299 58.7407659,82.692583 58.7192831,90 L22.663569,89.9587366 L22.2355235,89.6536049 C22.1831591,89.3984235 21.965914,88.7550407 22.0045831,88.5299924 C22.2516357,87.0914754 53.9960135,41.2831625 57.7603431,35 Z"/><path fill="#D4D2D3" d="M166.304879,36.197935 C169.727368,35.8155538 173.24941,36.0537319 176.669208,36.3526697 C178.061163,36.4693284 179.44415,36.654488 180.818168,36.9081486 C182.190392,37.1616291 183.547369,37.4824404 184.889099,37.8705825 C186.23083,38.2587246 187.551035,38.7121271 188.849715,39.2307901 C190.146601,39.7496331 191.414788,40.3313061 192.654274,40.9758092 C193.895554,41.6203123 195.100958,42.3244949 196.270488,43.0883571 C197.441811,43.8522193 198.572775,44.6721604 199.66338,45.5481805 C200.753984,46.4240206 201.79795,47.351619 202.795279,48.3309756 C203.794402,49.3103323 204.7433,50.3366764 205.641972,51.4100081 C216.291508,64.2154563 219.1382,82.3042995 217.620682,98.4790766 C216.337248,112.168376 211.26271,126.249238 200.440973,135.220613 C190.749304,143.254398 178.956248,144.977274 166.740762,143.762079 C156.149882,142.708641 147.343432,138.459781 140.556303,130.160544 C141.00537,135.858185 140.636753,141.774291 140.585362,147.494886 C140.706261,157.859144 140.636933,168.222142 140.377376,178.583879 C132.428162,179.197147 124.392579,178.958159 116.424531,178.934665 C115.626219,158.450809 116.199863,137.752808 116.194212,117.247619 C116.187217,91.1816994 115.773397,65.0412484 116.373947,38.9839706 C124.140735,38.454956 131.968871,38.66748 139.749382,38.7031257 C139.792701,42.2166577 139.701488,45.7439618 139.671891,49.258574 C146.806112,40.6914537 155.529152,37.2513735 166.304879,36.197935 Z"/><path fill="#232223" d="M161.948864,56.1968212 C167.445347,55.6601256 172.330809,56.1210365 177.224382,58.8333718 C184.389006,62.8027612 189.025734,70.1225872 191.229193,77.8313152 C194.195077,88.2014058 193.589463,100.944284 188.238977,110.472113 C184.389006,117.327792 178.74923,121.620277 171.246653,123.721751 C165.377069,124.465034 160.079033,123.800502 154.923748,120.737562 C147.65152,116.416488 143.341662,108.93026 141.353952,100.915426 C138.670057,90.0922462 139.891557,76.9863568 145.778445,67.3544248 C149.709795,60.9221692 154.830743,57.9474196 161.948864,56.1968212 Z"/><path fill="#D4D2D3" d="M388.448578,1.60565097 C396.258159,0.528646381 404.810867,1.20523653 412.69341,1.25875062 C413.139285,1.96841731 413.474368,2.67808401 413.622993,3.50822463 C414.557981,8.73270533 414.622835,46.1839601 412.523166,49.243675 C415.165993,47.3268489 417.743966,45.2688424 420.457052,43.4517837 C430.541951,36.6920672 442.396841,34.9460021 454.224709,37.2635116 C455.608275,37.5257934 456.974726,37.8562899 458.324063,38.2550012 C459.6734,38.6537125 460.999318,39.1186666 462.301815,39.6498633 C463.604313,40.1812394 464.877086,40.7760794 466.120133,41.4343833 C467.361379,42.0926872 468.567495,42.8113178 469.738482,43.5902749 C470.907668,44.3690528 472.035418,45.2042131 473.121733,46.095756 C474.208049,46.9874781 475.246624,47.9309216 476.237459,48.9260864 C477.228294,49.9214305 478.165984,50.9635658 479.05053,52.0524922 C479.936877,53.141598 480.765575,54.2720271 481.536625,55.4437794 C491.378319,70.1690272 492.732159,90.3685777 489.289458,107.317215 C487.895083,114.169976 484.387527,125.508508 478.202015,129.591982 C478.058794,130.165578 477.866932,130.734333 477.504827,131.211389 C472.31105,138.061191 463.55297,141.863919 455.221849,143.190207 C445.417987,144.75099 430.550058,144.416191 421.951411,138.941888 C417.979064,136.412474 414.836315,132.865216 411.0207,130.10561 C411.380103,130.82926 411.674651,131.565818 411.882726,132.345941 C412.720432,135.496011 412.733944,138.24755 411.05583,141.104503 L388,141.125747 C388.1189,140.958213 388.140518,140.932666 388.235098,140.772661 C388.978224,139.515215 389.85106,7.12566926 388.448578,1.60565097 Z"/><path fill="#232223" d="M434.622779,56.357471 L434.77432,56.3365184 C441.967138,55.3791428 448.426602,56.3386674 454.32049,60.8504745 C461.591785,66.4144815 465.483158,75.370134 466.595366,84.2328426 C467.905119,94.6686129 466.165096,105.948668 459.464789,114.381847 C455.440816,119.446482 450.25322,122.624572 443.801874,123.367048 C443.674688,123.437965 443.506909,123.540579 443.36078,123.589469 C440.175699,124.659129 434.165448,123.458917 431.210385,122.04703 C424.117693,118.658877 418.808322,111.322489 416.307885,104.042244 C412.670885,93.4479858 413.320349,79.7943698 418.342873,69.7293006 C422.023171,62.3496646 427.032164,58.8965042 434.622779,56.357471 Z"/></g></svg>