<svg xmlns="http://www.w3.org/2000/svg" width="932" height="932" viewBox="0 0 932 932"><g fill="none" transform="translate(165 247)"><path fill="#239623" d="M390.262694,10.5351297 C427.497986,-4.07703304 470.399518,-3.47018912 507.187476,12.2385513 C531.130535,22.3419702 552.416214,38.6043225 568.520265,58.9868257 C580.17227,73.6841596 589.134941,90.5054471 594.785205,108.38605 C601.697592,130.157906 603.646693,153.457519 600.616533,176.086409 C596.132534,210.394383 579.597125,242.908442 554.679514,266.900069 C541.55237,279.606529 526.177901,289.992077 509.466753,297.380668 C489.437872,306.265076 467.502493,310.768497 445.599067,310.598155 C426.278466,310.486367 406.846032,307.201958 388.947317,299.792074 C380.836712,296.475725 373.247997,292.057476 365.552774,287.900063 C330.868355,268.678015 296.737779,248.476501 262.293004,228.828598 C243.494294,218.038487 224.503869,207.530506 204.842442,198.374615 C194.686878,193.658267 184.376877,189.213401 173.715399,185.769296 C168.587025,184.177661 163.362795,182.70846 157.989452,182.330514 C139.382457,181.516065 120.732858,188.186025 106.476726,200.078037 C91.9862756,212.028603 81.820061,229.030879 77.9857632,247.401216 C74.1567908,265.36699 76.4467186,284.599683 84.6159032,301.074964 C92.7158573,317.619445 106.540631,331.26811 123.187874,339.178374 C141.257003,347.871147 162.53203,349.531983 181.77275,343.910692 C204.570845,337.405751 224.029907,320.477999 233.802041,298.903101 C234.49967,308.958611 233.695533,319.338836 229.79733,328.728947 C226.559478,336.68712 221.095604,343.628563 214.48144,349.063542 C208.325262,354.14719 201.274414,358.033121 193.962621,361.189774 C204.150138,359.257455 214.108661,355.877228 223.145888,350.756317 C238.541659,342.239209 249.991298,328.579898 263.464595,317.571536 C269.892369,312.312222 276.889963,307.792832 284.031342,303.571541 C291.705263,299.174584 299.661431,295.097019 308.198069,292.669643 C302.212305,326.136553 284.681043,357.335783 259.395979,380.049844 C245.949309,392.181399 230.372475,401.95478 213.57612,408.74185 C176.207692,423.971503 132.869476,423.737283 95.6714619,408.113714 C64.6828799,395.290143 38.1569946,372.081025 21.2434808,343.138829 C10.4595182,324.789785 3.54180589,304.183708 1.07613937,283.050635 C-2.03922761,256.706156 1.62465698,229.557875 11.8707528,205.071191 C23.6292661,176.693253 44.0788545,152.030903 69.7153958,135.113798 C85.6650097,124.547262 103.590352,116.956389 122.293205,112.932056 C140.809668,108.875784 160.039737,108.412666 178.790518,111.010384 C192.194584,112.900117 205.385634,116.546504 217.687339,122.231673 C225.063037,125.707718 232.140512,129.774636 239.297868,133.66589 C276.889963,154.596682 313.880286,176.592112 351.33392,197.773094 C369.062222,207.759403 387.083422,217.287917 405.711719,225.49628 C415.77675,229.834681 425.980243,234.024034 436.673674,236.541904 C444.869485,238.548747 453.454052,237.792854 461.660514,236.243805 C478.392964,232.895517 493.730155,223.61187 504.918849,210.793623 C516.634759,197.474996 523.957203,180.376902 525.490922,162.709227 C526.955411,146.611894 523.58975,130.099351 515.819971,115.913044 C507.033039,99.693277 492.638446,86.5875776 475.645051,79.3906217 C456.856991,71.3206622 435.038772,70.6712327 415.77675,77.5275044 C394.879827,84.825601 377.327264,100.96552 368.199505,121.113803 C367.49655,111.106201 368.290037,100.789855 372.140311,91.4316826 C375.362186,83.4468942 380.804759,76.4628659 387.440224,71.0119171 C393.585752,65.9176221 400.631274,62.0157221 407.943067,58.8643923 C397.499931,60.7913879 387.312415,64.3472803 378.1101,69.6757958 C364.168167,77.5860595 353.426808,89.6963219 341.391373,100.044608 C333.658872,106.75183 325.047678,112.367798 316.180865,117.451446 C309.055461,121.422548 301.685089,125.122166 293.803476,127.325968 C299.826519,93.6408074 317.549496,62.2499426 343.111481,39.503942 C356.925604,27.1381664 372.976401,17.2583216 390.262694,10.5351297 Z"/><path fill="#000" d="M84.5471697.00799940711C89.3971802-.00266646904 94.2525205-.00266646904 99.102531.00799940711 99.102531 15.9214866 99.1238498 31.8349738 99.0918717 47.748461 101.506218 43.1781331 105.15172 38.9544462 110.150962 37.1945766 115.20883 35.4240411 120.868952 35.8613421 125.868194 37.6318775 133.436342 40.4370029 138.65943 47.5618082 140.84993 55.1292473 142.837901 61.6354318 142.19301 68.504256 142.299603 75.2024262 142.294273 87.4948485 142.304933 99.7872707 142.294273 112.079693 137.465582 112.085026 132.63689 112.085026 127.813528 112.079693 127.797539 96.7688278 127.808198 81.4579626 127.808198 66.1470974 127.898803 61.9020787 126.571712 57.5397353 123.656376 54.3933019 120.506534 51.0655485 115.560589 50.3509348 111.200909 50.766904 105.743315 51.3108637 101.330338 55.5292177 99.1611575 60.3608596 99.0332452 77.5969154 99.1451685 94.8436372 99.102531 112.079693 94.2525205 112.085026 89.4025099 112.085026 84.5524993 112.079693 84.54184 74.7224618 84.5471697 37.3652306 84.5471697.00799940711L84.5471697.00799940711ZM19.0027411 39.9410397C27.8180351 34.3041242 38.9304219 32.8962285 49.0621473 35.1147307 56.7848564 36.8212709 63.8306959 41.1356178 69.1230701 46.9858509 71.4787895 49.6736517 73.615992 52.5481053 75.7425351 55.4225589 70.9138432 57.1877614 66.0904811 58.9689627 61.2564596 60.7341652 59.1672242 58.2170185 57.1206264 55.5932129 54.4238073 53.689354 48.4225855 49.1723555 40.3161392 48.0151079 33.131728 49.8976351 27.114517 51.5135153 21.9500552 55.6625411 18.603015 60.8674887 14.9468532 66.5577336 14.0887744 73.7838647 15.6557009 80.306048 17.1746602 86.5135879 21.4064277 91.846526 26.7201206 95.286271 33.7712898 99.7872707 43.15153 100.149911 50.6717112 96.6088397 55.0420504 94.6356526 58.3357939 91.0572511 61.2564596 87.361525 66.0904811 89.0627323 70.9085136 90.811936 75.7425351 92.529142 72.3315386 97.1687982 69.0004874 102.005773 64.3849829 105.546844 51.0767671 116.463368 30.3443043 116.831341 16.5990546 106.506773 9.38799491 101.141837 3.6639165 93.5317344 1.37215327 84.7697171-.519883823 77.5222543-.461257321 69.7468306 1.58534054 62.5420312 4.28748929 53.1667261 10.8589871 45.1726519 19.0027411 39.9410397L19.0027411 39.9410397ZM185.470027 34.8054203C191.897623 33.7708303 198.676979 34.1014725 204.720838 36.6772816 209.267057 38.5491429 213.269648 41.5462541 216.712622 45.0286626 216.701963 43.3487871 216.707293 41.6742446 216.712622 40.005035 221.562633 39.9943691 226.412644 39.9943691 231.267984 40.005035 231.273314 64.0512527 231.273314 88.1028034 231.267984 112.149021 226.412644 112.154354 221.562633 112.159687 216.712622 112.149021 216.701963 109.141244 216.707293 106.1388 216.712622 103.136356 211.079149 109.023919 203.484352 113.247606 195.265982 113.850228 186.024314 114.580841 176.473524 112.111691 169.033288 106.50144 161.987448 101.259162 156.375293 93.8623765 154.019574 85.3296756 150.832424 73.7305353 152.633856 60.5475124 159.95151 50.8308992 166.043336 42.5488464 175.210389 36.3413065 185.470027 34.8054203M189.813718 49.2950131C177.646054 50.1856137 167.210537 61.358119 167.370427 73.6132107 166.842789 84.3377492 174.384288 94.5663244 184.478706 97.8567472 189.088881 99.3286381 194.114771 99.424631 198.804891 98.2620505 204.886058 96.7261643 210.146454 92.6091361 213.525473 87.3721909 215.486796 84.2310904 217.005755 80.5886937 216.717952 76.8129735 216.494105 73.154578 217.288228 69.3415273 215.929159 65.837787 214.053111 60.3608596 210.077168 55.7105376 205.18985 52.6707629 200.632972 49.8389728 195.122081 48.8043828 189.813718 49.2950131ZM268.351911 38.282496C273.718901 35.5466987 280.151827 35.5733634 285.875905 37.0932508 293.007019 39.0291073 298.448625 44.9006721 301.268026 51.5615118 303.38391 56.4731477 304.087428 61.875414 303.991494 67.1976862 303.991494 82.1512445 303.980835 97.1048029 303.996824 112.058361 299.162802 112.111691 294.328781 112.07436 289.500089 112.07436 289.489429 96.5928408 289.516078 81.1113216 289.489429 65.6298024 289.558715 60.7448311 286.851237 56.1265067 282.885953 53.3853766 277.0766 49.1776884 268.325262 49.908301 263.304702 55.0332544 262.046897 56.4198183 260.463982 57.8170481 260.042937 59.6995753 260.005629 77.1596145 260.042937 94.6196538 260.026948 112.079693 255.171607 112.085026 250.321597 112.085026 245.471586 112.079693 245.466257 88.054807 245.466257 64.029921 245.471586 40.005035 250.321597 39.9943691 255.171607 39.9943691 260.026948 40.005035 260.026948 42.7888286 260.042937 45.5779552 260.010959 48.3670819 261.583215 44.223389 264.322671 40.3356771 268.351911 38.282496L268.351911 38.282496Z" transform="translate(293 324)"/></g></svg>