<svg xmlns="http://www.w3.org/2000/svg" width="932" height="932" viewBox="0 0 932 932"><g fill="none" fill-rule="evenodd" stroke="#000" stroke-width="3" transform="translate(11 382)"><path d="M79.7680679 64.4990683C79.9681218 55.7803739 82.3954459 50.7375986 90.8243966 50.7375986 97.5817842 50.7375986 100.355869 54.6877645 100.355869 60.7789123 100.355869 68.4492342 98.6798596 69.9134034 89.5262674 72.3286321 81.0973167 74.5669131 69.8676065 76.4203617 62.3589051 80.543042 54.8813234 84.6391912 50 94.4902985 50 106.283315 50 128.03359 59.931581 137 76.9673085 137 87.0989433 137 96.6304153 131.78471 100.760424 122.831573L101.164977 122.831573C101.280558 126.755207 101.685119 130.864629 102.809868 134.381292L132 134.381292C128.4746 129.931275 128.4746 120.204026 128.4746 112.5912L128.4746 60.7789123C128.4746 39.5594525 117.418271 31 92.500407 31 79.9681218 31 71.3391172 32.6632285 64.2616431 37.4804134 57.1308216 42.3329685 53.0319329 50.7375986 52.8274332 64.4990683L79.7680679 64.4990683ZM79.2212525 103.284194C79.2212525 97.6663665 80.7194369 94.4902985 83.8980762 92.1237401 86.6988342 89.8810258 90.8243966 89.6819665 100.355869 84.6391912 100.355869 88.7309208 100.213608 93.9904474 100.213608 102.350841 100.213608 112.378882 94.3764712 116.138841 88.0280844 116.138841 82.3954459 116.138841 79.2212525 111.299545 79.2212525 103.284194M193.033159 134.393853 222 134.393853 222 2 191.918203 2 191.918203 45.0321864 191.543613 45.0321864C186.568173 34.2554262 177.436986 31.5084078 169.107862 31.5084078 144.406944 31.5084078 140 53.9247612 140 85.0884339 140 122.529737 150.730908 137 170.967593 137 184.303004 137 190.459505 129.03189 192.662977 122.142339L193.033159 122.142339 193.033159 134.393853ZM192.491106 84.8903293C192.491106 104.343966 190.600527 115.107518 181.729349 115.107518 170.39469 115.107518 169.993658 99.7435924 169.993658 83.6048696 169.993658 65.40589 170.566562 53.3656756 181.52663 53.3656756 191.746332 53.3656756 192.491106 67.07435 192.491106 84.8903293M315 134.391397 285.927612 134.391397 285.927612 122.516104 285.551259 122.516104C281.26965 131.430292 272.498341 137 261.340493 137 244.143236 137 235 128.469173 235 109.138226L235 34 265.219174 34 265.219174 102.484541C265.219174 109.711059 268.411558 113.945628 273.990477 113.945628 279.746516 113.945628 284.807401 109.525989 284.807401 99.708492L284.807401 34 315 34 315 134.391397Z"/><polygon points="329 1 359 1 359 134 329 134"/><path d="M380.352629 54.660976 368 54.660976 368 33.7279744 380.352629 33.7279744 380.352629 4 410.200043 4 410.200043 33.7279744 424 33.7279744 424 54.660976 410.200043 54.660976 410.200043 105.725948C410.200043 112.793891 412.758022 115.040356 419.767314 115.040356 421.044113 115.040356 422.723188 114.867211 424 114.694066L424 134.876754C418.293746 135.627068 412.556884 136 406.872487 136 386.260021 136 380.352629 132.270677 380.352629 108.696086L380.352629 54.660976ZM487.475251 102.350841C487.702472 106.831822 488.043295 110.737765 489.515841 113.723613 491.193751 116.528107 493.920368 118.381542 498.744382 118.381542 505.72259 118.381542 509.410517 113.856323 509.410517 108.123491 509.410517 103.456709 507.199501 99.0022582 498.001547 95.8306098 473.510091 87.4657971 461.738456 82.613242 461.738456 61.3672372 461.738456 41.240373 475.725458 31 499.675106 31 527.627268 31 535.750309 44.7614697 535.750309 59.3014706L535.750309 62.6898565 509.218249 62.6898565 509.218249 60.7789123C509.218249 52.0602179 505.72259 49.6582617 499.452251 49.6582617 491.534589 49.6582617 489.323573 53.5243871 489.323573 58.9254636 489.323573 76.8096274 537 64.9281375 537 104.045034 537 124.32672 523.546089 137 498.941015 137 472.234178 137 461 126.945414 461 106.831822L461 102.350841 487.475251 102.350841Z"/><polygon points="540 34 570.228 34 579.989 108.485 580.335 108.485 591.71 34 624.212 34 634.864 108.485 635.21 108.485 645.898 34 675 34 653.177 135 619.003 135 608.005 60.488 607.633 60.488 595.828 135 561.136 135"/><path d="M684 0 714 0 714 23.0229179 684 23.0229179 684 0ZM684 33.6112598 714 33.6112598 714 134 684 134 684 33.6112598ZM727 33.5914224 755.897473 33.5914224 755.897473 45.455524 756.297972 45.455524C760.531807 36.522184 769.276759 31 780.367472 31 789.081602 31 800.603623 32.6570941 805.031111 46.3854353 812.125656 34.7196588 818.753677 31 829.901609 31 846.938178 31 856 39.5278834 856 58.8224685L856 134 825.958234 134 825.958234 65.5037528C825.958234 58.2759839 822.842282 54.0010341 817.266103 54.0010341 811.522709 54.0010341 806.492274 58.4787123 806.492274 68.3111134L806.492274 134 776.476918 134 776.476918 65.5037528C776.476918 58.2759839 773.338953 54.0010341 767.758377 54.0010341 762.04138 54.0010341 757.015342 58.4787123 757.015342 68.3111134L757.015342 134 727 134 727 33.5914224Z"/><polygon points="0 1 48 1 48 21.837 28.434 21.837 28.434 147.189 48 147.189 48 168 0 168"/><polygon points="864 147.189 882.746 147.189 882.746 21.837 864 21.837 864 1 910 1 910 168 864 168"/></g></svg>