<svg xmlns="http://www.w3.org/2000/svg" width="932" height="932" viewBox="0 0 932 932"><g fill="#D8D8D8" fill-rule="evenodd" stroke="#979797" transform="translate(213.255 215.003)"><circle cx="251.745" cy="250.997" r="136.5"/><path d="M414.469,199.945 L415.184098,200.290072 C441.682464,213.159932 464.043193,233.218027 479.731254,257.929069 C495.254858,282.381065 504.244619,311.38914 504.244619,342.496854 C504.244619,386.127349 486.559867,425.627349 457.96749,454.219725 C429.375114,482.812101 389.875114,500.496854 346.244619,500.496854 C316.048949,500.496854 287.831602,492.026519 263.839238,477.331983 C239.352549,462.334689 219.266587,440.854414 205.974489,415.283112 C220.541243,419.332784 235.89021,421.496854 251.744619,421.496854 C298.826894,421.496854 341.451894,402.412991 372.306325,371.55856 C403.160756,340.704129 422.244619,298.079129 422.244619,250.996854 C422.244619,233.105637 419.488806,215.858072 414.378065,199.653426 L414.469,199.945 Z" opacity=".492"/><path d="M209.469,0.945 L210.184098,1.29007189 C236.682464,14.1599325 259.043193,34.2180274 274.731254,58.9290688 C290.254858,83.3810654 299.244619,112.38914 299.244619,143.496854 C299.244619,187.127349 281.559867,226.627349 252.96749,255.219725 C224.375114,283.812101 184.875114,301.496854 141.244619,301.496854 C111.048949,301.496854 82.8316016,293.026519 58.8392376,278.331983 C34.3525491,263.334689 14.2665872,241.854414 0.974488725,216.283112 C15.5412433,220.332784 30.8902103,222.496854 46.744619,222.496854 C93.8268939,222.496854 136.451894,203.412991 167.306325,172.55856 C198.160756,141.704129 217.244619,99.0791286 217.244619,51.9968537 C217.244619,34.1056369 214.488806,16.8580721 209.378065,0.653426044 L209.469,0.945 Z" opacity=".492" transform="rotate(180 149.872 150.998)"/></g></svg>