<svg xmlns="http://www.w3.org/2000/svg" width="932" height="932" viewBox="0 0 932 932"><defs><linearGradient id="a" x1="39.165%" x2="52.084%" y1="34.204%" y2="1.319%"><stop offset="0%" stop-color="#434345"/><stop offset="100%" stop-color="#465659"/></linearGradient><linearGradient id="b" x1="48.913%" x2="51.006%" y1="46.052%" y2="53.894%"><stop offset="0%" stop-color="#232528"/><stop offset="100%" stop-color="#384043"/></linearGradient></defs><g fill="none" transform="translate(142 142)"><polygon fill="#4F8A8C" points="0 0 648 0 648 648 0 648"/><path fill="url(#a)" d="M558.584091,125.040229 C559.807407,125.018168 561.010388,124.821322 562.068588,125.556102 C562.903924,126.692212 563.106454,127.783353 562.952727,129.207945 C562.709528,131.473378 562.079976,133.737962 561.733478,136 C561.589511,135.944849 561.44473,135.892243 561.300763,135.835396 C560.096968,135.354309 558.858199,134.838436 558.406776,133.446086 C558.090373,132.468641 558.329505,131.720284 558.741073,130.84296 C559.042021,130.199814 559.103838,130.142966 559.107091,129.387822 C558.058651,128.936433 557.107816,129.220672 556,129.350489 L556.605151,127.779111 C556.885765,126.89415 558.000902,125.800464 558.584091,125.040229 Z"/><path fill="#445255" d="M557.323619,125 L559,125.386875 C558.394476,126.112062 557.236633,127.155329 556.945272,127.999492 L555.876104,128.895455 C554.448858,129.364884 550.825849,128.112803 549.098797,127.914509 C544.312877,127.364144 539.320049,127.49526 534.499504,127.411087 C505.344835,126.904427 476.094735,127.323676 446.932465,127.309107 L213.306631,127.309917 L137.951414,127.345528 C124.89929,127.364144 111.62759,127.890228 98.5957351,127.345528 C96.3104522,127.250024 94.0952649,126.933564 92,126.015748 C112.158796,125.382828 132.2855,125.572218 152.450207,125.611068 L218.244565,125.584359 L446.609857,125.578693 L524.513004,125.574646 C531.903437,125.567362 539.267689,125.402252 546.653054,125.301892 C550.010883,125.256567 554.101759,125.682291 557.323619,125 Z"/><path fill="#384042" d="M88.1831229 126.006757 91.8212377 126C93.9130483 126.957807 96.1245837 127.288056 98.406099 127.387722 111.41647 127.956156 124.66629 127.407149 137.696896 127.387722L212.927882 127.350559 446.16856 127.349714C475.282753 127.364917 504.484632 126.9274 533.591236 127.456137 538.403834 127.543978 543.388431 127.407149 548.16646 127.981495 549.890665 128.188429 553.507702 129.495067 554.932595 129.005183L556 128.070181 555.37271 129.63443 554.89887 129.924982 553.183096 129.466349C550.308859 129.052482 547.248289 129.252659 544.342013 129.245057L529.034951 129.202826 474.106584 129.207893 222.09863 129.194379 141.090502 129.195224C125.42005 129.195224 109.51605 129.748455 93.8734211 128.797405 92.5522332 128.71632 91.5657687 128.388605 90.3626193 127.870004 89.3795273 127.446001 87.98583 126.631781 86.9555226 126.756786 86.3754478 129.455369 88.522062 135.524014 88.4697878 138.880562 88.1651361 152.692466 88.0996528 166.505496 88.273338 180.319653 88.3171809 187.216877 87.9394577 194.281338 88.311279 201.153223 88.400651 202.816294 88.8306483 204.377164 88.9798827 206.005605 89.1232151 207.557185 87.6831456 208.813145 87.9453597 210.426383 89.6560746 210.982148 92.3743323 210.460168 94.2132033 210.510846 97.4567323 210.599532 100.599085 210.836027 103.776007 211.51933L103.427794 211.548048C104.315612 211.704304 105.136822 211.892656 105.994287 212.174761 99.319211 212.8682 92.7166439 212.42646 86.1284101 214 85.7194911 212.973778 85.3400816 211.966138 85.2313176 210.857987 84.9126137 207.607018 85.06775 204.159251 85.0441423 200.885476 85.0053582 193.50963 85.0522926 186.134628 85.1849453 178.760471 85.3561011 165.003187 85.1259261 151.250125 85.2279451 137.494529 85.2431214 135.346643 86.3375068 130.813529 85.5399039 129.06853 85.3417679 128.634392 85.1798865 128.302453 85.0458285 127.833685 84.8839472 127.262717 85.1815728 127.070987 85.4606495 126.581103 86.3425656 125.995777 87.1671488 126.042231 88.1831229 126.006757ZM85.1137069 279.498301C100.58802 279.060153 116.048834 279.164836 131.528209 279.162303L194.151806 279.147952 389.36368 279.152173 501.495292 279.147108 534.850732 279.136133C541.817252 279.112495 549.068912 278.70896 556 279.414724 555.767164 281.542145 555.533484 283.671256 555.02057 285.752245L208.470375 285.873812 120.820285 285.875501 100.093665 285.905048C97.8960645 285.890697 94.3486903 285.383323 92.3645229 285.77926 92.1232508 285.827381 91.9317517 286.012264 91.7149442 286.127921L91.4753594 287.010126C91.4357098 286.90291 91.3884677 286.798228 91.355567 286.68848 91.0982664 285.842576 91.1134513 282.836327 90.5119584 282.479224 89.6194205 281.949901 87.9954739 282.230181 86.9831436 282.301939 87.1636758 293.123086 87.5745132 303.961962 87.6512816 314.783953L87.5087117 437.773409 87.6495944 487.071341C87.6436891 495.889166 88.0452468 504.874146 87.2725013 513.662424 87.1240262 515.350009 86.7283738 516.722703 85.5675684 518 85.1693851 515.66068 85.2849595 513.140699 85.2081911 510.764234 85 504.258713 85.0959911 497.784429 85.1204558 491.279753L85.0875551 446.736439 85.1212994 338.750372C84.9621386 318.999681 84.9596078 299.248991 85.1137069 279.498301Z"/><path fill="#363536" d="M556.640415,280 C558.780262,280.101927 560.883798,280.203854 563,280.550068 C561.147267,291.909442 562.183413,303.637773 561.76963,315.068748 C562.492483,323.854678 561.931765,333.06769 561.922476,341.895738 L562.064345,389.317857 L561.94021,473.536427 C562.014522,487.189577 562.842932,500.863786 562.674885,514.510196 C562.652085,516.36257 562.500928,518.153451 561.923321,519.926642 C561.351625,520.47671 561.466471,520.361306 560.756285,520.43038 C544.899968,521.012458 529.025918,520.769855 513.160312,520.769855 L439.347413,520.769013 L212.731367,520.768171 L125.286443,520.776594 C118.735167,520.783333 89.5837633,521.566738 85.0135771,520.159137 C84.9198426,519.267908 85.327714,518.836614 85.7364299,518.06416 C86.8983989,516.789652 87.2944479,515.419957 87.4430718,513.736057 C88.2165919,504.966975 87.8146317,496.00162 87.8205429,487.203055 L87.679519,438.012799 L87.8222318,315.291976 C87.7453865,304.493622 87.3341373,293.678421 87.153424,282.880909 C88.1667691,282.809307 89.7923435,282.52964 90.6857761,283.057807 C91.2878719,283.41413 91.2726717,286.413813 91.5302303,287.257869 C91.563164,287.367377 91.6104534,287.471831 91.6501428,287.578812 C91.9448573,290.079812 91.7506328,292.740019 91.7506328,295.262921 L91.7447217,310.546058 L91.747255,360.326816 C91.7506328,411.796528 92.2969947,463.336999 91.6585873,514.799972 C97.5824337,515.086378 103.572147,514.810923 109.505283,514.800814 L143.710746,514.799972 L251.683507,514.798287 L556.257877,514.734267 C555.564581,507.46629 555.904896,499.980981 555.899829,492.680151 L555.889695,455.318469 L555.891384,345.187724 L555.851695,307.146249 C555.828895,300.211008 555.99863,293.251339 555.660004,286.323679 C556.173432,284.247235 556.407346,282.122775 556.640415,280 Z"/><path fill="#445255" d="M562.05603,315 C562.791563,323.813241 562.22101,333.054892 562.211558,341.910382 L562.355914,389.479913 L562.229602,473.960277 C562.305218,487.655868 563.148158,501.372583 562.977164,515.061414 C562.953964,516.919546 562.800155,518.715993 562.212417,520.494696 C561.630693,521.046474 561.747554,520.930711 561.02491,521 L561.794813,520.384848 C561.711464,519.287206 560.92008,518.630649 560.236104,517.78397 C560.171659,517.331055 560.118384,516.878986 560.059095,516.425227 C559.766085,514.207974 560.658004,512.306748 560.657144,510.0971 C560.657144,505.637245 560.195718,501.23147 560.35812,496.76232 C560.633944,489.163329 561.622101,481.586308 561.573982,473.977177 C561.34198,436.838197 560.877117,399.741466 561.237149,362.596571 C561.390958,346.733582 561.020614,330.845244 562.05603,315 Z"/><path fill="#363536" d="M106.140306,212.244481 C105.282752,211.962991 104.461456,211.77505 103.573545,211.619135 L103.921795,211.59048 C100.744543,210.908668 97.6018624,210.672688 94.3579959,210.584196 C92.5189335,210.533629 89.8003928,211.054469 88.0894998,210.499917 C87.8272585,208.890199 89.2674779,207.636979 89.1241305,206.088785 C88.9748806,204.463897 88.5448385,202.906432 88.4554572,201.24699 C88.0835973,194.390097 88.4613598,187.34105 88.4175124,180.458875 C88.2438091,166.674858 88.3092991,152.891966 88.6139826,139.110197 C88.6662622,135.760972 86.5194246,129.705568 87.0995598,127.012872 C88.1299744,126.88814 89.5238167,127.700584 90.507011,128.123662 C91.7102857,128.641131 92.6968529,128.968132 94.0181783,129.049039 C109.662435,129.998014 125.56809,129.44599 141.240174,129.44599 L222.256732,129.445147 L474.290915,129.458632 L529.224999,129.453575 L544.533655,129.495714 C547.440233,129.5033 550.501121,129.30356 553.375657,129.716524 L555.09161,130.174156 L555.565499,129.884238 C556.713965,129.755292 557.699689,129.472959 558.786599,129.921321 C558.783226,130.671398 558.719141,130.727865 558.40715,131.366695 C557.980481,132.238134 557.732574,132.98147 558.060587,133.952357 C558.528574,135.335366 559.812797,135.847779 561.060763,136.325638 C561.210013,136.382104 561.360106,136.434357 561.509356,136.489138 C561.833995,151.16791 561.297707,165.812971 561.425034,180.491743 C561.517788,191.278538 562.572656,202.473241 561.571754,213.201041 L561.499237,214 C544.612074,211.845844 527.658297,212.304318 510.669104,212.296733 L445.944395,212.322017 L216.01016,212.333816 L141.757911,212.281563 L117.657845,212.29589 C113.868416,212.289991 109.912872,212.506586 106.140306,212.244481 Z"/><path fill="#384042" d="M554.282322,129 L556,129.496055 C555.363573,129.67785 554.971925,129.655925 554.339718,129.571879 C550.33968,129.04385 545.75217,130.900173 541.739471,130.993354 C543.499353,131.630095 552.706447,131.113029 555.490183,131.216259 C552.310579,131.264677 547.501079,130.659911 544.574695,131.718709 C534.678842,131.98181 524.74585,131.797274 514.84662,131.79636 L461.961539,131.794533 L300.84415,131.795447 L169.168697,131.805496 C143.826399,131.804582 118.314444,132.455939 93,131.379784 C94.0787189,131.122164 95.1886683,131.009798 96.2842686,130.864545 L95.8926211,129.982974 C96.3273161,129.457686 117.098986,130.184867 119.048783,130.199484 L173.561227,130.257037 L422.532591,130.257951 L500.358193,130.249729 C518.350347,130.241507 536.356005,130.843533 554.282322,129 Z"/><path fill="#E1E1E0" d="M92.7262406 131C118.030635 131.998047 143.532462 131.393966 168.864699 131.394813L300.487879 131.385494 461.541306 131.384646 514.405392 131.386341C524.300692 131.387188 534.229741 131.55833 544.121666 131.314326 548.023087 131.322798 551.911008 131.344826 555.809054 131.532066 556.19464 140.354364 555.876553 149.338485 555.879084 158.176034L555.733118 206.846517C550.159419 207.124412 544.491221 206.939714 538.907396 206.941408L507.800651 206.929547 415.021248 206.925311 92.1946888 206.996479C92 200.32532 91.8698517 132.275942 92.2115635 131.557483 92.320405 131.329576 92.5549628 131.186393 92.7262406 131ZM92 287.380258 92.2395113 286.49894C92.4562521 286.383399 92.6476925 286.198701 92.8888905 286.15063 94.8724488 285.75509 98.418734 286.261954 100.61566 286.276291L121.335917 286.246773 208.959099 286.245087 555.402908 286.123642C555.741092 293.059491 555.571578 300.027389 555.594349 306.970829L555.633986 345.057279 555.6323 455.318228 555.64242 492.724081C555.64748 500.033542 555.30761 507.527701 556 514.804271L251.824031 514.868367 143.992504 514.870053 109.831784 514.870897C103.90641 514.881017 97.9245311 515.156798 92.0084335 514.870053 92.6460058 463.346238 92.1003586 411.744832 92.0969852 360.21427L92.0944552 310.374658 92.1003586 295.073452C92.1003586 292.547568 92.294329 289.884215 92 287.380258Z"/><path fill="url(#b)" d="M167.514228,361 C197.1515,361.855662 226.873915,361.377399 256.525518,361.369834 L402.933154,361.367313 L460.226654,361.358067 C464.256745,361.371516 468.286274,361.333411 472.315242,361.243755 C474.917576,361.184077 477.880713,360.776418 480.420665,361.247117 C480.827833,362.084287 480.863239,362.971049 480.885157,363.888911 C480.96187,367.074531 480.761236,370.295453 480.761236,373.486115 L480.797485,398.671001 C480.813502,410.84864 481.224042,423.170011 480.828676,435.331681 C480.77641,436.945504 480.515924,438.440812 480.118029,440 C472.579943,438.653466 462.614023,439.469624 454.852543,439.486434 L409.150263,439.49568 L234.780391,439.491478 C227.828188,439.490637 170.167984,439.17964 169.540794,439.430119 C169.030781,439.632687 169.198537,439.629325 168.673349,439.646976 C168.226561,439.661265 168.121186,439.365398 167.829509,439.067009 C167.393679,437.776791 167.220864,436.540367 167.166912,435.184587 C166.940989,429.49334 167.230137,423.686939 167.25627,417.983083 L167.290833,386.11344 C167.299263,380.484392 166.500944,365.538037 167.514228,361 Z"/><path fill="#4F8A8C" d="M174.207709,366 C180.053698,366.28783 185.939381,366.120838 191.791282,366.105733 L218.950385,366.098181 L306.210343,366.098181 L429.899207,366.103216 L460.872307,366.166152 C465.480183,366.219019 470.050053,366.641952 474.662996,366.546289 C475.199287,374.249717 474.952678,382.211605 474.880046,389.937691 C474.78433,399.495648 474.740695,409.053326 474.749141,418.610725 C474.736472,422.829988 473.913034,429.711885 474.84542,433.547656 C471.146282,434.486668 459.483019,433.673529 454.872609,433.666815 L402.137093,433.705417 L173,433.822898 C174.707684,423.904104 172.603905,368.434384 173.418898,366.939013 C173.613989,366.579855 173.944209,366.313004 174.207709,366 Z"/></g></svg>