<svg xmlns="http://www.w3.org/2000/svg" width="932" height="932" viewBox="0 0 932 932"><defs><linearGradient id="a" x1="38.109%" x2="52.287%" y1="34.204%" y2="1.319%"><stop offset="0%" stop-color="#434345"/><stop offset="100%" stop-color="#465659"/></linearGradient><linearGradient id="b" x1="48.913%" x2="51.006%" y1="46.102%" y2="53.845%"><stop offset="0%" stop-color="#232528"/><stop offset="100%" stop-color="#384043"/></linearGradient></defs><g fill="none" transform="translate(194 194)"><polygon fill="#4F8A8C" points="0 0 544 0 544 544 0 544"/><path fill="url(#a)" d="M469.214935,105.032914 C470.263492,105.014865 471.294618,104.853809 472.201647,105.454993 C472.917649,106.384537 473.091247,107.277289 472.95948,108.442864 C472.751024,110.2964 472.211408,112.149241 471.91441,114 C471.791009,113.954876 471.666911,113.911836 471.543511,113.865324 C470.511687,113.471708 469.449884,113.049629 469.062951,111.910434 C468.791748,111.110706 468.996719,110.498414 469.349491,109.780603 C469.607447,109.254394 469.660432,109.207882 469.663221,108.590036 C468.764558,108.220718 467.949557,108.453277 467,108.559491 L467.518701,107.273818 C467.759227,106.549759 468.715059,105.654925 469.214935,105.032914 Z"/><path fill="#445255" d="M467.592845,105 L469,105.290156 C468.491723,105.834047 467.519829,106.616496 467.275261,107.249619 L466.377801,107.921591 C465.17977,108.273663 462.138614,107.334602 460.688926,107.185882 C456.671623,106.773108 452.480641,106.871445 448.434274,106.808315 C423.961832,106.42832 399.409285,106.742757 374.930463,106.73183 L178.824838,106.732437 L115.571636,106.759146 C104.615678,106.773108 93.4754075,107.167671 82.5364628,106.759146 C80.6181954,106.687518 78.7587662,106.450173 77,105.761811 C93.9213019,105.287121 110.815666,105.429164 127.74193,105.458301 L182.969742,105.438269 L374.659666,105.43402 L440.051601,105.430985 C446.255133,105.425522 452.43669,105.301689 458.635968,105.226419 C461.454531,105.192426 464.888414,105.511719 467.592845,105 Z"/><path fill="#384042" d="M74.669498 106.005682 77.7205709 106C79.4748494 106.805429 81.3295341 107.083138 83.2429068 107.166948 94.1539396 107.64495 105.265784 107.183284 116.193787 107.166948L179.285591 107.135697 374.890831 107.134987C399.307192 107.147771 423.79709 106.779859 448.207088 107.224479 452.243131 107.298345 456.423419 107.183284 460.430471 107.666257 461.87646 107.84027 464.909856 108.939033 466.10483 108.527086L467 107.740834 466.473929 109.056225 466.076547 109.300553 464.637628 108.914885C462.227174 108.56686 459.660455 108.73519 457.223132 108.728798L444.385999 108.693285 398.320808 108.697547 186.976558 108.686183 119.039805 108.686893C105.897919 108.686893 92.5601694 109.15211 79.4416164 108.352363 78.3336138 108.284179 77.5063241 108.0086 76.4973134 107.572504 75.672852 107.215956 74.50404 106.53127 73.6399818 106.636388 73.1535072 108.905651 74.9537463 114.00883 74.909907 116.831382 74.6544135 128.445937 74.5994965 140.06144 74.7451561 151.67789 74.7819245 157.477829 74.4651503 163.418398 74.7769749 169.197028 74.851926 170.59552 75.2125395 171.90807 75.3376936 173.277441 75.457898 174.582178 74.2501964 175.638327 74.4700999 176.994913 75.9047759 177.462261 78.1844188 177.023323 79.7265718 177.065938 82.4467288 177.140515 85.0820356 177.339386 87.7463329 177.913982L87.4543067 177.938131C88.1988674 178.069528 88.8875685 178.227915 89.6066742 178.46514 84.0086802 179.048259 78.4714955 178.676796 72.9463312 180 72.6033948 179.137041 72.2852065 178.289707 72.1939925 177.357853 71.9267142 174.624083 72.0568179 171.724824 72.0370195 168.971878 72.0044936 162.769462 72.0438547 156.567756 72.1551028 150.36676 72.2986411 138.798134 72.1056068 127.233059 72.1911641 115.665854 72.2038917 113.859677 73.1216883 110.047741 72.4527857 108.580355 72.2866206 108.215284 72.1508603 107.936154 72.0384337 107.541963 71.9026733 107.061831 72.1522744 106.900603 72.3863197 106.488655 73.1259308 105.996449 73.8174602 106.035513 74.669498 106.005682ZM72.0953593 234.419073C85.0727552 234.050589 98.0388314 234.138628 111.020472 234.136498L163.5392 234.124428 327.251919 234.127978 421.290107 234.123718 449.263353 234.114488C455.105764 234.094609 461.187304 233.755234 467 234.348784 466.804734 236.137955 466.608761 237.928545 466.17861 239.678667L175.547342 239.780905 102.040366 239.782325 84.6581691 239.807175C82.8151708 239.795105 79.8401967 239.368402 78.1761922 239.701386 77.9738515 239.741856 77.8132524 239.897343 77.6314288 239.994611L77.4305031 240.736549C77.3972513 240.646381 77.3576322 240.558342 77.3300402 240.466044 77.1142573 239.754635 77.1269921 237.226367 76.6225553 236.926042 75.8740363 236.480879 74.5121278 236.716595 73.6631459 236.776944 73.8145477 245.877575 74.1590928 254.993114 74.223474 264.094455L74.103909 367.529101 74.222059 408.988868C74.2171066 416.404696 74.5538694 423.961102 73.9058132 431.35208 73.7812959 432.771347 73.4494855 433.925788 72.4759862 435 72.1420533 433.032622 72.2389788 430.913307 72.1745976 428.91469 72 423.44352 72.0805021 417.99862 72.1010192 412.52816L72.0734273 375.067047 72.1017267 284.250313C71.9682479 267.639899 71.9661254 251.029486 72.0953593 234.419073Z"/><path fill="#363536" d="M467.664867,235 C469.460011,235.085433 471.224692,235.170865 473,235.461053 C471.44572,244.982188 472.314955,254.812573 471.967828,264.393722 C472.574238,271.757863 472.103845,279.479972 472.096052,286.879415 L472.215067,326.627416 L472.110929,397.217255 C472.17327,408.660973 472.868233,420.122343 472.727257,431.560414 C472.70813,433.113026 472.581322,434.614096 472.096761,436.100339 C471.617159,436.561392 471.713504,436.464663 471.11772,436.522559 C457.815664,437.010442 444.49873,436.807099 431.188881,436.807099 L369.266344,436.806393 L179.155394,436.805687 L105.796786,436.812747 C100.300841,436.818396 75.8453746,437.475026 72.01139,436.29521 C71.932755,435.548205 72.2749233,435.186706 72.6177999,434.539254 C73.5925899,433.470995 73.9248402,432.322952 74.0495226,430.91155 C74.698438,423.561531 74.3612287,416.047001 74.3661876,408.67227 L74.247881,367.442263 L74.3676045,264.580827 C74.303138,255.529924 73.9581361,246.4649 73.8065336,237.414704 C74.656641,237.354689 76.0203551,237.120279 76.7698665,237.562975 C77.274972,237.861636 77.2622204,240.375893 77.4782894,241.083359 C77.5059179,241.175146 77.5455896,241.262697 77.5788855,241.352365 C77.8261251,243.448639 77.6631878,245.678356 77.6631878,247.792987 L77.6582288,260.60292 L77.6603541,302.327871 C77.6631878,345.468459 78.1215374,388.668356 77.5859697,431.803296 C82.5555563,432.043354 87.5803999,431.812475 92.5577791,431.804002 L121.253157,431.803296 L211.832816,431.801884 L467.343952,431.748224 C466.762336,425.656392 467.047831,419.382399 467.04358,413.263031 L467.035079,381.947431 L467.036496,289.638673 L467.0032,257.753287 C466.984073,251.940347 467.126466,246.106931 466.842388,240.300345 C467.273109,238.559923 467.469342,236.779255 467.664867,235 Z"/><path fill="#445255" d="M472.05603,264 C472.791563,271.401411 472.22101,279.162603 472.211558,286.599495 L472.355914,326.548665 L472.229602,397.495767 C472.305218,408.997404 473.148158,420.516781 472.977164,432.01274 C472.953964,433.573211 472.800155,435.081878 472.212417,436.575643 C471.630693,437.039029 471.747554,436.941811 471.02491,437 L471.794813,436.483391 C471.711464,435.561586 470.92008,435.010206 470.236104,434.299159 C470.171659,433.918799 470.118384,433.539148 470.059095,433.158079 C469.766085,431.296017 470.658004,429.699356 470.657144,427.843681 C470.657144,424.098269 470.195718,420.398273 470.35812,416.645055 C470.633944,410.263378 471.622101,403.900152 471.573982,397.509959 C471.34198,366.320427 470.877117,335.166377 471.237149,303.971877 C471.390958,290.650047 471.020614,277.306928 472.05603,264 Z"/><path fill="#363536" d="M89.0778572,178.526978 C88.3575114,178.290785 87.6676227,178.133088 86.9217779,178.002262 L87.2143077,177.978219 C84.5454158,177.406123 81.9055645,177.208118 79.1807165,177.133865 C77.6359041,177.091436 75.35233,177.528463 73.9151799,177.063149 C73.6948971,175.712466 74.9046814,174.660914 74.7842697,173.361854 C74.6588997,171.998442 74.2976644,170.691604 74.2225841,169.299198 C73.9102217,163.545714 74.2275422,157.630996 74.1907104,151.856297 C74.0447996,140.290398 74.0998113,128.725442 74.3557454,117.161429 C74.3996602,114.351161 72.5963166,109.270189 73.0836302,107.010801 C73.9491785,106.906141 75.1200061,107.587846 75.9458893,107.942843 C76.95664,108.377041 77.7853564,108.651421 78.8952698,108.719308 C92.0364456,109.515575 105.397196,109.052383 118.561746,109.052383 L186.615655,109.051675 L398.324369,109.06299 L444.468999,109.058747 L457.32827,109.094105 C459.769796,109.10047 462.340942,108.932872 464.755552,109.279382 L466.196952,109.663372 L466.595019,109.420108 C467.55973,109.311912 468.387738,109.075012 469.300743,109.451223 C469.29791,110.080599 469.244079,110.127979 468.982006,110.664009 C468.623604,111.395216 468.415362,112.018935 468.690893,112.833587 C469.084002,113.994043 470.16275,114.423998 471.211041,114.82496 C471.336411,114.87234 471.462489,114.916184 471.587859,114.96215 C471.860556,127.278821 471.410074,139.567206 471.517028,151.883877 C471.594942,160.934865 472.481031,170.328121 471.640273,179.329609 L471.579359,180 C457.394142,178.192489 443.152969,178.577187 428.882047,178.570822 L374.513292,178.592037 L181.368534,178.601937 L118.996645,178.558093 L98.7525902,178.570115 C95.5694692,178.565165 92.2468121,178.746906 89.0778572,178.526978 Z"/><path fill="#384042" d="M465.556853,108 L467,108.496055 C466.465291,108.67785 466.13624,108.655925 465.605076,108.571879 C462.244353,108.04385 458.390052,109.900173 455.018692,109.993354 C456.497296,110.630095 464.232846,110.113029 466.571666,110.216259 C463.900249,110.264677 459.859438,109.659911 457.40077,110.718709 C449.086543,110.98181 440.741114,110.797274 432.42405,110.79636 L387.991444,110.794533 L252.624999,110.795447 L141.994866,110.805496 C120.702957,110.804582 99.2685066,111.455939 78,110.379784 C78.9063103,110.122164 79.8388596,110.009798 80.7593531,109.864545 L80.4303015,108.982974 C80.7955204,108.457686 98.2473119,109.184867 99.8854784,109.199484 L145.68535,109.257037 L354.864315,109.257951 L420.251268,109.249729 C435.367786,109.241507 450.49565,109.843533 465.556853,108 Z"/><path fill="#E1E1E0" d="M77.6104177 110C98.8791972 110.840461 120.313923 110.331761 141.606105 110.332474L252.237657 110.324626 387.605839 110.323913 432.039015 110.32534C440.356185 110.326053 448.701722 110.470173 457.016055 110.264695 460.295267 110.27183 463.563132 110.29038 466.839507 110.448056 467.163599 117.877359 466.896241 125.442935 466.898368 132.885081L466.775681 173.870752C462.090891 174.104768 457.326673 173.949233 452.633372 173.95066L426.487616 173.940671 348.504928 173.937104 77.1636393 173.997035C77 168.379217 76.8906081 111.074477 77.1778228 110.46946 77.269306 110.277538 77.4664558 110.156962 77.6104177 110ZM77 241.157247 77.2013134 240.418325C77.3834878 240.321452 77.5443967 240.166597 77.7471278 240.126292 79.4143428 239.794661 82.3950566 240.21963 84.2416106 240.23165L101.657344 240.206902 175.30614 240.205487 466.498134 240.103665C466.782383 245.918875 466.639904 251.760955 466.659043 257.582529L466.692359 289.515273 466.690941 381.961134 466.699448 413.323247C466.703701 419.451704 466.418034 425.735015 467 431.835895L211.334853 431.889635 120.700596 431.891049 91.9879223 431.891756C87.0075429 431.900241 81.9796705 432.131464 77.0070885 431.891049 77.542979 388.692042 77.0843531 345.427982 77.0815177 302.223318L77.0793912 260.436394 77.0843531 247.607435C77.0843531 245.489664 77.2473886 243.256634 77 241.157247Z"/><path fill="url(#b)" d="M140.432344,303 C165.350306,303.714857 190.339852,303.315296 215.269862,303.308976 L338.36418,303.306869 L386.534511,303.299145 C389.922869,303.31038 393.310753,303.278546 396.698165,303.203643 C398.886115,303.153786 401.377415,302.81321 403.512916,303.206452 C403.855248,303.90586 403.885016,304.6467 403.903444,305.413521 C403.967941,308.074924 403.799256,310.765821 403.799256,313.431438 L403.829733,334.471975 C403.843199,344.645699 404.188367,354.939503 403.855957,365.099885 C403.812014,366.448142 403.593006,367.697387 403.25847,369 C396.920716,367.875048 388.541727,368.556901 382.016151,368.570945 L343.591304,368.57867 L196.987335,368.575159 C191.142171,368.574456 142.663528,368.314636 142.136209,368.523897 C141.707408,368.693131 141.848452,368.690322 141.406893,368.705069 C141.031248,368.717006 140.942653,368.469826 140.697421,368.220539 C140.330991,367.142635 140.185695,366.109674 140.140334,364.976997 C139.950386,360.222284 140.193491,355.371367 140.215463,350.60612 L140.244522,323.980849 C140.25161,319.278099 139.580412,306.791271 140.432344,303 Z"/><path fill="#4F8A8C" d="M146.015756,307 C150.932581,307.241269 155.882791,307.101291 160.804588,307.088629 L183.647013,307.082299 L257.037838,307.082299 L361.067545,307.086519 L387.117768,307.139275 C390.993266,307.183589 394.8368,307.538107 398.71656,307.457919 C399.167612,313.915204 398.960199,320.58914 398.899112,327.065417 C398.818609,335.077235 398.781909,343.088818 398.789012,351.100166 C398.778358,354.636902 398.085797,360.405551 398.869989,363.620829 C395.758793,364.407943 385.949294,363.72634 382.071665,363.720713 L337.717953,363.75307 L145,363.851547 C146.436264,355.537264 144.666861,309.040587 145.352318,307.787114 C145.516402,307.486055 145.794136,307.262371 146.015756,307 Z"/></g></svg>