<svg xmlns="http://www.w3.org/2000/svg" width="932" height="932" viewBox="0 0 932 932"><g fill="none" transform="translate(135 135)"><polygon fill="#006DB0" points="0 0 662 0 662 662 0 662"/><path fill="#FEFEFE" d="M144,172.116764 C164.327071,171.875313 184.677391,172.083194 205.008337,172.083194 L322.411446,172.081902 L381.727798,172.074155 C396.396406,172.075447 411.152842,171.658394 425.755578,173.320147 C453.440848,176.469344 479.990808,187.862748 497.613287,210.210552 C512.518256,229.11348 518.077267,254.154693 515.326176,277.838873 C512.808864,299.506224 502.000824,317.988225 484.96602,331.494005 C486.811705,332.370719 488.583769,333.410121 490.330001,334.470183 C508.891466,345.73576 520.859355,363.83557 525.821651,384.778568 C531.772014,409.886923 529.828169,438.937261 516.055925,461.135289 C513.337125,465.196061 510.37163,468.999888 506.932121,472.479627 C491.824372,487.762076 470.882503,495.655081 450.158913,499.73393 C427.980991,504.100712 405.699741,503.974176 383.209254,503.972885 L330.5291,503.96772 L144.015499,504 L144,172.116764 Z"/><path fill="#006DB0" d="M214.218559 238.169576C214.144815 237.238187 213.975334 236.974488 214.53941 236.202877 219.260313 235.980746 224.009679 236.214568 228.735757 236.218465L255.374122 236.187289 337.867667 236.192485 388.307198 236.193784C398.115137 236.188588 408.478095 235.468937 418.191589 236.836793 425.616435 237.882495 433.129256 240.644188 438.706623 245.811645 444.82866 251.483118 447.673622 259.231706 447.977654 267.490804 448.289449 275.981126 445.33193 283.744003 439.50875 289.892212 430.860014 299.025543 419.251172 302.648479 406.941117 302.866712 390.140446 303.162886 373.280262 302.873207 356.473123 302.871908L256.7662 302.871908C242.686291 302.873207 228.562394 302.618601 214.490247 302.891393 213.830433 302.011964 213.940402 244.438593 214.218559 238.169576ZM214.255991 369.972056 214.203061 368.720652C215.166125 368.018519 216.312506 368.022406 217.48987 368.005565 220.388098 367.962815 223.285034 368.18045 226.184552 368.179155L256.331281 368.132519 350.461058 368.141587 393.646582 368.124746C404.529458 368.113087 415.800916 367.592317 426.577933 369.308786 436.282153 370.854256 446.158073 374.482807 452.047477 382.811246 457.703216 390.809345 458.989022 402.897174 457.324962 412.350062 456.07143 419.460779 452.37022 425.129662 446.483397 429.25696 438.542641 434.822207 428.506642 436.985606 419.039959 438.086737 408.998796 439.256527 398.903411 438.967642 388.813191 438.970233L349.353406 438.972824 214.549041 438.99096C213.675054 437.493422 214.058472 377.195476 214.255991 369.972056Z"/></g></svg>