<svg xmlns="http://www.w3.org/2000/svg" width="932" height="932" viewBox="0 0 932 932"><g fill="none" transform="translate(181 181)"><polygon fill="#006DB0" points="0 0 570 0 570 570 0 570"/><path fill="#FEFEFE" d="M124,148.100586 C141.476002,147.892589 158.971991,148.071667 176.451324,148.071667 L277.387503,148.070555 L328.384159,148.063881 C340.995352,148.064993 353.682054,147.705725 366.236614,149.137235 C390.038755,151.850098 412.864825,161.664897 428.015579,180.916319 C440.829981,197.200166 445.609286,218.771814 443.244063,239.174451 C441.079828,257.839699 431.787721,273.760941 417.142215,285.395438 C418.729024,286.150679 420.252539,287.046068 421.753845,287.959254 C437.711884,297.663937 448.00116,313.255943 452.267445,331.2972 C457.383212,352.926686 455.71201,377.951978 443.871458,397.074375 C441.533996,400.57251 438.98444,403.849301 436.027356,406.846908 C423.038616,420.011909 405.034048,426.811305 387.217144,430.325012 C368.149891,434.086758 348.993804,433.977754 329.657826,433.976642 L284.366577,433.972193 L124.013325,434 L124,148.100586 Z"/><path fill="#006DB0" d="M185.187737 204.878141C185.124393 204.071863 184.978812 203.843587 185.463339 203.175625 189.518474 202.983333 193.598057 203.185745 197.657637 203.189119L220.53931 203.16213 291.39915 203.166629 334.725414 203.167753C343.150181 203.163255 352.051697 202.540274 360.395339 203.724388 366.773091 204.629623 373.226412 207.020342 378.017228 211.493663 383.275901 216.403296 385.71965 223.111029 385.980806 230.260696 386.248629 237.610527 383.708196 244.330629 378.706234 249.652959 371.277191 257.559425 361.305494 260.695698 350.731472 260.884616 336.300126 261.141006 321.817661 260.890239 307.380759 260.889114L221.735069 260.889114C209.640788 260.890239 197.508723 260.669834 185.42111 260.905982 184.854347 260.144685 184.948807 210.305051 185.187737 204.878141ZM184.22032 318.694301 184.174766 317.619152C185.003632 317.015911 185.990271 317.01925 187.003577 317.004781 189.497953 316.968052 191.991218 317.155035 194.486705 317.153922L220.43266 317.113854 301.445993 317.121645 338.613862 317.107176C347.980271 317.097159 357.681116 316.649737 366.956417 318.12445 375.30841 319.452248 383.808177 322.569736 388.876927 329.725155 393.744571 336.596761 394.851208 346.982079 393.419025 355.103575 392.340165 361.212782 389.154697 366.08323 384.08817 369.62922 377.253913 374.410629 368.616372 376.269324 360.468818 377.215366 351.826832 378.220397 343.138182 377.9722 334.453976 377.974426L300.492685 377.976652 184.472535 377.992234C183.720334 376.705616 184.050325 324.900339 184.22032 318.694301Z"/></g></svg>