<?xml version="1.0" encoding="utf-8"?>
<!DOCTYPE svg PUBLIC "-//W3C//DTD SVG 1.0//EN" "http://www.w3.org/TR/2001/REC-SVG-20010904/DTD/svg10.dtd">
<svg version="1.0" xmlns="http://www.w3.org/2000/svg" width="1024px" height="1024px" viewBox="0 0 1024 1024" preserveAspectRatio="xMidYMid meet">
 <g fill="#ffffff">
  <path d="M678.85 864.70 c-0.65 -0.65 -0.35 -1.20 0.70 -1.20 0.55 0 0.95 0.25 0.85 0.60 -0.25 0.70 -1.10 1.05 -1.55 0.60z"/>
  <path d="M441.75 846.10 c-7.95 -2 -12.35 -3.25 -17.75 -4.90 -14.75 -4.55 -17.85 -5.80 -22 -8.95 -1.25 -0.90 -2.40 -1.70 -2.60 -1.70 -0.35 -0.05 -7.35 -4.60 -12.65 -8.20 -3.60 -2.45 -20.85 -13.15 -23 -14.25 -1.65 -0.85 -5.45 -3.30 -8.50 -5.50 -1.10 -0.80 -2.75 -1.85 -3.70 -2.30 -1.60 -0.85 -1.65 -1 -1.45 -3.20 0.20 -2.20 1.05 -4.45 4.40 -11.85 0.75 -1.65 2.10 -4.70 3 -6.75 0.85 -2.05 2.60 -5.85 3.80 -8.40 1.20 -2.55 2.20 -4.75 2.20 -4.85 0 -0.25 6.50 -14.20 10.25 -22 2.75 -5.75 11.35 -24.20 13.25 -28.50 0.60 -1.35 3.70 -7.80 6.90 -14.25 3.15 -6.45 6.55 -13.55 7.60 -15.75 2.20 -4.75 5.10 -10.80 10.90 -22.75 5.90 -12.25 7.20 -14.85 13.20 -26.75 14.55 -28.80 29.20 -59.05 33.50 -69.20 1.10 -2.65 2.20 -5 2.40 -5.30 0.20 -0.25 0.85 -1.95 1.50 -3.75 1.30 -3.70 4.10 -10.40 5.45 -13 0.50 -0.95 1.80 -4.35 2.80 -7.50 1.05 -3.15 2.20 -6.35 2.60 -7.10 0.35 -0.70 0.65 -1.65 0.65 -2.10 0 -0.45 0.90 -3.85 2.05 -7.55 1.10 -3.70 1.95 -7.25 1.85 -7.85 -0.15 -1.25 -1.60 -1.55 -13.60 -2.90 -2.75 -0.30 -5.35 -0.75 -5.85 -1.05 -0.50 -0.25 -1.50 -0.45 -2.25 -0.45 -0.75 0 -2.15 -0.20 -3.15 -0.45 -1 -0.25 -3.15 -0.75 -4.80 -1.05 -1.65 -0.35 -4.25 -1 -5.80 -1.55 -2.85 -0.95 -11.55 -5.10 -12.95 -6.20 -0.40 -0.35 -3.45 -2 -6.75 -3.75 -3.30 -1.70 -6.55 -3.50 -7.25 -4 -0.70 -0.45 -3.60 -2.25 -6.50 -4 -16.10 -9.65 -17.95 -11.20 -29.35 -24.50 -3.20 -3.70 -6.15 -7.10 -6.60 -7.50 -0.45 -0.40 -2.35 -2.65 -4.25 -5 -1.90 -2.35 -3.70 -4.45 -4 -4.75 -0.30 -0.25 -1.40 -1.65 -2.40 -3 -1 -1.40 -2.30 -2.95 -2.90 -3.50 -0.60 -0.55 -1.45 -1.75 -1.90 -2.75 -0.80 -1.80 -0.90 -3 -2.10 -26.75 -0.85 -17.50 -0.10 -43.35 1.70 -59.25 0.55 -4.85 0.50 -5.40 -0.40 -7.50 -1.10 -2.55 -2.25 -15.90 -3.25 -37 -0.30 -6.75 -0.65 -13.80 -0.75 -15.75 -0.30 -4.85 -0.75 -23.75 -1 -37.70 -0.15 -10.30 0.30 -29.50 0.95 -41.30 0.10 -2.20 0.30 -5.90 0.45 -8.25 0.60 -11.35 2.40 -31.95 3.30 -38.50 0.25 -1.80 0.85 -6.40 1.30 -10.25 1.05 -9.25 2.40 -16.85 3.60 -20.25 1.60 -4.60 4 -5.10 8.20 -1.75 1.20 0.95 2.95 2.25 3.90 2.95 3.20 2.15 16.15 13.95 24.75 22.55 9.60 9.55 23.30 24.05 24.15 25.50 0.20 0.35 1.25 1.65 2.35 2.85 1.10 1.15 4.25 4.85 6.95 8.15 2.70 3.30 5.20 6.25 5.55 6.50 0.30 0.30 2.25 2.65 4.30 5.30 4.65 5.95 7.80 9.70 11.70 13.80 l3 3.20 3.75 -1.25 c3.85 -1.25 9.90 -3.05 13 -3.80 4.55 -1.10 6.60 -1.55 11 -2.50 2.60 -0.60 5.65 -1.30 6.75 -1.55 1.10 -0.25 2.90 -0.70 4 -1 1.10 -0.25 4.15 -0.80 6.75 -1.20 2.60 -0.40 5.90 -0.95 7.25 -1.25 1.40 -0.30 4.15 -0.75 6.20 -1.05 2.05 -0.25 3.85 -0.60 4.05 -0.70 0.20 -0.10 2.80 -0.55 5.80 -1 3 -0.40 6.25 -0.90 7.20 -1.05 0.95 -0.20 2.65 -0.40 3.75 -0.50 1.10 -0.10 6.15 -0.65 11.25 -1.20 17.80 -1.95 26.75 -2.10 38.65 -0.50 2.10 0.25 5.55 0.70 7.60 1 l3.80 0.45 10.10 -7.45 c5.55 -4.10 11.35 -8.45 12.85 -9.65 1.50 -1.20 3.45 -2.60 4.25 -3.15 0.85 -0.50 2.20 -1.55 3 -2.30 0.85 -0.75 1.65 -1.40 1.90 -1.40 0.20 0 1.65 -1.05 3.25 -2.30 1.55 -1.25 3.40 -2.70 4.10 -3.25 3.60 -2.70 15.80 -12.30 19.50 -15.35 5.65 -4.60 17.40 -13.80 23.80 -18.60 0.95 -0.70 4.50 -3.45 8 -6.15 3.45 -2.70 7.10 -5.45 8.10 -6.10 1 -0.65 3 -2 4.35 -3 1.40 -0.95 3 -1.75 3.65 -1.75 1.80 0 2.90 3.20 3.60 10.50 0.30 3.45 0.75 7.50 1 9 1.30 8 4.95 58 5.75 78.50 0.15 2.90 0.45 11.55 0.75 19.25 0.30 7.70 0.75 16.95 1.05 20.50 0.25 3.60 0.60 15.10 0.80 25.60 l0.30 19.05 -1.30 1.25 -1.35 1.20 0.95 4.70 c0.50 2.60 1.20 6.30 1.55 8.20 0.30 1.95 0.80 4.75 1.05 6.25 0.25 1.50 1.05 6.15 1.80 10.25 0.70 4.15 1.50 9.40 1.75 11.75 0.25 2.35 0.65 5.70 0.90 7.50 1.45 10.20 2.05 19.80 2.30 37.75 l0.25 19.50 -2.40 3.60 c-4.55 6.70 -7.80 11.40 -11.35 16.15 -1.90 2.60 -4.75 6.45 -6.25 8.50 -7.35 9.90 -15 18.80 -25.70 29.85 -3.80 3.90 -7.55 7.90 -8.25 8.85 -1.60 2.10 -9.95 6.40 -22.85 11.80 -2.75 1.10 -5.70 2.40 -6.55 2.75 -2.50 1.15 -10.20 3.75 -13.45 4.55 -5.90 1.45 -7.05 1.70 -10.25 2.20 -1.80 0.25 -5.50 0.95 -8.25 1.50 -4.60 0.90 -9.15 1.70 -22.25 3.70 -2.60 0.40 -7 0.90 -9.75 1.05 -2.75 0.20 -6.25 0.70 -7.75 1.05 -1.50 0.40 -3.45 0.70 -4.35 0.70 -0.90 0 -1.65 0.15 -1.65 0.40 0 0.20 0.25 2.25 0.50 4.55 0.65 4.90 1.90 7.70 4 8.80 1.85 0.95 9.60 1.20 10.65 0.35 0.40 -0.35 1.80 -0.80 3.15 -1.10 1.35 -0.25 4.35 -0.90 6.70 -1.45 2.35 -0.50 5.50 -1.10 7 -1.25 1.50 -0.20 3.75 -0.55 5 -0.85 1.25 -0.25 3.70 -0.70 5.50 -0.95 29.50 -4.15 27.35 -3.95 27.95 -2.40 0.50 1.30 -0.40 7.90 -1.30 9.70 -0.30 0.55 -0.90 2.75 -1.35 4.95 -0.50 2.20 -1.05 4.55 -1.30 5.25 -0.25 0.70 -0.65 2.40 -0.95 3.75 -0.75 3.55 -2.05 9.15 -2.60 11.50 -0.25 1.10 -1.25 3.60 -2.20 5.50 -0.90 1.95 -1.85 4.20 -2.05 5 -0.80 3.35 -10.05 22.15 -11.20 22.75 -0.60 0.35 -1.35 0.35 -2.20 0 -2.10 -0.80 -1.70 -2.80 2.15 -10.70 4.55 -9.25 8.05 -18.70 11 -29.55 0.60 -2.20 1.30 -4.65 1.55 -5.50 0.20 -0.80 0.70 -3.05 1.05 -5 0.35 -1.90 0.80 -3.70 1.05 -3.95 0.20 -0.30 0.40 -1.10 0.40 -1.85 0 -0.75 0.35 -2.50 0.85 -3.90 0.50 -1.55 0.65 -2.75 0.35 -3 -0.50 -0.50 -10.15 0.85 -14.95 2.10 -1.65 0.45 -6.95 1.45 -11.75 2.30 -4.80 0.85 -10.85 2.15 -13.45 2.90 -4.25 1.25 -4.80 1.55 -5.60 3.10 -0.50 0.95 -1.15 1.95 -1.45 2.25 -0.25 0.25 -0.50 0.90 -0.50 1.35 0 0.85 1.25 1.25 7.25 2.45 1.65 0.35 3.55 0.80 4.25 1.05 0.70 0.20 2.85 0.80 4.75 1.25 5.60 1.35 7.30 2.65 6.45 4.85 -0.40 1.15 -3.45 2 -5.90 1.70 -4.35 -0.65 -14.10 -1.85 -14.70 -1.85 -1.10 0 3.15 6.80 6.60 10.50 0.35 0.40 1.15 1.50 1.70 2.45 1.15 1.90 5.35 7.65 9.65 13.25 1.55 2 3.40 4.55 4.15 5.70 0.70 1.10 1.50 2.15 1.80 2.35 0.85 0.55 0.55 2.15 -0.60 3.25 -1.85 1.75 -3.10 1.30 -5.90 -2.10 -3.15 -3.90 -7.40 -9.35 -8.75 -11.20 -0.55 -0.75 -1.45 -1.90 -2 -2.50 -0.55 -0.65 -1.45 -1.75 -2 -2.45 -0.55 -0.70 -1.50 -1.90 -2.10 -2.60 -0.65 -0.70 -1.15 -1.50 -1.15 -1.70 0 -0.25 -0.35 -0.45 -0.75 -0.45 -0.40 0 -0.75 -0.30 -0.75 -0.70 0 -0.40 -0.35 -0.80 -0.75 -1 -0.40 -0.15 -0.75 -0.55 -0.75 -0.90 0 -0.35 -0.90 -1.65 -1.95 -2.85 -1.80 -2.05 -1.95 -2.10 -2.30 -1.10 -0.45 1.40 0 2.55 2.65 7.30 1.25 2.20 2.90 5.25 3.75 6.75 0.80 1.50 2.55 4.55 3.80 6.75 1.30 2.20 2.85 5 3.50 6.25 0.60 1.25 1.55 2.95 2.05 3.75 1 1.50 3 5.20 5.60 10.25 0.80 1.50 2 3.65 2.70 4.75 1.45 2.35 2.20 4.05 2.20 4.95 0 0.90 -1.80 2.35 -5.15 4.05 -4.35 2.30 -12.55 7.95 -12.75 8.80 -0.05 0.40 0.85 1.70 2 2.80 3.85 3.65 8.50 7.65 9 7.65 0.80 0 3.40 -2 8.15 -6.25 2.50 -2.20 6.20 -5.35 8.25 -7 2.05 -1.65 5.35 -4.35 7.25 -6 8.25 -7.15 11.05 -9.20 12.60 -9.20 2.05 -0.10 3.15 3 6.25 17.45 0.25 1.25 0.55 3.25 0.65 4.45 0.10 1.20 0.40 2.80 0.70 3.50 0.25 0.70 0.75 3 1.05 5.05 0.30 2.05 0.60 3.80 0.70 3.85 0.20 0.25 10.15 -4.30 14.55 -6.65 3.40 -1.80 6.90 -3.25 10 -4.25 1.30 -0.40 1.65 -0.30 2.60 0.90 0.65 0.80 1.15 1.85 1.15 2.45 0 0.60 0.55 2.85 1.25 5 0.70 2.15 1.25 4.45 1.25 5.10 0 0.60 0.20 1.50 0.45 2 0.55 1.05 3.50 11.15 5.60 19.10 0.80 3.15 1.90 7 2.40 8.50 1.30 3.80 2.95 9.45 3.30 11.25 0.20 0.85 0.65 2.20 1 3 0.35 0.85 1.15 3.30 1.70 5.50 1.70 6.45 3.35 10.90 4.45 11.75 0.55 0.45 2.75 1.45 4.95 2.20 2.15 0.75 4.50 1.70 5.25 2.10 0.70 0.40 1.60 0.70 2 0.70 1.40 0 3.45 1.25 3.65 2.25 0.10 0.55 0.45 4.60 0.80 9 0.65 9.10 0.95 12.10 2.35 23.85 0.55 4.60 1.15 8.60 1.30 8.85 0.35 0.50 -0.90 3.50 -2.30 5.60 -0.80 1.25 -4.30 7.95 -14.35 27.70 -4 7.85 -6.55 13.50 -8.35 18.50 -0.50 1.40 -1.15 2.95 -1.50 3.50 -0.35 0.55 -0.90 1.95 -1.25 3.15 -0.65 2.25 -0.75 2.35 -6.15 7.25 -1.90 1.70 -5.70 5.35 -8.50 8.15 -2.80 2.75 -6.60 6.45 -8.55 8.20 -1.90 1.75 -5.05 4.65 -7 6.45 -1.90 1.85 -4.75 4.35 -6.25 5.60 -2.70 2.25 -2.85 2.30 -7.25 2.70 -2.45 0.20 -5.30 0.45 -6.25 0.55 -11.05 1.05 -29.85 2.25 -33.35 2.05 -2.40 -0.10 -6.40 -0.65 -8.90 -1.20 -7.30 -1.65 -25.90 -6.10 -27.50 -6.60 -0.80 -0.30 -5 -1.40 -9.25 -2.55 -4.25 -1.10 -8.15 -2.15 -8.60 -2.30 -1.10 -0.35 -4.90 -3.95 -4.90 -4.65 0 -0.30 -0.35 -0.55 -0.75 -0.55 -0.40 0 -0.75 -0.20 -0.75 -0.45 0 -0.45 -5.85 -7.60 -8.40 -10.30 -0.55 -0.55 -1.20 -1.50 -1.55 -2.10 -0.30 -0.65 -0.80 -1.15 -1.05 -1.15 -0.95 0 -6.10 3.80 -15.30 11.25 -8.40 6.85 -13.10 10.40 -14.85 11.30 -0.90 0.45 -4.30 1.55 -7.60 2.35 -3.30 0.85 -7.25 1.90 -8.75 2.35 -1.50 0.40 -3.85 0.95 -5.25 1.20 -2.60 0.50 -10.90 2.15 -21 4.30 -3.30 0.70 -6.35 1.20 -6.75 1.20 -0.40 -0.05 -3.90 -0.85 -7.75 -1.85z m12.30 -3.55 c8.55 -1.60 21.60 -4.10 23.45 -4.55 5.50 -1.25 6.95 -1.60 8.75 -1.95 5.40 -1.15 9.40 -2.10 9.95 -2.40 0.50 -0.30 4.35 -3.35 15.05 -12 1.65 -1.30 3.90 -3.05 5 -3.90 2.85 -2.10 8.75 -7.40 8.75 -7.85 0 -0.20 -0.40 -0.75 -0.90 -1.25 -1.20 -1.15 -8.65 -11.20 -12.15 -16.40 -1.50 -2.20 -2.90 -4.25 -3.20 -4.60 -0.25 -0.35 -1.40 -1.85 -2.50 -3.40 -6.35 -8.90 -8.75 -11.65 -10.40 -12 -0.85 -0.20 -2.45 -0.80 -3.45 -1.30 -1.05 -0.55 -2.30 -0.95 -2.80 -0.95 -1.90 0 -2.25 -1.15 -1.60 -5.35 0.90 -5.60 0.75 -6.65 -1.05 -9.95 -0.90 -1.60 -3.25 -6.10 -5.20 -9.95 -2 -3.85 -4.40 -8.25 -5.35 -9.75 -0.95 -1.50 -2.80 -4.75 -4.15 -7.25 -1.30 -2.45 -2.70 -4.85 -3 -5.25 -0.35 -0.40 -1.05 -1.65 -1.60 -2.75 -6.85 -13.50 -9.85 -19.25 -10.95 -20.75 -1.40 -1.95 -1.85 -4.95 -1.25 -7.60 0.85 -3.65 1.85 -11.40 3 -23.65 0.30 -3 0.75 -7.30 1.05 -9.50 0.30 -2.20 0.75 -6.35 1 -9.25 0.30 -2.90 0.70 -6.95 0.95 -9 0.55 -4.50 0.85 -7.40 1.60 -15 0.30 -3.15 0.75 -7.30 1 -9.25 0.40 -3 0.80 -6.80 1.70 -16.50 0.15 -1.85 1 -10.45 2.25 -22.50 0.25 -2.75 0.70 -7.45 1 -10.50 0.30 -3 0.65 -6.75 0.80 -8.25 l0.25 -2.75 -1.20 2.10 c-0.70 1.15 -2.65 5.20 -4.40 9 -1.70 3.80 -3.25 7.15 -3.50 7.40 -0.20 0.30 -5 9.65 -10.60 20.75 -5.60 11.15 -10.40 20.70 -10.70 21.25 -1.05 1.95 -22.60 45.60 -24.80 50.25 -6.15 12.90 -8.25 17.30 -11.35 23.75 -1.85 3.85 -3.75 7.90 -4.25 9 -0.45 1.10 -3.40 7.20 -6.50 13.50 -3.10 6.35 -7.95 16.45 -10.75 22.50 -2.80 6.05 -5.90 12.70 -6.85 14.75 -0.95 2.05 -3.20 6.80 -4.90 10.50 -1.75 3.70 -3.75 8.20 -4.50 10 -1.20 2.95 -1.75 4.20 -4 9.25 -2.10 4.60 -3.20 7.25 -4 9.50 -0.50 1.40 -1.20 3.20 -1.55 4.10 -1 2.25 -0.90 2.60 1.35 4.55 2.30 2 13.85 10.10 14.35 10.10 0.30 0 4.10 2.60 13.80 9.35 3.70 2.60 15.35 10.25 20.35 13.35 1.70 1.05 3.80 2.10 4.60 2.35 0.85 0.25 3 0.95 4.80 1.65 3.40 1.20 12.30 4 15.80 4.90 1.10 0.30 2.55 0.70 3.25 0.95 0.70 0.20 3.50 0.85 6.25 1.45 2.75 0.55 5.55 1.25 6.25 1.45 0.70 0.25 1.40 0.45 1.55 0.50 0.15 0.05 2.60 -0.40 5.50 -0.90z m172.95 -4.35 c7.55 -0.40 14.20 -0.90 14.75 -1.05 0.55 -0.15 2.15 -1.30 3.50 -2.50 3.75 -3.35 18.30 -17.25 23.45 -22.45 2.50 -2.50 4.95 -4.75 5.40 -5 3.10 -1.65 8.40 -9.15 8.40 -11.85 0 -0.70 -0.15 -0.70 -1.35 -0.05 -0.80 0.35 -2.65 0.70 -4.15 0.70 -2.85 0 -13.25 1.15 -18 2 -4.60 0.80 -6 0.35 -7.95 -2.80 -0.90 -1.50 -1.85 -2.70 -2.10 -2.70 -0.20 0 -1.05 -0.95 -1.85 -2.10 -0.85 -1.20 -2.45 -3.20 -3.65 -4.50 -1.20 -1.30 -2.85 -3.20 -3.70 -4.25 -0.80 -1 -1.90 -2.25 -2.40 -2.80 -1.45 -1.50 -1.15 -4.50 1.20 -11.60 1.20 -3.60 2.20 -6.85 2.20 -7.25 0.05 -0.40 0.30 -1.30 0.60 -2 1.40 -3.15 4.55 -11.90 4.90 -13.35 0.25 -1.30 0.15 -1.65 -0.45 -1.65 -0.45 0 -0.80 0.40 -0.80 1 0 1.45 -1.90 8.40 -2.95 10.75 -1.05 2.35 -3.65 5.10 -5.80 6.10 -1.75 0.85 -3.55 1.85 -7 3.85 -5.50 3.25 -17.40 8.90 -21.10 10 -1.35 0.45 -3.65 -1.15 -5.65 -3.90 -3.10 -4.15 -6.90 -8.20 -29.95 -31.70 -3.65 -3.80 -7 -7.35 -7.45 -8 -0.80 -1.25 -0.65 -2 1.50 -8.10 0.55 -1.50 2.10 -6 3.50 -10 1.35 -4 2.70 -7.45 2.95 -7.70 0.25 -0.30 0.45 -0.80 0.45 -1.20 0 -0.55 4.80 -13.25 7 -18.40 0.20 -0.60 1.15 -1.90 2 -2.90 1.30 -1.45 1.85 -1.75 2.90 -1.50 0.75 0.15 3.15 0.70 5.35 1.20 10.40 2.40 13.40 3.05 18.50 4.05 8.80 1.70 13.45 2.40 15 2.30 1.40 -0.10 1.65 0.15 3.25 3.45 0.95 1.95 2.25 4.15 2.90 4.95 0.60 0.75 1.10 1.60 1.10 1.90 0 0.25 0.80 1.70 1.75 3.10 1.55 2.35 2.55 4.15 7.30 12.70 0.70 1.25 2.45 4.55 3.90 7.30 3.55 6.60 6.50 11.25 7.30 11.25 0.30 0 1.50 -0.65 2.55 -1.40 1.05 -0.80 4.90 -3.20 8.45 -5.35 5.95 -3.55 14.55 -9.05 17.80 -11.30 2.85 -1.95 3.60 -1.75 6.35 1.30 1.40 1.60 3.60 4.70 4.90 6.95 3.30 5.60 6.15 9.85 7.55 11.20 1.50 1.45 1.45 2.85 -0.10 4.40 -1.20 1.20 -1.20 1.30 -0.70 5.05 0.30 2.30 0.90 4.30 1.50 5.15 1.30 1.75 1 2.90 -2 7.25 -1.35 1.95 -4.50 6.90 -7 11 -2.50 4.15 -6.35 10.25 -8.55 13.65 -2.20 3.35 -4 6.30 -4 6.60 0 0.75 1.80 1.50 3.70 1.50 1.55 0 2 -0.30 3.30 -2.10 0.80 -1.10 1.50 -2.25 1.50 -2.45 0 -0.20 2.15 -4.80 4.75 -10.25 2.60 -5.40 4.75 -9.95 4.75 -10.05 0 -0.60 8.20 -16.40 8.80 -17 0.60 -0.65 0.90 -1.70 0.75 -2.75 -0.45 -3.45 -2.25 -19 -3.05 -26.60 -0.55 -5.45 -1.15 -10.10 -1.30 -10.35 -0.15 -0.25 -0.65 -0.45 -1.15 -0.45 -0.50 0 -1.20 -0.35 -1.55 -0.75 -0.35 -0.40 -0.85 -0.75 -1.15 -0.75 -0.25 0 -1.40 -0.45 -2.55 -0.95 -1.15 -0.55 -3.60 -1.60 -5.55 -2.30 -1.90 -0.70 -4 -1.50 -4.60 -1.80 -0.65 -0.25 -1.65 -0.65 -2.25 -0.90 -0.65 -0.25 -1.95 -0.60 -2.90 -0.75 -1.70 -0.30 -5.60 -3.30 -9.30 -7.30 -0.90 -0.95 -4 -4.15 -6.85 -7.10 -4.80 -5.05 -5.25 -5.35 -6.15 -4.65 -1.90 1.45 -3.50 0.95 -6.60 -2.10 -1.60 -1.60 -4.20 -3.80 -5.85 -4.90 -1.60 -1.10 -3.35 -2.40 -3.85 -2.85 -0.50 -0.50 -1.05 -0.90 -1.25 -0.90 -0.25 0 -0.90 -0.75 -1.55 -1.70 -1.15 -1.65 -1.15 -1.70 -4.35 -1.45 -3.15 0.30 -3.15 0.30 -4 -1.35 -0.55 -1.05 -0.70 -2.20 -0.50 -3.40 0.25 -1.55 0 -2.20 -1.50 -4.30 -0.95 -1.35 -1.75 -2.75 -1.75 -3.15 0 -0.35 -0.55 -1 -1.20 -1.40 -0.65 -0.45 -1.30 -1.45 -1.50 -2.25 -0.20 -1.20 -0.55 -1.50 -1.55 -1.50 -0.70 0 -1.25 0.20 -1.25 0.45 0 0.25 -0.85 0.60 -1.85 0.80 -1.05 0.20 -2.50 0.65 -3.25 1.05 -1.65 0.85 -2.65 0.90 -3.50 0.05 -0.35 -0.30 -1.45 -1.25 -2.40 -2.05 -0.95 -0.80 -3.80 -3.35 -6.25 -5.75 -2.50 -2.35 -6.75 -6.15 -9.50 -8.45 -6 -4.95 -7.75 -6.40 -11 -9.25 -1.35 -1.20 -3.15 -2.65 -4 -3.30 -0.80 -0.60 -2.50 -2.05 -3.75 -3.25 -1.25 -1.15 -5.05 -4.45 -8.50 -7.30 -3.45 -2.90 -6.30 -5.40 -6.40 -5.60 -0.40 -0.90 -1.45 -0.25 -2.95 1.85 -0.90 1.20 -1.65 2.35 -1.65 2.45 0 0.15 -0.75 1.45 -1.70 2.90 -4 6.35 -11.95 21.15 -22.70 42.40 -4.15 8.10 -9.15 18 -11.20 22 -2 4 -5.10 10.50 -6.80 14.50 -1.75 4 -3.65 8.40 -4.30 9.75 -1.55 3.30 -3.30 7.75 -3.30 8.35 0 0.30 -0.45 1.05 -1 1.75 -1.35 1.75 -1.30 2 0.75 2.70 0.95 0.35 1.75 0.85 1.75 1.05 0 0.25 0.50 0.65 1.15 0.95 1.75 0.80 3.25 1.70 4.25 2.60 0.50 0.50 1.10 0.85 1.25 0.85 0.20 0 1.85 1.05 3.70 2.40 1.90 1.30 6.10 4.05 9.40 6.05 3.30 2.05 7.25 4.50 8.75 5.50 3.35 2.20 3.90 2.50 8 4.85 1.80 1.05 3.35 2 3.50 2.20 0.15 0.20 1.25 0.90 2.50 1.55 3.25 1.75 5.15 3 5.90 3.90 0.85 1.05 0.75 3.25 -0.25 4.45 -0.95 1.10 -18.30 10.10 -19.45 10.10 -1.05 0 -0.95 0.60 0.75 3.80 0.15 0.30 1.10 1.80 2.10 3.25 2.60 4 3.45 5.90 3.45 7.95 0 2.20 -0.65 2.75 -13.35 11.25 -4.50 2.95 -8.15 5.60 -8.15 5.90 0 0.25 0.70 1.30 1.50 2.30 2.40 2.85 2.50 2.95 5.50 7 1.55 2.10 3.75 4.95 4.95 6.30 1.15 1.40 2.80 3.40 3.70 4.45 3.30 4 6.60 7.65 9.50 10.40 3 2.85 4.85 3.75 10.35 4.90 0.95 0.25 4.10 1.05 7 1.90 2.90 0.80 8.30 2.20 12 3.05 3.70 0.85 7.55 1.80 8.50 2.05 0.95 0.25 4.10 0.95 7 1.55 2.90 0.60 5.95 1.25 6.75 1.50 1.75 0.45 9.80 0.20 29.25 -0.85z m37.75 -48.50 c3.80 -0.35 6.75 -1.10 6.75 -1.70 0 -0.25 -0.95 -1.10 -2.10 -1.90 -1.20 -0.85 -2.75 -2.15 -3.45 -2.90 -0.70 -0.80 -2.25 -2.25 -3.45 -3.20 -1.20 -0.95 -2.65 -2.20 -3.20 -2.75 -0.60 -0.60 -2.40 -2.15 -4 -3.50 -6.40 -5.40 -8.30 -7.60 -8.30 -9.85 -0.05 -1.20 -4 8.80 -4 10.10 0 0.75 2.80 4.80 6 8.75 0.95 1.20 2.75 3.40 4 4.95 l2.25 2.80 3.25 -0.25 c1.80 -0.15 4.60 -0.35 6.25 -0.55z m-144.60 -3.25 c1.15 -0.60 2.80 -1.60 3.70 -2.25 0.85 -0.65 1.70 -1.20 1.85 -1.20 0.65 0 6.15 -3.80 7.95 -5.45 2.20 -2.05 2.40 -3.65 0.70 -6.10 -0.65 -0.95 -1.30 -2.05 -1.45 -2.45 -0.80 -1.90 -10.30 -16 -14.15 -21 -0.80 -1.05 -2.50 -3.30 -3.75 -4.95 -2.15 -2.95 -3 -3.65 -3 -2.50 0 1.10 2.05 14.30 2.55 16.20 0.45 1.90 2.70 14.10 3.30 17.80 0.35 2.25 -0.55 3.95 -2 3.95 -0.60 0 -2.30 -0.45 -3.80 -1 -1.45 -0.60 -2.85 -1 -3.05 -0.90 -0.25 0.10 0.75 1.85 2.15 3.95 5.30 7.75 5.30 7.75 9 5.90z m152.25 -10.90 c0.45 -0.25 1.85 -1.40 3.05 -2.55 1.20 -1.15 2.45 -1.95 2.80 -1.80 0.65 0.20 1.85 -0.90 3.30 -3.05 0.40 -0.55 2.05 -3.05 3.75 -5.50 5.70 -8.30 5.90 -8.70 5.50 -13 -0.15 -2.05 -0.45 -3.95 -0.60 -4.25 -0.40 -0.60 -9.95 -0.05 -11.20 0.60 -0.75 0.40 -8.85 1.25 -17.35 1.85 -4.45 0.30 -5 0.95 -5.45 6.55 -0.55 6.40 -0.45 6.65 6.15 13.35 5.10 5.25 8.40 8.25 9.05 8.25 0.10 0 0.55 -0.20 1 -0.45z m-160.15 -5.15 c-0.20 -0.65 -0.65 -2.85 -1 -4.90 -0.40 -2.05 -0.90 -4.75 -1.15 -6 -1.15 -5.45 -2.65 -12.45 -3.10 -14.50 -0.25 -1.25 -0.60 -3.05 -0.75 -4 -0.10 -0.95 -0.65 -3.30 -1.20 -5.25 -0.55 -1.90 -1.05 -3.95 -1.05 -4.50 0 -1.15 -1.60 -5.25 -2.05 -5.25 -0.20 0 -0.60 1.40 -0.90 3.15 -0.35 1.70 -0.75 3.55 -0.90 4.10 -0.15 0.55 -0.45 2.15 -0.65 3.50 -0.20 1.40 -0.90 5 -1.45 8 -1.95 10.05 -3.05 17 -3.05 19 0 1.90 0.10 2.10 1.90 2.60 6.20 1.90 8.70 2.70 11.60 3.85 4.05 1.55 4.20 1.55 3.75 0.20z m98 -3.40 c0.20 -0.30 1.60 -1.15 3.20 -1.95 1.55 -0.80 3.15 -1.80 3.50 -2.25 0.40 -0.45 0.95 -0.80 1.35 -0.80 0.95 0 4.20 -2 4.20 -2.60 0 -0.35 -0.95 -0.40 -2.60 -0.20 -2.40 0.30 -4.35 0.75 -10 2.40 -1 0.30 -2.85 0.40 -4.10 0.30 l-2.25 -0.25 2.60 2.90 c2.55 2.90 3.50 3.45 4.10 2.45z m-75.75 -9.85 c0.70 -0.50 4.05 -2.30 7.50 -4.05 8.15 -4.15 8 -4 5.40 -5.50 -1.20 -0.70 -2.70 -1.75 -3.45 -2.40 -0.70 -0.65 -1.40 -1.20 -1.60 -1.20 -0.15 0 -1.60 -0.85 -3.20 -1.90 -1.60 -1.05 -3.30 -2.10 -3.75 -2.35 -0.45 -0.30 -1.70 -1.10 -2.75 -1.80 -1.05 -0.70 -4.70 -2.95 -8.15 -5 -3.45 -2 -7.65 -4.65 -9.40 -5.80 -1.75 -1.20 -3.35 -2.15 -3.65 -2.15 -0.75 0 -0.50 1.30 0.40 2.05 0.45 0.40 1.80 2.15 2.95 3.95 1.20 1.80 3.40 5.05 4.95 7.25 1.55 2.20 3.40 4.90 4.10 6 0.70 1.10 1.50 2.10 1.75 2.15 0.25 0.10 0.75 0.90 1.15 1.75 0.40 0.90 1.65 2.85 2.75 4.35 1.15 1.50 2.30 3.35 2.55 4.15 0.65 1.60 0.85 1.65 2.45 0.50z m99.25 -3.35 c0.85 -0.70 1.30 -1.40 1.05 -1.65 -0.25 -0.20 -0.55 -0.10 -0.65 0.25 -0.15 0.40 -0.95 1.10 -1.85 1.65 -0.85 0.50 -1.20 0.95 -0.80 0.95 0.40 0 1.45 -0.55 2.25 -1.20z m-21.25 -3.05 c4.50 -0.90 7.55 -1.75 8.25 -2.35 0.25 -0.20 0.85 -0.40 1.35 -0.40 0.55 0 1.20 -0.80 1.80 -2.15 0.55 -1.20 1.60 -2.80 2.40 -3.55 1.45 -1.40 6.25 -3.80 7.50 -3.80 0.80 0 0.85 -0.20 0.25 -1.40 -0.55 -1 -3.05 -7 -4.20 -9.85 -2.40 -6.20 -3.35 -8.75 -4.15 -10.85 -0.45 -1.30 -1.10 -2.60 -1.40 -2.85 -0.75 -0.65 -9.85 -1.60 -15.65 -1.65 -2.60 -0.05 -4.80 -0.25 -4.95 -0.50 -1.05 -1.65 -2.55 1.10 -3.70 6.85 -0.30 1.65 -0.80 3.80 -1 4.75 -0.25 0.95 -0.85 4.35 -1.30 7.50 -0.45 3.15 -1 6.30 -1.25 6.95 -0.40 1 -0.10 1.65 2.40 4.65 1.60 1.90 3.15 3.85 3.40 4.35 0.80 1.40 4.95 5.05 5.75 5.05 0.40 0 2.45 -0.35 4.50 -0.75z m-119.50 -10.50 c0.55 -2.50 1.25 -5.30 1.50 -6.25 0.25 -0.95 0.60 -2.85 0.75 -4.25 0.70 -5.40 1.85 -10.50 2.85 -12.60 0.65 -1.30 0.10 -4.45 -0.80 -5 -1.55 -0.95 -1.90 -2.60 -1 -4.95 0.70 -1.80 0.75 -2.60 0.30 -4.10 -0.70 -2.45 -1.50 -6.65 -1.90 -10.10 -0.15 -1.50 -0.60 -3.20 -0.95 -3.75 -0.30 -0.55 -0.75 -2.25 -0.95 -3.75 -0.20 -1.50 -0.90 -5 -1.50 -7.75 -0.65 -2.75 -1.45 -6.35 -1.80 -8 -0.30 -1.65 -0.80 -3.90 -1.05 -5 -0.45 -2.05 -1.95 -10.95 -3.20 -19 -0.35 -2.45 -0.80 -4.85 -0.95 -5.25 -0.15 -0.40 -0.40 -3.45 -0.50 -6.75 -0.15 -3.30 -0.50 -9.70 -0.75 -14.25 -0.30 -4.55 -0.65 -15.65 -0.80 -24.75 -0.55 -35.85 -1.30 -63.25 -1.70 -63.25 -0.70 0 -2.25 7.50 -2.60 12.50 -0.20 2.90 -0.70 8.65 -1.15 12.75 -0.40 4.15 -1 10.55 -1.30 14.25 -0.30 3.70 -0.80 7.55 -1.05 8.50 -0.25 0.95 -0.45 3 -0.45 4.50 0 1.50 -0.20 4.10 -0.50 5.75 -0.25 1.65 -1.05 9.30 -1.75 17 -0.70 7.70 -1.85 19.20 -2.50 25.50 -1.70 15.60 -2.20 20.50 -2.75 27.25 -0.30 3.15 -0.75 7.45 -1 9.50 -0.25 2.05 -0.70 6.10 -1.05 9 -0.30 2.90 -0.85 7.20 -1.25 9.65 -0.80 5.10 -0.90 7.20 -0.20 7.60 0.25 0.15 1.25 1.90 2.25 3.90 0.95 2 2.95 5.75 4.45 8.35 1.50 2.60 3.30 5.90 3.95 7.30 0.70 1.40 1.50 2.75 1.80 2.90 0.30 0.20 0.55 0.80 0.55 1.30 0 0.50 0.30 1.25 0.65 1.60 0.35 0.35 0.90 1.25 1.20 2.05 0.35 0.75 0.85 1.35 1.10 1.35 0.25 0 0.60 0.70 0.80 1.50 0.20 0.85 0.60 1.80 0.90 2.15 0.35 0.30 0.90 1.15 1.25 1.85 0.60 1.25 1.10 2.10 2.65 4.50 0.45 0.70 1.60 2.70 2.60 4.50 4.70 8.70 4.25 8.60 5.85 1.75z m96 4.05 c0 -0.35 -0.35 -1 -0.80 -1.35 -1 -0.80 -0.85 -2.30 1.35 -14.20 0.85 -4.65 1.75 -9.85 1.95 -11.50 0.75 -5.60 2.35 -11.60 3.50 -13.15 1.75 -2.40 2.65 -2.45 18.35 -1.05 3.60 0.35 6.90 0.45 7.30 0.30 0.70 -0.25 0.65 -0.60 -0.20 -2.85 -0.50 -1.35 -0.95 -2.90 -0.95 -3.40 0 -0.75 -0.90 -1.15 -5.10 -2.05 -8.30 -1.80 -9 -1.95 -14.95 -2.85 -3.40 -0.50 -7.10 -1.40 -9.35 -2.30 -2.05 -0.80 -3.90 -1.30 -4.10 -1.05 -0.25 0.20 -1.25 2.30 -2.25 4.65 -1 2.35 -2 4.65 -2.25 5.10 -0.30 0.50 -0.50 1.10 -0.50 1.40 0 0.30 -0.35 1.35 -0.85 2.40 -1.10 2.55 -6.40 17.60 -8.35 23.95 l-0.80 2.65 2.45 2.35 c1.35 1.35 4.65 4.45 7.40 7 7.40 6.85 8.15 7.45 8.15 5.95z m88.75 -6.10 c3.30 -0.40 6.80 -0.95 7.75 -1.20 0.95 -0.25 2.55 -0.60 3.50 -0.85 1.45 -0.35 1.70 -0.65 1.60 -1.60 -0.20 -1.25 -1.65 -3.95 -3.45 -6.35 -0.65 -0.85 -1.15 -1.75 -1.15 -2 0 -0.25 -0.65 -1.20 -1.40 -2.10 l-1.35 -1.60 -5.50 3.60 c-3 2 -6.75 4.55 -8.25 5.70 -1.50 1.10 -4.70 3.20 -7.10 4.65 -2.45 1.50 -4.40 2.80 -4.40 2.95 0 0.40 13.45 -0.40 19.75 -1.20z m-33.35 -3.50 c0.35 -0.15 -4.05 -7.20 -4.50 -7.20 -0.60 0 -0.45 0.55 0.85 3.25 0.70 1.40 1.25 3.25 1.25 4.20 l0 1.70 1.15 -0.95 c0.60 -0.50 1.15 -0.95 1.25 -1z m-136.50 -45.30 c2.15 -4.50 5.05 -10.50 6.40 -13.40 1.35 -2.90 3.45 -7.15 4.75 -9.50 1.25 -2.35 3 -5.80 3.90 -7.65 0.85 -1.90 2.15 -4.30 2.80 -5.35 1.25 -1.95 2.55 -4.35 8.25 -15.25 1.75 -3.30 3.35 -6.25 3.60 -6.55 0.25 -0.35 1.40 -2.60 2.60 -5 1.20 -2.45 3.30 -6.45 4.65 -8.95 1.40 -2.45 2.70 -5.05 2.90 -5.75 0.20 -0.70 0.75 -1.70 1.25 -2.25 0.55 -0.65 1 -2.20 1.20 -4.25 0.15 -1.80 0.50 -4.80 0.70 -6.75 2.50 -20.90 3.55 -32.75 3.15 -34.85 l-0.30 -1.55 -1.95 1.70 c-3.30 2.90 -9.30 7.30 -15.30 11.25 -3.15 2.05 -6.30 4.20 -7 4.75 -0.70 0.50 -2.75 2 -4.60 3.25 -3.25 2.20 -3.40 2.25 -5.40 1.70 -2.50 -0.65 -4.55 -2.45 -8.85 -7.70 -1.85 -2.20 -4 -4.70 -4.75 -5.50 -1.70 -1.80 -2.10 -3 -1.50 -4.15 0.35 -0.60 0.25 -1.20 -0.25 -2 -0.85 -1.30 -0.65 -4.60 0.65 -10.90 0.40 -1.90 1.05 -5.60 1.50 -8.25 0.80 -5.15 1.50 -9.30 2.25 -13.25 0.25 -1.35 0.60 -3.45 0.75 -4.65 0.10 -1.20 0.55 -3.70 1 -5.50 0.40 -1.85 0.95 -4.25 1.20 -5.35 0.25 -1.10 0.45 -2.70 0.50 -3.55 l0 -1.55 -11.85 -0.50 c-6.55 -0.25 -12.10 -0.35 -12.30 -0.25 -0.25 0.10 -0.35 16.45 -0.20 36.30 0.35 46.05 1.90 84 3.85 94.55 0.85 4.60 2.45 13.50 2.95 16.25 0.25 1.50 0.85 4.35 1.30 6.25 0.45 1.95 1 4.50 1.20 5.75 0.25 1.25 0.70 2.95 0.95 3.75 0.30 0.85 1.60 6 2.85 11.50 2.80 11.75 2.65 11.25 2.95 11.25 0.15 0 2.05 -3.65 4.20 -8.10z m176.25 4.80 c0.15 -0.15 0.10 -0.80 -0.15 -1.35 -0.25 -0.60 -0.90 -2.80 -1.50 -4.85 -0.60 -2.05 -1.50 -5.30 -2.05 -7.25 -0.55 -1.90 -1.25 -4.40 -1.55 -5.50 -0.30 -1.10 -0.70 -2.65 -0.95 -3.50 -0.25 -0.80 -0.90 -3.30 -1.50 -5.50 -0.60 -2.20 -1.35 -4.65 -1.70 -5.50 -0.35 -0.80 -1.05 -2.85 -1.50 -4.50 -0.50 -1.65 -1.05 -3.45 -1.25 -4 -0.20 -0.55 -0.70 -2.25 -1.15 -3.75 -0.45 -1.50 -1.45 -4.65 -2.20 -7 l-1.40 -4.25 -0.60 3 c-0.35 1.65 -0.90 4.25 -1.20 5.75 -0.30 1.50 -0.90 4.20 -1.30 6 -0.40 1.80 -0.90 4.25 -1.15 5.50 -0.25 1.25 -0.95 4.75 -1.55 7.75 -0.60 3.05 -1.30 5.90 -1.55 6.35 -0.25 0.60 -0.15 1.05 0.40 1.50 1.05 0.90 1.50 1.35 6.80 7.40 2.55 2.90 5.20 5.70 5.80 6.25 0.65 0.55 1.90 1.75 2.75 2.70 0.90 0.90 2.55 2.20 3.75 2.90 1.15 0.70 2.10 1.45 2.10 1.70 0 0.50 2.15 0.60 2.65 0.15z m-28.60 -27 c0.85 -2.90 4.40 -19.15 4.45 -20.30 0 -0.25 -0.20 -0.40 -0.45 -0.40 -0.70 0 -6.10 17.40 -6.80 21.85 -0.25 1.75 -0.20 2.10 0.60 2.25 0.50 0.15 0.95 0.20 1.05 0.15 0.05 -0.05 0.60 -1.65 1.15 -3.55z m-6.20 -7.20 c1.10 -2.90 2.50 -6.70 3.15 -8.50 0.60 -1.80 1.30 -3.70 1.55 -4.25 1.35 -3.15 4.55 -13.35 4.25 -13.65 -0.15 -0.10 -4.35 1.85 -9.40 4.35 -5.05 2.50 -9.35 4.55 -9.55 4.55 -0.25 0 -1.70 0.60 -3.25 1.30 -1.55 0.75 -3.80 1.75 -4.95 2.30 -2.05 0.90 -2.70 2 -1.70 2.65 0.25 0.15 1.95 2.55 3.80 5.30 2.45 3.70 3.55 4.95 4.10 4.75 1.85 -0.75 8.15 -0.95 8.90 -0.30 1.05 0.90 0.95 3.30 -0.25 4.50 -0.55 0.55 -1 1.15 -1 1.30 0 0.60 1.75 1.65 2.05 1.30 0.20 -0.20 1.20 -2.70 2.30 -5.60z m-30.25 -16.50 c1.90 -0.80 3.75 -1.50 4.05 -1.50 0.60 0 5.50 -1.85 10.25 -3.90 2.80 -1.20 3.10 -1.50 2.90 -2.60 -0.10 -0.70 -0.70 -4.15 -1.25 -7.70 -0.60 -3.55 -1.15 -6.60 -1.25 -6.75 -0.10 -0.15 -0.35 -1.20 -0.50 -2.30 -0.15 -1.10 -0.60 -3.35 -1.05 -5 -0.40 -1.65 -0.85 -3.55 -0.95 -4.25 -0.60 -2.70 -1.05 -2.80 -3.65 -0.70 -1.30 1.05 -2.50 2.05 -2.65 2.20 -0.15 0.15 -4.05 3.65 -8.75 7.75 -4.65 4.10 -9.95 8.90 -11.75 10.70 l-3.25 3.20 6.40 6.15 c3.50 3.40 6.70 6.20 7.15 6.20 0.40 0 2.35 -0.65 4.30 -1.50z m-40.90 -31.85 c-0.20 -0.80 -0.75 -2.70 -1.25 -4.35 -0.55 -1.60 -0.95 -3.30 -0.95 -3.75 0 -0.50 -0.80 -3.30 -1.75 -6.35 -0.95 -3 -2.10 -6.55 -2.50 -7.95 -2.10 -7.20 -3.30 -11.35 -4.20 -14.75 -2.05 -7.70 -4.25 -13.50 -5.15 -13.50 -1.50 0 -1.90 2.35 -4.40 26.50 -0.50 4.90 -1.40 10.80 -1.85 12.20 -0.25 0.85 -0.05 0.80 1.30 -0.35 0.90 -0.75 2.05 -1.35 2.55 -1.35 0.90 0 15.75 12.80 16.65 14.30 0.20 0.40 0.75 0.70 1.15 0.70 0.55 0 0.65 -0.35 0.40 -1.35z m9.20 -3.15 c1.35 -1.10 2.65 -2 2.85 -2 0.60 0 5.75 -3.60 5.75 -4 0 -0.25 -0.40 -0.80 -0.85 -1.30 -0.95 -0.90 -2 -2.70 -3.65 -6.15 -0.55 -1.20 -1.80 -3.25 -2.70 -4.50 -0.90 -1.25 -1.80 -2.65 -2 -3.05 -0.15 -0.40 -0.70 -1.35 -1.20 -2.10 -0.45 -0.75 -2.30 -3.80 -4.05 -6.75 -1.80 -3 -4.45 -7.25 -5.90 -9.55 -1.50 -2.30 -3.15 -5.05 -3.75 -6.15 -0.55 -1.05 -1.20 -1.95 -1.45 -1.95 -0.25 0 -0.45 0.05 -0.45 0.15 0 0.30 3.55 13.95 4.25 16.35 1.20 4.25 2.30 8.15 2.60 9.50 1.20 5.45 6.10 21.70 7 23.10 0.40 0.70 1 0.45 3.55 -1.60z m-62.60 -33.50 c3.15 -2.75 7.15 -6.20 8.80 -7.65 1.70 -1.40 6.05 -5.25 9.75 -8.50 10.15 -9 9.50 -9 -8.10 -0.40 -3.30 1.60 -6.80 3.30 -7.75 3.70 -0.95 0.45 -3.65 1.65 -6 2.75 -2.35 1.05 -5.55 2.45 -7.10 3.10 -1.60 0.65 -2.90 1.45 -2.90 1.75 0 0.30 1.45 2.25 3.25 4.30 1.80 2.05 3.40 4.20 3.55 4.85 0.15 0.60 0.40 1.10 0.50 1.10 0.15 0 2.85 -2.25 6 -5z m-11.45 -13.05 c2.70 -1.40 5.15 -2.75 5.40 -2.95 0.50 -0.35 5.70 -3.25 9.50 -5.25 1.10 -0.60 3 -1.60 4.25 -2.30 1.25 -0.75 4.60 -2.60 7.50 -4.20 5.30 -2.90 8.50 -5.40 8.50 -6.60 0 -0.45 -0.75 -0.65 -2.35 -0.65 -6.45 -0.10 -15.05 -0.95 -17 -1.75 -2.35 -1 -3.15 -2.60 -1.80 -3.65 2.25 -1.65 5.65 -2.10 13.65 -1.75 5.25 0.20 7.95 0.15 8.15 -0.20 0.30 -0.50 -0.55 -1.40 -5.20 -5.35 -0.95 -0.80 -4.30 -3.35 -7.45 -5.70 -3.15 -2.35 -6.20 -4.65 -6.75 -5.15 -0.55 -0.50 -1.50 -1.35 -2.05 -1.85 -0.85 -0.75 -2 -1 -5.20 -1.15 l-4.10 -0.20 -0.70 2 c-0.85 2.40 -2.30 8.90 -3.70 16.75 -0.95 5.40 -3.35 18.30 -4.55 24.50 -0.30 1.50 -0.75 3.40 -1 4.20 -0.45 1.55 -0.60 3.80 -0.20 3.80 0.10 0 2.40 -1.15 5.10 -2.55z m56.20 -4 c-0.30 -0.80 -0.50 -0.90 -0.50 -0.35 -0.05 1.10 0.60 2.75 0.80 2.10 0.10 -0.30 -0.05 -1.10 -0.30 -1.75z m-6.55 -8.50 c0.95 -0.25 3.05 -0.45 4.60 -0.45 3.55 0 3.75 -0.30 4.35 -6.70 0.25 -2.60 0.70 -5.15 1 -5.70 0.30 -0.60 0.55 -1.60 0.55 -2.30 0 -1.20 -0.15 -1.30 -2.35 -1.35 -3.30 -0.10 -5.95 -0.30 -9 -0.70 -3.05 -0.45 -2.80 -1.05 -3.60 7.75 -0.35 3.15 -0.70 6.85 -0.85 8.15 l-0.30 2.40 1.90 -0.30 c1.10 -0.20 2.75 -0.55 3.70 -0.80z m-7.20 -26.20 c0.75 -0.70 1.90 -1.25 2.50 -1.25 1.40 0 1.40 0.05 0.60 -5.45 l-0.55 -4.20 -5.80 0.35 c-8.10 0.45 -12.05 0.85 -12.30 1.30 -0.30 0.45 5.90 5.55 9.50 7.85 1.35 0.90 2.75 1.85 3 2.10 0.80 0.80 1.60 0.65 3.05 -0.70z m-2.65 -19.50 c20.60 -1.75 37.60 -3.75 52.35 -6.30 5.85 -0.95 15.35 -3.05 17.50 -3.75 1.25 -0.45 2.70 -0.85 3.25 -0.95 0.55 -0.05 1.55 -0.35 2.25 -0.65 0.70 -0.25 2.50 -1 4 -1.60 1.50 -0.60 3.65 -1.50 4.75 -2 1.10 -0.50 3 -1.30 4.25 -1.80 1.25 -0.45 3.50 -1.40 5 -2.10 1.50 -0.65 3.20 -1.40 3.75 -1.60 0.55 -0.25 2.90 -1.30 5.25 -2.40 2.35 -1.05 4.95 -2.20 5.75 -2.55 0.85 -0.30 2.75 -2 4.25 -3.70 1.50 -1.70 4.35 -4.80 6.25 -6.85 7.10 -7.55 16.80 -18.40 19 -21.20 0.85 -1.10 2.40 -3.10 3.50 -4.50 3.60 -4.55 4.95 -6.35 7.25 -9.55 1.25 -1.70 3.85 -5.25 5.80 -7.80 3.40 -4.50 5.45 -7.45 7.35 -10.55 1.95 -3.25 1.40 -32.55 -1 -52.40 -0.40 -3.45 -0.90 -8.05 -1.15 -10.25 -0.25 -2.20 -0.70 -5.55 -1 -7.50 -0.60 -3.95 -1.25 -7.95 -1.95 -12.75 -0.25 -1.80 -1.15 -7.30 -2 -12.25 -0.85 -4.95 -1.55 -9.95 -1.55 -11.15 0 -1.65 -0.30 -2.35 -1.30 -3.25 -0.75 -0.60 -1.85 -1.90 -2.50 -2.85 -1.25 -1.95 -5.30 -7.75 -10.35 -15 -1.85 -2.60 -4.65 -6.65 -6.20 -9 -1.60 -2.35 -4.50 -6.40 -6.45 -9 -3.25 -4.35 -5.75 -7.85 -7.70 -10.75 -2.55 -3.80 -3.85 -5.55 -4.50 -6.35 -0.40 -0.45 -1.15 -1.35 -1.60 -2 -0.50 -0.65 -2.20 -2.85 -3.75 -4.90 -3.30 -4.35 -4.85 -6.50 -7.90 -11.05 -2.35 -3.50 -2.80 -3.80 -7.50 -5.20 -1.65 -0.50 -3.35 -1.20 -3.80 -1.60 -0.40 -0.35 -1.20 -0.65 -1.75 -0.65 -0.55 0 -1.20 -0.20 -1.50 -0.40 -0.85 -0.80 -8.80 -3.05 -23.45 -6.60 -5.75 -1.40 -11.20 -2.75 -12.05 -3.05 -2.60 -0.80 -3.65 -0.50 -6.80 1.70 -7.35 5.15 -7.60 5.20 -10.70 3.35 -3.30 -2 -3.40 -2.70 -0.95 -5.45 0.95 -1.05 1.75 -2.05 1.75 -2.20 0 -0.85 -13.80 -2.30 -19.75 -2.05 -8.30 0.30 -20.80 1.55 -33 3.30 -3.85 0.55 -8.55 1.20 -10.50 1.40 -3.40 0.40 -8.30 1.30 -15.50 2.80 -1.90 0.40 -8.65 1.75 -15 3 -6.30 1.20 -13.30 2.75 -15.50 3.45 -2.20 0.65 -6.15 1.85 -8.75 2.65 -5.15 1.55 -4.85 1.20 -4.20 5.20 0.30 1.70 0.20 1.85 -1.90 3.10 -2.80 1.65 -4.55 1.65 -6.30 0.05 -1.85 -1.75 -2 -1.75 -10.60 3.35 -1.95 1.20 -3.20 1.95 -15.50 10 -9.70 6.35 -10.75 6.95 -15.75 9.85 -4.20 2.40 -7.05 6 -11.75 14.80 -3.85 7.20 -5.95 11 -8.60 15.65 -1.60 2.85 -2.90 5.30 -2.90 5.40 0 0.10 -0.55 1.10 -1.25 2.20 -0.70 1.10 -4.70 8.80 -8.95 17.15 -4.20 8.30 -9.05 17.80 -10.75 21.05 -1.70 3.25 -3 6.25 -2.85 6.60 0.10 0.30 -0.10 5.30 -0.50 11.05 -1 15.05 -1.40 45.45 -0.80 63 l0.55 15.15 2.60 3.10 c1.45 1.75 3.75 4.40 5.20 5.90 4.40 4.70 7 7.70 7.85 9.05 0.45 0.70 2.25 2.85 4 4.80 1.70 1.90 4.65 5.15 6.45 7.20 1.80 2.05 4.15 4.65 5.15 5.85 1.05 1.15 2.10 2.10 2.35 2.10 0.25 0 1.55 0.75 2.85 1.70 1.35 0.90 3.15 2.05 4.10 2.55 0.90 0.45 1.90 1.05 2.20 1.30 1.10 0.95 11.05 6.95 11.50 6.95 0.25 0 0.85 0.30 1.25 0.70 0.45 0.40 1.95 1.30 3.30 2.05 1.40 0.75 3.85 2.10 5.50 3.05 1.65 0.90 3.45 1.90 4 2.20 0.55 0.30 1.70 0.95 2.50 1.50 0.85 0.55 1.85 1.15 2.25 1.30 0.40 0.20 2.15 0.95 3.85 1.75 1.70 0.75 3.85 1.50 4.75 1.70 0.90 0.20 1.90 0.55 2.15 0.75 0.30 0.20 3 0.75 6 1.20 3.05 0.50 7.30 1.20 9.50 1.55 10.90 1.85 27.50 3.55 40.15 4.10 l7.60 0.30 0 -1.60 c0 -2.15 0.70 -3.35 2.20 -3.75 1.20 -0.30 3.80 0.40 4.30 1.15 0.65 1 5.50 4 6.80 4.20 1.50 0.30 21.70 -0.05 25.85 -0.40z m-183.45 -188.25 c1.75 -3.45 4.05 -7.95 5.15 -10 1.10 -2.05 3.10 -5.75 4.40 -8.25 1.35 -2.45 2.80 -5.05 3.25 -5.75 0.50 -0.70 1.60 -2.70 2.50 -4.50 0.90 -1.80 2.85 -5.30 4.30 -7.85 1.50 -2.50 2.70 -4.65 2.70 -4.80 0 -0.55 5.80 -9.80 8.60 -13.65 2.55 -3.55 4.40 -5.30 8.90 -8.30 0.70 -0.45 2.40 -1.65 3.75 -2.65 1.40 -1 3.75 -2.60 5.25 -3.60 1.50 -1 4.30 -2.85 6.20 -4.10 1.90 -1.25 3.80 -2.50 4.20 -2.80 13.50 -8.90 17.60 -11.80 17.60 -12.45 0 -0.50 -2.50 -3.65 -9.40 -12 -1.55 -1.85 -3.30 -4.05 -3.85 -4.80 -0.55 -0.75 -2.20 -2.70 -3.60 -4.30 -1.40 -1.65 -3.95 -4.65 -5.65 -6.70 -1.75 -2.05 -3.30 -3.85 -3.50 -4 -0.20 -0.15 -1.75 -1.95 -3.50 -4 -1.75 -2.05 -3.55 -4.10 -4 -4.50 -0.45 -0.40 -1.95 -2.10 -3.30 -3.75 -2.40 -2.90 -9.10 -10.05 -13.75 -14.70 -9.60 -9.60 -26.25 -24.55 -26.60 -24 -0.40 0.55 -1.90 9.95 -2.35 14.70 -0.30 3.05 -0.85 8.30 -1.25 11.75 -2.90 25.50 -3.80 40.80 -4.10 69.75 -0.30 28.55 0.20 41 3.05 78.50 0.05 0.85 0.15 2.30 0.25 3.25 0.10 1.70 0.10 1.70 0.85 0.75 0.40 -0.55 2.20 -3.80 3.90 -7.25z m337.85 -30.35 c0.05 -2.70 0.05 -5 0.05 -5.15 0 -0.15 -0.35 -10.15 -0.80 -22.25 -0.45 -12.10 -1.05 -28.65 -1.30 -36.75 -0.65 -18.40 -1.30 -30.90 -2 -39 -0.65 -7.75 -2.40 -28.15 -3.10 -36.50 -0.25 -3.45 -0.70 -6.45 -0.90 -6.65 -0.20 -0.25 -2.15 1 -4.30 2.80 -2.20 1.75 -5.20 4.05 -6.70 5.10 -1.50 1.05 -3.10 2.35 -3.50 2.80 -0.40 0.50 -2.45 2.20 -4.55 3.80 -5.75 4.35 -22.45 17.95 -25.05 20.40 -0.75 0.70 -1.45 1.25 -1.60 1.25 -0.25 0 -23.70 17.60 -28.50 21.40 -1.10 0.85 -2.65 2 -3.45 2.50 -2.90 2 -10.30 8.40 -10.15 8.85 0.05 0.30 1 0.65 2.10 0.85 1.05 0.15 3.25 0.75 4.85 1.35 1.60 0.55 3.75 1.15 4.75 1.30 1 0.20 2.30 0.50 2.85 0.75 0.85 0.35 4.80 1.55 11.50 3.55 2.80 0.80 10.60 3.40 12.05 4 0.80 0.30 1.90 0.75 2.45 1 0.55 0.20 1.50 0.50 2.10 0.70 0.60 0.15 1.65 0.75 2.40 1.30 1.60 1.30 6.75 7.70 6.75 8.40 0 0.30 0.20 0.55 0.45 0.55 0.20 0 2.55 2.85 5.10 6.30 2.60 3.45 5.70 7.60 6.95 9.20 2.35 3 5.40 7.10 6.25 8.45 1.10 1.65 9.05 12.95 10.75 15.30 2.60 3.55 8.40 11.90 11.05 15.85 1.20 1.90 2.50 3.40 2.85 3.40 0.45 0 0.60 -1.35 0.65 -4.85z"/>
  <path d="M642.05 822.70 c-0.60 -0.95 -1.05 -1.85 -1.05 -2 0 -0.10 -0.55 -1.40 -1.30 -2.85 -0.70 -1.40 -1.95 -4.30 -2.80 -6.35 -1.90 -4.65 -2.35 -5.15 -6.40 -7.40 -1.80 -1 -3.60 -2.05 -4.05 -2.35 -2.50 -1.50 -6.10 -3.25 -6.75 -3.25 -0.40 0 -0.70 -0.25 -0.70 -0.55 0 -0.25 -0.95 -0.95 -2.10 -1.50 -3.20 -1.50 -7.85 -4.10 -15.90 -8.90 -4 -2.35 -7.45 -4.40 -7.75 -4.55 -1.05 -0.55 -5.60 -3.30 -8 -4.90 -4.15 -2.70 -4.35 -2.65 -7.80 1.10 -4 4.35 -6.75 6 -9.05 5.40 -2 -0.50 -3 -2.20 -2.35 -4 0.25 -0.70 2.05 -2.90 3.95 -4.95 1.95 -2.05 3.50 -3.95 3.50 -4.15 0 -0.80 3.30 -2.40 5.60 -2.70 2.60 -0.40 2.90 -0.25 8.15 3.70 7.65 5.75 22.30 14.75 33.15 20.35 2.95 1.50 5.70 3.05 6.10 3.40 0.40 0.30 1.10 0.75 1.50 0.90 2.15 0.85 8.45 3.80 9.80 4.60 2.15 1.30 3.10 3.10 6.80 13.25 0.55 1.50 1.30 3.50 1.70 4.40 0.90 2.10 0.90 3.35 -0.10 4.30 -1.35 1.40 -3 1 -4.15 -1z"/>
  <path d="M547.25 475.90 c-2.20 -0.20 -5.25 -0.60 -6.75 -0.90 -1.50 -0.25 -5.20 -0.60 -8.25 -0.75 -5.80 -0.35 -30.85 -2.55 -34.90 -3.05 -3.25 -0.45 -3.20 -0.30 -6.15 -14.20 -0.40 -2.05 -1.20 -5.20 -1.70 -7 -0.50 -1.80 -1.15 -4.60 -1.50 -6.25 -1.20 -6.05 -2.95 -13.15 -3.55 -14.35 -0.25 -0.50 -0.45 -1.25 -0.45 -1.65 0 -1.10 -0.50 -0.95 -3 1 -1.25 0.95 -3.80 2.80 -5.75 4.10 -1.90 1.30 -5.10 3.60 -7.10 5.10 -1.95 1.55 -6.20 4.60 -9.40 6.80 -3.20 2.20 -7.50 5.15 -9.50 6.55 -3.40 2.40 -12.40 7.70 -13.05 7.70 -0.45 0 -7.55 -5.85 -12.30 -10.15 -4 -3.55 -19.45 -19 -22.70 -22.60 -0.75 -0.80 -3.40 -3.65 -5.95 -6.25 -3.95 -4.10 -4.70 -5.15 -5.20 -7.25 -1.25 -5.45 -3.70 -24.10 -4.80 -36.50 -0.15 -1.90 -0.65 -5.95 -1 -9 -0.40 -3 -1 -9.95 -1.30 -15.45 l-0.60 -9.95 9.75 -9.55 c11.65 -11.35 16.80 -16.15 27.90 -26.05 5.25 -4.65 9.55 -7.75 10.85 -7.75 0.65 0 2 0.55 3.05 1.20 1 0.60 2.40 1.30 3.05 1.55 0.60 0.20 1.95 0.90 3 1.60 1 0.70 2.90 1.80 4.20 2.45 1.35 0.70 3.85 2.25 5.65 3.45 1.80 1.25 3.55 2.25 3.95 2.25 0.35 0 0.75 0.20 0.85 0.40 0.35 0.80 18.70 11.50 19.05 11.10 0.15 -0.15 0.05 -1.60 -0.20 -3.25 -0.50 -3.45 -1.95 -20.20 -1.95 -22.60 0 -1.15 0.60 -2.25 2.05 -4 5.05 -6 34.35 -34.80 42.30 -41.60 3.55 -3.05 4.30 -3.10 9.10 -0.75 1.45 0.70 6.30 2.90 10.80 4.95 9.85 4.45 17.60 8.45 27.25 14.15 4 2.35 7.70 4.50 8.25 4.80 0.55 0.30 1.80 1.15 2.75 1.85 0.95 0.75 2.25 1.50 2.80 1.65 1.45 0.45 1.55 1.05 2.45 11.30 0.45 4.80 1.10 11.95 1.50 15.85 0.40 3.90 0.85 9.50 1 12.45 0.15 2.95 0.35 5.45 0.40 5.50 0.05 0.10 1.45 -0.95 3.10 -2.35 1.65 -1.35 3.25 -2.65 3.50 -2.85 3.75 -2.80 13.35 -10.75 16.25 -13.40 2.05 -1.95 4.45 -4 5.25 -4.65 0.85 -0.60 2.30 -1.85 3.25 -2.75 0.95 -0.85 3.35 -2.85 5.25 -4.40 1.95 -1.55 5.05 -4.10 6.90 -5.60 1.90 -1.55 3.80 -2.80 4.30 -2.80 1.75 0 7.60 5.25 12.25 10.95 0.85 1.05 3.90 4.65 6.80 8.05 6.10 7.10 6.45 7.60 13.70 17.10 8.75 11.40 22.90 31.85 25.20 36.35 1.25 2.35 1.30 1.75 -0.95 11.05 -0.20 0.95 -1 4.35 -1.70 7.50 -0.75 3.15 -1.75 6.90 -2.25 8.25 -0.50 1.40 -1.65 5.10 -2.55 8.25 -0.85 3.15 -2.30 8 -3.20 10.75 -0.90 2.75 -1.95 6.35 -2.30 8 -1.10 5.10 -2.45 7.05 -8.60 12.20 -3.10 2.55 -5.65 4.95 -5.75 5.25 -0.10 0.30 -0.80 0.90 -1.60 1.30 -1.10 0.55 -18.60 15.70 -22.40 19.35 -0.75 0.70 -1.20 0.55 -7.05 -2.30 -2.30 -1.10 -4.45 -2.05 -4.80 -2.05 -0.30 0 -1.10 -0.55 -1.75 -1.25 -0.65 -0.70 -1.50 -1.25 -1.90 -1.25 -0.45 0 -1.15 -0.30 -1.55 -0.70 -0.45 -0.35 -2.70 -1.65 -5.05 -2.85 -2.30 -1.20 -5.35 -2.95 -6.75 -3.85 -1.35 -0.90 -4.80 -2.80 -7.65 -4.20 -4 -2 -5.25 -2.45 -5.60 -1.95 -0.20 0.40 -0.25 3.85 -0.15 7.75 l0.25 7.05 -3.90 3.75 c-2.20 2.05 -5.40 4.90 -7.15 6.25 -1.75 1.40 -4.10 3.30 -5.25 4.30 -1.15 1 -4.40 3.60 -7.30 5.75 -2.90 2.20 -7.10 5.45 -9.40 7.25 -4.90 3.75 -7.95 5.75 -9.35 6.05 -0.55 0.15 -2.80 0.05 -5 -0.20z m8 -13.25 c5.30 -4.15 17.35 -14.15 21.60 -17.90 1.90 -1.65 4.25 -3.70 5.25 -4.50 l1.85 -1.50 -0.75 -11.25 c-1.10 -17.55 -1.60 -24.50 -1.95 -27.50 -0.30 -2.50 -1.90 -7.50 -2.80 -8.75 -0.20 -0.30 -0.75 -1.65 -1.20 -3 -0.50 -1.40 -1.15 -2.85 -1.50 -3.25 -0.40 -0.40 -0.85 -1.40 -1.05 -2.25 -0.30 -1.35 -3.20 -8.60 -4.95 -12.50 -0.35 -0.80 -0.80 -1.90 -0.95 -2.35 -0.15 -0.50 -1 -1 -2 -1.20 -1.75 -0.30 -20.95 0.95 -28.05 1.85 -9.45 1.15 -11.60 1.50 -12.75 1.95 -0.70 0.25 -2.70 0.70 -4.50 0.95 -5.50 0.85 -6.65 1.05 -9.50 1.65 -8.45 1.70 -10.85 2.75 -11.25 4.80 -0.15 0.75 -0.50 2.35 -0.85 3.60 -0.30 1.25 -0.70 3.65 -0.90 5.30 -0.20 1.70 -0.50 3.30 -0.70 3.65 -0.40 0.60 -1.30 7.05 -1.30 9 0 0.70 -0.30 2.60 -0.75 4.25 -0.40 1.70 -1.05 6 -1.45 9.60 -0.75 6.30 -0.75 6.85 0.25 13 0.55 3.55 1.15 6.80 1.35 7.20 0.15 0.40 0.55 2.20 0.90 4 1.75 9.40 4.90 22.30 5.70 23.15 0.35 0.40 9.25 1.50 19.50 2.35 4.80 0.40 17.65 1.95 24.50 2.90 1.50 0.25 3.10 0.30 3.50 0.15 0.40 -0.10 2.55 -1.65 4.75 -3.40z m-114.60 -19.15 c1.80 -1.35 3.50 -2.50 3.75 -2.50 0.25 0 0.80 -0.35 1.15 -0.80 0.40 -0.45 1.50 -1.35 2.45 -2 0.95 -0.60 2.80 -1.90 4.05 -2.80 7.15 -5.15 8.65 -6.20 9.50 -6.70 0.50 -0.30 1.35 -0.90 1.85 -1.35 0.50 -0.50 1.05 -0.85 1.25 -0.85 0.20 0 2.10 -1.35 4.30 -3 2.20 -1.65 4.20 -3 4.40 -3 0.20 0 1.55 -1 2.90 -2.20 2.20 -2 2.45 -2.35 1.90 -3.20 -0.35 -0.55 -0.75 -2.20 -0.95 -3.70 -0.15 -1.45 -0.60 -3.90 -1 -5.40 -0.35 -1.50 -1 -4.90 -1.45 -7.50 -0.45 -2.60 -1.05 -6.10 -1.30 -7.75 -0.55 -3.15 -1.45 -10.55 -2.70 -21.75 -0.40 -3.70 -0.95 -7.85 -1.25 -9.25 -0.80 -4.15 -2 -18.10 -2 -23.10 0 -3.80 -0.15 -4.65 -0.75 -4.65 -0.40 0 -0.75 -0.20 -0.75 -0.50 0 -0.55 -2.15 -1.95 -6.75 -4.50 -1.65 -0.90 -3.35 -1.95 -3.80 -2.30 -0.40 -0.40 -0.95 -0.70 -1.15 -0.70 -0.20 0 -2.25 -1.20 -4.45 -2.70 -2.25 -1.50 -4.90 -3.10 -5.85 -3.65 -0.95 -0.50 -3.10 -1.80 -4.75 -2.85 -4.20 -2.70 -7.10 -4.30 -7.85 -4.30 -0.35 0 -2.45 1.75 -4.65 3.90 -2.20 2.15 -6.80 6.45 -10.25 9.55 -3.45 3.15 -6.45 5.95 -6.75 6.25 -0.25 0.35 -2.95 2.80 -6 5.55 -3 2.70 -6.40 5.80 -7.50 6.90 -1.10 1.10 -2.50 2.35 -3.15 2.75 -0.95 0.65 -1.10 1.05 -0.85 2.80 0.15 1.15 0.40 3.50 0.50 5.30 0.45 5.60 3.15 28.50 4.25 35.75 0.25 1.95 0.65 4.65 0.80 6 0.15 1.40 0.40 2.85 0.55 3.25 0.10 0.40 0.35 3 0.50 5.70 l0.25 5 18.35 18.40 c10.10 10.10 18.70 18.40 19.10 18.40 0.45 0 2.30 -1.10 4.10 -2.50z m198 -11.35 c5.30 -5 11.75 -10.80 14.20 -12.80 1.05 -0.90 2.60 -2.30 3.40 -3.15 0.85 -0.85 2.75 -2.45 4.25 -3.55 1.50 -1.10 3.05 -2.35 3.35 -2.75 0.65 -0.75 2.65 -6.55 2.65 -7.65 0 -0.35 0.65 -2.60 1.45 -5.05 3.50 -10.90 6.50 -21.10 8.75 -30.05 l1.80 -7.10 -3 -4.15 c-1.65 -2.30 -3.70 -5.10 -4.50 -6.25 -2.95 -4.25 -3.75 -5.40 -4.10 -5.65 -0.15 -0.15 -2 -2.60 -4.10 -5.50 -2.05 -2.90 -3.95 -5.50 -4.20 -5.75 -0.20 -0.30 -3.30 -4.35 -6.80 -9 -3.55 -4.70 -7.50 -9.60 -8.75 -11 -1.30 -1.35 -3.35 -3.85 -4.55 -5.50 -3.85 -5.25 -8.65 -10.75 -9.35 -10.75 -0.40 0 -1.85 1.25 -3.25 2.75 -2.10 2.35 -6.70 6.40 -12.35 11 -0.70 0.55 -2.80 2.50 -4.75 4.30 -1.95 1.85 -4.90 4.45 -6.55 5.75 -1.65 1.30 -4.55 3.75 -6.50 5.45 -1.90 1.65 -4.55 3.90 -5.85 4.90 -1.30 1.05 -2.70 2.20 -3.05 2.60 -1.05 1.05 -2 27.75 -1.05 29.30 0.15 0.30 0.60 0.10 1.05 -0.40 0.65 -0.80 0.70 -0.55 0.50 2.35 -0.15 1.80 -0.10 3.70 0.15 4.25 0.55 1.50 1.45 -5.65 1.75 -13.90 0.15 -3.80 0.40 -7.50 0.55 -8.25 0.60 -2.70 3.40 -6.45 7.75 -10.35 2.45 -2.20 5.55 -5 6.85 -6.25 1.35 -1.25 3.85 -3.50 5.65 -5 1.75 -1.50 6 -5.35 9.45 -8.50 6.70 -6.15 11.15 -10 12.30 -10.65 0.90 -0.50 4.10 0.45 5.40 1.60 0.50 0.45 1.25 1.40 1.60 2.20 0.70 1.25 0.65 1.50 -0.35 3 -1.65 2.40 -9.55 9.75 -23.90 22.10 -5.45 4.65 -8.70 7.60 -12.45 11 -2.65 2.45 -2.80 3.35 -3.90 18.50 -0.40 5.80 -0.95 11.95 -1.20 13.75 -1 7.20 -1.35 12.25 -0.95 13.45 0.20 0.70 0.75 4.55 1.20 8.55 0.75 6.90 1.60 13.35 2.05 15.90 0.15 0.75 0.50 1.10 0.90 0.95 0.40 -0.15 1.20 0.25 1.85 0.95 0.60 0.65 1.35 1.20 1.60 1.20 0.25 0 1.50 0.70 2.80 1.55 1.25 0.90 3.75 2.35 5.50 3.30 1.80 0.95 4.20 2.35 5.40 3.20 1.20 0.80 2.50 1.45 2.85 1.45 0.40 0 0.95 0.35 1.30 0.75 0.35 0.40 0.90 0.75 1.25 0.75 0.35 0 1.15 0.40 1.80 0.95 1.60 1.20 8.55 5 9.30 5 0.35 0.05 2.50 -1.70 4.80 -3.80z m-151.05 -46.30 c0.50 -3.60 1.10 -8.45 1.35 -10.70 0.25 -2.25 0.60 -4.50 0.80 -5.05 0.30 -1 -0.50 -3.20 -3.45 -9.70 -0.65 -1.45 -1.35 -3.20 -1.55 -3.85 -0.20 -0.70 -0.80 -1.90 -1.30 -2.75 -0.95 -1.55 -0.95 -1.50 -0.75 10.70 0.10 6.75 0.30 13.25 0.45 14.50 0.60 5 1.30 12.35 1.35 13.65 0 1.35 0.05 1.40 1.10 0.65 1 -0.70 1.25 -1.70 2 -7.45z m25.90 -23.85 c2.05 -0.25 5.20 -0.70 7 -1 4.25 -0.70 13.40 -1.75 25.50 -2.95 5.35 -0.55 11.25 -1.25 13.05 -1.50 1.80 -0.30 4 -0.55 4.85 -0.65 1.90 -0.15 2.40 -1.15 3.10 -6.15 0.30 -1.90 0.70 -4.60 0.95 -6 0.25 -1.35 0.80 -5.20 1.25 -8.50 0.45 -3.30 0.95 -6.40 1.10 -6.90 0.15 -0.50 0.35 -1.60 0.45 -2.50 0.05 -0.90 0.30 -2.60 0.45 -3.85 0.20 -1.25 -0.10 -9.95 -0.65 -19.35 -0.60 -9.40 -1.05 -17.45 -1.05 -17.85 0 -0.45 -0.35 -0.80 -0.70 -0.80 -0.40 0 -2.05 -0.80 -3.65 -1.75 -1.55 -0.95 -3.45 -1.85 -4.20 -2 -0.75 -0.15 -1.75 -0.75 -2.25 -1.30 -0.45 -0.50 -1 -0.95 -1.25 -0.95 -0.20 0 -1.80 -0.80 -3.55 -1.80 -1.70 -1 -5.85 -3.15 -9.15 -4.80 -3.30 -1.65 -9.60 -4.80 -14.05 -7.05 -6.05 -3 -8.35 -3.95 -9.25 -3.70 -0.70 0.20 -3.95 2.95 -7.25 6.20 -20.70 20.30 -29.25 28.85 -30.70 30.45 l-1.60 1.90 0.30 5.25 c0.20 2.90 0.55 6.65 0.80 8.30 0.25 1.65 0.60 4.90 0.70 7.25 0.30 4.20 1.15 8.35 2.20 10.25 0.25 0.55 1 2.25 1.60 3.75 0.60 1.50 1.55 3.75 2.10 5 0.50 1.25 1.20 2.80 1.50 3.50 0.25 0.70 0.80 1.95 1.20 2.75 0.35 0.85 1.50 4 2.50 7 2.10 6.25 4 10.80 4.75 11.25 0.25 0.20 2.65 0 5.35 -0.35 2.65 -0.35 6.55 -0.85 8.60 -1.15z"/>
  <path d="M828.60 666.40 c0.30 -0.90 1.40 -1.05 1.40 -0.20 0 0.45 -0.35 0.80 -0.80 0.80 -0.45 0 -0.70 -0.25 -0.60 -0.60z"/>
  <path d="M728.55 479.55 c-0.50 -0.35 -0.50 -0.60 0 -1.50 0.90 -1.40 1.45 -1.35 1.45 0.15 0 1.45 -0.50 1.90 -1.45 1.35z"/>
  <path d="M35 331.75 c0 -0.40 0.25 -0.75 0.50 -0.75 0.30 0 0.50 0.35 0.50 0.75 0 0.40 -0.20 0.75 -0.50 0.75 -0.25 0 -0.50 -0.35 -0.50 -0.75z"/>
 </g>
</svg>