<svg xmlns="http://www.w3.org/2000/svg" width="932" height="932" viewBox="0 0 932 932"><g fill="none" fill-rule="evenodd"><line x1="175.261" x2="175.261" y1="378.325" y2="378.586" stroke="red" stroke-width=".5"/><g stroke="#979797" transform="translate(275.223 272.75)"><polygon points="190.574 147.056 162.423 182.658 132.641 195.267 87.119 197.813 38.2 191.011 18.002 175.261 4.117 153.545 4.117 100.434 5.639 7.131 52.047 51.878 95.178 40.324 132.641 40.324 185.818 0 186.588 87.415"/><polyline points="185.818 91.782 159.223 48.508 128.853 41.818"/><polyline points="52.047 51.878 28.274 68.078 4.117 107.871"/><polygon points="69.681 151.825 43.557 167.895 22.265 148.036 18.002 112.382 40.858 91.782 67.33 105.183 64.107 87.415 88.71 64.616 117.097 79.874 115.791 104.818 145.428 85.428 172.355 122.206 162.423 148.036 145.428 163.653 123.106 151.825 124.086 163.653 102.729 178.347 76.082 175.342"/><polyline points="118.403 107.871 112.003 125.695 72.555 129.902 64.107 107.871"/><line x1="125.196" x2="113.636" y1="151.172" y2="127.331"/><line x1="72.555" x2="69.376" y1="127.331" y2="151.825"/><polyline points="67.33 198.989 62.562 223.029 61.366 225.476 0 350.989 46.192 374.205 77.78 368.803 91.042 353.345 81.045 343.487 74.645 334.984 72.555 322.242 56.113 296.254 55.383 295.1 62.889 231.049"/><polyline points="67.33 209.18 69.681 269.801 79.478 299.459 78.429 309.127 82.678 324.002 84.564 336.289 77.78 336.955"/><polyline points="74.645 322.183 79.478 309.649 104.166 322.183 94.108 329.9"/><polyline points="82.678 316.835 97.345 337.086 87.119 346.231"/><polyline points="109.26 198.989 109.26 207.22 117.554 209.18 147.242 204.085 134.339 239.295 117.228 218.325 114.866 220.527 126.241 248.113 119.579 253.209 127.939 262.485 146.286 248.113 150.914 266.68 164.233 260.777 174.349 298.029 183.454 301.418 185.818 320.493 174.349 348.968 152.235 370.703 123.106 374.205 97.345 364.109 89.405 352.342"/><polyline points="106.763 209.18 102.729 207.612 93.904 200.68 84.564 200.68 80.392 230.6 104.166 218.325 105.08 223.029 105.08 248.113 80.392 298.029"/><polyline points="106.763 209.18 106.763 213.491 94.761 211.336 106.763 216.104 103.782 218.717"/><polyline points="117.963 209.702 117.228 213.509 128.853 217.28 117.097 216.104 117.097 217.28"/><polyline points="113.636 221.853 110.044 223.159 119.579 253.339 105.08 248.113 105.733 223.159 108.215 223.159"/><polyline points="112.003 340.744 117.228 336.289 148.316 353.025 152.235 361.648"/><polygon points="142.95 302.479 142.307 294.449 121.656 290.672 112.447 316.835 126.241 324.491 128.853 329.012 132.641 336.955 145.414 329.012 149.622 324.002 148.316 320.493 148.316 310.041"/><polyline points="142.307 302.631 128.853 302.631 126.241 324.002 140.396 326.895 146.286 322.725 156.415 318.108 174.349 309.127 178.62 319.77 178.381 329.9 168.334 340.744 168.334 346.231 156.415 345.97 150.914 338.463 155.762 328.202 155.762 320.493"/><polyline points="174.179 296.715 155.108 283.627 142.307 270.875"/><line x1="162.423" x2="156.415" y1="262.485" y2="283.795"/><line x1="177.967" x2="154.325" y1="319.187" y2="320.493"/><line x1="166.146" x2="154.325" y1="341.528" y2="326.895"/><polyline points="104.166 223.159 87.119 237.139 79.88 230.149"/><polyline points="150.914 265.294 137.612 270.875 127.344 262.485"/></g></g></svg>