<svg xmlns="http://www.w3.org/2000/svg" width="932" height="932" viewBox="0 0 932 932"><g fill="none" fill-rule="evenodd"><line x1="175.261" x2="175.261" y1="378.325" y2="378.586" stroke="red" stroke-width=".5"/><polygon stroke="#979797" points="557.797 419.806 529.646 455.408 499.864 468.017 454.342 470.563 405.423 463.761 385.225 448.011 371.34 426.295 371.34 373.183 372.862 279.881 419.27 324.628 462.401 313.074 499.864 313.074 553.041 272.75 553.811 360.165"/><polyline stroke="#979797" points="553.041 364.532 526.446 321.258 496.076 314.568"/><polyline stroke="#979797" points="419.27 324.628 395.497 340.828 371.34 380.621"/><polygon stroke="#979797" points="436.904 424.575 410.78 440.645 389.488 420.786 385.225 385.132 408.081 364.532 434.553 377.933 431.33 360.165 455.933 337.366 484.32 352.624 483.014 377.568 512.651 358.177 539.578 394.956 529.646 420.786 512.651 436.402 490.329 424.575 491.309 436.402 469.952 451.097 443.305 448.092"/><polyline stroke="#979797" points="485.626 380.621 479.226 398.445 439.778 402.652 431.33 380.621"/><line x1="492.419" x2="480.859" y1="423.921" y2="400.081" stroke="#979797"/><line x1="439.778" x2="436.599" y1="400.081" y2="424.575" stroke="#979797"/><polyline stroke="#979797" points="434.553 471.739 429.785 495.779 428.589 498.226 367.223 623.739 413.415 646.955 445.003 641.552 458.265 626.095 448.268 616.237 441.868 607.734 439.778 594.992 423.336 569.003 422.606 567.85 430.112 503.799"/><polyline stroke="#979797" points="434.553 481.93 436.904 542.551 446.701 572.209 445.652 581.877 449.901 596.752 451.787 609.039 445.003 609.705"/><polyline stroke="#979797" points="441.868 594.933 446.701 582.399 471.389 594.933 461.331 602.65"/><polyline stroke="#979797" points="449.901 589.585 464.568 609.836 454.342 618.981"/><polyline stroke="#979797" points="476.483 471.739 476.483 479.97 484.777 481.93 514.465 476.834 501.562 512.044 484.451 491.075 482.089 493.277 493.464 520.863 486.802 525.959 495.162 535.235 513.509 520.863 518.137 539.43 531.456 533.527 541.572 570.779 550.677 574.168 553.041 593.243 541.572 621.718 519.458 643.453 490.329 646.955 464.568 636.859 456.628 625.092"/><polyline stroke="#979797" points="473.986 481.93 469.952 480.362 461.127 473.43 451.787 473.43 447.615 503.35 471.389 491.075 472.303 495.779 472.303 520.863 447.615 570.779"/><polyline stroke="#979797" points="473.986 481.93 473.986 486.241 461.984 484.085 473.986 488.854 471.005 491.467"/><polyline stroke="#979797" points="485.186 482.452 484.451 486.259 496.076 490.03 484.32 488.854 484.32 490.03"/><polyline stroke="#979797" points="480.859 494.603 477.267 495.909 486.802 526.089 472.303 520.863 472.956 495.909 475.438 495.909"/><polyline stroke="#979797" points="479.226 613.494 484.451 609.039 515.539 625.775 519.458 634.398"/><polygon stroke="#979797" points="510.173 575.229 509.53 567.198 488.879 563.422 479.67 589.585 493.464 597.241 496.076 601.762 499.864 609.705 512.637 601.762 516.845 596.752 515.539 593.243 515.539 582.791"/><polyline stroke="#979797" points="509.53 575.381 496.076 575.381 493.464 596.752 507.619 599.645 513.509 595.475 523.638 590.858 541.572 581.877 545.843 592.52 545.604 602.65 535.557 613.494 535.557 618.981 523.638 618.72 518.137 611.213 522.985 600.951 522.985 593.243"/><polyline stroke="#979797" points="541.402 569.465 522.331 556.377 509.53 543.625"/><line x1="529.646" x2="523.638" y1="535.235" y2="556.545" stroke="#979797"/><line x1="545.19" x2="521.548" y1="591.937" y2="593.243" stroke="#979797"/><line x1="533.369" x2="521.548" y1="614.278" y2="599.645" stroke="#979797"/><polyline stroke="#979797" points="471.389 495.909 454.342 509.889 447.103 502.899"/><polyline stroke="#979797" points="518.137 538.044 504.835 543.625 494.567 535.235"/></g></svg>