<?xml version="1.0" encoding="UTF-8"?>
<svg width="932px" height="932px" viewBox="0 0 932 932" version="1.1" xmlns="http://www.w3.org/2000/svg" xmlns:xlink="http://www.w3.org/1999/xlink">
    <title>character</title>
    <g id="character" stroke="none" stroke-width="1" fill="none" fill-rule="evenodd">
        <path d="M467.006559,249 C567.662995,249.007473 654.297319,320.116931 673.927814,418.841188 C693.558309,517.565444 640.717659,616.408671 547.720866,654.922726 C454.724074,693.436781 347.471802,660.895061 291.554795,577.198642 C235.637788,493.502223 246.629566,381.96151 317.808045,310.789865 C357.336513,271.159052 411.032673,248.921115 467.006559,249 Z M328.815989,581.562403 C354.937485,529.567372 408.217209,496.78171 466.441856,496.874368 C524.666502,496.967025 577.841442,529.922096 603.797056,582 C669.090991,508.422852 664.669003,396.478253 593.774408,328.27222 C522.879813,260.066187 410.759083,259.887761 339.64742,327.867809 C268.535757,395.847857 263.756934,507.777815 328.815989,581.562403 L328.815989,581.562403 Z M466.991832,305 C426.920228,305.005541 392.432693,333.316604 384.620148,372.6195 C376.807603,411.922395 397.845913,451.270909 434.869057,466.601378 C471.892201,481.931847 514.588896,468.974594 536.847891,435.653655 C559.106886,402.332716 554.728848,357.928276 526.391175,329.59596 C510.639817,313.887126 489.286033,305.090219 467.04044,305.145826 L466.991832,305 Z" id="Shape" fill="#000000" fill-rule="nonzero"></path>
    </g>
</svg>