<?xml version="1.0" encoding="UTF-8"?>
<svg width="932px" height="932px" viewBox="0 0 932 932" version="1.1" xmlns="http://www.w3.org/2000/svg" xmlns:xlink="http://www.w3.org/1999/xlink">
    <title>character</title>
    <g id="character" stroke="none" stroke-width="1" fill="none" fill-rule="evenodd">
        <g id="Group" transform="translate(367.222999, 275.000000)" stroke="#FF0000" stroke-width="0.5">
            <path d="M123.367141,43.8792836 C124.150876,42.9647376 124.412121,40.6130479 125.457101,40.2210997 C127.285817,39.4372031 130.290135,40.8743468 131.857605,39.4372031 C132.510718,38.9146054 132.510718,37.86941 132.902585,37.0855134 C133.425076,36.3016169 134.078188,35.7790191 134.731301,35.2564214 C138.911222,31.7288869 143.613633,28.5933007 148.054798,25.1964156 C154.585925,20.2317374 160.986429,14.8751109 167.517555,9.91043266 C170.913741,7.16679469 174.309926,4.42315673 177.836734,1.8101682 C178.751092,1.02627164 181.23292,-0.410872057 182.539145,0.11172565 C183.32288,0.50367393 183.32288,1.54886934 183.32288,2.3327659 C183.584126,4.42315673 183.845371,6.64419699 183.975993,8.73458781 C184.367861,17.2268006 185.412841,25.7190133 185.935331,34.211226 C186.849689,48.1907147 187.372179,62.3008528 187.764046,76.2803414 C187.764046,78.6320311 188.025291,81.2450197 187.764046,83.5967093 C187.633424,84.2499565 187.110934,84.5112553 186.980311,85.1645025 C186.719066,85.8177496 187.372179,86.7322956 187.372179,87.3855427 C187.372179,88.1694393 186.980311,88.8226864 186.849689,89.4759335 C186.719066,91.0437267 186.980311,92.8728186 187.110934,94.4406118 C188.025291,100.189187 189.331517,105.937761 190.115252,111.686336 C191.02961,118.480106 191.5521,125.273876 191.813345,132.067647 C192.07459,137.032325 192.988947,142.911549 191.02961,147.614928 C190.115252,149.835969 188.286536,151.92636 186.849689,153.886101 C184.759728,156.760388 182.669768,159.634676 180.449185,162.378314 C176.791754,167.081693 172.873078,171.523774 168.693158,175.835205 C166.995065,177.664297 165.427594,179.885337 163.337634,181.322481 C161.378296,182.890274 158.504601,183.67417 156.284018,184.719366 C150.928494,187.201705 145.442348,189.422745 139.694957,190.729239 C132.64134,192.427682 125.457101,193.472877 118.272862,194.256774 C115.791034,194.518073 113.439829,194.779371 110.958001,195.04067 C110.043643,195.301969 108.998663,195.17132 108.214928,195.563268 C109.651776,197.131061 109.129286,200.789245 109.390531,202.879636 C109.521153,203.794182 109.782398,204.708728 108.998663,205.492624 C108.084305,206.53782 105.994345,205.623274 105.21061,206.799119 C104.426875,207.974964 105.21061,209.934705 104.557497,211.241199 C103.381895,210.196004 101.945047,210.457303 100.508199,210.457303 C98.026371,210.457303 95.544543,210.196004 93.062715,210.196004" id="Path"></path>
            <path d="M52.0472418,49.6278584 C50.0879039,51.5875998 47.7366984,52.7634446 45.5161155,54.2005883 C41.8586847,56.552278 38.3318765,59.0346171 34.6744458,61.3863068 C32.5844854,62.8234505 30.1026574,63.9992953 28.273942,65.8283873 C25.530869,68.4413758 23.7021536,72.4915081 22.0040608,75.7577437 C19.5222328,80.1998242 17.0404048,84.5112553 14.6891993,88.9533358 C12.7298614,92.7421692 11.0317686,96.7923014 8.81118563,100.319836 C8.28869553,101.103733 6.19873511,102.802175 5.1537549,102.540876 C3.19441701,102.148928 3.58628459,98.8826923 3.45566206,97.4455486 C2.93317196,92.0889221 2.54130438,86.4709967 2.54130438,81.1143702 C2.54130438,75.3657955 2.1494368,69.6172207 2.01881428,63.8686459 C1.6269467,49.6278584 2.28005933,35.125772 3.97815217,21.0156339 C4.50064227,16.3122546 4.89250985,11.7395246 5.54562248,7.03614527 C5.80686753,5.86030043 5.80686753,2.98601304 7.24371532,2.72471418 C8.158073,2.46341533 10.1174109,3.24731189 10.9011461,3.7699096 C13.5135966,5.59900157 15.9954246,8.08134068 18.2160075,10.3023809 C27.4902069,19.3171914 36.2419161,28.7239501 44.3405127,38.783956 C46.4304731,41.2662951 48.6510561,43.7486342 50.4797715,46.3616227 C51.1328841,47.2761687 51.0022616,48.4520135 51.7859967,49.2359101 C52.4391093,49.7585078 53.4840896,49.6278584 54.2678247,49.6278584 C55.4434274,49.497209 56.0965401,48.1907147 57.1415203,47.7987664 C60.2764609,46.6229216 63.5420241,45.7083756 66.8075872,45.0551284 C79.6085948,42.0501916 92.6708474,39.9598008 105.7331,38.6533065 C110.435511,38.1307088 115.007299,38.1307088 119.70971,38.6533065 C121.669048,38.783956 123.759009,38.783956 125.195856,40.2210997" id="Path"></path>
            <path d="M131.857605,39.5678525 C133.947566,41.6582434 136.951884,42.0501916 139.825579,42.7034388 C143.744255,43.6179848 147.793553,44.924479 151.581607,46.2309733 C153.410322,46.753571 155.89215,47.4068181 157.328998,48.582663 C159.810826,50.6730538 161.639541,54.0699389 163.598879,56.6829274 C167.648177,62.0395539 171.828098,67.5268298 175.485529,73.1447552 C177.183622,75.6270943 178.881715,78.1094334 180.579807,80.4611231 C181.23292,81.3756691 181.886033,82.8128128 182.80039,83.4660599 C183.845371,84.2499565 185.412841,84.6419047 186.588444,85.1645025" id="Path"></path>
            <path d="M64.0645142,102.802175 C64.5870043,102.279577 65.3707394,101.75698 65.501362,101.103733 C65.8932295,100.189187 65.501362,98.8826923 65.501362,97.8374968 C65.3707394,94.83256 64.9788719,91.6969738 64.8482493,88.692037 C64.7176268,87.2548933 64.5870043,85.948399 65.3707394,84.6419047 C66.4157196,82.5515139 68.7669251,80.8530714 70.4650179,79.1546288 C74.1224487,75.4964449 77.7798794,71.9689104 81.4373101,68.4413758 C83.135403,66.8735827 85.2253634,63.8686459 87.7071914,63.7379965 C89.9277743,63.607347 92.1483573,65.0444907 94.1076952,65.9590367 C97.3732583,67.5268298 100.508199,69.094623 103.773762,70.7930655 C106.516835,72.0995598 109.259908,73.6673529 111.872359,75.235146 C112.917339,75.7577437 114.484809,76.4109909 115.137922,77.4561863 C115.921657,78.89333 115.660412,81.5063185 115.791034,83.0741116 C116.05228,87.2548933 116.57477,91.4356749 116.705392,95.6164566 C116.705392,97.9681463 116.182902,101.103733 117.880995,102.802175 C119.18722,101.62633 120.885313,101.495681 122.191538,100.450485 C127.285817,96.5310026 131.988228,92.2195715 136.821261,88.1694393 C139.041844,86.2096979 141.39305,82.9434622 144.52799,82.6821633 C145.834215,82.5515139 146.748573,83.5967093 147.532308,84.3806059 C149.230401,86.0790484 150.667249,88.1694393 152.104097,89.9985312 C157.590243,96.661652 163.076389,103.324773 167.909422,110.510491 C169.476893,112.862181 172.481211,115.867118 172.350588,118.872055 C172.089343,122.13829 171.044363,125.404526 169.999383,128.540112 C169.085025,131.806348 168.170667,135.072583 167.125687,138.338819 C166.341952,140.821158 166.080707,143.826095 164.513237,146.047135 C163.729502,147.22298 162.292654,148.137526 161.117051,149.182722 C159.418958,150.619865 157.851488,152.057009 156.153395,153.494153 C154.194057,155.192595 152.365342,156.891038 150.536626,158.458831 C149.491646,159.373377 148.316043,160.549222 146.748573,160.549222 C144.136123,160.418572 141.91554,158.72013 139.694957,157.413635 C136.690639,155.584543 133.425076,153.886101 130.290135,152.187658 C128.853287,151.403762 127.416439,151.403762 125.979592,150.750515 C125.457101,150.489216 124.803989,149.57467 124.150876,149.835969 C122.844651,150.358566 123.236518,152.057009 123.236518,153.102204 C123.236518,155.715193 124.150876,159.373377 122.191538,161.594417 C118.66473,165.38325 113.831697,168.649486 109.782398,171.785072 C107.561815,173.614164 105.602477,175.573906 102.728782,176.096503 C101.030689,176.357802 99.0713512,175.965854 97.3732583,175.704555 C93.9770726,175.312607 90.7115095,175.051308 87.3153238,174.65936 C84.5722508,174.398061 81.8291777,174.267411 79.0861047,173.875463 C78.171747,173.744814 76.7348992,173.875463 76.0817866,173.091567 C75.1674289,171.785072 75.0368064,169.433383 74.6449388,167.86559 C73.7305811,164.076756 72.6856009,160.287923 72.0324883,156.499089 C71.7712432,154.800647 71.7712432,152.187658 70.9875081,150.619865 C70.726263,149.966618 70.0731504,149.57467 69.5506603,149.052072 C67.98319,150.619865 66.1544746,151.142463 64.3257592,152.318308 C59.8845933,155.453894 55.3128049,158.458831 51.0022616,161.855716 C49.1735462,163.16221 46.0386056,166.036498 43.5567776,165.644549 C41.5974397,165.38325 40.4218369,163.946107 38.9849892,162.639613 C37.1562738,160.94117 35.3275584,159.242727 33.6294656,157.544285 C31.0170151,154.931296 28.6658096,152.448957 26.0533591,149.835969 C24.8777563,148.660124 23.049041,147.35363 22.2653058,145.785836 C21.2203256,143.956744 21.2203256,141.082457 20.9590806,138.992066 C20.3059679,134.288687 19.7834778,129.454658 19.2609877,124.751279 C18.7384976,120.962445 18.085385,117.173612 18.085385,113.384779 C18.085385,111.947635 17.6935174,110.510491 18.6078751,109.203997 C20.3059679,106.982957 22.9184185,105.023215 25.0083789,103.194123 C27.8820744,100.581135 30.6251475,97.9681463 33.3682205,95.3551577 C35.458181,93.3954163 37.6787639,90.6517784 40.4218369,89.9985312 C42.6424199,89.4759335 44.8630028,91.3050255 46.5610957,92.3502209 C50.3491489,94.7019106 54.2678247,97.1842497 58.1865005,99.40529 C60.0152159,100.450485 62.4970439,101.103733 63.9338916,102.802175 C64.3257592,103.324773 64.1951367,103.97802 64.1951367,104.631267 C64.4563817,106.068411 64.5870043,108.289451 65.3707394,109.595945 C66.0238521,110.77179 68.6363026,111.294388 69.8119053,112.078284 C70.726263,112.731531 71.1181306,114.299325 71.5099982,115.34452 C72.1631108,117.173612 72.9468459,119.002704 73.5999586,120.962445 C73.8612036,121.746342 73.8612036,122.791537 74.6449388,123.183486 C75.2980514,123.575434 76.6042767,123.052836 77.2573893,122.922187 C79.4779722,122.660888 81.8291777,122.399589 84.0497607,122.007641 C87.8378139,121.485043 91.4952446,120.701147 95.2832979,120.309198 C99.3325962,119.91725 103.381895,119.786601 107.431193,119.264003 C110.435511,118.872055 114.223564,119.525302 116.444147,117.042963 C117.09726,116.259066 116.705392,114.429974 116.836015,113.384779 C117.227882,109.857244 117.227882,106.32971 117.880995,102.802175" id="Path"></path>
            <path d="M146.356706,92.6115198 C142.176785,96.7923014 137.474374,100.711784 133.033208,104.631267 C130.943248,106.460359 128.200174,108.289451 126.893949,110.77179 C125.326479,113.907376 125.587724,118.480106 125.457101,121.876991 C125.326479,124.098032 124.673366,126.84167 122.060916,127.625566 C121.538426,127.756216 121.015936,127.364267 120.624068,127.233618 C119.317843,126.580371 118.14224,125.012578 118.66473,123.444784 C119.317843,121.876991 121.538426,120.962445 122.322161,119.394652" id="Path"></path>
            <path d="M5.1537549,102.932824 C5.02313238,115.867118 3.71690712,128.801411 4.23939722,141.735704 C4.37001975,145.132589 4.37001975,148.660124 4.6312648,152.057009 C4.76188732,153.755451 4.76188732,155.453894 5.28437743,157.021687 C5.93749006,158.58948 7.76620542,160.157273 8.94180816,161.463768 C11.1623911,163.946107 13.2523515,166.559095 15.4729345,169.041434 C17.6935174,171.654423 19.9141004,174.52871 22.5265509,176.8804 C24.6165113,178.578843 27.0983393,179.885337 29.4495448,181.322481 C32.8457304,183.412871 36.1112936,185.372613 39.6381018,187.201705 C43.6874001,189.292096 47.2142083,191.513136 51.7859967,192.427682 C57.1415203,193.603527 62.7582889,194.518073 68.1138125,195.17132 C72.1631108,195.693917 76.4736541,195.432619 80.5229525,195.693917 C83.7885156,195.955216 87.0540788,195.693917 90.3196419,196.085866 C91.6258672,196.216515 93.062715,195.955216 94.3689402,196.608463 C95.6751655,197.261711 95.544543,199.6134 96.5895232,200.658596 C98.4182385,202.357038 100.638821,204.055481 102.728782,205.361975 C103.512517,206.015222 104.296252,206.276521 105.079987,206.929768" id="Path"></path>
            <path d="M65.2401169,109.726595 C63.280779,111.686336 64.4563817,114.691273 64.4563817,117.304261 C64.4563817,122.007641 64.9788719,126.84167 65.501362,131.545049 C65.6319845,133.50479 65.6319845,136.248428 66.4157196,138.07752 C66.6769647,138.730767 68.7669251,140.559859 69.5506603,140.42921 C70.3343954,140.42921 71.5099982,139.122716 71.9018657,138.469469 C73.0774685,136.640377 72.9468459,133.63544 73.3387135,131.545049 C73.7305811,128.801411 73.9918262,126.057773 74.6449388,123.314135" id="Path"></path>
            <path d="M116.705392,117.173612 C117.489127,119.133353 117.09726,121.876991 118.403485,123.444784" id="Path"></path>
            <polyline id="Path" points="121.930293 127.886865 123.105896 138.07752 124.281499 149.57467"></polyline>
            <line x1="69.5506603" y1="140.690509" x2="69.6812828" y2="148.921423" id="Path"></line>
            <line x1="196.646378" y1="179.885337" x2="196.385133" y2="180.407935" id="Path"></line>
            <path d="M67.98319,195.301969 C67.5913224,198.176257 68.5056801,201.834441 67.3300773,204.578078 C67.0688323,205.361975 65.8932295,205.623274 65.2401169,206.276521 C64.7176268,206.929768 64.5870043,208.105613 64.3257592,208.88951 C63.8032691,210.718602 63.4114015,212.678343 63.019534,214.507435 C62.8889114,215.421981 62.7582889,216.859125 62.2357988,217.643021 C61.7133087,218.426918 60.4070834,218.688217 59.7539708,219.341464 C60.537706,220.12536 62.1051763,221.301205 62.6276664,222.346401 C62.7582889,222.999648 62.4970439,223.652895 62.4970439,224.306142 C62.3664213,226.004584 62.2357988,227.833676 61.9745538,229.532119 C61.3214411,234.627447 60.9295735,239.853424 60.4070834,245.079401 C59.3621032,255.662004 58.4477455,266.244608 57.2721428,276.696562 C56.8802752,279.962798 56.4884077,283.359683 56.0965401,286.625918 C55.835295,288.58566 55.1821824,291.067999 55.4434274,293.02774 C55.835295,294.856832 57.0108978,296.424625 57.7946329,297.992419 C59.6233483,301.650603 61.5826862,305.178137 63.5420241,308.705672 C65.1094944,311.579959 66.9382097,314.323597 68.3750575,317.197884 C69.0281702,318.504379 69.6812828,320.594769 70.9875081,321.378666 C72.8162234,322.423861 73.7305811,321.117367 74.1224487,319.418925 C75.0368064,316.022039 75.2980514,312.494505 76.2124091,309.09762 C76.4736541,308.052424 78.171747,307.529827 78.171747,306.74593 C78.3023695,305.962034 77.5186344,305.308787 77.3880118,304.655539 C77.1267668,302.695798 77.1267668,299.690861 77.7798794,297.73112 C78.0411245,296.816574 79.3473497,296.555275 80.0004624,296.032677 C80.653575,295.37943 81.1760651,293.942286 81.5679327,293.15839 C86.5315887,281.66124 92.9320924,270.686688 98.5488611,259.450838 C100.246954,256.053953 102.075669,252.787717 103.904385,249.521481 C104.426875,248.476286 104.426875,246.908493 105.21061,245.993947 C105.7331,245.3407 107.169948,245.21005 107.953683,245.3407 C109.913021,245.3407 111.611114,247.56174 113.047961,248.737585 C114.092942,249.652131 115.007299,250.827976 116.05228,251.481223 C116.966637,252.00382 118.272862,251.873171 119.056598,252.657068 C119.579088,253.049016 119.70971,253.963562 120.101578,254.616809 C121.669048,256.57655 124.803989,259.581487 127.285817,259.973435 C127.938929,260.104085 128.330797,259.581487 128.853287,259.189539 C129.898267,258.274993 130.812625,257.360447 131.857605,256.445901 C134.600678,253.832912 137.735619,251.611872 140.478692,248.998884 C141.784917,247.823039 143.48301,245.993947 145.311725,245.993947 C146.748573,245.993947 146.879196,248.737585 147.140441,249.78278 C147.924176,253.049016 148.446666,256.445901 148.969156,259.712137 C149.099779,260.496033 149.099779,262.586424 149.752891,262.978372 C150.536626,263.370321 152.234719,262.717073 152.887832,262.325125 C154.977792,261.541229 157.067753,260.104085 159.288336,259.712137 C159.941448,259.581487 160.855806,259.189539 161.378296,259.450838 C162.423276,259.973435 164.643859,261.14928 165.296972,262.063826 C165.688839,262.586424 165.688839,263.370321 165.819462,264.023568 L167.25631,268.465648 C168.954403,274.083574 170.521873,279.832148 172.089343,285.450074 C172.742456,287.671114 173.787436,289.892154 174.048681,292.243844 C174.179304,292.635792 174.571171,294.203585 174.179304,294.464884 C173.003701,294.987482 170.652495,293.942286 169.86876,293.289039 C166.864442,290.93735 164.382614,288.063062 161.770164,285.319424 C161.247674,284.666177 160.594561,284.274229 159.810826,283.882281 C159.288336,283.751631 158.504601,283.751631 158.373978,283.098384 C158.243355,282.575786 158.896468,281.79189 159.027091,281.138643 C159.288336,278.525654 160.072071,275.912665 160.594561,273.299677 C160.986429,271.470585 161.508919,269.641493 161.639541,267.681752 C161.639541,267.028504 161.639541,265.85266 160.725183,265.983309 C158.635223,266.244608 158.112733,269.510844 157.590243,271.078637 C156.675885,273.430326 155.761527,276.043315 155.239037,278.525654 C154.977792,279.701499 154.455302,280.354746 155.239037,281.530591 C155.89215,282.314487 157.067753,282.445137 157.98211,282.837085" id="Path"></path>
            <path d="M94.7608078,196.739113 C95.805788,195.824567 97.5038808,195.955216 98.8101061,195.955216 C101.945047,195.824567 105.079987,195.563268 108.214928,195.563268" id="Path"></path>
            <path d="M85.3559859,195.955216 C83.9191381,197.523009 84.3110057,200.266647 83.9191381,202.226389 C82.6129129,207.974964 81.8291777,213.723538 80.653575,219.472113 C80.2617074,221.170556 79.6085948,223.130297 80.0004624,224.82874 C80.1310849,225.481987 80.1310849,226.265883 80.7841975,226.527182 C81.1760651,226.657832 81.8291777,226.396533 82.2210453,226.265883 C83.6578931,225.743286 84.9641183,224.82874 86.2703436,224.306142 C90.7115095,222.346401 94.8914303,219.864061 99.2019737,217.643021 C100.508199,216.989774 102.990027,216.859125 104.035007,215.944579 C104.949365,215.160682 104.557497,212.286395 104.557497,211.241199" id="Path"></path>
            <path d="M109.259908,205.753923 C111.480491,206.53782 113.309207,206.668469 115.660412,206.799119 C116.313525,206.799119 116.966637,207.191067 117.489127,207.060418 C119.448465,206.799119 121.277181,205.623274 123.236518,205.100676 C127.024572,204.31678 130.812625,203.794182 134.600678,203.010285 C137.082506,202.487688 139.564334,202.226389 142.046162,201.96509 C142.699275,201.834441 144.397368,201.442492 145.05048,201.834441 C145.703593,202.226389 145.311725,203.271584 145.311725,203.924831 C145.05048,206.015222 144.397368,208.105613 143.874878,210.065354 C143.091142,212.808992 142.699275,215.68328 141.784917,218.426918 C139.956202,224.175493 137.474374,229.532119 134.731301,234.888745" id="Path"></path>
            <path d="M67.3300773,204.970027 C69.0281702,206.668469 68.6363026,209.542757 68.6363026,211.894446 C68.6363026,217.512372 68.8975476,223.130297 68.8975476,228.748222 C68.8975476,236.587188 69.0281702,244.426154 69.5506603,252.265119 C69.8119053,255.792654 69.6812828,259.320188 70.0731504,262.847723 C70.726263,268.726947 72.0324883,274.736821 73.3387135,280.485395 C74.1224487,284.404878 74.9061838,288.324361 75.951164,292.113194 C76.3430316,293.942286 76.3430316,295.771378 77.7798794,297.208522" id="Path"></path>
            <path d="M117.227882,207.452366 C116.705392,208.88951 116.444147,212.547694 117.358505,213.723538 C118.272862,213.070291 119.70971,213.46224 120.75469,213.592889 C123.367141,213.984837 126.240837,214.899383 128.853287,215.030033" id="Path"></path>
            <path d="M117.227882,213.854188 L116.836015,216.467176 L115.529789,217.773671 L114.354187,219.080165 L110.958001,219.472113 L110.043643,220.517309 L112.002981,224.175493 C113.439829,222.738349 116.05228,221.431855 114.615432,219.210814" id="Path"></path>
            <path d="M104.16563,216.075228 C105.21061,217.251073 104.296252,218.557567 104.949365,219.864061 C105.7331,221.301205 108.737418,220.647958 110.043643,220.517309" id="Path"></path>
            <path d="M117.09726,216.467176 C122.322161,221.693153 125.848969,228.617573 131.07387,233.9742" id="Path"></path>
            <path d="M62.2357988,217.90432 C63.280779,219.080165 62.7582889,220.647958 62.7582889,222.085102" id="Path"></path>
            <path d="M59.6233483,219.602763 C53.353467,234.627447 45.5161155,248.998884 38.201254,263.631619 C30.3639024,279.570849 22.7877959,295.771378 15.0810669,311.841258 C11.0317686,320.072172 7.24371532,328.564384 3.45566206,336.925948 C2.54130438,339.016339 1.75756922,340.97608 0.973834067,343.066471 C0.451343963,343.981017 -0.201768667,345.54881 0.0594763847,346.594005 C0.320721437,347.639201 2.1494368,348.553747 2.93317196,349.076344 C5.80686753,351.166735 8.94180816,352.995827 11.9461263,354.955569 C17.3016498,358.221804 22.2653058,362.271937 27.7514519,365.276873 C30.6251475,366.844666 33.8907106,367.628563 37.0256513,368.543109 C41.0749496,369.849603 45.7773605,371.678695 50.0879039,371.939994 C52.1778643,372.070644 54.3984472,371.286747 56.4884077,370.894799 C60.537706,370.110902 64.5870043,369.196356 68.6363026,368.28181 C70.726263,367.889862 73.9918262,367.497914 75.8205415,366.322069 C79.7392173,363.447781 83.6578931,360.312195 87.3153238,357.307258 C88.360304,356.392712 89.4052842,355.608816 90.4502644,354.69427 C90.842132,354.432971 91.2339996,353.910373 91.7564897,353.910373 C93.1933375,354.041023 94.2383177,355.739465 95.0220529,356.784661 C96.9813907,359.13635 99.2019737,362.533235 102.075669,363.970379 C103.251272,364.623626 104.818742,364.754276 106.124968,365.146224 C108.214928,365.668822 110.435511,366.322069 112.525471,366.844666 C117.61975,368.151161 122.975273,369.849603 128.200174,370.372201 C131.988228,370.764149 135.776281,370.110902 139.564334,369.980253 C142.046162,369.849603 144.397368,369.588304 146.879196,369.457655 C148.577289,369.327006 150.536626,369.457655 152.104097,368.673758 C153.410322,368.020511 154.716547,366.583368 155.761527,365.538172 C157.720865,363.70908 159.680203,361.749339 161.639541,359.920247 C163.337634,358.352454 165.035727,356.523362 166.73382,354.955569 C168.30129,353.649074 170.130005,352.34258 171.305608,350.644138 C171.958721,349.598942 172.742456,348.161798 173.003701,346.985954 C173.264946,346.202057 173.134323,345.287511 173.526191,344.503615 C173.787436,343.589069 174.701794,342.674523 175.224284,341.759977 C176.399887,339.538936 177.314244,337.187247 178.489847,334.835557 C180.18794,331.569321 181.886033,328.172436 183.453503,324.906201 C184.237238,323.469057 185.412841,321.901264 185.674086,320.333471 C186.196576,317.851131 185.151596,314.584896 184.890351,312.102557 C184.498483,308.96697 184.367861,305.831384 183.975993,302.695798 C183.845371,301.650603 183.975993,300.082809 183.453503,299.168263 C182.931013,298.384367 181.363543,298.123068 180.579807,297.73112 C178.359224,296.816574 176.269264,296.032677 174.309926,294.595534" id="Path"></path>
            <path d="M81.0454426,226.91913 C82.0904228,229.140171 83.135403,230.707964 84.7028733,232.537056 C85.4866084,233.451602 85.878476,234.235498 87.1847013,234.366148 C88.7521716,234.366148 90.9727545,231.883809 92.1483573,230.969263 C95.805788,228.225625 99.2019737,225.220688 102.859404,222.47705 C103.773762,221.823803 104.818742,221.693153 105.7331,220.909257 C107.30057,222.47705 106.647458,224.436791 106.516835,226.527182 C106.25559,231.099912 105.602477,235.541993 105.21061,240.114723 C105.079987,241.813165 104.035007,244.426154 105.21061,245.863297" id="Path"></path>
            <path d="M115.007299,221.562504 C116.05228,222.999648 116.705392,224.69809 117.61975,226.135234 C120.362823,230.577314 122.975273,235.019395 125.457101,239.592125 C126.240837,241.029269 128.853287,244.164855 128.200174,245.863297 C127.808307,246.908493 126.110214,247.56174 125.195856,248.084338 C124.150876,248.737585 123.105896,249.652131 121.930293,250.174728 C121.277181,250.436027 120.101578,250.436027 119.70971,251.089274 C119.317843,251.350573 119.317843,252.13447 119.056598,252.526418" id="Path"></path>
            <polyline id="Path" points="112.002981 224.175493 113.831697 230.969263 117.227882 243.119659 118.795353 248.476286 119.579088 250.958625"></polyline>
            <path d="M127.938929,260.234734 C128.722665,262.978372 131.726983,264.938114 133.686321,266.767206 C134.470056,267.551102 135.384413,268.465648 136.560016,268.596298 C139.303089,268.857596 142.046162,267.289803 144.397368,266.244608 C146.356706,265.460711 148.577289,264.807464 149.883514,263.109022" id="Path"></path>
            <path d="M162.423276,260.234734 C161.378296,261.410579 161.378296,264.284867 160.986429,265.85266" id="Path"></path>
            <path d="M142.307407,267.551102 C142.829897,268.204349 142.699275,269.118895 143.091142,269.772142 C143.874878,271.078637 145.05048,272.385131 145.703593,273.822275 C145.964838,274.475522 145.964838,275.390068 146.487328,275.912665 C147.401686,276.827211 149.230401,275.912665 150.406004,276.565913 C151.059117,276.827211 150.928494,278.133706 151.450984,278.786953 C152.104097,279.570849 153.410322,279.570849 154.32468,279.962798" id="Path"></path>
            <path d="M142.96052,299.560212 C142.046162,300.344108 140.348069,300.082809 139.172467,299.95216 C136.951884,299.690861 134.861923,299.95216 132.64134,299.560212 C131.59636,299.429562 129.5064,299.037614 128.592042,299.821511 C127.416439,300.605407 127.285817,302.826447 127.024572,304.132942 C126.502082,306.74593 125.979592,309.358919 125.587724,311.971907 C125.326479,313.409051 124.934611,314.976844 125.065234,316.544637 C125.326479,318.11243 125.457101,319.418925 125.848969,320.856068 C125.979592,321.248017 126.371459,322.031913 125.718346,322.031913 C125.065234,322.162563 124.281499,321.639965 123.759009,321.509315 C121.277181,320.725419 119.70971,319.026976 117.880995,317.197884 C116.313525,315.630091 113.047961,313.5397 112.525471,311.31866 C112.133604,309.881516 113.309207,307.791126 113.701074,306.353982 C115.137922,302.1732 116.57477,297.73112 118.403485,293.680988 C118.925975,292.374493 119.448465,289.761505 120.624068,288.846959 C121.538426,288.193712 122.844651,288.45501 123.759009,288.58566 C125.848969,289.108258 127.808307,289.892154 129.898267,290.153453 C132.510718,290.545401 134.992546,291.067999 137.474374,291.590597 C138.388732,291.721246 139.825579,291.590597 140.609314,292.243844 C141.131805,292.505143 141.131805,293.15839 141.39305,293.680988 C141.91554,294.987482 142.307407,296.163327 142.568652,297.469821 C142.699275,298.123068 142.699275,299.037614 143.091142,299.429562 C143.613633,300.213459 144.397368,300.605407 144.919858,301.519953 C145.703593,303.218396 146.356706,305.962034 147.662931,307.268528 C148.707911,308.444373 150.536626,308.313723 151.450984,309.620218 C152.234719,310.534764 153.018454,311.710608 153.410322,312.755804 C153.671567,313.5397 153.671567,314.584896 154.194057,315.238143 C154.716547,316.022039 155.630905,315.89139 156.284018,316.544637 C159.549581,313.278402 163.860124,311.057361 167.648177,308.575022 C168.954403,307.791126 170.652495,306.092683 172.219966,306.092683 C173.264946,306.092683 174.048681,306.87658 174.701794,307.660476 C176.008019,309.489568 177.444867,311.710608 177.967357,313.931649 C178.228602,314.846195 178.751092,316.152689 177.967357,316.936585 C177.706112,317.328534 176.922377,317.328534 176.399887,317.328534 C175.093661,317.459183 173.918059,317.459183 172.611833,317.589833 C168.562535,317.851131 164.643859,318.765677 160.594561,318.765677 C159.418958,318.765677 156.93713,319.418925 156.41464,317.981781 C156.153395,317.589833 156.284018,316.936585 156.284018,316.544637" id="Path"></path>
            <path d="M78.3023695,306.87658 L80.3923299,307.791126 C81.8291777,306.615281 84.7028733,308.575022 86.0090986,309.358919 C90.3196419,312.233206 94.7608078,315.107494 99.3325962,317.720482 C100.508199,318.373729 103.64314,319.941522 103.773762,321.378666 C103.904385,322.554511 102.467537,323.207758 101.553179,323.730356 C99.7244638,324.775551 97.8957484,325.559448 96.0670331,326.473994 C95.544543,326.865942 94.3689402,327.127241 94.1076952,327.649838 C93.7158276,328.303086 94.3689402,329.60958 94.6301853,330.262827 C95.544543,331.83062 97.3732583,334.05166 96.7201457,336.011402 C96.3282781,337.056597 95.2832979,337.579195 94.4995627,338.232442 C92.6708474,339.538936 90.842132,340.845431 88.8827941,342.021275 C88.2296815,342.413224 86.2703436,342.935821 86.0090986,343.589069 C85.7478535,344.372965 86.5315887,346.202057 87.0540788,346.855304 C88.6215491,349.206994 90.4502644,351.036086 91.4952446,353.649074" id="Path"></path>
            <path d="M147.532308,307.399177 C146.487328,309.489568 148.577289,312.755804 148.838534,314.846195 C148.969156,315.499442 148.707911,317.067235 149.491646,317.459183 C150.014136,317.720482 150.536626,317.067235 150.928494,316.936585 C152.234719,316.413988 153.410322,316.805936 154.585925,315.89139" id="Path"></path>
            <path d="M80.3923299,307.791126 C80.5229525,310.012166 80.91482,312.494505 82.2210453,314.323597 C82.7435354,315.107494 84.0497607,315.107494 84.8334958,315.760741 C86.2703436,317.197884 87.4459463,319.288275 88.6215491,320.986718 C90.3196419,323.207758 91.6258672,326.343344 93.8464501,327.911137" id="Path"></path>
            <path d="M82.2210453,314.584896 C81.0454426,315.89139 81.6985552,318.504379 82.0904228,320.072172 C82.7435354,323.469057 83.2660255,326.865942 83.9191381,330.262827 C84.1803832,331.308022 84.8334958,333.398413 84.4416282,334.443609 C84.1803832,334.835557 83.396648,334.704908 83.0047805,334.574258 C82.0904228,334.443609 80.2617074,334.18231 79.4779722,334.704908 C78.432992,333.790362 77.1267668,332.875816 75.8205415,332.483867 C74.7755613,332.091919 73.3387135,331.83062 72.6856009,330.916074 C72.2937333,330.262827 72.4243558,329.217632 72.4243558,328.433735 C72.4243558,326.343344 72.9468459,324.122304 72.2937333,322.162563" id="Path"></path>
            <path d="M178.097979,317.328534 C178.751092,319.810873 178.881715,322.68516 177.967357,325.167499 C176.922377,328.041787 174.571171,330.785425 173.003701,333.267764 C172.219966,334.443609 171.044363,335.227505 170.260628,336.272701 C169.607515,336.925948 168.954403,337.971143 168.040045,338.232442 C167.25631,338.363091 165.688839,337.709844 164.905104,337.317896 C163.076389,336.533999 161.639541,334.574258 160.202693,333.267764 C159.027091,332.091919 157.590243,331.046724 156.675885,329.60958 C156.153395,328.825683 156.022773,325.820747 154.455302,326.343344 C153.80219,326.735292 152.626587,327.25789 152.104097,327.780488 C151.712229,328.433735 151.450984,329.348281 151.189739,330.001528 C150.797871,331.569321 149.361024,334.05166 150.014136,335.750103 C150.667249,337.709844 152.757209,339.538936 154.063435,341.106729 C154.977792,342.151925 155.89215,343.850367 157.198375,344.503615 C159.027091,345.54881 161.247674,344.895563 163.076389,344.634264 C166.603197,344.242316 169.86876,344.111666 173.395569,344.111666" id="Path"></path>
            <path d="M149.622269,317.720482 C149.230401,320.725419 145.834215,319.418925 144.397368,321.117367 C143.874878,321.639965 143.48301,322.293212 143.221765,322.946459 C142.699275,323.991655 143.091142,324.644902 143.091142,325.690097 C143.091142,325.951396 142.96052,326.604643 143.352388,326.735292 C143.874878,326.865942 144.789235,326.473994 145.311725,326.343344 C146.095461,326.212695 146.879196,326.212695 147.532308,325.690097 C149.230401,324.514252 149.752891,321.509315 148.316043,319.941522" id="Path"></path>
            <polyline id="Path" points="156.41464 318.24308 155.89215 321.248017 155.108415 325.951396"></polyline>
            <path d="M126.240837,322.031913 C127.155194,322.946459 127.938929,324.514252 129.245155,325.167499 C130.55138,325.690097 132.249473,325.428798 133.555698,325.167499 C136.429394,324.775551 139.694957,324.906201 142.43803,323.991655" id="Path"></path>
            <path d="M128.98391,325.167499 C128.46142,325.951396 128.853287,326.735292 129.114532,327.519189 C129.637022,329.217632 130.943248,331.96127 132.771963,332.614517 C133.947566,333.006465 135.384413,332.353218 136.298771,331.83062 C138.780599,330.524126 141.784917,329.60958 142.96052,326.865942" id="Path"></path>
            <path d="M113.047961,338.493741 C114.615432,337.317896 116.182902,334.18231 118.272862,334.05166 C119.70971,333.921011 121.146558,334.835557 122.322161,335.619454 C124.281499,336.925948 126.240837,338.232442 128.200174,339.408287 C132.249473,341.759977 136.298771,344.242316 140.478692,346.463356 C142.96052,347.76985 146.356706,348.815046 148.316043,350.774787 C150.275381,352.865178 150.928494,356.784661 152.234719,359.397649" id="Path"></path>
            <path d="M79.4779722,334.835557 C80.5229525,337.709844 81.8291777,340.714781 84.1803832,342.805172 C84.7028733,343.19712 85.3559859,343.32777 85.878476,343.719718" id="Path"></path>
            <path d="M167.909422,338.493741 C168.431913,340.192183 168.170667,342.282574 168.170667,343.981017" id="Path"></path>
            <line x1="170.39125" y1="381.738701" x2="170.521873" y2="381.738701" id="Path"></line>
        </g>
        <line x1="175.261245" y1="378.324773" x2="175.261245" y2="378.586072" id="Path" stroke="#FF0000" stroke-width="0.5"></line>
    </g>
</svg>