<svg xmlns="http://www.w3.org/2000/svg" width="932" height="932" viewBox="0 0 932 932"><g transform="translate(191.5 192)"><path d="M276.423338 159C293.810394 159.656468 309.136591 163.428947 324.5 171.189778 317.6033 178.207439 310.928102 185.463975 304.047351 192.509947 283.819748 213.221422 263.228881 233.858581 242.28361 253.915358 239.529892 256.649167 236.770858 259.409517 233.866518 262 228.073786 257.369335 222.677986 252.174214 217.22371 247.180811 212.258512 242.63508 207.047002 238.170744 202.5 233.242811 214.496572 220.249699 227.333082 207.921903 239.866576 195.399467 252.011997 183.262773 263.955409 170.828809 276.423338 159ZM172.12939 223C172.25358 223.090994 172.383093 223.17842 172.503734 223.276551 176.192175 226.295417 179.59143 230.261692 182.976492 233.617772L204.67247 255.183392C217.106837 267.51578 229.422928 279.955814 241.620743 292.503495 247.223482 298.273597 253.008958 303.925941 258.281707 309.977946 259.316032 311.166223 261.414841 313.396473 261.5 314.932668 258.847658 319.89988 245.841426 332.849601 241.035276 337.740092 238.803406 340.291497 235.955909 342.876802 233.280503 345 223.907713 337.427857 215.446832 328.13753 206.989499 319.625113L160.02797 271.944163C159.899049 271.297094 159.794966 270.646455 159.715721 269.992249 158.202379 258.407441 164.896215 231.93884 172.12939 223ZM313.031591 285C316.374422 285.704976 340.697375 310.01063 344.5 313.877317 331.187262 329.632465 313.773653 345.951951 298.982116 360.703042 291.218867 368.445317 277.531547 383.57382 268.85581 389 264.643098 388.455246 260.504947 388.243397 256.302887 387.481453 245.798623 386.110666 231.184613 381.622674 222.5 375.822643 229.064943 368.454219 236.522846 361.614526 243.403786 354.495335 266.301199 331.045978 289.510467 307.880866 313.031591 285ZM313.442116 202C317.399735 204.200487 332.011659 219.652198 336.037175 223.650644L388.495733 275.930991C388.66726 287.631141 383.642959 310.73983 377.859296 321.250286 377.185696 322.47576 376.554979 323.54738 375.10951 324 372.538397 322.849664 369.354434 318.895944 367.26574 316.883304 339.660675 288.799367 310.972847 261.643928 283.5 233.432971 292.771371 222.591548 302.991499 211.821685 313.442116 202Z"/><path d="M169.17416 349.083731C169.739722 349.041201 170.376648 348.963229 170.938642 349.019936 171.686183 349.096136 172.367712 349.402709 172.886887 349.921932 173.819976 350.857598 174.439061 352.220339 175.279375 353.257015 177.090245 355.488082 179.23831 357.573838 181.254351 359.641872 206.99367 386.026592 235.262853 398.321386 273.264342 399.802858 279.621117 405.370779 285.301715 411.975377 291.20711 418.000499 297.645954 424.573199 304.793089 431.064382 310.703837 438.058841 311.437105 438.927167 311.585186 439.387912 311.460298 440.481294 307.854617 443.325506 285.840515 444.456103 280.923515 444.395852 273.433832 444.725461 265.587327 445.413034 258.113701 444.661666 209.680536 439.804354 168.660337 415.989172 138.5 380.304498 145.921887 369.714459 159.55782 358.229513 169.17416 349.083731ZM271.691018 103.192528C275.815086 102.821891 279.949875 103.063071 284.079303 103.27765 307.338832 104.478232 330.246349 111.153251 350.809509 121.350211 368.733479 130.238414 383.898542 142.139597 397.991489 155.729042 401.910068 159.506351 406.798911 163.379422 408.5 168.555932 405.841156 174.610266 382.958654 196.332452 376.509885 201L374.894565 198.581104C370.447076 192.377805 364.089436 186.687014 358.473342 181.409422 335.673036 159.983391 306.708071 148.834123 274.562499 148.938753 269.257318 142.957127 263.292786 137.404661 257.644529 131.70855 250.098033 124.041618 242.716523 116.235179 235.5 108.289235 246.580305 104.018925 259.854872 103.474496 271.691018 103.192528Z"/><path d="M30.6175357 245.733783C31.1820538 245.691098 31.8178044 245.612841 32.3787608 245.669755 33.1249219 245.746233 33.8051929 246.053924 34.3234098 246.575042 35.2547755 247.514122 35.872718 248.881835 36.7114814 249.922293 38.5190076 252.1615 40.6631077 254.254865 42.6754276 256.330445 68.3672317 282.811429 96.5842301 295.15108 134.515569 296.637957 140.86061 302.226193 146.530721 308.854887 152.425216 314.901992 158.852174 321.498672 165.986115 328.013539 171.885952 335.033516 172.617866 335.90501 172.765674 336.367436 172.641017 337.464808 169.041992 340.319397 147.068527 341.454119 142.160604 341.393647 134.684746 341.72446 126.852726 342.414541 119.392896 341.660432 71.0491377 336.785398 30.1046613 312.883326 0 277.068458 7.4081864 266.439782 21.0189481 254.912933 30.6175357 245.733783ZM132.443565.192697435C136.56002-.17826628 140.687176.0631263764 144.808982.277894843 168.025573 1.47953329 190.890804 8.16043005 211.416004 18.3663696 229.306888 27.2623989 244.443955 39.1740616 258.510888 52.7754728 262.422233 56.5561078 267.302052 60.4325899 269 65.6136573 266.346064 71.6733229 243.505803 93.4146365 237.068938 98.0862944L235.4566 95.6652681C231.017321 89.4565069 224.671417 83.7607052 219.06569 78.4784659 196.307473 57.0335683 167.395977 45.8744828 135.309745 45.9792046 130.014357 39.9923117 124.060836 34.4349558 118.423005 28.7338292 110.89044 21.060146 103.522556 13.2468336 96.3193548 5.29389225 107.379206 1.01982227 120.629268.474913849 132.443565.192697435Z" transform="rotate(90 152.25 291.75)"/><g transform="translate(106.5)"><path d="M156.425281,0.271122337 C191.598938,-0.669277406 210.092742,0.271122337 248.627465,12.3826407 C274.924227,20.6477505 299.021573,32.0445504 321.746999,47.234767 C325.016934,49.4200175 331.17326,52.6822156 333,56.0541572 C332.354219,59.4138061 274.522926,115.347382 266.882373,122.945697 C264.035229,121.548961 261.330798,119.610634 258.633502,117.955573 C254.990727,115.713194 251.261728,113.607994 247.446506,111.639974 C240.842415,108.192673 233.080555,105.766201 226.895686,101.778733 C232.930705,93.8809393 243.329207,84.3865194 250.554104,77.1101306 C253.963186,73.6786852 257.97345,70.0411143 260.535167,65.9937867 C258.84579,64.9483725 257.024402,64.1245833 255.181607,63.3531718 C254.317169,62.9989965 228.834596,49.3368337 189.122305,45.7181741 C170.81145,44.049654 148.199351,45.4841325 125.863072,49.6117124 C110.016462,52.5616046 94.5248544,57.4426981 79.495283,62.9810057 C76.890752,64.2936525 74.3950404,65.3355036 71.9207359,66.9021995 C71.9474947,66.9428189 71.9760375,66.9829038 72.0027964,67.0238795 C75.5314008,72.4385475 86.2973905,82.4036532 91.2709745,87.3877203 L134.295687,130.665158 C142.061114,138.564555 150.964686,146.442574 157.329732,155.419809 C147.436081,165.476665 137.462155,175.474729 126.82104,184.824309 C122.024064,181.375226 117.847895,176.616703 113.650318,172.510228 L87.5158116,146.444355 C57.9276251,117.119788 28.7556879,87.4264987 0,57.364488 C4.877252,52.2462701 13.3205709,47.4954079 19.3234798,43.5861505 C50.613531,23.2044942 88.2133264,9.28986808 125.595483,3.40202011 C135.86019,1.78544071 146.082082,1.11664645 156.425281,0.271122337 Z"/><path d="M156.425281,361.446813 C191.598938,360.506414 210.092742,361.446813 248.627465,373.558332 C274.924227,381.823442 299.021573,393.220241 321.746999,408.410458 C325.016934,410.595709 331.17326,413.857907 333,417.229848 C332.354219,420.589497 274.522926,476.523073 266.882373,484.121388 C264.035229,482.724652 261.330798,480.786325 258.633502,479.131264 C254.990727,476.888885 251.261728,474.783686 247.446506,472.815666 C240.842415,469.368364 233.080555,466.941892 226.895686,462.954424 C232.930705,455.05663 243.329207,445.562211 250.554104,438.285822 C253.963186,434.854376 257.97345,431.216805 260.535167,427.169478 C258.84579,426.124064 257.024402,425.300274 255.181607,424.528863 C254.317169,424.174688 228.834596,410.512525 189.122305,406.893865 C170.81145,405.225345 148.199351,406.659824 125.863072,410.787404 C110.016462,413.737296 94.5248544,418.618389 79.495283,424.156697 C76.890752,425.469344 74.3950404,426.511195 71.9207359,428.077891 C71.9474947,428.11851 71.9760375,428.158595 72.0027964,428.199571 C75.5314008,433.614239 86.2973905,443.579344 91.2709745,448.563411 L134.295687,491.840849 C142.061114,499.740246 150.964686,507.618265 157.329732,516.5955 C147.436081,526.652356 137.462155,536.65042 126.82104,546 C122.024064,542.550917 117.847895,537.792394 113.650318,533.685919 L87.5158116,507.620046 C57.9276251,478.295479 28.7556879,448.60219 0,418.540179 C4.877252,413.421961 13.3205709,408.671099 19.3234798,404.761842 C50.613531,384.380185 88.2133264,370.465559 125.595483,364.577711 C135.86019,362.961132 146.082082,362.292338 156.425281,361.446813 Z" transform="rotate(180 166.5 453.588)"/></g><g transform="rotate(90 219.75 326.25)"><path d="M156.425281,0.271122337 C191.598938,-0.669277406 210.092742,0.271122337 248.627465,12.3826407 C274.924227,20.6477505 299.021573,32.0445504 321.746999,47.234767 C325.016934,49.4200175 331.17326,52.6822156 333,56.0541572 C332.354219,59.4138061 274.522926,115.347382 266.882373,122.945697 C264.035229,121.548961 261.330798,119.610634 258.633502,117.955573 C254.990727,115.713194 251.261728,113.607994 247.446506,111.639974 C240.842415,108.192673 233.080555,105.766201 226.895686,101.778733 C232.930705,93.8809393 243.329207,84.3865194 250.554104,77.1101306 C253.963186,73.6786852 257.97345,70.0411143 260.535167,65.9937867 C258.84579,64.9483725 257.024402,64.1245833 255.181607,63.3531718 C254.317169,62.9989965 228.834596,49.3368337 189.122305,45.7181741 C170.81145,44.049654 148.199351,45.4841325 125.863072,49.6117124 C110.016462,52.5616046 94.5248544,57.4426981 79.495283,62.9810057 C76.890752,64.2936525 74.3950404,65.3355036 71.9207359,66.9021995 C71.9474947,66.9428189 71.9760375,66.9829038 72.0027964,67.0238795 C75.5314008,72.4385475 86.2973905,82.4036532 91.2709745,87.3877203 L134.295687,130.665158 C142.061114,138.564555 150.964686,146.442574 157.329732,155.419809 C147.436081,165.476665 137.462155,175.474729 126.82104,184.824309 C122.024064,181.375226 117.847895,176.616703 113.650318,172.510228 L87.5158116,146.444355 C57.9276251,117.119788 28.7556879,87.4264987 0,57.364488 C4.877252,52.2462701 13.3205709,47.4954079 19.3234798,43.5861505 C50.613531,23.2044942 88.2133264,9.28986808 125.595483,3.40202011 C135.86019,1.78544071 146.082082,1.11664645 156.425281,0.271122337 Z"/><path d="M156.425281,361.446813 C191.598938,360.506414 210.092742,361.446813 248.627465,373.558332 C274.924227,381.823442 299.021573,393.220241 321.746999,408.410458 C325.016934,410.595709 331.17326,413.857907 333,417.229848 C332.354219,420.589497 274.522926,476.523073 266.882373,484.121388 C264.035229,482.724652 261.330798,480.786325 258.633502,479.131264 C254.990727,476.888885 251.261728,474.783686 247.446506,472.815666 C240.842415,469.368364 233.080555,466.941892 226.895686,462.954424 C232.930705,455.05663 243.329207,445.562211 250.554104,438.285822 C253.963186,434.854376 257.97345,431.216805 260.535167,427.169478 C258.84579,426.124064 257.024402,425.300274 255.181607,424.528863 C254.317169,424.174688 228.834596,410.512525 189.122305,406.893865 C170.81145,405.225345 148.199351,406.659824 125.863072,410.787404 C110.016462,413.737296 94.5248544,418.618389 79.495283,424.156697 C76.890752,425.469344 74.3950404,426.511195 71.9207359,428.077891 C71.9474947,428.11851 71.9760375,428.158595 72.0027964,428.199571 C75.5314008,433.614239 86.2973905,443.579344 91.2709745,448.563411 L134.295687,491.840849 C142.061114,499.740246 150.964686,507.618265 157.329732,516.5955 C147.436081,526.652356 137.462155,536.65042 126.82104,546 C122.024064,542.550917 117.847895,537.792394 113.650318,533.685919 L87.5158116,507.620046 C57.9276251,478.295479 28.7556879,448.60219 0,418.540179 C4.877252,413.421961 13.3205709,408.671099 19.3234798,404.761842 C50.613531,384.380185 88.2133264,370.465559 125.595483,364.577711 C135.86019,362.961132 146.082082,362.292338 156.425281,361.446813 Z" transform="rotate(180 166.5 453.588)"/></g></g></svg>