<?xml version="1.0" encoding="UTF-8"?>
<svg width="932px" height="932px" viewBox="0 0 932 932" version="1.1" xmlns="http://www.w3.org/2000/svg" xmlns:xlink="http://www.w3.org/1999/xlink">
    <title>dailykos</title>
    <g id="dailykos" stroke="none" stroke-width="1" fill="none" fill-rule="evenodd">
        <g id="Group" transform="translate(118.214311, 263.030159)" fill="#000000" fill-rule="nonzero">
            <path d="M48.1,181.215961 C49.6,178.215961 49.8,170.015961 49.5,91.0159609 C49.2,29.6159609 48.8,3.51596086 48,2.01596086 C46.9,0.0159608627 46.3,0.0159608627 23.7,0.215960863 L0.5,0.515960863 L0.2,91.4159609 C0.1,158.415961 0.3,182.615961 1.1,183.715961 C2.1,184.815961 6.6,185.015961 24.4,184.815961 L46.5,184.515961 L48.1,181.215961 Z" id="Path" transform="translate(24.897495, 92.507980) scale(-1, 1) rotate(-180.000000) translate(-24.897495, -92.507980) "></path>
            <path d="M94.6,183.463419 C100.8,182.063419 103.5,181.363419 113,178.263419 C120.3,175.963419 134.6,168.363419 139.1,164.463419 C141.1,162.763419 143.5,160.663419 144.6,159.763419 C147.5,157.263419 154.5,149.463419 155.3,147.863419 C155.7,147.063419 157.6,144.163419 159.5,141.463419 C161.4,138.763419 163.3,135.463419 163.6,133.963419 C163.9,132.563419 164.7,130.063419 165.5,128.363419 C169.3,120.363419 170.4,115.663419 171.6,100.963419 C172.8,87.6634187 169.3,64.1634187 165.4,58.3634187 C164.6,57.2634187 164,55.6634187 164,54.6634187 C164,50.8634187 156.2,37.3634187 150.4,31.1634187 C149,29.6634187 147.3,27.6634187 146.6,26.8634187 C144.8,24.4634187 134.6,15.8634187 133.6,15.8634187 C133.1,15.8634187 131.9,15.2634187 131.1,14.4634187 C128.3,11.9634187 118,6.86341874 115.9,6.86341874 C114.7,6.86341874 112.4,6.26341874 110.7,5.56341874 C103.2,2.36341874 95.8,0.963418739 84,0.463418739 C66.4,-0.236581261 60.5,0.463418739 59.1,3.56341874 C58.4,5.06341874 58,13.3634187 58,25.2634187 C58,42.7634187 58.2,44.8634187 59.9,46.9634187 C61.1,48.4634187 63,49.3634187 65.1,49.4634187 C76.1,50.2634187 88.4,51.8634187 89.4,52.8634187 C89.9,53.3634187 91.2,53.8634187 92.2,53.8634187 C94.3,53.8634187 99.1,56.6634187 100.3,58.5634187 C100.7,59.2634187 101.7,59.8634187 102.4,59.8634187 C104.1,59.8634187 111,66.7634187 111,68.4634187 C111,69.1634187 112.1,70.9634187 113.5,72.4634187 C114.9,73.9634187 116.3,76.3634187 116.6,77.7634187 C116.9,79.1634187 117.8,82.3634187 118.6,84.7634187 C120.4,90.3634187 120.3,98.1634187 118.5,103.363419 C117.7,105.563419 117,108.063419 117,108.963419 C117,111.763419 107.7,123.663419 104,125.563419 C102.1,126.563419 98.8,128.563419 96.6,130.163419 C94.5,131.663419 91.6,132.863419 90.3,132.863419 C89,132.863419 86.7,133.463419 85.2,134.263419 C83.7,134.963419 77.7,135.963419 71.8,136.363419 C63.3,136.863419 60.8,137.463419 59.5,138.863419 C58,140.463419 57.8,143.563419 57.5,159.063419 C57.3,177.563419 58,182.863419 61.3,185.163419 C63,186.363419 87.3,185.163419 94.6,183.463419 Z" id="Path" transform="translate(114.654158, 92.931709) scale(-1, 1) rotate(-180.000000) translate(-114.654158, -92.931709) "></path>
            <path d="M415,182.983208 C415.7,181.583208 415.9,151.783208 415.8,90.6832084 L415.5,0.383208371 L392.5,0.0832083708 C370,-0.116791629 369.5,-0.116791629 367.8,1.98320837 C366.1,3.98320837 366,9.78320837 366,92.4832084 L366,180.783208 L368.2,182.883208 C370.3,184.783208 371.6,184.883208 392.2,184.883208 C412.7,184.883208 414,184.783208 415,182.983208 Z" id="Path" transform="translate(390.912072, 92.441604) scale(-1, 1) rotate(-180.000000) translate(-390.912072, -92.441604) "></path>
            <path d="M479.7,182.979402 L482,180.879402 L482,91.5794016 C482,12.1794016 481.8,2.27940164 480.4,1.17940164 C478.5,-0.52059836 435.3,-0.32059836 433.3,1.37940164 C432.3,2.17940164 432,21.0794016 432,91.9794016 C432,173.879402 432.1,181.679402 433.7,183.379402 C435.2,184.979402 437.2,185.179402 456.3,185.179402 C476.6,185.179402 477.5,185.079402 479.7,182.979402 Z" id="Path" transform="translate(457.000000, 92.589701) scale(-1, 1) rotate(-180.000000) translate(-457.000000, -92.589701) "></path>
            <path d="M691.7,95.1 C695.1,92.4 696,88.3 693.7,85.9 C693,85.2 692.1,83.9 691.7,83.1 C691.3,82.3 690.1,80.3 689.1,78.6 C688,77 686.2,73.8 685,71.6 C683.8,69.4 681.5,66 679.9,64 C678.3,62 677,59.9 677,59.5 C677,59 675,55.7 672.5,52.2 C670,48.6 668,45.3 668,44.8 C668,44.3 666.3,41.5 664.3,38.4 C658.9,30.6 657.3,28.1 655,23.9 C653.9,21.9 652.6,20 652.1,19.6 C651.5,19.3 650.1,16.9 648.8,14.3 C647.5,11.7 645.9,9.2 645.3,8.8 C644.6,8.4 644,7.6 644,7 C644,5.1 639.6,0.1 637.9,0.1 C635.6,0.1 631.1,4.8 630.3,8 C630,9.3 627.8,13.3 625.4,16.9 C623,20.4 621,23.7 621,24.2 C621,24.6 619.8,26.7 618.4,28.8 C617,30.9 614.7,35 613.3,37.9 C610.3,44.4 610.6,49 614.7,55.4 C618.8,61.7 619.8,63.4 620.9,65.8 C621.5,67 623.7,70.9 626,74.4 C628.2,77.9 630,81.3 630,81.8 C630,82.4 630.7,83.4 631.5,84.1 C632.3,84.8 633,86.1 633,87 C633,87.9 634.8,90.7 637.1,93.3 L641.1,98 L664.8,97.8 C688.5,97.6 688.6,97.6 691.7,95.1 Z" id="Path" transform="translate(653.136823, 49.050000) scale(-1, 1) rotate(-180.000000) translate(-653.136823, -49.050000) "></path>
            <path d="M277,183.925483 C280.3,180.625483 280,175.525483 275.9,168.125483 C274.3,165.125483 272.6,161.125483 272.1,159.125483 C270.7,153.825483 268.2,147.125483 265.4,141.625483 C264.1,138.925483 263,136.125483 263,135.425483 C263,133.925483 261.5,130.225483 256.8,120.425483 C255.3,117.125483 254,113.625483 254,112.625483 C254,111.725483 253.6,110.125483 253.1,109.125483 C250.5,104.225483 245,91.5254834 245,90.4254834 C245,89.1254834 239.8,76.3254834 237.4,71.7254834 C236.6,70.3254834 236,68.2254834 236,67.0254834 C236,64.9254834 235.1,62.8254834 229.4,50.4254834 C227.6,46.6254834 225.6,41.6254834 225,39.4254834 C224.3,37.2254834 223.1,34.2254834 222.4,32.7254834 C221.6,31.3254834 221,29.4254834 221,28.6254834 C221,27.8254834 220.4,26.9254834 219.6,26.6254834 C218.8,26.3254834 218,24.3254834 217.7,22.2254834 C216.7,14.0254834 210.4,2.5254834 206.5,1.5254834 C205.1,1.1254834 194.9,0.9254834 183.7,1.0254834 C160.8,1.1254834 159,1.5254834 159,7.2254834 C159,9.0254834 159.7,11.4254834 160.5,12.5254834 C161.3,13.5254834 162,15.4254834 162,16.5254834 C162,19.0254834 165.6,27.6254834 167,28.4254834 C167.6,28.7254834 168,30.1254834 168,31.3254834 C168,32.6254834 168.7,34.2254834 169.5,34.9254834 C170.3,35.6254834 171,36.7254834 171,37.5254834 C171,39.6254834 177.7,54.6254834 179.1,55.5254834 C179.6,55.8254834 180,56.9254834 180,58.1254834 C180,60.2254834 181.1,63.0254834 186.1,73.4254834 C187.7,76.7254834 189,80.1254834 189,80.9254834 C189,81.7254834 189.7,83.3254834 190.5,84.3254834 C191.3,85.4254834 192,87.3254834 192,88.5254834 C192,89.8254834 192.5,91.1254834 193,91.4254834 C194.2,92.1254834 198,100.225483 198,102.125483 C198,102.825483 198.7,104.325483 199.5,105.325483 C200.3,106.425483 201,108.025483 201,108.825483 C201,110.225483 203.2,115.125483 208.6,126.225483 C209.4,127.825483 210,129.925483 210,130.925483 C210,131.925483 210.4,133.025483 210.9,133.325483 C212,134.025483 216,142.125483 216,143.525483 C216,144.925483 223,161.225483 224.1,162.425483 C224.6,162.925483 225,164.325483 225,165.525483 C225,166.825483 225.5,168.125483 226,168.425483 C226.6,168.725483 227,170.025483 227,171.325483 C227,172.525483 229,176.325483 231.5,179.725483 L236,185.925483 L255.5,185.925483 C273.7,185.925483 275.1,185.825483 277,183.925483 Z" id="Path" transform="translate(219.124926, 93.462742) scale(-1, 1) rotate(-180.000000) translate(-219.124926, -93.462742) "></path>
            <path d="M568.8,183.524555 C570,182.724555 572.2,179.924555 573.5,177.324555 C574.9,174.724555 576.5,171.724555 577.2,170.624555 C578.5,168.424555 578.5,168.324555 583.6,158.624555 C585.6,154.824555 587.8,150.924555 588.5,150.124555 C590.3,147.924555 596,137.424555 596,136.224555 C596,135.624555 596.8,134.224555 597.8,133.224555 C600.8,129.924555 601.5,128.724555 603.5,124.124555 C604.5,121.624555 606.7,118.024555 608.2,116.024555 C609.7,114.024555 611,111.624555 611,110.824555 C611,110.024555 611.7,108.824555 612.5,108.124555 C613.3,107.424555 614,105.924555 614,104.724555 C614,103.524555 615.4,101.224555 617,99.6245553 C618.7,98.0245553 620,96.1245553 620,95.4245553 C620,93.7245553 625.9,83.1245553 628,81.1245553 C628.3,80.8245553 629.3,78.9245553 630.3,76.8245553 C631.8,73.4245553 632,69.2245553 632,37.6245553 C632,18.2245553 631.6,2.02455532 631.1,1.72455532 C629.3,0.52455532 580.8,0.92455532 579.6,2.12455532 C578.8,2.92455532 578.4,13.2245553 578.2,36.4245553 C578,55.9245553 577.5,70.0245553 577,70.5245553 C576.4,71.1245553 576,72.1245553 576,72.8245553 C576,73.5245553 574.3,76.7245553 572.2,79.9245553 C560,98.2245553 558,101.424555 558,102.024555 C558,102.524555 556.7,104.624555 555.2,106.724555 C553.6,108.824555 552.1,111.324555 551.7,112.124555 C551.3,112.924555 550.1,115.024555 549,116.624555 C547.9,118.324555 546.7,120.324555 546.3,121.124555 C545.9,121.924555 544.4,124.424555 542.8,126.524555 C541.3,128.624555 540,130.824555 540,131.424555 C540,131.924555 538.7,134.024555 537.2,136.024555 C535.6,138.024555 533.3,141.724555 532.1,144.324555 C530.9,146.924555 529.5,149.124555 529.1,149.324555 C528.7,149.524555 526.8,152.324555 525,155.624555 C523.2,158.924555 520.4,163.224555 518.8,165.324555 C515.6,169.424555 513,175.124555 513,177.924555 C513,179.024555 513.9,181.024555 515.1,182.524555 L517.1,185.124555 L541.9,185.124555 C562.7,185.124555 566.9,184.924555 568.8,183.524555 Z" id="Path" transform="translate(572.500000, 93.062278) scale(-1, 1) rotate(-180.000000) translate(-572.500000, -93.062278) "></path>
            <path d="M295.9,177.427714 C297.6,173.827714 299,170.527714 299,169.927714 C299,169.427714 300.3,166.327714 301.9,163.227714 C303.5,160.027714 305.5,155.427714 306.5,152.927714 C307.4,150.427714 308.8,147.127714 309.5,145.427714 C310.2,143.827714 311.1,141.727714 311.4,140.927714 C311.7,140.127714 312.4,138.727714 312.8,137.927714 C315.2,133.627714 317,129.627714 317,128.527714 C317,127.927714 319,123.327714 321.5,118.427714 C324,113.427714 326,108.227714 326,106.727714 C326,105.227714 326.4,103.827714 326.9,103.527714 C328,102.827714 332,94.7277142 332,93.1277142 C332,91.8277142 334.2,86.7277142 338.1,78.6277142 C339.7,75.5277142 341,72.3277142 341,71.5277142 C341,70.8277142 341.7,69.6277142 342.5,68.9277142 C343.3,68.2277142 344,66.4277142 344,64.9277142 C344,63.4277142 344.7,61.6277142 345.5,60.9277142 C346.3,60.2277142 347,59.0277142 347,58.3277142 C347,57.5277142 348.3,54.1277142 349.8,50.7277142 C351.4,47.2277142 353.5,42.4277142 354.5,39.9277142 C355.4,37.4277142 356.9,34.0277142 357.8,32.3277142 C358.6,30.6277142 359.1,28.6277142 358.8,27.8277142 C358.5,27.0277142 358.6,25.7277142 359.1,24.8277142 C359.9,23.3277142 357.6,23.1277142 332.5,23.0277142 L305,22.8277142 L302.5,25.3277142 C301.1,26.7277142 300,28.5277142 300,29.3277142 C300,30.1277142 299.4,32.0277142 298.6,33.6277142 C297.8,35.1277142 296.5,38.0277142 295.7,39.9277142 C291.7,49.3277142 289.7,52.8277142 287.8,54.0277142 C287.1,54.5277142 275.8,54.9277142 262.7,54.8277142 C241.5,54.8277142 238.7,55.0277142 236.5,56.6277142 C233.7,58.6277142 233.6,61.3277142 236,67.9277142 C236.7,69.8277142 237.5,71.9277142 237.6,72.4277142 C237.8,73.0277142 238.4,74.1277142 238.8,74.9277142 C241.3,79.2277142 242.4,81.8277142 244.5,88.2277142 C247.6,97.9277142 249.1,98.9277142 260,98.9277142 C264.9,98.9277142 269.5,99.2277142 270.4,99.5277142 C272.2,100.227714 272.6,103.427714 271,104.427714 C270.5,104.727714 270,106.227714 270,107.627714 C270,109.127714 269.4,111.027714 268.7,111.827714 C266,115.027714 260.8,128.027714 261.3,130.227714 C262.5,135.327714 266.6,145.227714 268.6,147.927714 C269.3,148.727714 270,151.027714 270.3,152.927714 C270.9,157.127714 273.3,163.627714 276.6,170.227714 C277.9,172.927714 279,175.727714 279,176.427714 C279,179.427714 282.4,184.627714 284.9,185.627714 C289.2,187.227714 292.4,184.827714 295.9,177.427714 Z" id="Path" transform="translate(296.760424, 104.463857) scale(-1, 1) rotate(-180.000000) translate(-296.760424, -104.463857) "></path>
            <path d="M555.4,183.471151 C556.3,182.671151 557,181.671151 557,181.271151 C557.5,167.571151 557,136.671151 556.2,135.871151 C554.9,134.571151 491.9,134.771151 490.5,136.171151 C489.9,136.771151 489.4,145.871151 489.2,158.971151 L488.9,180.871151 L491.6,182.971151 C494.2,184.971151 495.2,185.071151 524.1,185.071151 C549.8,185.071151 554.1,184.871151 555.4,183.471151 Z" id="Path" transform="translate(523.050095, 160.035576) scale(-1, 1) rotate(-180.000000) translate(-523.050095, -160.035576) "></path>
            <path d="M47,398.739429 L49.7,396.139429 L49.4,311.639429 C49.3,265.139429 49.1,225.439429 49.1,223.439429 C48.9,216.239429 48.2,215.939429 23.8,216.139429 C12,216.239429 1.8,216.639429 1.2,217.039429 C0.3,217.539429 0,240.639429 0,308.639429 C0,394.139429 0.1,399.639429 1.8,400.539429 C2.8,401.239429 11.5,401.539429 23.9,401.539429 L44.3,401.439429 L47,398.739429 Z" id="Path" transform="translate(24.850000, 308.819714) scale(-1, 1) rotate(-180.000000) translate(-24.850000, -308.819714) "></path>
            <path d="M238.9,404.030861 C240.9,403.030861 242,401.530861 242.4,399.030861 C243.2,395.030861 243.1,362.230861 242.3,358.830861 C241.7,356.330861 237,353.130861 232.3,352.230861 C228.1,351.430861 218.9,344.830861 214.4,339.430861 C212.4,337.030861 210.4,334.830861 210,334.530861 C209.5,334.230861 208.8,332.730861 208.5,331.230861 C208.1,329.730861 207.4,328.230861 206.9,327.930861 C206.4,327.630861 206,325.930861 206,324.130861 C206,322.230861 205.3,319.430861 204.5,317.930861 C203.7,316.330861 203,313.030861 203,310.530861 C203,305.730861 206.3,292.830861 208,291.130861 C208.5,290.630861 209,289.330861 209,288.430861 C209,287.430861 211.8,283.830861 215.3,280.330861 C220,275.430861 224,272.630861 231.7,268.730861 C240.9,264.030861 242,263.130861 242.5,260.230861 C242.8,258.530861 243,248.530861 242.8,238.130861 L242.5,219.130861 L239.5,217.330861 C236.7,215.730861 235.8,215.730861 228,217.030861 C217.4,218.830861 211.8,220.530861 205.8,223.930861 C203.2,225.330861 200.4,226.530861 199.6,226.530861 C198.7,226.530861 198,226.930861 198,227.430861 C198,228.030861 196.9,229.030861 195.6,229.730861 C184,235.930861 168.7,250.330861 163.6,259.930861 C162.4,262.130861 160.2,265.930861 158.7,268.230861 C157.2,270.630861 156,273.330861 156,274.230861 C155.9,275.230861 155.3,277.130861 154.5,278.530861 C153.7,279.930861 153.1,282.430861 153,284.030861 C153,285.730861 152.3,289.230861 151.5,291.930861 C149.5,298.530861 149.5,320.130861 151.5,327.830861 C152.3,331.030861 153,334.730861 153,336.030861 C153,337.330861 153.7,340.130861 154.6,342.230861 C158.9,352.430861 160.1,354.530861 161,354.530861 C161.5,354.530861 162,355.630861 162,356.830861 C162,359.230861 167.2,367.330861 169.7,368.830861 C170.4,369.230861 171,370.230861 171,370.930861 C171,371.730861 171.7,372.530861 172.5,372.930861 C173.3,373.230861 174,374.030861 174,374.830861 C174,375.530861 175.2,376.930861 176.8,377.830861 C178.3,378.830861 182.4,382.030861 186,385.030861 C189.6,388.030861 193.3,390.530861 194.2,390.530861 C195.1,390.530861 196.5,391.130861 197.2,391.830861 C200.2,394.530861 211.8,399.530861 215.2,399.530861 C216.2,399.530861 218.4,400.130861 220.2,400.930861 C222,401.730861 226.2,403.030861 229.5,403.830861 C232.8,404.630861 235.6,405.430861 235.8,405.430861 C236,405.530861 237.4,404.830861 238.9,404.030861 Z" id="Path" transform="translate(196.476169, 310.765431) scale(-1, 1) rotate(-180.000000) translate(-196.476169, -310.765431) "></path>
            <path d="M454.9,273.140162 C460.1,272.140162 464.8,270.740162 465.4,270.140162 C465.9,269.640162 467.5,269.140162 469,269.140162 C472,269.140162 478.2,267.040162 480.2,265.440162 C480.9,264.740162 482.7,263.740162 484,263.240162 C486.4,262.240162 487.6,261.540162 491.8,259.140162 C492.7,258.540162 494.3,257.840162 495.3,257.540162 C496.2,257.140162 497,256.340162 497,255.640162 C497,254.940162 497.7,254.140162 498.5,253.740162 C499.3,253.440162 500,252.140162 500,250.840162 C500,248.640162 496.8,241.340162 495.3,240.240162 C494.1,239.340162 486.9,228.340162 485.4,225.140162 C485,224.340162 483.4,221.940162 481.7,219.940162 C478,215.140162 474.2,214.940162 468.6,219.140162 C466.4,220.840162 463.7,222.140162 462.6,222.140162 C461.4,222.140162 459.6,222.840162 458.6,223.640162 C457.5,224.440162 455.6,225.140162 454.4,225.140162 C453.2,225.140162 450.9,225.840162 449.4,226.640162 C447.8,227.440162 445.2,228.140162 443.7,228.140162 C440.1,228.140162 435.3,230.640162 434.6,232.840162 C434.3,233.840162 434,242.340162 433.9,251.640162 C433.6,269.740162 434.2,272.440162 438.3,274.140162 C441.6,275.440162 444.6,275.340162 454.9,273.140162 Z" id="Path" transform="translate(466.917025, 245.570081) scale(-1, 1) rotate(-180.000000) translate(-466.917025, -245.570081) "></path>
            <path d="M154.8,399.079066 C157.3,397.479066 158,396.479066 158,393.879066 C158,392.179066 157.3,390.079066 156.5,389.179066 C153.4,385.979066 147.1,378.479066 143.6,373.879066 C141.7,371.279066 139.3,368.279066 138.3,367.279066 C137.3,366.279066 134.5,362.779066 132,359.579066 C129.5,356.479066 125.6,351.879066 123.3,349.379066 C120.9,346.979066 119,344.679066 119,344.379066 C119,344.079066 117.3,341.979066 115.3,339.679066 C113.2,337.379066 110.2,333.779066 108.5,331.679066 C106.9,329.579066 103.8,325.979066 101.8,323.779066 C99.7,321.479066 98,318.779066 98,317.779066 C98,316.679066 99.4,314.179066 101,312.079066 C102.7,309.979066 104,308.079066 104,307.779066 C104,307.479066 105.4,305.679066 107,303.879066 C108.7,302.079066 110,299.879066 110,298.879066 C110,297.879066 110.4,297.079066 110.8,297.079066 C111.6,297.079066 119,287.579066 119,286.579066 C119,286.279066 119.5,285.479066 120,284.779066 C123.2,280.979066 128,274.079066 128,273.279066 C128,272.779066 128.7,271.779066 129.6,270.979066 C130.4,270.279066 132.8,267.179066 134.8,264.179066 C136.8,261.079066 140,256.579066 142,254.079066 C144,251.579066 146.2,248.479066 146.8,247.079066 C147.5,245.679066 149.6,242.579066 151.5,240.079066 C160.7,228.179066 162,226.079066 162,223.579066 C162,222.179066 161.5,220.079066 161,218.979066 C160,217.179066 158.6,217.079066 131.5,217.079066 L103.1,217.079066 L101.3,219.579066 C100.3,220.979066 97.4,225.079066 94.8,228.579066 C92.1,232.079066 90,235.579066 90,236.379066 C90,237.179066 88.6,239.279066 86.9,241.179066 C85.3,243.079066 81,249.079066 77.5,254.579066 C74,260.079066 70,265.979066 68.6,267.679066 C67.2,269.479066 66,271.179066 66,271.479066 C66,271.879066 64.4,274.279066 62.5,276.779066 L59,281.379066 L59,313.479066 C59,348.679066 58.6,346.079066 64.7,353.179066 C69.2,358.279066 73.4,363.879066 74.3,365.879066 C74.9,367.079066 75.7,368.079066 76.1,368.079066 C76.5,368.079066 78.2,369.979066 79.9,372.379066 C81.5,374.679066 84.5,378.379066 86.4,380.579066 C88.4,382.779066 90,384.879066 90,385.379066 C90,385.779066 90.7,386.879066 91.5,387.879066 C96.2,393.279066 99,396.979066 99,397.779066 C99,400.379066 104.5,400.979066 127.5,400.979066 C149.7,401.079066 151.7,400.879066 154.8,399.079066 Z" id="Path" transform="translate(110.497311, 309.039533) scale(-1, 1) rotate(-180.000000) translate(-110.497311, -309.039533) "></path>
            <path d="M267.7,404.590405 C270.4,403.990405 274,402.790405 275.8,402.090405 C277.6,401.290405 280.1,400.690405 281.3,400.690405 C284.6,400.690405 293.1,397.390405 297.6,394.290405 C299.7,392.890405 302.3,391.690405 303.2,391.690405 C304.2,391.690405 305.8,390.890405 306.8,389.990405 C308.5,388.290405 317,381.090405 318.7,379.790405 C321.6,377.690405 332.4,364.090405 334.1,360.590405 C335.2,358.190405 336.9,354.890405 337.8,353.190405 C340.8,347.390405 343.3,340.090405 344.1,334.190405 C344.5,330.890405 345.4,326.390405 345.9,324.190405 C347.4,318.290405 347.2,301.990405 345.5,295.690405 C344.7,292.690405 344,288.590405 344,286.590405 C344,284.590405 343.3,281.590405 342.5,280.090405 C341.7,278.490405 341,276.490405 341,275.590405 C341,274.690405 340.3,273.390405 339.5,272.690405 C338.7,271.990405 338,270.890405 338,270.090405 C338,268.790405 333.7,261.690405 329.8,256.690405 C328.8,255.290405 327,252.790405 325.9,251.090405 C324.8,249.290405 322.4,246.890405 320.5,245.590405 C318.6,244.290405 316.7,242.290405 316.2,241.190405 C315.7,240.090405 314,238.490405 312.4,237.690405 C310.8,236.890405 307.9,235.090405 306,233.590405 C304.1,232.190405 301.8,230.690405 301,230.390405 C300.2,229.990405 298.8,229.290405 298,228.790405 C296,227.690405 284.5,222.290405 279.7,220.290405 C277.6,219.390405 274.3,218.690405 272.4,218.690405 C270.5,218.690405 266.9,218.190405 264.6,217.590405 C261,216.690405 259.7,216.790405 257.2,218.090405 L254.1,219.690405 L253.8,239.990405 C253.6,251.090405 253.7,261.290405 253.9,262.490405 C254.2,264.290405 256.2,265.790405 262.4,268.890405 C275.2,275.190405 275.4,275.390405 281.9,281.690405 C285.8,285.590405 288,288.590405 288,289.990405 C288,291.290405 288.4,292.690405 288.9,293.190405 C290.3,294.790405 292.9,304.090405 293.6,309.890405 C294.1,314.290405 293.8,316.090405 292,319.590405 C290.8,321.990405 290.1,324.090405 290.3,324.390405 C290.6,324.590405 290.1,326.990405 289.1,329.590405 C287.3,334.690405 283.7,339.290405 282.2,338.290405 C281.6,337.990405 281.4,338.490405 281.6,339.490405 C282.2,341.390405 276.6,347.690405 274.4,347.690405 C273.6,347.690405 273,348.090405 273,348.590405 C273,349.990405 266.6,353.690405 264.2,353.690405 C261.4,353.690405 255.2,356.690405 254.6,358.390405 C253.6,360.990405 253.9,400.190405 254.9,402.990405 C255.8,405.190405 256.6,405.690405 259.5,405.690405 C261.4,405.690405 265.1,405.190405 267.7,404.590405 Z" id="Path" transform="translate(300.300755, 311.345202) scale(-1, 1) rotate(-180.000000) translate(-300.300755, -311.345202) "></path>
            <path d="M422.5,402.211684 L425,400.011684 L425,381.411684 C425,363.311684 424.9,362.711684 422.8,360.711684 C421.5,359.611684 419.3,358.411684 417.9,358.011684 C414.4,357.211684 408,351.211684 408,348.811684 C408,347.711684 409,345.811684 410.3,344.711684 C413.2,342.111684 427.2,336.811684 433,336.011684 C441.2,335.011684 451.1,332.711684 452.3,331.511684 C452.9,330.911684 454.3,330.411684 455.5,330.411684 C456.7,330.411684 458.5,329.711684 459.6,328.911684 C460.6,328.111684 462.4,327.411684 463.6,327.411684 C464.7,327.411684 467.1,326.711684 468.9,325.811684 C470.9,324.811684 473.1,324.511684 474.8,324.911684 C476.8,325.411684 477.2,325.311684 476.4,324.411684 C475.5,323.511684 475.8,322.611684 477.5,320.811684 C478.7,319.511684 480.3,318.411684 480.9,318.411684 C483.4,318.411684 494,309.511684 494,307.311684 C494,306.811684 494.4,306.411684 494.9,306.411684 C495.9,306.411684 503.4,294.311684 504.9,290.111684 C506.2,286.611684 506.4,259.711684 505.1,258.911684 C504.6,258.611684 503.9,257.011684 503.5,255.411684 C503.1,253.811684 501.8,250.511684 500.5,248.211684 C499.1,245.811684 497.1,242.211684 496,240.211684 C494.9,238.111684 493.5,236.411684 493,236.411684 C492.5,236.411684 490.7,234.911684 489,233.111684 C485.9,229.611684 471,221.811684 462.5,219.111684 C459.4,218.111684 453.4,217.411684 447,217.311684 C436.7,217.211684 436.6,217.211684 434.3,220.011684 C432.6,222.111684 432.1,223.611684 432.6,225.411684 C432.9,226.811684 433.1,233.911684 433.1,241.211684 C432.8,258.611684 433.5,260.611684 440.4,262.711684 C443.3,263.611684 446.4,264.411684 447.4,264.411684 C450.8,264.411684 452.3,274.111684 449.4,278.211684 C448.6,279.411684 447.1,280.411684 446.1,280.411684 C445.2,280.411684 443.5,281.111684 442.4,281.911684 C441.4,282.711684 439.3,283.411684 437.9,283.411684 C436.5,283.411684 434.5,284.111684 433.4,284.911684 C432.4,285.711684 430.5,286.411684 429.4,286.411684 C428.2,286.411684 425.6,287.111684 423.7,287.911684 C421.7,288.711684 417.9,289.411684 415.3,289.411684 C412.7,289.511684 409.4,290.111684 408,290.911684 C406.6,291.711684 404.2,292.311684 402.7,292.411684 C401.1,292.411684 398.5,293.111684 396.9,293.911684 C395.3,294.711684 392.7,296.111684 391.1,296.911684 C389.5,297.711684 387.4,298.411684 386.3,298.411684 C382.9,298.411684 374.5,304.111684 367.2,311.411684 C363.3,315.311684 360,319.211684 360,319.911684 C360,320.711684 358.6,323.711684 356.9,326.611684 C353.8,331.811684 353.7,332.111684 353.7,345.511684 C353.7,356.611684 354,359.611684 355.4,361.511684 C356.3,362.811684 357,364.611684 357,365.511684 C357,366.411684 357.7,367.711684 358.5,368.411684 C359.3,369.111684 360,370.311684 360,371.111684 C360,372.611684 360.1,372.711684 365,378.511684 C366.6,380.511684 368,382.811684 368,383.611684 C368,384.411684 369.2,385.711684 370.7,386.511684 C372.2,387.311684 376.3,389.811684 379.9,392.111684 C383.4,394.511684 388.2,397.011684 390.4,397.811684 C392.7,398.511684 396.1,399.711684 398,400.411684 C410.1,404.611684 419,405.311684 422.5,402.211684 Z" id="Path" transform="translate(429.840373, 310.705842) scale(-1, 1) rotate(-180.000000) translate(-429.840373, -310.705842) "></path>
            <path d="M380.3,401.249507 C383.9,398.049507 398.6,390.249507 401,390.149507 C401.8,390.149507 403.4,389.449507 404.4,388.649507 C405.5,387.849507 407.6,387.149507 409.1,387.149507 C412.9,387.149507 420.1,384.449507 422.7,381.949507 C424.9,379.849507 425,379.249507 425,362.149507 C425,340.149507 425,340.149507 414.7,340.149507 C405.1,340.149507 391.3,343.349507 382.7,347.749507 C381.1,348.549507 379.3,349.149507 378.5,349.149507 C375.8,349.149507 365.1,354.749507 363.7,356.949507 C363.3,357.549507 362.5,358.149507 361.9,358.149507 C359.9,358.149507 351,365.649507 349.9,368.349507 C348.4,371.949507 349.3,374.149507 355.5,382.149507 C358,385.349507 360,388.349507 360,388.749507 C360,389.649507 366.1,397.049507 370.1,401.049507 C373.9,404.949507 376,404.949507 380.3,401.249507 Z" id="Path" transform="translate(387.133474, 372.074753) scale(-1, 1) rotate(-180.000000) translate(-387.133474, -372.074753) "></path>
        </g>
    </g>
</svg>