<svg xmlns="http://www.w3.org/2000/svg" width="932" height="932" viewBox="0 0 932 932"><g transform="translate(150.06 150.12)"><path d="M318.375756 183.879533C338.470632 184.637977 356.183695 188.996472 373.939767 197.962869 365.96899 206.070651 358.254213 214.454417 350.301869 222.594908 326.924065 246.523701 303.126424 270.366632 278.919185 293.539025 275.736609 296.697503 272.547889 299.886645 269.191234 302.879533 262.496355 297.529542 256.260226 291.527411 249.956514 285.758334 244.218046 280.50647 238.194908 275.348645 232.939767 269.655207 246.804657 254.643749 261.640295 240.400956 276.125727 225.933287 290.162649 211.91128 303.9661 197.545828 318.375756 183.879533ZM197.550238 257.879533C197.693908 257.983953 197.843736 258.084277 197.983302 258.196887 202.250322 261.661159 206.182793 266.212623 210.098846 270.063861L235.198114 294.811295C249.58297 308.963215 263.830997 323.238664 277.942195 337.637642 284.423795 344.25907 291.116797 350.745367 297.216643 357.690291 298.413215 359.053887 300.84125 361.61319 300.939767 363.376038 297.871371 369.076117 282.824946 383.936452 277.26489 389.548491 274.682923 392.476333 271.388759 395.443077 268.293682 397.879533 257.450651 389.190189 247.662572 378.529157 237.878599 368.760811L183.550556 314.044966C183.401412 313.302427 183.281002 312.555793 183.189327 311.805065 181.438597 298.511023 189.182447 268.137218 197.550238 257.879533ZM360.57054 328.879533C364.433975 329.692967 392.544929 357.737952 396.939767 362.199515 381.553733 380.378532 361.428169 399.208707 344.333032 416.229197 335.360753 425.162592 319.541801 442.618556 309.514924 448.879533 304.646134 448.25097 299.863517 448.006529 295.007038 447.127363 282.866864 445.545686 265.976902 440.367234 255.939767 433.674891 263.527118 425.172862 272.146498 417.280909 280.099061 409.066459 306.562464 382.009508 333.38629 355.280533 360.57054 328.879533ZM361.44449 233.879533C366.005176 236.404682 382.843679 254.136154 387.482606 258.724534L447.934849 318.718375C448.132513 332.144776 442.342605 358.662945 435.677622 370.724124 434.901379 372.130406 434.174552 373.360133 432.50882 373.879533 429.545919 372.559476 425.876781 368.02242 423.46981 365.712832 391.658258 333.485364 358.598952 302.323384 326.939767 269.950155 337.623918 257.509178 349.401399 245.150319 361.44449 233.879533Z"/><path d="M195.223916 401.976348C195.874475 401.927172 196.607125 401.837017 197.25358 401.902584 198.113468 401.990691 198.897424 402.345165 199.494625 402.945517 200.567946 404.027381 201.280074 405.60305 202.246678 406.801706 204.329701 409.381378 206.800597 411.793033 209.119627 414.184198 238.727283 444.69153 271.245013 458.907386 314.957709 460.620337 322.269837 467.058247 328.804167 474.694813 335.597079 481.66136 343.00361 489.261044 351.22488 496.766475 358.023949 504.853818 358.867419 505.85782 359.037755 506.390556 358.894098 507.65478 354.746523 510.9434 329.423943 512.250652 323.767972 512.180987 315.152671 512.562098 306.126923 513.357104 297.530093 512.488334 241.817955 506.872067 194.632871 479.335763 159.939767 438.075359 168.477082 425.830627 184.162346 412.551157 195.223916 401.976348ZM312.569897 119.10153C317.313767 118.674162 322.06997 118.952258 326.820006 119.199681 353.575186 120.584025 379.925451 128.28073 403.579028 140.03845 424.196775 150.287092 441.640979 164.009885 457.851942 179.679347 462.359441 184.034815 467.983023 188.500704 469.939767 194.469536 466.881327 201.450554 440.559837 226.497565 433.141888 231.879533L431.283804 229.090397C426.167906 221.937614 418.854782 215.375784 412.394651 209.290397 386.16771 184.584872 352.849628 171.729083 315.87293 171.849728 309.770439 164.952547 302.909504 158.550213 296.412375 151.982249 287.731723 143.141807 279.240854 134.140505 270.939767 124.978345 283.68532 120.054416 298.954908 119.426656 312.569897 119.10153Z"/><path d="M35.284149 283.096815C35.9347088 283.047639 36.6673582 282.957484 37.3138136 283.023051 38.1737018 283.111157 38.9576572 283.465632 39.5548588 284.065984 40.6281799 285.147848 41.340307 286.723517 42.3069116 287.922173 44.3899344 290.501845 46.8608305 292.9135 49.1798608 295.304665 78.7875161 325.811997 111.305247 340.027853 155.017942 341.740804 162.33007 348.178714 168.8644 355.81528 175.657312 362.781827 183.063843 370.381511 191.285114 377.886942 198.084182 385.974284 198.927653 386.978287 199.097988 387.511023 198.954332 388.775246 194.806756 392.063867 169.484176 393.371119 163.828205 393.301454 155.212905 393.682565 146.187157 394.477571 137.590327 393.608801 81.8781884 387.992534 34.6931041 360.45623 0 319.195826 8.53731518 306.951094 24.2225796 293.671624 35.284149 283.096815ZM152.630131.22199646C157.374001-.205371095 162.130203.0727245389 166.880239.32014786 193.635419 1.70449157 219.985684 9.40119719 243.639261 21.158917 264.257008 31.407559 281.701213 45.1303516 297.912175 60.7998137 302.419674 65.1552821 308.043256 69.6211708 310 75.5900028 306.94156 82.5710211 280.620071 107.618032 273.202122 113L271.344037 110.210864C266.228139 103.058081 258.915016 96.496251 252.454884 90.4108642 226.227943 65.7053389 192.909862 52.8495503 155.933163 52.9701947 149.830672 46.0730141 142.969737 39.67068 136.472608 33.1027155 127.791957 24.2622734 119.301087 15.2609721 111 6.09881154 123.745554 1.17488297 139.015142.547122973 152.630131.22199646Z" transform="rotate(90 175.53 336.41)"/><g transform="translate(122.94)"><path d="M179.912561,0.312277085 C220.367548,-0.770869712 241.638199,0.312277085 285.958916,14.2622514 C316.204141,23.7819555 343.919707,36.9087214 370.057359,54.404722 C373.818275,56.9216805 380.898975,60.6790607 383,64.5628429 C382.257255,68.4324664 315.742584,132.856424 306.954802,141.608118 C303.680158,139.999366 300.569656,137.766812 297.467362,135.860523 C293.277623,133.277764 288.988714,130.853008 284.600636,128.586255 C277.004939,124.615674 268.077636,121.820877 260.964107,117.228136 C267.905286,108.131504 279.865123,97.1958882 288.174841,88.8149871 C292.095796,84.8626687 296.708202,80.6729364 299.654561,76.0112486 C297.711524,74.8071469 295.616654,73.8583114 293.497163,72.9698042 C292.50293,72.5618672 263.194145,56.8258698 217.519048,52.6579193 C196.458815,50.736128 170.451506,52.3883517 144.761431,57.1424735 C126.535451,60.5401417 108.717776,66.1621559 91.4315117,72.5411456 C88.4359099,74.0530443 85.5654668,75.2530421 82.7196451,77.0575531 C82.7504219,77.1043383 82.7832504,77.1505078 82.8140271,77.1977034 C86.872452,83.4342856 99.2549567,94.9120347 104.975325,100.652653 L154.460205,150.499347 C163.391612,159.597825 173.632056,168.67168 180.952814,179.011606 C169.573631,190.595032 158.102118,202.110743 145.863238,212.879533 C140.345996,208.9069 135.542774,203.426062 130.714931,198.696249 L100.656324,168.673732 C66.6254667,134.897871 33.0733588,100.697318 0,66.072074 C5.60957213,60.1769412 15.3206566,54.7049267 22.2249032,50.2022674 C58.2131603,26.7267976 101.458571,10.7000145 144.453663,3.9184264 C156.259617,2.05645992 168.016329,1.2861467 179.912561,0.312277085 Z"/><path d="M179.912561,416.312277 C220.367548,415.22913 241.638199,416.312277 285.958916,430.262251 C316.204141,439.781955 343.919707,452.908721 370.057359,470.404722 C373.818275,472.92168 380.898975,476.679061 383,480.562843 C382.257255,484.432466 315.742584,548.856424 306.954802,557.608118 C303.680158,555.999366 300.569656,553.766812 297.467362,551.860523 C293.277623,549.277764 288.988714,546.853008 284.600636,544.586255 C277.004939,540.615674 268.077636,537.820877 260.964107,533.228136 C267.905286,524.131504 279.865123,513.195888 288.174841,504.814987 C292.095796,500.862669 296.708202,496.672936 299.654561,492.011249 C297.711524,490.807147 295.616654,489.858311 293.497163,488.969804 C292.50293,488.561867 263.194145,472.82587 217.519048,468.657919 C196.458815,466.736128 170.451506,468.388352 144.761431,473.142473 C126.535451,476.540142 108.717776,482.162156 91.4315117,488.541146 C88.4359099,490.053044 85.5654668,491.253042 82.7196451,493.057553 C82.7504219,493.104338 82.7832504,493.150508 82.8140271,493.197703 C86.872452,499.434286 99.2549567,510.912035 104.975325,516.652653 L154.460205,566.499347 C163.391612,575.597825 173.632056,584.67168 180.952814,595.011606 C169.573631,606.595032 158.102118,618.110743 145.863238,628.879533 C140.345996,624.9069 135.542774,619.426062 130.714931,614.696249 L100.656324,584.673732 C66.6254667,550.897871 33.0733588,516.697318 0,482.072074 C5.60957213,476.176941 15.3206566,470.704927 22.2249032,466.202267 C58.2131603,442.726798 101.458571,426.700014 144.453663,419.918426 C156.259617,418.05646 168.016329,417.286147 179.912561,416.312277 Z" transform="rotate(180 191.5 522.44)"/></g><g transform="rotate(90 252.97 375.91)"><path d="M179.912561,0.312277085 C220.367548,-0.770869712 241.638199,0.312277085 285.958916,14.2622514 C316.204141,23.7819555 343.919707,36.9087214 370.057359,54.404722 C373.818275,56.9216805 380.898975,60.6790607 383,64.5628429 C382.257255,68.4324664 315.742584,132.856424 306.954802,141.608118 C303.680158,139.999366 300.569656,137.766812 297.467362,135.860523 C293.277623,133.277764 288.988714,130.853008 284.600636,128.586255 C277.004939,124.615674 268.077636,121.820877 260.964107,117.228136 C267.905286,108.131504 279.865123,97.1958882 288.174841,88.8149871 C292.095796,84.8626687 296.708202,80.6729364 299.654561,76.0112486 C297.711524,74.8071469 295.616654,73.8583114 293.497163,72.9698042 C292.50293,72.5618672 263.194145,56.8258698 217.519048,52.6579193 C196.458815,50.736128 170.451506,52.3883517 144.761431,57.1424735 C126.535451,60.5401417 108.717776,66.1621559 91.4315117,72.5411456 C88.4359099,74.0530443 85.5654668,75.2530421 82.7196451,77.0575531 C82.7504219,77.1043383 82.7832504,77.1505078 82.8140271,77.1977034 C86.872452,83.4342856 99.2549567,94.9120347 104.975325,100.652653 L154.460205,150.499347 C163.391612,159.597825 173.632056,168.67168 180.952814,179.011606 C169.573631,190.595032 158.102118,202.110743 145.863238,212.879533 C140.345996,208.9069 135.542774,203.426062 130.714931,198.696249 L100.656324,168.673732 C66.6254667,134.897871 33.0733588,100.697318 0,66.072074 C5.60957213,60.1769412 15.3206566,54.7049267 22.2249032,50.2022674 C58.2131603,26.7267976 101.458571,10.7000145 144.453663,3.9184264 C156.259617,2.05645992 168.016329,1.2861467 179.912561,0.312277085 Z"/><path d="M179.912561,416.312277 C220.367548,415.22913 241.638199,416.312277 285.958916,430.262251 C316.204141,439.781955 343.919707,452.908721 370.057359,470.404722 C373.818275,472.92168 380.898975,476.679061 383,480.562843 C382.257255,484.432466 315.742584,548.856424 306.954802,557.608118 C303.680158,555.999366 300.569656,553.766812 297.467362,551.860523 C293.277623,549.277764 288.988714,546.853008 284.600636,544.586255 C277.004939,540.615674 268.077636,537.820877 260.964107,533.228136 C267.905286,524.131504 279.865123,513.195888 288.174841,504.814987 C292.095796,500.862669 296.708202,496.672936 299.654561,492.011249 C297.711524,490.807147 295.616654,489.858311 293.497163,488.969804 C292.50293,488.561867 263.194145,472.82587 217.519048,468.657919 C196.458815,466.736128 170.451506,468.388352 144.761431,473.142473 C126.535451,476.540142 108.717776,482.162156 91.4315117,488.541146 C88.4359099,490.053044 85.5654668,491.253042 82.7196451,493.057553 C82.7504219,493.104338 82.7832504,493.150508 82.8140271,493.197703 C86.872452,499.434286 99.2549567,510.912035 104.975325,516.652653 L154.460205,566.499347 C163.391612,575.597825 173.632056,584.67168 180.952814,595.011606 C169.573631,606.595032 158.102118,618.110743 145.863238,628.879533 C140.345996,624.9069 135.542774,619.426062 130.714931,614.696249 L100.656324,584.673732 C66.6254667,550.897871 33.0733588,516.697318 0,482.072074 C5.60957213,476.176941 15.3206566,470.704927 22.2249032,466.202267 C58.2131603,442.726798 101.458571,426.700014 144.453663,419.918426 C156.259617,418.05646 168.016329,417.286147 179.912561,416.312277 Z" transform="rotate(180 191.5 522.44)"/></g></g></svg>