<svg xmlns="http://www.w3.org/2000/svg" width="932" height="932" viewBox="0 0 932 932"><path d="M453.395279,150.231839 C453.395279,150.231839 423.674899,144.556414 403.638688,144.890263 C370.245004,145.224111 351.878477,150.231839 351.878477,150.231839 L433.025131,315.153014 L788,207.319938 C718.875073,120.853168 584.298523,54.4173107 431.689384,47.4064915 C372.582561,44.7357032 315.813297,50.4111283 264.053086,63.0973725 L233.330896,0 L115.451189,12.3523957 L160.198726,101.156105 C66.0285353,148.896445 4.25021845,224.346213 0.242976281,311.814529 C-1.76064481,355.548686 8.59139747,393.607419 32.6348505,432 L389.947278,322.163833 L295.777086,128.531685 C340.858561,115.84544 392.284835,111.50541 445.714731,117.848532 C508.828795,125.527048 565.598059,146.893354 610.345597,176.939722 L496.807069,216.333849 L453.395279,150.231839 Z M127.138978,315.153014 C126.805042,307.140649 127.138978,299.128284 128.140789,291.11592 C133.483779,245.378671 159.196916,205.984544 198.267527,175.604328 L249.693802,277.094281 L127.138978,315.153014 Z" transform="translate(72 250)"/></svg>