<svg xmlns="http://www.w3.org/2000/svg" width="932" height="932" viewBox="0 0 932 932"><path fill="#2E9FFF" d="M217.659712,408 C167.749209,408 122.114245,389.757867 86.831223,359.580978 L0,371.446222 L33.5456115,288.634311 C21.8581295,262.839644 15.301295,234.204089 15.301295,204 C15.301295,91.3406222 105.900432,0 217.659712,0 C329.409928,0 420,91.3406222 420,204 C420,316.680533 329.41295,408 217.659712,408 Z M328.149928,203.416711 L328.149928,202.848533 C328.149928,143.981689 286.645468,102.006044 215.082302,102.006044 L137.790216,102.006044 L137.790216,306.006044 L213.937122,306.006044 C286.056259,306.009067 328.149928,262.280533 328.149928,203.416711 L328.149928,203.416711 Z M215.934388,255.885511 L193.326906,255.885511 L193.326906,152.141689 L215.934388,152.141689 C249.138561,152.141689 271.177986,171.075911 271.177986,203.731022 L271.177986,204.2992 C271.177986,237.229333 249.138561,255.885511 215.934388,255.885511 Z" transform="translate(256 262)"/></svg>