<svg xmlns="http://www.w3.org/2000/svg" width="932" height="932" viewBox="0 0 932 932"><path d="M36.2511966,0 L354.748803,0 C364.7329,0 373.7957,4.0802221 380.357902,10.6414674 C386.920104,17.2030015 391,26.2648782 391,36.247959 L391,237.733694 C391,247.716775 386.919815,256.778651 380.357902,263.340185 C373.7957,269.90172 364.7329,273.981201 354.748803,273.981201 L36.2511966,274 C26.2670995,274 17.2043004,269.92023 10.6420983,263.358985 C4.0798962,256.797451 0,247.735574 0,237.752493 L0,36.2475066 C0,26.2644258 4.080185,17.2025491 10.6420983,10.641015 C17.2230729,4.0794809 26.285872,0 36.2511966,0 L36.2511966,0 Z M18.4687014,253 C19.3580618,251.91023 20.3420792,250.858026 21.4017643,249.824582 L78.4188745,193.700648 L135,137.99038 L78.4188745,82.2993522 L21.4017643,26.1754179 C20.3420792,25.1420218 19.3770029,24.0710109 18.4687014,23 C15.0814878,26.8330511 13,31.8495727 13,37.3176639 L13,238.681759 C13,244.13061 15.0625952,249.166275 18.4687014,253 L18.4687014,253 Z M33,15.2633214 L33.1318009,15.3949845 L89.7298599,71.5771493 L150.963478,132.34807 L151.094961,132.479733 L175.983681,157.175714 C178.613447,159.771322 181.543467,161.746269 184.755659,163.025053 C187.986509,164.322858 191.574355,165 195.500154,165 C199.425953,165 203.013702,164.341684 206.244649,163.025053 C209.456697,161.727249 212.386764,159.77113 215.016626,157.175714 L239.905346,132.479733 L240.036835,132.34807 L301.270453,71.5771493 L357.868512,15.3949845 L358,15.2633214 C356.891746,15.094043 355.764737,15 354.618927,15 L36.3810728,15 C35.2352627,15 34.1082063,15.094043 33,15.2633214 L33,15.2633214 Z M371.531317,23 C370.641957,24.0896813 369.657939,25.141799 368.598254,26.175159 L311.581135,82.294516 L255,138.00024 L311.581135,193.686726 L368.598254,249.806083 C369.620105,250.820637 370.604074,251.891513 371.512376,253 C374.918531,249.167261 376.981078,244.13191 376.981078,238.664746 L377,37.3170734 C377,31.8499091 374.918463,26.8334119 371.531298,23 L371.531317,23 Z M358,259.715917 L357.868502,259.583555 L301.264116,203.102993 L245.001184,147 L225.181955,166.778362 C221.161745,170.786991 216.634548,173.812293 211.618544,175.854558 C206.621295,177.8778 201.229691,178.917762 195.5,178.917762 C189.770309,178.917762 184.378705,177.896678 179.381456,175.854558 C174.365452,173.81239 169.819307,170.786894 165.818045,166.778362 L145.998816,147 L89.7358838,203.122355 L33.1314982,259.602918 L33,259.73528 C34.1083783,259.905458 35.2355125,260 36.4002548,260 L354.615971,260 C355.76191,260 356.889092,259.905458 358,259.716373 L358,259.715917 Z" transform="translate(271 329)"/></svg>