<svg xmlns="http://www.w3.org/2000/svg" width="932" height="932" viewBox="0 0 932 932"><g fill="none" transform="matrix(1 0 0 -1 134.333 800)"><path fill="#0866FF" d="M666.66665,330.891992 C666.66665,514.986654 517.427987,664.225317 333.333325,664.225317 C149.238663,664.225317 0,514.986654 0,330.891992 C0,174.565329 107.619997,43.3959989 252.807994,7.37466648 L252.807994,229.030661 L184.071995,229.030661 L184.071995,330.891992 L252.807994,330.891992 L252.807994,374.783991 C252.807994,488.239988 304.151992,540.826653 415.538656,540.826653 C436.655989,540.826653 473.094655,536.686653 488.001321,532.54532 L488.001321,440.206656 C480.133321,441.034656 466.469322,441.449322 449.491989,441.449322 C394.834657,441.449322 373.715991,420.745323 373.715991,366.915991 L373.715991,330.891992 L482.594655,330.891992 L463.890655,229.030661 L373.715991,229.030661 L373.715991,0 C538.763987,19.9346662 666.66665,160.467996 666.66665,330.891992" transform="translate(0 2.442)"/><path fill="#FFF" d="M279.81866,231.471994 L298.523993,333.333325 L189.645329,333.333325 L189.645329,369.358657 C189.645329,423.187989 210.762661,443.890656 265.419993,443.890656 C282.397326,443.890656 296.061326,443.477322 303.929326,442.649322 L303.929326,534.986653 C289.022659,539.127987 252.583994,543.26932 231.466661,543.26932 C120.08133,543.26932 68.7359983,490.681321 68.7359983,377.225324 L68.7359983,333.333325 L0,333.333325 L0,231.471994 L68.7359983,231.471994 L68.7359983,9.81599975 C94.5266643,3.41866658 121.49333,0 149.26133,0 C162.933329,0 176.405329,0.842666646 189.645329,2.44133327 L189.645329,231.471994 L279.81866,231.471994 Z" transform="translate(184.071)"/></g></svg>