<svg xmlns="http://www.w3.org/2000/svg" width="932" height="932" viewBox="0 0 932 932"><g fill="none" transform="matrix(1 0 0 -1 208 727)"><path fill="#0866FF" d="M520,258.095554 C520,401.689279 403.59384,518.095346 260,518.095346 C116.40616,518.095346 0,401.689279 0,258.095554 C0,136.160851 83.9436,33.8488529 197.19024,5.7522354 L197.19024,178.643777 L143.57616,178.643777 L143.57616,258.095554 L197.19024,258.095554 L197.19024,292.331286 C197.19024,380.826895 237.23856,421.844463 324.12016,421.844463 C340.59168,421.844463 369.01384,418.615265 380.64104,415.385028 L380.64104,343.360925 C374.504,344.006765 363.84608,344.330205 350.60376,344.330205 C307.97104,344.330205 291.49848,328.181097 291.49848,286.194251 L291.49848,258.095554 L376.42384,258.095554 L361.83472,178.643777 L291.49848,178.643777 L291.49848,0 C420.23592,15.5490276 520,125.16494 520,258.095554" transform="translate(0 1.905)"/><path fill="#FFF" d="M218.25856,180.548016 L232.84872,259.999792 L147.92336,259.999792 L147.92336,288.09953 C147.92336,330.086376 164.39488,346.234443 207.0276,346.234443 C220.26992,346.234443 230.92784,345.912043 237.06488,345.266204 L237.06488,417.289266 C225.43768,420.519504 197.01552,423.749741 180.544,423.749741 C93.66344,423.749741 53.61408,382.731134 53.61408,294.235525 L53.61408,259.999792 L-3.92989158e-13,259.999792 L-3.92989158e-13,180.548016 L53.61408,180.548016 L53.61408,7.65647387 C73.7308,2.66655787 94.7648,0 116.42384,0 C127.088,0 137.59616,0.657279474 147.92336,1.90423848 L147.92336,180.548016 L218.25856,180.548016 Z" transform="translate(143.576)"/></g></svg>