<svg xmlns="http://www.w3.org/2000/svg" width="932" height="932" viewBox="0 0 932 932"><path fill="none" stroke="#979797" d="M280.014056,0 L280.572484,0.0788103028 C286.206166,5.20702367 281.219242,23.2322584 282.881051,30.2402324 C284.637179,37.6427073 292.634821,40.4316331 296.307269,46.5963668 C298.097831,49.6031446 298.175682,52.5961382 297.84332,55.9995147 C296.323738,71.5172033 286.891849,73.6098716 284.399136,84.1914283 C279.204112,106.24303 293.148335,151.79988 305.080423,170.756305 C309.862241,178.355656 316.234005,182.383072 324.956257,184.288903 C345.487831,188.774798 381.60897,185.824655 399.369366,174.232349 C403.03882,171.836576 406.594492,168.875945 407.503247,164.363082 C408.161982,161.090806 407.742787,156.651359 405.848923,153.857039 C394.479755,137.092619 373.963152,155.469204 361.465151,152.58199 C359.679081,152.168461 358.737389,151.630573 357.809171,150.072347 C356.103946,147.207607 351.307157,132.702616 350.811608,129.326958 C350.681358,128.436971 351.099056,127.765735 351.182895,126.923693 C351.429921,124.447012 342.715155,115.782373 340.626666,113.488484 C343.999689,110.361543 348.45663,106.507929 350.341511,102.256667 C351.798214,98.9746529 351.287694,95.6923386 350.754717,92.2709826 C347.589795,71.9466146 335.030412,71.2042096 329.330856,56.3006719 C326.393497,48.619664 327.752886,39.2469315 331.055545,31.9013917 C336.558977,19.6628709 349.747152,11.8207963 361.833444,7.1648454 C402.092636,-8.34415318 455.283996,2.40296509 479.041876,40.5796646 C487.725201,54.5328339 494.150863,79.5954092 506.127864,89.442352 C517.473078,98.7704353 532.760224,94.4901069 545.394463,100.106764 C539.356557,108.939661 524.145765,111.988691 516.666128,123.133007 C513.225734,128.258674 512.138822,134.232375 513.385927,140.291479 C518.053963,162.968169 561.151705,169.184594 580.024465,172.575235 C590.401039,174.439114 600.891395,176.115705 611.193114,178.321195 C617.256471,179.620217 624.420215,180.558149 629.667638,184.067156 L630,184.2919 C628.779843,185.388652 625.397837,186.052396 623.767468,186.491396 C605.947187,191.287438 588.216734,190.171208 570.013189,191.097154 C558.962908,191.659015 547.059266,192.087527 536.242537,194.42187 C528.803322,196.028042 520.9509,198.916755 516.697568,205.656084 C514.679443,208.853445 513.405389,213.405265 514.272225,217.165984 C517.992581,233.314605 544.951314,238.820838 558.527245,242.37779 C561.761035,243.224326 566.759936,243.970477 569.499675,245.885298 C569.632919,245.978192 569.760175,246.078578 569.890425,246.175967 C569.628428,246.7618 569.120902,247.0255 568.593914,247.356623 C555.543474,255.538811 535.769445,252.961744 521.215891,251.307626 C516.685591,250.792213 511.962161,250.51353 507.524682,249.512669 C510.057818,255.997289 512.411298,262.583793 515.127083,268.993497 C524.889837,292.025284 535.652669,314.549149 541.522897,338.99982 C546.906559,361.421801 547.216464,383.466211 551.990796,405.72338 C556.452229,426.527202 565.036745,445.566033 585.149124,455.438297 C589.170403,457.413049 598.71757,459.744396 601.256694,461.510886 C601.37347,461.591793 601.487251,461.678695 601.60253,461.762599 C600.984217,463.520099 598.349277,465.68064 596.705433,466.494214 C588.019113,470.791323 572.766402,460.121966 564.190869,457.204786 C561.497541,456.28783 558.516765,455.610601 555.657256,455.920748 C549.908295,456.544038 537.453711,465.045363 531.45473,468 C531.430776,458.001879 535.246948,448.289933 535.588293,438.186931 C537.193211,390.749422 527.87211,341.507966 506.240148,299.076259 C497.860739,282.639966 485.58581,265.829099 467.289443,259.886862 C466.208519,259.498804 465.097652,259.220121 463.983791,258.941438 C453.789865,256.389842 440.275317,256.984665 431.117402,262.625745 C423.833888,267.111639 420.275222,273.74459 418.534065,281.953747 C408.373076,329.881199 466.469018,375.574693 454.733054,421.870502 C451.388477,435.062987 440.932555,446.168347 429.392714,452.927155 C418.796062,459.133092 407.452344,461.119831 395.327128,461.504892 C358.722418,462.670566 330.064448,446.397587 300.95734,425.990812 C288.689897,417.389102 276.747329,408.526689 264.840693,399.436535 C249.472703,387.704887 233.823254,376.307359 218.557068,364.45435 C207.223831,355.651868 189.478406,339.32495 175.95188,335.821937 C164.886628,339.946743 144.371522,365.010217 134.62374,374.226228 C120.971606,387.134037 97.547286,402.845155 88.5432758,418.632687 C83.4943709,427.486111 89.4824224,440.879367 83.3222015,447.975291 C82.4109014,449.025596 81.046721,450.173289 79.7955735,450.750133 C71.2314187,454.705631 58.6232294,446.560901 49.1560088,446.963942 C37.8054046,447.447891 29.0556063,455.687014 18.8607828,456.169465 C11.5170845,456.518567 5.43351635,454.266631 0,449.415152 C7.20356744,448.023236 14.274789,445.548053 21.1400062,442.987468 C28.9150263,440.088267 36.4421224,436.832473 43.5422385,432.5039 C76.5448656,412.384798 97.2529512,376.503636 117.299307,344.558494 C125.00516,332.279969 132.110067,319.044033 142.009059,308.367185 C148.886852,300.950626 157.15248,294.32217 167.172739,291.926397 C198.513557,284.431926 243.291073,317.571209 268.312526,333.766277 C276.954931,339.429831 285.832883,344.695338 294.946383,349.562798 C307.123999,355.990483 320.256781,361.265978 333.915054,363.422024 C338.2133,364.100752 342.653773,364.782476 347.011905,364.592193 C354.837378,364.247585 361.797513,361.567136 367.101827,355.681834 C373.461615,348.623367 375.065036,339.653077 375.165343,330.45954 C375.232714,324.2566 374.961734,318.122582 373.569408,312.055986 C371.266829,302.029398 366.775454,292.566168 361.095361,284.034878 C358.364605,279.954522 355.426247,276.029989 352.280288,272.261278 C345.604607,264.136026 332.416431,250.998978 332.048139,240.266693 C331.694817,229.94494 343.387365,223.326972 351.795219,220.523663 C353.931617,219.810475 359.822805,219.068819 361.119315,217.669412 C360.9711,217.329299 360.852827,217.071592 360.589333,216.801899 C359.562305,215.751594 357.728326,215.144785 356.385405,214.590416 C344.981803,209.891764 333.105109,211.354099 321.098165,210.895621 C308.664541,210.42216 298.313417,207.475014 289.649554,198.005791 C269.267692,175.732142 272.956608,123.741315 267.489107,94.8621335 C266.736552,90.898245 265.764918,86.9890442 264.574205,83.1345312 C261.909322,74.6878946 256.612493,64.0101474 257.287696,55.1215139 C257.769771,48.7723402 266.215054,45.2772681 270.460901,41.4925756 C272.22152,39.9222129 273.79949,38.1085271 274.600452,35.8550918 C277.223415,28.4827326 274.064481,13.9031263 274.576498,5.31969544 C276.07512,3.30868425 278.154627,1.67104811 280.014056,0 Z" transform="translate(153 227)"/></svg>