<svg xmlns="http://www.w3.org/2000/svg" width="932" height="932" viewBox="0 0 932 932"><g fill="none" transform="translate(144 421)"><path fill="#FEFEFE" d="M66.2206946 1.00456838C70.1471297.989467352 74.0735649 1.01180429 78 1.07157918L77.9603698 82.2411638C76.3721146 83.5475598 68.5832623 82.7791379 66.2008795 82.7409134 65.7817143 71.3975265 66.1505797 59.8789047 66.1383858 48.5177426 66.1231434 32.6932837 65.8579261 16.823679 66.2206946 1.00456838ZM96.228016 1.10490785C100.027173.913207329 103.868526 1.03943378 107.672371 1.05690403 107.769265 1.20390591 107.853656 1.35153734 107.920856 1.51412079 108.758515 3.50069223 108.710068 70.0734996 107.766139 72.4869116 119.826236 72.1793723 131.959784 72.2892303 144.021444 72.4917907 144.365259 72.992447 144.571548 73.484132 144.666879 74.0848881 145.088834 76.7581504 145.381077 80.5542299 143.79015 82.785857 136.087129 83.1136995 128.327846 82.9429318 120.618574 82.9489126 112.487346 82.9550508 104.318611 83.1188934 96.1936345 82.8253618 96.1655041 55.6062482 95.7513632 28.3166241 96.228016 1.10490785ZM.344419921 1.11214024C9.79675773.929709177 19.2739935 1.04581599 28.7290272 1.04660369 36.1341832 1.04723385 43.6118127.835815468 51 1.30843481L50.9524243 11.536705 12.6133971 11.5631717C12.4291206 19.8952931 12.5713719 28.2551415 12.574385 36.5904137L47.2224903 36.673122 47.1971166 45.189565 47.1114804 46.7375508C45.7397147 47.9575389 16.7393194 47.2706655 12.6121284 47.270823 12.3943903 59.1464867 12.5394962 71.0498773 12.5223689 82.9290068 8.43989909 83.0460589 4.34394948 82.983043.259735196 82.9832005.134135378 55.7352778-.300072073 28.3474598.344419921 1.11214024ZM436.61017 1.21749206C441.281627.811515814 446.128799 1.09318151 450.820835 1.1205613 451.183344 1.4267744 451.484116 1.76854975 451.708903 2.18805854 454.558318 7.49847968 457.51696 18.521679 459.767998 24.6904724L471.960328 58.7060895C474.520052 65.7581173 477.412208 72.7552282 479.634752 79.9197649 479.959269 80.9691663 480.158728 81.7911895 479.835794 82.873006 475.587 83.0877958 471.29863 82.9674191 467.043504 82.957191 467.113157 82.7661619 467.168562 82.5782799 467.19389 82.3767079 467.512075 79.9564286 461.186374 63.3129759 459.687265 61.2890741L450.721106 61.3151951C443.066733 61.3696399 435.413416 61.3255805 427.761154 61.1830167 427.818142 61.324479 427.865632 61.464053 427.892543 61.6141698 428.179068 63.1921271 421.987922 80.8865548 420.631284 82.9579778 416.097549 83.0725324 411.536902 82.9101419 407 82.8494028 407.227953 82.6616781 407.43691 82.459162 407.637952 82.2445296 408.758722 81.0483159 436.690903 3.9773438 436.61017 1.21749206Z"/><path fill="#000" d="M443.347121,17 L444.332452,17.2014133 C446.139426,20.6863146 456.426019,48.1510507 455.986311,50.9536002 C451.919817,50.7812264 447.761851,50.9708376 443.685728,50.9855903 C439.455547,51.0289684 435.226971,50.9744093 431,50.8219128 C432.372081,49.6353289 442.939509,20.1623603 443.347121,17 Z"/><path fill="#FEFEFE" d="M492.610531,1.2774782 C497.463392,1.0016042 502.407282,1.16126295 507.26956,1.14416786 C516.981559,1.10997767 528.43726,-0.0128091245 537.337833,4.60380663 C542.746292,7.40881318 546.47069,12.294559 548.280311,18.0458811 C550.422663,24.8561578 549.965942,32.9400973 546.621361,39.2952368 C543.865338,44.5305694 539.594758,47.9381387 533.99796,49.6713301 C534.115671,49.7669999 534.230244,49.864238 534.341678,49.9675927 C535.970808,51.4845076 551.923095,80.5944688 552,82.5974176 C548.661697,82.6741102 545.218237,83.1951184 541.889351,82.9209696 C539.186691,82.6982629 538.579298,82.2961362 536.874833,80.2820521 C536.874833,80.1732081 536.876403,80.0642073 536.870125,79.9555202 C536.757122,78.1733961 523.319156,53.3554007 521.663345,51.8568356 L504.278113,51.8695393 C504.428784,52.1907388 504.549112,52.5230214 504.639096,52.866387 C505.296712,55.4014793 505.108373,81.1962474 504.248293,82.6799131 C500.17233,82.790796 496.079102,82.7330805 492,82.746882 C492.420623,82.1057376 492.61524,81.4901575 492.659185,80.7301317 C493.409401,67.6757551 492.693714,54.1590269 492.704701,41.0630888 C492.715687,27.9365678 493.472181,14.3560075 492.610531,1.2774782 Z"/><path fill="#000" d="M504.100382,11.5646176 C509.561811,10.7762847 521.50104,10.6629093 526.826011,12.2102969 C530.359785,13.2378394 533.454385,15.3960214 535.226762,18.6507368 C537.235978,22.3429131 537.48066,27.6888442 536.249407,31.6585411 C535.510655,34.0398921 534.19,36.0837642 531.942376,37.2756077 C531.846699,37.4803998 531.730632,37.673979 531.558099,37.8250424 C526.448009,42.3050844 510.855803,40.7573854 504,40.6793619 C504.100382,40.5376427 504.191354,40.3981037 504.265072,40.2404994 C505.011666,38.6513748 504.934811,13.6782593 504.100382,11.5646176 Z"/><path fill="#FEFEFE" d="M226.309448 1.0205923 240.993547 1.04627358C241.238491 1.4278691 241.437901 1.85074374 241.536821 2.29441548 242.395696 6.11541237 241.701687 20.7523261 241.704828 25.6387024 241.714249 43.8531923 242.401977 62.3623079 241.645162 80.5468626 241.607478 81.4742247 241.491287 82.1662014 240.976275 82.9643694 237.153469 82.9955651 233.330662 82.9905759 229.507856 82.9494018 229.719827 82.6352393 229.881553 82.3190287 229.961631 81.9443655 230.605395 78.9101928 230.362021 45.3345139 229.986753 40.7760073 229.928658 40.0641788 229.704125 39.4763453 229.314727 38.8782707 229.328858 38.8525894 229.34456 38.8273808 229.357121 38.8012269 229.379103 38.7578995 229.397945 38.7128391 229.419927 38.6695118 229.633468 38.2532544 229.856431 37.838415 229.944359 37.3730009 230.539448 34.2353152 230.869181 24.8249366 229.118457 22.150932 229.18231 22.5098397 229.202722 22.8712158 229.179693 23.2350603 229.030528 25.703457 206.655805 81.4639837 205.040115 82.8983543 201.87625 82.6645444 198.560081 82.8532939 195.378945 82.8410047 195.477865 82.5076207 195.484145 82.1045978 195.444891 81.7586095 195.305147 80.5243324 174.632473 29.3363346 172.635235 25.1598961 172.08725 24.014952 171.207963 23.1592769 170.236036 22.3691441 170.612874 23.1299718 171.112184 24.0088074 171.27391 24.8432128 172.212863 29.7168272 171.48117 40.0752076 171.48274 45.3962751 171.485881 57.123326 172.135925 69.2644286 171.385391 80.9502005 171.336716 81.7045685 171.1797 82.2662481 170.766749 82.9079651 166.844499 83.0481881 162.92382 82.9969831 159 82.9564917 159.012561 82.9319133 159.026693 82.9078076 159.039254 82.8827565 159.059666 82.8411623 159.076938 82.7979925 159.09892 82.7565558 160.391158 80.1688908 159.865156 9.90741935 159.585668 1.12914693 164.377784.89738516 169.190313 1.03745057 173.985569 1.09180666 174.214812 1.30607995 174.39852 1.54493164 174.569667 1.80615599 176.372206 4.55531378 177.452473 8.48612573 178.716449 11.5448769 182.509946 20.605801 186.184634 29.7150941 189.740514 38.8727563 192.899668 46.8044917 196.733989 54.6531962 199.436228 62.7445337 199.778522 63.7653253 199.905705 64.6452638 199.682742 65.7111158 200.06429 65.4421713 200.425426 65.1232823 200.714335 64.7539759 202.57811 62.3722338 224.528891 8.21103664 226.237221 2.53074632 226.380105 2.05446091 226.364404 1.51026978 226.309448 1.0205923ZM259.455207 1.24950907C265.244178 1.05313123 271.048847 1.10984515 276.842528 1.10089032 286.200947 1.08659401 297.518324-.00400998931 305.76855 5.33793872 310.309628 8.276851 313.014183 12.603919 314.103539 17.8508208 315.130109 22.7984428 314.721992 28.5177512 311.862039 32.824553 308.964414 37.1861835 304.170618 38.8561807 299.293629 39.8665054 303.654194 40.7176856 307.903312 42.151558 311.301664 45.1350874 315.390675 48.7255028 317.60863 53.8093325 317.914717 59.1988832 318.071685 61.9495869 318.222374 65.9721907 316.308937 68.1161655 316.330912 68.3167851 316.345039 68.5164621 316.345039 68.7184956 316.335621 70.9853244 313.684435 74.1132307 312.122606 75.6730992 303.636928 84.1482957 290.235019 82.9543184 279.251983 82.9287107L259 82.8528303C259.411256 82.2498718 259.552527 81.5443255 259.569793 80.8224405 259.957503 64.3875 259.555666 47.8578269 259.561945 31.412989 259.566654 21.7753928 260.349923 10.700782 259.455207 1.24950907Z"/><path fill="#000" d="M272.026792 11.0993933C279.263689 11.7125679 287.105518 10.0410476 294.19755 11.9395664 297.220618 12.7484615 300.003305 14.3916457 301.557025 17.1095888 303.148952 19.8908623 303.382965 23.8806783 302.459647 26.8976215 301.786263 29.0960694 300.563663 31.0356213 298.457545 32.1442907 298.323823 32.4440649 298.138098 32.7098256 297.900371 32.9415726 293.619681 37.1329929 277.226024 35.8182288 271 35.7583049 273.449975 31.4665469 270.219956 17.0790849 272.026792 11.0993933ZM271.072925 46.6403801C275.735371 45.6566042 290.764268 45.8104379 295.385496 47.0733934 299.080892 48.0831248 302.460809 50.2787365 304.363201 53.6664011 306.018282 56.6129807 306.44315 60.6181956 305.52366 63.8605728 304.911724 66.0139278 303.736997 67.9235545 301.752168 69.0350503L301.438273 69.6486441C295.469518 74.3192055 278.676152 72.7452591 271 72.7433599 271.128411 72.4982073 271.242555 72.2527381 271.334504 71.9904928 272.079608 69.8466337 272.01778 48.6264489 271.072925 46.6403801Z"/><path fill="#FEFEFE" d="M564.583485,0.414362637 C574.741787,-0.198853207 596.124707,-0.523347911 605.435304,2.3573736 C614.123098,5.04593094 620.725444,10.4421987 624.992277,18.5634305 C630.894755,29.7963291 631.325685,45.9248239 627.614028,57.9081759 C626.261475,62.2709676 623.078257,69.81634 618.838161,72.0499716 C618.706051,72.5495352 618.523614,72.8787786 618.152448,73.2461699 C605.735697,85.5787098 580.326573,82.7939121 564,82.5928837 C564.43093,81.9457938 564.59764,81.3783238 564.646395,80.6088756 C565.434335,68.5063312 564.72975,54.3517139 564.728177,42.0533647 C564.726604,28.3028621 565.439053,14.1195943 564.583485,0.414362637 Z"/><path fill="#000" d="M576.483955,11.2687728 C583.889262,11.091939 592.256133,10.4020981 599.459924,12.2910045 C605.568866,13.8929105 610.444912,17.2456601 613.65171,22.7692729 C618.716579,31.4938609 618.96887,44.3083211 616.395181,53.8221992 C615.403469,57.486378 613.377205,62.3746816 609.959371,64.3387659 C609.840365,64.9203316 609.510324,65.2153698 609.102532,65.6166343 C601.00382,73.5733665 586.499447,71.8513648 576,71.8261478 C576.069816,71.706525 576.076163,71.7022696 576.128526,71.5906847 C576.15074,71.5438757 576.169781,71.4962788 576.191995,71.4493122 C577.183707,69.2699383 577.150385,15.997264 576.483955,11.2687728 Z"/><path fill="#FEFEFE" d="M360.250424,0.293841482 C370.728047,-0.746951595 380.580562,0.811648202 388.95198,7.64578655 C397.125499,14.3182574 401.652033,25.0882919 402.680791,35.4069132 C403.916871,47.8214039 401.703864,61.5782053 393.564898,71.4531043 C388.09442,78.0916721 379.799962,82.7090829 371.210228,83.5364122 C363.875421,84.9849839 354.578906,82.9112457 348.221026,79.091499 C339.521348,73.8635189 334.065006,65.4020329 331.657242,55.6677688 C328.57568,43.2170207 329.601297,27.5321387 336.343979,16.3841477 C342.015497,7.00963298 349.862327,2.86294133 360.250424,0.293841482 Z"/><path fill="#000" d="M362.475313,11.1930485 C368.820394,10.5423845 374.70854,11.4412824 379.972735,15.3542905 C385.975903,19.8153762 389.322551,27.2167984 390.41289,34.4853966 C391.890835,44.3417695 390.783164,55.591925 384.729576,63.805965 C381.034713,68.8200359 376.033649,71.8572597 369.909157,72.7723055 C364.703261,73.4451333 359.199569,72.6611702 354.645985,69.9611518 C348.828742,66.5107326 345.080307,60.3625115 343.444799,53.8975072 C340.961599,44.0775461 341.445318,31.075347 346.737875,22.2038357 C350.385469,16.0928179 355.759959,12.8667274 362.475313,11.1930485 Z"/></g></svg>