<svg xmlns="http://www.w3.org/2000/svg" width="932" height="932" viewBox="0 0 932 932"><g fill="none" transform="translate(83 273)"><path fill="#F6C700" d="M766,33.1755167 C763.921809,16.1815547 751.306122,2.6369941 735.240104,0 C664.821391,0 101.485009,0 31.0662957,0 C13.4682783,2.89003899 0,18.8585033 0,38.1032329 C0,69.0413001 0,316.492565 0,347.417314 C0,368.726357 16.4789913,386 36.821287,386 C106.081009,386 660.225391,386 729.485113,386 C748.215478,386 763.682017,371.336715 766,352.358348 C766,288.524445 766,65.0858089 766,33.1755167 Z"/><path d="M766,33.1755167 C763.921809,16.1815547 751.306122,2.6369941 735.240104,0 C664.821391,0 101.485009,0 31.0662957,0 C13.4682783,2.89003899 0,18.8585033 0,38.1032329 C0,69.0413001 0,316.492565 0,347.417314 C0,368.726357 16.4789913,386 36.821287,386 C106.081009,386 660.225391,386 729.485113,386 C748.215478,386 763.682017,371.336715 766,352.358348 C766,288.524445 766,65.0858089 766,33.1755167 Z"/><g fill="#000" transform="translate(93 77)"><polygon points="0 0 61 0 61 234 0 234"/><polygon fill="none" points="0 0 61 0 61 234 0 234"/></g><g fill="#000" transform="translate(174 76)"><path d="M94.6517617,109.319898 C89.437668,73.6570453 86.5379935,53.833988 85.9660393,49.8773698 C83.4254988,30.7870196 81.0046696,14.1745517 78.6902505,0 C73.436253,0 47.2194708,0 0,0 L0,234 L53.1651337,234 L53.3513514,79.4920581 L75.7240696,234 L113.592755,234 L134.808264,76.0549957 L135.007783,234 L188,234 L188,0 L108.711193,0 L94.6517617,109.319898 Z"/><path fill="none" d="M94.6517617,109.319898 C89.437668,73.6570453 86.5379935,53.833988 85.9660393,49.8773698 C83.4254988,30.7870196 81.0046696,14.1745517 78.6902505,0 C73.436253,0 47.2194708,0 0,0 L0,234 L53.1651337,234 L53.3513514,79.4920581 L75.7240696,234 L113.592755,234 L134.808264,76.0549957 L135.007783,234 L188,234 L188,0 L108.711193,0 L94.6517617,109.319898 Z"/></g><g fill="#000" transform="translate(383 76)"><path d="M78.8400232,48.6783945 C79.5057893,51.6625107 79.8519876,58.4300598 79.8519876,69.0076857 C79.8519876,78.0799317 79.8519876,150.657899 79.8519876,159.730145 C79.8519876,175.303501 78.8400232,184.842015 76.8294095,188.359009 C74.8054805,191.876003 69.4260903,193.621178 60.7045542,193.621178 C60.7045542,178.260974 60.7045542,55.3793339 60.7045542,40.0191289 C67.3222694,40.0191289 71.8361636,40.7251921 74.2329217,42.1106746 C76.6296797,43.5094791 78.174257,45.6942784 78.8400232,48.6783945 Z M106.282902,231.615371 C113.513122,230.03006 119.584909,227.232451 124.511579,223.249189 C129.424932,219.252605 132.873601,213.723997 134.844269,206.650043 C136.828252,199.589411 138,185.561401 138,164.579334 C138,156.373015 138,90.6292058 138,82.4095645 C138,60.2684885 137.134504,45.4278395 135.789657,37.8876174 C134.431494,30.3340734 131.062717,23.4732707 125.670012,17.3185312 C120.263991,11.1637916 112.38132,6.74090521 102.021999,4.0498719 C91.6493632,1.3588386 74.7389039,0 45.325357,0 C42.3027788,0 27.2032034,0 0,0 L0,234 L73.6071015,234 C90.5708221,233.467122 101.462756,232.681127 106.282902,231.615371 Z"/><path fill="none" d="M78.8400232,48.6783945 C79.5057893,51.6625107 79.8519876,58.4300598 79.8519876,69.0076857 C79.8519876,78.0799317 79.8519876,150.657899 79.8519876,159.730145 C79.8519876,175.303501 78.8400232,184.842015 76.8294095,188.359009 C74.8054805,191.876003 69.4260903,193.621178 60.7045542,193.621178 C60.7045542,178.260974 60.7045542,55.3793339 60.7045542,40.0191289 C67.3222694,40.0191289 71.8361636,40.7251921 74.2329217,42.1106746 C76.6296797,43.5094791 78.174257,45.6942784 78.8400232,48.6783945 Z M106.282902,231.615371 C113.513122,230.03006 119.584909,227.232451 124.511579,223.249189 C129.424932,219.252605 132.873601,213.723997 134.844269,206.650043 C136.828252,199.589411 138,185.561401 138,164.579334 C138,156.373015 138,90.6292058 138,82.4095645 C138,60.2684885 137.134504,45.4278395 135.789657,37.8876174 C134.431494,30.3340734 131.062717,23.4732707 125.670012,17.3185312 C120.263991,11.1637916 112.38132,6.74090521 102.021999,4.0498719 C91.6493632,1.3588386 74.7389039,0 45.325357,0 C42.3027788,0 27.2032034,0 0,0 L0,234 L73.6071015,234 C90.5708221,233.467122 101.462756,232.681127 106.282902,231.615371 Z"/></g><g fill="#000" transform="translate(542 74)"><path d="M77.53739,198.62984 C76.4159814,201.599831 71.503144,203.104805 67.7918158,203.104805 C64.1605882,203.104805 61.7442198,201.666423 60.5160104,198.776342 C59.2878011,195.899579 58.6870465,189.333633 58.6870465,179.051869 C58.6870465,172.872155 58.6870465,123.407811 58.6870465,117.228098 C58.6870465,106.573419 59.2210506,99.9275639 60.3024088,97.2772127 C61.3704169,94.6534982 63.7200348,93.3216634 67.3512625,93.3216634 C71.0625907,93.3216634 76.0421786,94.8266367 77.3237883,97.8499017 C78.592048,100.873167 79.2328529,107.332565 79.2328529,117.228098 C79.2328529,121.223602 79.2328529,141.201124 79.2328529,177.173981 C78.8456999,189.493453 78.2849956,196.645406 77.53739,198.62984 Z M0,233.93678 L54.8422173,233.93678 C57.1250846,225.000169 58.3799942,220.032425 58.6336461,219.033549 C63.5998839,225.026805 69.0600755,229.528407 75.0542711,232.511717 C81.0217665,235.508345 89.9529844,237 96.868337,237 C106.49376,237 114.797523,234.482832 121.806327,229.435178 C128.80178,224.400843 133.260714,218.434223 135.156428,211.575274 C137.052143,204.703006 138,194.261422 138,180.223883 C138,173.657938 138,121.15701 138,114.591065 C138,100.473616 137.679598,91.2573195 137.052143,86.9288564 C136.424688,82.6003934 134.555674,78.1920202 131.4451,73.6771003 C128.334526,69.1621804 123.808842,65.6594549 117.881397,63.1556055 C111.953952,60.6517561 104.958499,59.3998314 96.8950372,59.3998314 C89.8862339,59.3998314 80.9149657,60.7982579 74.9341202,63.5551559 C68.9666247,66.3120539 63.5464835,70.4940152 58.6870465,76.1010396 C58.6870465,71.0267491 58.6870465,45.6686148 58.6870465,0 L0,0 L0,233.93678 Z"/><path fill="none" d="M77.53739,198.62984 C76.4159814,201.599831 71.503144,203.104805 67.7918158,203.104805 C64.1605882,203.104805 61.7442198,201.666423 60.5160104,198.776342 C59.2878011,195.899579 58.6870465,189.333633 58.6870465,179.051869 C58.6870465,172.872155 58.6870465,123.407811 58.6870465,117.228098 C58.6870465,106.573419 59.2210506,99.9275639 60.3024088,97.2772127 C61.3704169,94.6534982 63.7200348,93.3216634 67.3512625,93.3216634 C71.0625907,93.3216634 76.0421786,94.8266367 77.3237883,97.8499017 C78.592048,100.873167 79.2328529,107.332565 79.2328529,117.228098 C79.2328529,121.223602 79.2328529,141.201124 79.2328529,177.173981 C78.8456999,189.493453 78.2849956,196.645406 77.53739,198.62984 Z M0,233.93678 L54.8422173,233.93678 C57.1250846,225.000169 58.3799942,220.032425 58.6336461,219.033549 C63.5998839,225.026805 69.0600755,229.528407 75.0542711,232.511717 C81.0217665,235.508345 89.9529844,237 96.868337,237 C106.49376,237 114.797523,234.482832 121.806327,229.435178 C128.80178,224.400843 133.260714,218.434223 135.156428,211.575274 C137.052143,204.703006 138,194.261422 138,180.223883 C138,173.657938 138,121.15701 138,114.591065 C138,100.473616 137.679598,91.2573195 137.052143,86.9288564 C136.424688,82.6003934 134.555674,78.1920202 131.4451,73.6771003 C128.334526,69.1621804 123.808842,65.6594549 117.881397,63.1556055 C111.953952,60.6517561 104.958499,59.3998314 96.8950372,59.3998314 C89.8862339,59.3998314 80.9149657,60.7982579 74.9341202,63.5551559 C68.9666247,66.3120539 63.5464835,70.4940152 58.6870465,76.1010396 C58.6870465,71.0267491 58.6870465,45.6686148 58.6870465,0 L0,0 L0,233.93678 Z"/></g></g></svg>