<svg xmlns="http://www.w3.org/2000/svg" width="932" height="932" viewBox="0 0 932 932"><g fill="none" transform="translate(109 286)"><path fill="#F6C700" d="M714,30.9408964 C712.062887,15.0916054 700.303617,2.45937274 685.328243,0 C619.689913,0 94.595687,0 28.9573565,0 C12.5539826,2.69537315 0,17.5882414 0,35.5366939 C0,64.3908498 0,295.174413 0,324.016147 C0,343.889866 15.360313,360 34.3216696,360 C98.879687,360 615.405913,360 679.96393,360 C697.422783,360 711.839374,346.324397 714,328.624366 C714,269.090156 714,60.7017907 714,30.9408964 Z"/><path d="M714,30.9408964 C712.062887,15.0916054 700.303617,2.45937274 685.328243,0 C619.689913,0 94.595687,0 28.9573565,0 C12.5539826,2.69537315 0,17.5882414 0,35.5366939 C0,64.3908498 0,295.174413 0,324.016147 C0,343.889866 15.360313,360 34.3216696,360 C98.879687,360 615.405913,360 679.96393,360 C697.422783,360 711.839374,346.324397 714,328.624366 C714,269.090156 714,60.7017907 714,30.9408964 Z"/><g fill="#000" transform="translate(86 72)"><polygon points="0 0 57 0 57 218 0 218"/><polygon fill="none" points="0 0 57 0 57 218 0 218"/></g><g fill="#000" transform="translate(162 71)"><path d="M88.1066931,101.845033 C83.2531484,68.6206661 80.5539833,50.1530316 80.0215792,46.4669513 C77.6567143,28.6819243 75.4032829,13.2053516 73.2489034,0 C68.3582142,0 43.9542946,0 0,0 L0,218 L49.4888213,218 L49.6621622,74.0567037 L70.4878308,218 L105.737937,218 L125.486416,70.8546541 L125.672138,218 L175,218 L175,0 L101.19393,0 L88.1066931,101.845033 Z"/><path fill="none" d="M88.1066931,101.845033 C83.2531484,68.6206661 80.5539833,50.1530316 80.0215792,46.4669513 C77.6567143,28.6819243 75.4032829,13.2053516 73.2489034,0 C68.3582142,0 43.9542946,0 0,0 L0,218 L49.4888213,218 L49.6621622,74.0567037 L70.4878308,218 L105.737937,218 L125.486416,70.8546541 L125.672138,218 L175,218 L175,0 L101.19393,0 L88.1066931,101.845033 Z"/></g><g fill="#000" transform="translate(357 71)"><path d="M73.6982825,45.3499573 C74.3206291,48.1300313 74.6442493,54.434842 74.6442493,64.2892115 C74.6442493,72.7411329 74.6442493,140.356504 74.6442493,148.808426 C74.6442493,163.316937 73.6982825,172.203245 71.8187958,175.479761 C69.9268622,178.756277 64.8983018,180.382124 56.7455616,180.382124 C56.7455616,166.072189 56.7455616,51.5927128 56.7455616,37.2827783 C62.9316866,37.2827783 67.1511964,37.9405636 69.3916442,39.2313123 C71.6320919,40.534472 73.0759359,42.5698833 73.6982825,45.3499573 Z M99.3514087,215.778423 C106.110093,214.301509 111.785893,211.695189 116.391258,207.984287 C120.984176,204.260974 124.207931,199.11039 126.050077,192.520125 C127.90467,185.942272 129,172.873442 129,153.326046 C129,145.680843 129,84.432337 129,76.7747225 C129,56.1475662 128.190949,42.3216624 126.933809,35.2970111 C125.664222,28.2599488 122.515149,21.8682607 117.474141,16.1343581 C112.420687,10.4004555 105.052103,6.27998861 95.3683906,3.77295759 C85.6722308,1.26592656 69.8646276,0 42.3693555,0 C39.543902,0 25.4290814,0 0,0 L0,218 L68.8066384,218 C84.6640293,217.503558 94.8456195,216.771307 99.3514087,215.778423 Z"/><path fill="none" d="M73.6982825,45.3499573 C74.3206291,48.1300313 74.6442493,54.434842 74.6442493,64.2892115 C74.6442493,72.7411329 74.6442493,140.356504 74.6442493,148.808426 C74.6442493,163.316937 73.6982825,172.203245 71.8187958,175.479761 C69.9268622,178.756277 64.8983018,180.382124 56.7455616,180.382124 C56.7455616,166.072189 56.7455616,51.5927128 56.7455616,37.2827783 C62.9316866,37.2827783 67.1511964,37.9405636 69.3916442,39.2313123 C71.6320919,40.534472 73.0759359,42.5698833 73.6982825,45.3499573 Z M99.3514087,215.778423 C106.110093,214.301509 111.785893,211.695189 116.391258,207.984287 C120.984176,204.260974 124.207931,199.11039 126.050077,192.520125 C127.90467,185.942272 129,172.873442 129,153.326046 C129,145.680843 129,84.432337 129,76.7747225 C129,56.1475662 128.190949,42.3216624 126.933809,35.2970111 C125.664222,28.2599488 122.515149,21.8682607 117.474141,16.1343581 C112.420687,10.4004555 105.052103,6.27998861 95.3683906,3.77295759 C85.6722308,1.26592656 69.8646276,0 42.3693555,0 C39.543902,0 25.4290814,0 0,0 L0,218 L68.8066384,218 C84.6640293,217.503558 94.8456195,216.771307 99.3514087,215.778423 Z"/></g><g fill="#000" transform="translate(505 69)"><path d="M72.4806037,185.22023 C71.4323305,187.989716 66.8398955,189.393088 63.3706104,189.393088 C59.976202,189.393088 57.7174228,188.051812 56.5693141,185.356842 C55.4212054,182.674291 54.8596305,176.551616 54.8596305,166.963979 C54.8596305,161.201461 54.8596305,115.076482 54.8596305,109.313965 C54.8596305,99.3785895 55.3588082,93.1813993 56.369643,90.7099747 C57.3679985,88.2633886 59.5643804,87.0214667 62.9587888,87.0214667 C66.4280739,87.0214667 71.0829061,88.4248384 72.2809326,91.2440011 C73.4664796,94.0631638 74.0654929,100.086485 74.0654929,109.313965 C74.0654929,113.03973 74.0654929,131.668559 74.0654929,165.212869 C73.703589,176.700646 73.1794525,183.369767 72.4806037,185.22023 Z M0,218.14358 L51.2655509,218.14358 C53.3995356,209.810284 54.5726033,205.177915 54.8097127,204.246474 C59.4520654,209.835122 64.5561575,214.032818 70.1594273,216.814723 C75.7377382,219.609047 84.0864854,221 90.5508368,221 C99.548515,221 107.310728,218.652768 113.862436,213.945884 C120.401664,209.251419 124.569798,203.687609 126.341879,197.291711 C128.11396,190.883394 129,181.146727 129,168.05687 C129,161.934195 129,112.977634 129,106.854959 C129,93.6905872 128.700493,85.0964878 128.11396,81.0602416 C127.527426,77.0239955 125.780304,72.9132341 122.872594,68.7031189 C119.964883,64.4930037 115.734352,61.2267491 110.19348,58.8919359 C104.652607,56.5571228 98.1133791,55.3897162 90.5757957,55.3897162 C84.0240882,55.3897162 75.6379027,56.6937342 70.0471123,59.2645125 C64.4688014,61.8352908 59.4021476,65.7349255 54.8596305,70.9634167 C54.8596305,66.2316943 54.8596305,42.5855015 54.8596305,0 L0,0 L0,218.14358 Z"/><path fill="none" d="M72.4806037,185.22023 C71.4323305,187.989716 66.8398955,189.393088 63.3706104,189.393088 C59.976202,189.393088 57.7174228,188.051812 56.5693141,185.356842 C55.4212054,182.674291 54.8596305,176.551616 54.8596305,166.963979 C54.8596305,161.201461 54.8596305,115.076482 54.8596305,109.313965 C54.8596305,99.3785895 55.3588082,93.1813993 56.369643,90.7099747 C57.3679985,88.2633886 59.5643804,87.0214667 62.9587888,87.0214667 C66.4280739,87.0214667 71.0829061,88.4248384 72.2809326,91.2440011 C73.4664796,94.0631638 74.0654929,100.086485 74.0654929,109.313965 C74.0654929,113.03973 74.0654929,131.668559 74.0654929,165.212869 C73.703589,176.700646 73.1794525,183.369767 72.4806037,185.22023 Z M0,218.14358 L51.2655509,218.14358 C53.3995356,209.810284 54.5726033,205.177915 54.8097127,204.246474 C59.4520654,209.835122 64.5561575,214.032818 70.1594273,216.814723 C75.7377382,219.609047 84.0864854,221 90.5508368,221 C99.548515,221 107.310728,218.652768 113.862436,213.945884 C120.401664,209.251419 124.569798,203.687609 126.341879,197.291711 C128.11396,190.883394 129,181.146727 129,168.05687 C129,161.934195 129,112.977634 129,106.854959 C129,93.6905872 128.700493,85.0964878 128.11396,81.0602416 C127.527426,77.0239955 125.780304,72.9132341 122.872594,68.7031189 C119.964883,64.4930037 115.734352,61.2267491 110.19348,58.8919359 C104.652607,56.5571228 98.1133791,55.3897162 90.5757957,55.3897162 C84.0240882,55.3897162 75.6379027,56.6937342 70.0471123,59.2645125 C64.4688014,61.8352908 59.4021476,65.7349255 54.8596305,70.9634167 C54.8596305,66.2316943 54.8596305,42.5855015 54.8596305,0 L0,0 L0,218.14358 Z"/></g></g></svg>