<svg xmlns="http://www.w3.org/2000/svg" width="932" height="932" viewBox="0 0 932 932"><g fill="none" fill-rule="evenodd"><line x1="175.261" x2="175.261" y1="378.325" y2="378.586" stroke="red" stroke-width=".5"/><g stroke="#979797" transform="translate(283.32 264.05)"><polyline points="217.166 403.949 244.172 280.988 246.442 225.301 241.318 188.509 226.994 160.09 220.407 150.269 216.225 148.451 225.216 142.642"/><polyline points="170.638 403.949 210.815 327.678 244.172 275.815"/><polyline points="213.506 234.063 204.206 257.488 141.919 351.95 106.544 403.949"/><polyline points="240.482 189.268 201.168 204.949 183.08 219.54 141.361 200.263 189.353 180.046 226.994 161.428"/><polyline points="219.204 152.726 137.388 189.268 149.726 195.091"/><polyline points="181.93 169.284 181.302 156.329 154.319 166.254 137.68 161.501 148.262 140.27 132.108 145.045 112.518 130.574 129.337 114.118"/><polyline points="201.168 73.684 195.104 121.38 186.844 157.687 206.124 136.268 220.407 86.326 221.452 72.169"/><polyline points="195.986 110.357 190.922 85.699 195.986 58.221 187.889 83.192"/><polyline points="215.326 148.451 201.168 147.75 213.611 134.074 224.275 101.58 225.06 149.851 238.203 130.522 246.442 108.058"/><polyline points="250.519 88.416 246.651 138.843 247.173 153.612 259.302 114.745 262.021 144.209 265.653 124.566 267.144 99.177 270.908 134.074 273.85 94.006 270.908 45.394 247.173 11.936 215.782 0 171.474 8.501 143.766 24.214 128.415 46.939 119.149 76.087 112.399 99.073 115.19 103.304 123.273 75.223 127.037 92.491 129.337 86.326 141.361 68.181 141.361 77.132"/><polyline points="128.919 86.849 138.225 44.325 139.689 42.444"/><line x1="146.067" x2="141.257" y1="56.26" y2="68.181"/><polyline points="142.721 71.401 165.096 41.259 151.608 73.684 158.899 95.782 172.206 76.087 170.324 62.922 174.82 36.217"/><polyline points="173.251 77.132 174.606 86.124 174.715 86.849 185.746 81.99 190.922 108.894 186.112 123.104 170.324 130.779 159.136 117.33 159.136 105.081 172.938 88.12"/><polyline points="141.884 79.029 152.026 100.954 147.737 120.648 137.293 124.88 125.678 109.939 131.167 92.073 140.734 77.968"/><polyline points="164.991 213.062 118.568 289.02 71.726 403.949"/><polyline points="120.032 290.608 28.487 329.835 12.547 297.317 49.246 213.375 103.721 241.321 77.41 270.37 40.568 295.184 85.737 268.281 161.018 217.659"/><polyline points="73.124 223.51 125.678 217.45 120.928 190.484 76.015 213.375 85.737 177.549 70.733 157.269 62.183 172.941 19.918 196.416 17.67 209.301 58.903 191.225 52.279 211.695"/><polyline points="19.918 195.091 78.732 167.613 90.547 151.863 104.499 146.179 118.568 153.247 123.691 165.523 114.386 178.479 101.588 184.54 88.142 179.106 57.093 190.484"/><polyline points="31.681 133.447 29.145 123.594 37.536 132.089"/><line x1="37.327" x2="32.504" y1="121.85" y2="120.728"/><line x1="31.681" x2="46.319" y1="118.924" y2="118.924"/><line x1="32.204" x2="41.405" y1="117.253" y2="108.894"/><polyline points="35.863 108.999 29.145 115.477 30.935 111.721"/><line x1="27.608" x2="27.927" y1="113.805" y2="98.342"/><line x1="27.289" x2="28.962" y1="124.671" y2="130.86"/><polyline points="17.043 132.089 23.63 124.671 22.689 123.939 9.619 133.447"/><line x1="24.885" x2="23.316" y1="113.073" y2="107.373"/><line x1="23.63" x2="18.703" y1="115.477" y2="107.373"/><line x1="21.434" y1="118.924" y2="115.894"/><polyline points="118.359 172.419 101.943 149.119 93.631 151 113.236 177.549 106.701 181.792 88.142 157.582 80.509 168.449 116.372 151.863 120.089 156.12 85.096 174.926 91.906 180.171 123.273 163.329"/></g></g></svg>