<svg xmlns="http://www.w3.org/2000/svg" width="932" height="932" viewBox="0 0 932 932"><g fill="none" transform="translate(104 410)"><path fill="#333" d="M677.028932,40 L677.028932,50.8987186 L689.261717,50.8987186 L689.261717,40 L677.028932,40 Z M700.563125,44.4744298 L700.563125,57.2838585 L695.797246,57.2838585 L695.797246,67.0285681 L700.563125,67.0285681 L700.563125,87.9855396 C700.563091,93.4681401 701.654506,97.3399953 703.843904,99.6021632 C706.054612,101.864331 709.412772,103 713.919955,103 C715.937471,103 717.646857,102.873031 719.042,102.634435 C720.437143,102.421585 721.75438,102.116859 722.999127,101.717611 L722.999127,91.8577475 L722.032815,91.8577475 C721.646605,92.1238538 720.960125,92.4167646 719.972853,92.7361274 C719.007065,93.0554902 718.223989,93.2170233 717.622927,93.2170233 C716.163503,93.2170233 715.048716,92.9480955 714.276121,92.4155302 C713.525011,91.856513 712.999758,91.1160357 712.699314,90.1845756 C712.377385,89.2531154 712.207075,88.2013873 712.185765,87.0304491 C712.163057,85.8594051 712.150829,84.484893 712.150829,82.9145309 L712.150829,67.0282154 L723,67.0282154 L723,57.2835058 L712.15048,57.2835058 L712.15048,44.4744298 L700.563125,44.4744298 Z M677.34859,57.2838585 L677.34859,102.12162 L688.940486,102.12162 L688.940486,57.2838585 L677.34859,57.2838585 Z M661.346806,93.9356337 C660.659977,93.9356337 659.932274,94.4135316 659.159679,95.3717964 C658.387084,96.3300611 658,97.2384199 658,98.0899953 C658,98.9149424 658.387084,99.8171291 659.159679,100.801846 C659.932274,101.760111 660.659977,102.238008 661.346806,102.238008 C662.012149,102.238008 662.730769,101.760111 663.503365,100.801846 C664.297445,99.8171291 664.693437,98.9151187 664.693437,98.0899953 C664.693437,97.2382436 664.29727,96.3298848 663.503365,95.3717964 C662.730769,94.4135316 662.012149,93.9356337 661.346806,93.9356337 L661.346806,93.9356337 Z"/><path fill="#D40000" d="M294,3.00106652 L294,103.902541 L316.337724,103.902541 L316.337724,71.0310153 L330.242094,71.0310153 C336.563952,71.0310118 341.841992,70.0131187 346.069546,67.9800705 C350.335871,65.9470398 354.190457,62.944001 357.642252,58.9683315 C360.163206,56.0319065 362.105236,52.416231 363.462727,48.1244521 C364.820218,43.7875647 365.496507,39.3609848 365.496507,34.8433137 C365.496507,29.0155721 364.56707,24.0270588 362.705388,19.8709552 C360.882477,15.7146768 358.231177,12.3060109 354.740611,9.64058671 C351.831777,7.42694707 348.474891,5.7754156 344.673987,4.69123746 C340.911853,3.56182842 336.277121,3 330.769617,3 L294,3.00106652 Z M531.657388,6.043619 L531.657388,27.7971174 L523.04597,27.7971174 L523.04597,44.3363851 L531.657388,44.3363851 L531.657388,79.9109255 C531.657388,89.2172687 533.64082,95.7936719 537.596981,99.6345403 C541.591737,103.474535 547.662202,105.387975 555.806796,105.387975 C559.452619,105.387975 562.535481,105.189358 565.056435,104.782857 C567.577389,104.421464 569.95484,103.902017 572.204226,103.22434 L572.204226,86.48593 L570.459908,86.48593 C569.76169,86.9377146 568.525423,87.4361813 566.741282,87.9781829 C564.995911,88.5203594 563.581054,88.7906609 562.495132,88.7906609 C559.857691,88.7906609 557.841278,88.3345053 556.445017,87.431111 C555.087526,86.4824332 554.137388,85.2235907 553.594251,83.6423446 C553.012519,82.061151 552.696918,80.2745911 552.658323,78.286669 C552.617973,76.2989216 552.598676,73.9716365 552.598676,71.3062123 L552.598676,44.3372593 L572.204928,44.3372593 L572.204928,27.7979916 L552.598676,27.7979916 L552.598676,6.043619 L531.657388,6.043619 Z M316.350005,21.8368477 L320.18775,21.8368477 C323.872343,21.8368477 326.826789,21.9085317 329.037579,22.0441021 C331.24837,22.134494 333.517931,22.7174255 335.845033,23.8015861 C337.590403,24.6147635 339.121396,26.0592853 340.440117,28.1374245 C341.758837,30.1704552 342.41425,32.6117355 342.41425,35.4577687 C342.41425,38.3490852 342.086544,40.8115211 341.427271,42.8445518 C340.806769,44.8322991 339.781897,46.5472972 338.346865,47.9928681 C336.679211,49.6192227 334.600169,50.7006034 332.117986,51.2427799 C329.674572,51.7849039 326.550133,52.0635278 322.749228,52.0635278 L316.350005,52.0635278 L316.350005,21.8368477 Z M617.004933,25.426647 C605.485909,25.426647 596.407492,29.1140066 589.774418,36.4777109 C583.180991,43.7963067 579.886558,53.7308472 579.886558,66.2895499 C579.886558,78.9842775 583.380457,88.7616376 590.361588,95.629323 C597.342894,102.496134 607.384081,105.934348 620.493744,105.934348 C625.574599,105.934348 630.20933,105.435881 634.398114,104.442095 C638.586898,103.448309 643.04304,101.847306 647.774785,99.6336661 L647.774785,80.0429291 L645.451717,80.0429291 C643.047075,82.1661769 639.773343,84.1596939 635.623329,86.0119408 C631.473316,87.8641878 627.186992,88.7892622 622.765586,88.7892622 C615.784455,88.7892622 610.485539,87.2095896 606.878662,84.0470974 C603.310556,80.8847801 601.377122,76.3230494 601.066784,70.3596326 L649,70.3596326 L649,61.8204841 C649,50.074609 646.327999,41.0775565 640.975752,34.8427891 C635.623505,28.5632629 627.631887,25.4248986 617.004758,25.4248986 L617.004933,25.426647 Z M406.697355,25.6339014 C401.694217,25.6339014 396.690026,26.1028552 391.686888,27.0515679 C386.72252,27.9551021 383.133187,28.7449734 380.922571,29.4225629 L380.922571,47.7946703 L382.845654,47.7946703 C384.552079,47.0266715 387.361267,45.9370034 391.278483,44.5365411 C395.195698,43.0908828 398.880291,42.3727306 402.332086,42.3727306 C408.072213,42.3727306 412.412395,43.1837399 415.359999,44.8101645 C418.307603,46.3913581 419.784914,49.2804542 419.784914,53.4818412 L419.784914,53.8880627 C413.618137,54.2946513 407.663808,54.9281988 401.924208,55.786642 C396.184081,56.6449977 391.379356,58.0896245 387.500911,60.1224803 C383.583696,62.155511 380.554516,64.9387769 378.421441,68.4626618 C376.288191,71.9863719 375.221917,76.526947 375.221917,82.0836877 C375.221917,89.0408908 377.313063,94.7556863 381.501847,99.2282489 C385.690631,103.700812 390.893936,105.935257 397.099484,105.935257 C399.736925,105.935257 402.155777,105.664956 404.366568,105.122779 C406.577359,104.625711 408.710083,103.835962 410.765617,102.751784 C412.239419,101.938607 413.811989,100.827853 415.479819,99.4273908 C417.147473,98.0269285 418.541629,96.8315526 419.666497,95.8375915 L419.666497,103.90415 L440.437616,103.90415 L440.437616,52.1307534 C440.437616,43.0050192 437.786316,36.3146208 432.472839,32.0679505 C427.198133,27.7761717 418.604784,25.6339014 406.698407,25.6339014 L406.697355,25.6339014 Z M488.957301,25.7001655 C478.640686,25.7001655 470.500127,28.1414458 464.526676,33.0205097 C458.592521,37.854465 455.625795,43.9241841 455.625795,51.2422554 C455.625795,56.9344966 457.052932,61.7032369 459.922996,65.5432311 C462.793059,69.3381169 467.195519,72.1425383 473.129498,73.9496767 C475.301518,74.6273361 477.708091,75.2102851 480.345356,75.7071607 C483.021392,76.1589279 485.133415,76.5938579 486.684758,77.0004641 C489.942701,77.7684629 492.158579,78.5794897 493.322043,79.437898 C494.485506,80.2510753 495.066361,81.5816019 495.066361,83.4338488 C495.066361,85.511988 494.074645,87.0916606 492.096652,88.1760135 C490.118659,89.2150832 487.077199,89.7347054 482.966131,89.7347054 C479.824675,89.7347054 476.87865,89.3715643 474.124898,88.648604 C471.371321,87.8807101 468.902294,86.9850086 466.730274,85.945939 C464.20932,84.771369 462.25501,83.6817709 460.858749,82.6878098 C459.501258,81.6487402 458.297972,80.7025102 457.250819,79.8442243 L455.327737,79.8442243 L455.327737,99.8982853 C458.1978,101.434248 461.998704,102.836634 466.730274,104.101596 C471.462019,105.366557 476.740059,106 482.557726,106 C493.068368,106 501.346466,103.609248 507.397107,98.8205762 C513.447397,93.9866209 516.476577,87.6383829 516.476577,79.7770861 C516.476577,74.4011291 515.157155,69.9238458 512.519714,66.3550272 C509.882273,62.7409252 505.807696,60.1010275 500.300191,58.4293896 C497.818008,57.7065692 495.336701,57.1152978 492.854517,56.6635132 C490.411104,56.1665676 488.120667,55.6764758 485.987417,55.1795302 C482.108972,54.2308175 479.648542,53.2764051 478.601214,52.3275525 C477.554062,51.3788398 477.027065,50.006037 477.027065,48.1988986 C477.027065,46.2111513 478.176669,44.673615 480.464825,43.5894369 C482.791928,42.5051888 485.642518,41.964516 489.016772,41.964516 C493.089069,41.964516 497.101544,42.7543872 501.05753,44.3355109 C505.052287,45.8715261 508.600043,47.8779288 511.702729,50.3625692 L513.506693,50.3625692 L513.506693,31.1197623 C510.985564,29.8096394 507.47956,28.5847682 502.980438,27.4554815 C498.520261,26.280894 493.843952,25.6979975 488.95695,25.6979975 L488.957301,25.7001655 Z M615.320789,40.6725239 C619.664654,40.6725239 622.863827,41.9607744 624.919361,44.5357718 C626.974895,47.1108041 628.053625,50.95447 628.169936,56.0594262 L601.007839,56.0594262 C601.318002,50.6834692 602.766016,46.7763366 605.364686,44.3368047 C607.963181,41.8972728 611.287086,40.6725239 615.320613,40.6725239 L615.320789,40.6725239 Z M419.661761,68.1885838 L419.661761,84.0482164 C418.032701,85.674571 416.132425,86.9839421 413.960404,87.9779032 C411.82733,88.9718643 409.715307,89.4701561 407.621003,89.4701561 C404.983562,89.4701561 403.050129,89.2633213 401.809124,88.8566452 C400.56812,88.4048606 399.493074,87.729107 398.601004,86.8255378 C397.670163,85.9219686 397.089309,84.9675211 396.856686,83.9735601 C396.624064,82.979599 396.507752,81.6997757 396.507752,80.1185296 C396.507752,77.7241062 397.055626,75.8024481 398.141548,74.3567024 C399.266241,72.8658657 400.871968,71.733939 402.966272,70.9658702 C404.672697,70.3333892 407.17488,69.7927164 410.471593,69.3409493 C413.768307,68.8440037 416.830468,68.4596546 419.661761,68.1885838 L419.661761,68.1885838 Z"/><path fill="#333" d="M11.7524126,0 L11.7524126,18.9228154 L31.8818783,18.9228154 L31.8818783,59.885536 C31.8818783,64.0763872 31.8184964,67.5380527 31.7005288,70.2553228 C31.582368,72.9264397 31.0773318,75.385147 30.1720764,77.6417592 C29.2274576,79.9443498 27.6315324,81.7441501 25.3880582,83.0336427 C23.1839125,84.3231354 20.0132363,84.9689307 15.8804191,84.9689307 C12.6923612,84.9689307 10.0775497,84.6201593 8.03089309,83.9294345 C5.98423646,83.1925741 4.01360303,82.4089311 2.12425997,81.5799915 L0,81.5799915 L0,102.446836 C2.71576604,103.091582 5.86537342,103.569548 9.44706641,103.892096 C13.0287594,104.260622 16.8436136,104.449955 20.8975984,104.449955 C26.8800792,104.449955 31.9037547,103.666225 35.9577396,102.100512 C40.0117245,100.488646 43.4729742,98.2323837 46.3460539,95.3310252 C49.0618199,92.6137551 51.1083009,89.2982415 52.4858482,85.3837851 C53.8634129,81.4231755 54.549711,77.1863459 54.549711,72.6731216 L54.549711,0.00104893655 L11.7524126,0 Z M233.852493,3.10170539 L233.852493,25.2779723 L225.113513,25.2779723 L225.113513,42.1382289 L233.852493,42.1382289 L233.852493,78.403462 C233.852493,87.8903938 235.856836,94.5944969 239.871317,98.5098275 C243.925302,102.424284 250.085638,104.374956 258.350395,104.374956 C262.050073,104.374956 265.178787,104.172511 267.737064,103.758007 C270.295516,103.38948 272.716671,102.859942 274.999473,102.169217 L274.999473,85.1059917 L273.229169,85.1059917 C272.520731,85.5664749 271.257306,86.0745098 269.446796,86.6272994 C267.675613,87.1799141 266.239776,87.4554348 265.137703,87.4554348 C262.461265,87.4554348 260.414784,86.990581 258.997909,86.0694399 C257.620361,85.1023204 256.656114,83.8191214 256.104989,82.2072555 C255.514537,80.5953897 255.20307,78.7740862 255.163741,76.7477156 C255.12336,74.721345 255.104047,72.3488253 255.104047,69.63173 L255.104047,42.139103 L275,42.139103 L275,25.2788465 L255.104047,25.2788465 L255.104047,3.10170539 L233.852493,3.10170539 Z M190.512252,23.13989 C180.042823,23.13989 171.782104,25.6286668 165.719562,30.6023743 C159.697577,35.5301034 156.686848,41.7176053 156.686848,49.1790406 C156.686848,54.9817577 158.143755,59.8428793 161.056338,63.7575105 C163.968922,67.6259885 168.436557,70.4850399 174.458542,72.3271473 C176.662688,73.017942 179.104911,73.6122345 181.781348,74.118731 C184.497114,74.5792666 186.640336,75.022652 188.214701,75.4371218 C191.52092,76.2200306 193.760882,77.0467849 194.941612,77.9218777 C196.122342,78.7508348 196.711916,80.1071622 196.711916,81.9954228 C196.711916,84.113925 195.714134,85.7242174 193.706806,86.8296217 C191.699478,87.8888728 188.604473,88.418411 184.432328,88.418411 C181.24427,88.418411 178.25461,88.0481364 175.460187,87.3112584 C172.665764,86.5284021 170.168762,85.6154777 167.964616,84.5562266 C165.40634,83.358848 163.414462,82.2480417 161.997586,81.2349438 C160.620039,80.1757102 159.398927,79.2111955 158.336183,78.3362076 L156.39329,78.3362076 L156.39329,98.7799811 C159.305874,100.345694 163.162865,101.775219 167.964792,103.064712 C172.766543,104.354205 178.114151,105 184.017975,105 C194.684222,105 203.094002,102.562796 209.233796,97.68122 C215.373766,92.7534909 218.439098,86.281902 218.439098,78.2689009 C218.439098,72.788557 217.100002,68.2244593 214.423564,64.5862228 C211.747126,60.902008 207.620805,58.2107865 202.031784,56.506789 C199.512835,55.7699286 196.986162,55.1671922 194.467213,54.7066391 C191.987593,54.2000552 189.671783,53.7004467 187.507141,53.1938628 C183.571317,52.2267433 181.065712,51.2536798 180.002968,50.2865603 C178.940223,49.3194408 178.41403,47.9199846 178.41403,46.0778772 C178.41403,44.0515066 179.571935,42.4842206 181.894066,41.3789911 C184.255526,40.2737092 187.148445,39.7225455 190.572649,39.7225455 C194.705291,39.7225455 198.777184,40.5277441 202.791665,42.1396449 C206.84565,43.7054624 210.454381,45.7507838 213.60311,48.2837908 L215.433812,48.2837908 L215.433812,28.6686772 C212.875535,27.3331363 209.308766,26.084622 204.743161,24.9332394 C200.216884,23.7358608 195.471316,23.1416557 190.512076,23.1416557 L190.512252,23.13989 Z M74.0896722,25.2779723 L74.0896722,75.7739528 C74.0896722,85.3991695 76.0603056,92.6758172 79.9963053,97.6040707 C83.9716334,102.5318 89.6182426,104.998899 96.9389422,104.998899 C101.465219,104.998899 105.364524,104.099086 108.631238,102.302957 C111.897953,100.460849 115.498257,97.7911311 119.434081,94.2911795 L119.434081,102.860816 L140.685459,102.860816 L140.685459,25.2779723 L119.434081,25.2779723 L119.434081,80.2702194 C117.387424,81.7899886 115.265271,82.9353923 113.061126,83.7184235 C110.85698,84.5012798 108.844209,84.8930576 107.033698,84.8930576 C104.317932,84.8930576 102.195779,84.5012798 100.660743,83.7184235 C99.1650346,82.9355147 98.0408395,81.6953745 97.2928977,79.9913771 C96.5056275,78.2873971 95.9919004,76.1473743 95.7557545,73.5683889 C95.5589369,70.9434252 95.4621961,67.670918 95.4621961,63.7564616 L95.4621961,25.2779723 L74.0896722,25.2779723 Z"/></g></svg>