<svg xmlns="http://www.w3.org/2000/svg" width="932" height="932" viewBox="0 0 932 932"><path d="M187.21205,0.323047852 C192.294916,0.0435155782 197.380652,-0.0546079083 202.46926,0.0286773925 C207.558825,0.111005391 212.639297,0.374742177 217.710678,0.81988775 C222.781102,1.26503332 227.829514,1.88967308 232.855914,2.69380702 C237.881356,3.49889826 242.872345,4.48156908 247.828881,5.64181947 C303.681063,18.9114654 348.011382,55.2970902 375.298646,105.407558 C385.914666,124.903498 393.893549,146.103915 402.591652,166.526045 L442.28796,258.928215 C450.265407,277.370165 457.655708,296.716766 468.235839,313.834767 C479.480638,332.025426 494.344502,344.686227 515.486102,349.555545 C539.73427,355.139968 568.307802,352.483454 589.551327,339.027135 C604.261586,329.709233 615.146057,315.483242 618.967537,298.37242 C622.744515,281.45976 620.170543,262.064337 607.185836,249.673495 C594.156627,237.241009 574.354411,231.260263 557.683168,225.560964 C518.730484,212.246803 466.945264,196.171304 443.727834,159.397972 C429.350627,136.62375 427.175742,105.716288 433.123298,79.8145596 C438.750722,55.3071418 453.003034,34.1727788 474.457588,20.8500026 C500.909351,4.42556689 537.724475,0.182324413 567.808224,7.19552112 C592.238709,12.8890766 612.24334,26.9800879 627.141658,46.9728679 C631.05645,52.2255857 634.454438,57.8114447 637.92851,63.3585329 C623.32592,70.5095811 608.797978,78.0598244 594.481065,85.7680226 C586.529458,73.4992362 574.243873,62.521372 560.453813,57.4395327 C545.259768,51.8378783 526.541406,52.1351206 511.81105,59.0434927 C511.062641,59.3871643 510.323802,59.7495032 509.594534,60.1305095 C508.864308,60.5115158 508.144132,60.9102322 507.434005,61.3266587 C506.723878,61.7430853 506.024756,62.1772218 505.336641,62.6290685 C504.647569,63.0809152 503.970938,63.5495147 503.306749,64.034867 C502.641603,64.5202192 501.988898,65.0218457 501.348635,65.5397462 C500.708372,66.0576468 500.081508,66.5908641 499.468042,67.1393984 C498.854576,67.6888899 498.255466,68.2532196 497.670712,68.8323875 C497.085,69.4115554 496.514123,70.0046042 495.95808,70.6115338 C495.402994,71.2194208 494.862742,71.84071 494.337324,72.4754014 C493.812864,73.1100929 493.304673,73.7572292 492.812752,74.4168105 C492.319874,75.0763918 491.843744,75.7479394 491.384362,76.4314532 C490.925938,77.1149671 490.484261,77.8099685 490.059334,78.5164576 C489.635363,79.2219894 489.229097,79.9375729 488.840537,80.6632081 C488.451977,81.3888432 488.0816,82.1240514 487.729408,82.8688326 C487.377215,83.6136138 487.044164,84.366532 486.730253,85.1275874 C486.415385,85.8886427 486.120137,86.6568778 485.844508,87.4322927 C481.503352,99.7053869 481.420089,115.057165 487.119292,126.923885 C497.801348,149.166804 528.846927,157.117678 550.480927,164.08636 C562.208555,167.758572 573.871582,171.626552 585.470009,175.6903 C617.078331,186.989818 650.618926,203.150038 665.610555,235.164621 C677.871736,261.347796 678.438785,298.323598 668.599406,325.384141 C657.288571,356.495508 633.469638,378.866227 603.945761,392.55948 C567.624472,409.40465 521.239856,409.871335 483.91367,396.202494 C426.898678,372.851018 409.81112,320.705804 387.055942,268.451458 L348.940194,181.148359 L336.345962,152.228257 C227.97642,-12.6122729 98.9872505,94.488568 98.1089704,95.3070615 C97.2305946,96.1255549 96.3623635,96.9545787 95.5042771,97.7941329 C94.6461906,98.633687 72.6207597,128.68201 64.8171592,154.306599 C57.0135588,179.931189 56.5223555,234.460046 57.5109829,235.164621 C58.4996103,235.869195 73.3916593,340.553553 177.290845,343.883529 C281.19003,347.213505 324.555169,279.827081 325.154279,278.796067 C325.754346,277.765052 326.341972,276.727336 326.917156,275.68292 C327.49234,274.637545 328.054604,273.58547 328.603947,272.526694 C331.562652,280.85666 335.602338,289.053082 339.106558,297.184887 C344.317667,309.275615 349.291908,321.560197 354.882007,333.475739 C346.406418,343.099499 337.876277,352.191956 328.084272,360.510434 C326.061079,362.222091 276.411516,400.129197 202.46926,400.129197 C128.527004,400.129197 84.5649103,376.82757 64.8171592,363.191558 C45.0694082,349.555545 4.49021686,301.371234 0.484719303,230.938245 C-3.52077826,160.505257 18.1534964,107.741124 33.9893558,84.366532 C49.8252152,60.9919404 92.8450231,2.69380702 187.21205,0.323047852 Z" transform="translate(130.554 262)"/></svg>