<svg xmlns="http://www.w3.org/2000/svg" width="932" height="932" viewBox="0 0 932 932"><path d="M191.765639,0.323047852 C196.848504,0.0435155782 201.93424,-0.0546079083 207.022848,0.0286773925 C212.112413,0.111005391 217.192886,0.374742177 222.264266,0.81988775 C227.33469,1.26503332 232.383102,1.88967308 237.409502,2.69380702 C242.434944,3.49889826 247.425933,4.48156908 252.382469,5.64181947 C308.234651,18.9114654 352.56497,55.2970902 379.852234,105.407558 C390.468254,124.903498 398.447138,146.103915 407.14524,166.526045 L446.841548,258.928215 C454.818995,277.370165 462.209296,296.716766 472.789427,313.834767 C484.034226,332.025426 498.89809,344.686227 520.03969,349.555545 C544.287858,355.139968 572.86139,352.483454 594.104915,339.027135 C608.815174,329.709233 619.699645,315.483242 623.521125,298.37242 C627.298103,281.45976 624.724131,262.064337 611.739424,249.673495 C598.710215,237.241009 578.908,231.260263 562.236756,225.560964 C523.284072,212.246803 471.498852,196.171304 448.281422,159.397972 C433.904215,136.62375 431.729331,105.716288 437.676886,79.8145596 C443.30431,55.3071418 457.556622,34.1727788 479.011176,20.8500026 C505.46294,4.42556689 542.278064,0.182324413 572.361813,7.19552112 C596.792297,12.8890766 616.796928,26.9800879 631.695246,46.9728679 C635.610038,52.2255857 639.008026,57.8114447 642.482099,63.3585329 C627.879508,70.5095811 613.351566,78.0598244 599.034653,85.7680226 C591.083046,73.4992362 578.797461,62.521372 565.007401,57.4395327 C549.813357,51.8378783 531.094994,52.1351206 516.364638,59.0434927 C515.616229,59.3871643 514.87739,59.7495032 514.148122,60.1305095 C513.417897,60.5115158 512.69772,60.9102322 511.987593,61.3266587 C511.277466,61.7430853 510.578344,62.1772218 509.890229,62.6290685 C509.201157,63.0809152 508.524526,63.5495147 507.860337,64.034867 C507.195191,64.5202192 506.542486,65.0218457 505.902223,65.5397462 C505.26196,66.0576468 504.635096,66.5908641 504.02163,67.1393984 C503.408164,67.6888899 502.809054,68.2532196 502.2243,68.8323875 C501.638588,69.4115554 501.067711,70.0046042 500.511668,70.6115338 C499.956582,71.2194208 499.41633,71.84071 498.890912,72.4754014 C498.366452,73.1100929 497.858261,73.7572292 497.36634,74.4168105 C496.873462,75.0763918 496.397332,75.7479394 495.93795,76.4314532 C495.479526,77.1149671 495.03785,77.8099685 494.612922,78.5164576 C494.188951,79.2219894 493.782685,79.9375729 493.394125,80.6632081 C493.005565,81.3888432 492.635188,82.1240514 492.282996,82.8688326 C491.930803,83.6136138 491.597752,84.366532 491.283841,85.1275874 C490.968973,85.8886427 490.673725,86.6568778 490.398096,87.4322927 C486.05694,99.7053869 485.973678,115.057165 491.67288,126.923885 C502.354936,149.166804 533.400515,157.117678 555.034515,164.08636 C566.762143,167.758572 578.42517,171.626552 590.023597,175.6903 C621.631919,186.989818 655.172514,203.150038 670.164143,235.164621 C682.425324,261.347796 682.992373,298.323598 673.152995,325.384141 C661.84216,356.495508 638.023226,378.866227 608.499349,392.55948 C572.17806,409.40465 525.793444,409.871335 488.467258,396.202494 C431.452266,372.851018 414.364708,320.705804 391.60953,268.451458 L353.493782,181.148359 L340.89955,152.228257 C337.669524,144.814429 334.555778,137.310136 330.685489,130.200731 C329.839461,128.666175 328.965201,127.147894 328.062707,125.645886 C327.161171,124.143879 326.23188,122.659103 325.274835,121.191559 C324.316834,119.724014 323.332513,118.274658 322.321873,116.843491 C321.311234,115.413282 320.274276,114.00174 319.210999,112.608865 C318.147722,111.21599 317.058605,109.843697 315.943648,108.491986 C314.829648,107.140275 313.690764,105.809146 312.526998,104.4986 C311.364188,103.18901 310.176974,101.901438 308.965355,100.635885 C307.753736,99.3693738 306.519627,98.1263168 305.263027,96.9067136 C304.00547,95.6861532 302.725901,94.4895253 301.42432,93.31683 C300.121782,92.1450919 298.798667,90.9972865 297.454976,89.8734136 C296.110328,88.7495407 294.745582,87.6515149 293.360738,86.5793363 C291.975894,85.5062004 290.571431,84.4593904 289.147348,83.4389061 C287.723265,82.4174645 286.280999,81.4233061 284.820548,80.4564308 C283.360098,79.4885981 281.881942,78.5485273 280.386081,77.6362182 C278.891177,76.7239091 277.379524,75.8393617 275.851124,74.9825762 C274.322723,74.1267479 272.779009,73.2991601 271.219983,72.4998126 C270.141394,71.94362 269.056583,71.4008296 267.965552,70.8714414 C266.874521,70.3420532 265.776791,69.8255886 264.672361,69.3220476 C263.568888,68.8194639 262.459194,68.3302824 261.34328,67.8545032 C260.227366,67.3787239 259.105709,66.9168256 257.97831,66.4688081 C256.850911,66.0198333 255.718249,65.5852181 254.580322,65.1649624 C253.443353,64.7437493 252.300642,64.3368959 251.152188,63.9444019 C250.004691,63.551908 248.852409,63.1728162 247.695342,62.8071268 C246.539231,62.4423946 245.378336,62.0920219 244.212655,61.7560088 C243.046975,61.4199957 241.877466,61.0978635 240.704129,60.7896122 C239.530792,60.4813608 238.354105,60.1879477 237.174069,59.9093727 C235.993075,59.6298404 234.809211,59.3646677 233.622475,59.1138545 C232.435739,58.8639986 231.245654,58.6285022 230.052219,58.4073654 C228.859741,58.1862285 227.664871,57.9794512 226.467608,57.7870335 C225.269387,57.5946157 224.069253,57.4170361 222.867205,57.2542947 C221.665156,57.0915533 220.461672,56.9436501 219.256753,56.8105851 C218.050876,56.6765628 216.843564,56.5573787 215.634816,56.4530327 C214.426069,56.3496441 213.216364,56.2606149 212.005702,56.1859454 C210.79504,56.1112758 209.583422,56.0514444 208.370846,56.0064512 C207.159227,55.961458 205.946651,55.9313029 204.733118,55.9159861 C203.520542,55.9006693 202.307966,55.9001906 201.095391,55.9145502 C199.881858,55.9289097 198.669282,55.9576288 197.457663,56.0007074 C196.245087,56.0447433 195.033468,56.1036174 193.822806,56.1773296 C192.612145,56.2500846 191.40244,56.3381564 190.193692,56.4415451 C188.984945,56.5439764 187.777632,56.661246 186.571756,56.7933537 C185.365879,56.9264187 184.161917,57.0738432 182.959869,57.2356273 C181.75782,57.3964541 180.557686,57.5725977 179.359466,57.7640582 C178.161245,57.9545614 176.965896,58.1599027 175.773419,58.3800822 C174.579984,58.6002618 173.389898,58.8352795 172.203163,59.0851354 C171.016427,59.334034 169.832562,59.5972921 168.651569,59.8749098 C167.470576,60.1534848 166.29341,60.4459406 165.120073,60.7522774 C163.945779,61.0595714 162.775792,61.3807463 161.610111,61.7158021 C160.444431,62.0508579 159.283057,62.4002733 158.125989,62.7640482 C156.983278,63.1316522 155.844873,63.5131372 154.710775,63.9085031 C153.577634,64.3029116 152.449278,64.7116797 151.325707,65.1348073 C150.202136,65.5569776 149.083829,65.9930288 147.970786,66.4429609 C146.857743,66.8938503 145.750442,67.3576633 144.648883,67.8343998 C143.547325,68.3111364 142.451508,68.8012752 141.361434,69.3048162 C140.272317,69.8093145 139.188942,70.3262577 138.11131,70.8556459 C137.034634,71.3859914 135.964179,71.9292605 134.899946,72.4854531 C133.836669,73.0416457 132.779613,73.610762 131.728777,74.1928018 C130.678899,74.7748416 129.636199,75.3698049 128.600676,75.9776919 C127.566111,76.5855789 126.538244,77.2059108 125.517078,77.8386876 C124.496868,78.4705071 123.484793,79.1152502 122.480853,79.7729169 C121.475956,80.4305836 120.479193,81.1002166 119.490566,81.7818158 C118.502896,82.463415 117.52336,83.1569806 116.55196,83.8625124 C115.580368,84.5680442 114.617628,85.2850636 113.663742,86.0135707 C112.709855,86.743035 111.765012,87.483987 110.829214,88.2364266 C109.893416,88.9879089 108.966948,89.7513575 108.049812,90.5267724 C107.13258,91.30123 106.224967,92.0866965 105.326972,92.883172 C104.428976,93.6806048 103.540839,94.488568 102.662559,95.3070615 C101.784183,96.1255549 100.915952,96.9545787 100.057865,97.7941329 C99.1997788,98.633687 98.3520763,99.4837714 97.5147577,100.344386 C96.6773434,101.205001 95.8506002,102.075189 95.034528,102.95495 C94.2183602,103.835668 93.4131026,104.726438 92.6187553,105.627259 C91.8243124,106.527123 91.0409711,107.43656 90.2687316,108.355571 C89.4964921,109.275538 88.7355936,110.204121 87.986036,111.14132 C87.2364785,112.079477 86.4984533,113.026727 85.7719605,113.983072 C85.0454678,114.93846 84.3307466,115.902942 83.6277972,116.876518 C82.9248477,117.850095 82.2338613,118.831808 81.554838,119.821659 C80.8758146,120.812467 80.2089936,121.810933 79.5543749,122.817058 C78.8996605,123.823183 78.2573398,124.837444 77.6274129,125.859843 C76.9974859,126.882242 76.3801441,127.911821 75.7753875,128.948579 C75.1705351,129.986295 74.5784593,131.030712 73.99916,132.08183 C73.4198607,133.133905 72.8534337,134.192681 72.299879,135.258159 C71.7330213,136.350441 71.1798015,137.449424 70.6402196,138.555108 C70.100542,139.660792 69.5745501,140.772699 69.062244,141.890828 C68.5500335,143.009914 68.0517003,144.134744 67.5672442,145.265318 C67.0828837,146.39685 66.6124962,147.533646 66.1560815,148.675708 C65.6996668,149.818727 65.2574642,150.967011 64.8294737,152.12056 C64.4013875,153.274109 63.987657,154.432924 63.5882822,155.597003 C63.1888117,156.760126 62.8037925,157.928513 62.4332247,159.102166 C62.0626569,160.274861 61.7066362,161.452343 61.3651626,162.634611 C61.023689,163.81688 60.6968582,165.002977 60.3846702,166.192904 C60.0723864,167.382831 59.774889,168.576587 59.4921779,169.774172 C59.2094669,170.971757 58.9415422,172.172693 58.6884038,173.376979 C58.4353611,174.581266 58.1972005,175.788424 57.9739219,176.998454 C57.7506434,178.208484 57.5422947,179.420907 57.3488759,180.635724 C57.1555529,181.850541 56.9772554,183.067751 56.8139835,184.287354 C56.6507117,185.506957 56.5024654,186.728475 56.3692448,187.951907 C56.2361198,189.175339 56.1181162,190.400208 56.0152339,191.626512 C55.9123516,192.851859 55.8245905,194.078642 55.7519508,195.306861 C55.6794068,196.536037 55.6219841,197.765213 55.5796828,198.994389 C55.5374771,200.224522 55.5103927,201.454656 55.4984296,202.684789 C55.4865623,203.914923 55.4898641,205.145056 55.5083351,206.37519 C55.526806,207.605323 55.560494,208.835457 55.609399,210.06559 C55.6582083,211.294766 55.7222346,212.523464 55.8014779,213.751683 C55.8806255,214.978944 55.9749423,216.205727 56.0844282,217.432031 C56.1939142,218.657378 56.3185214,219.881289 56.45825,221.103764 C56.5978828,222.326239 56.752637,223.5468 56.9225124,224.765446 C57.0922922,225.984092 57.2771454,227.200344 57.4770721,228.414204 C57.6769031,229.628063 57.8917118,230.839529 58.1214983,232.048602 C58.3512847,233.257675 58.5959533,234.463397 58.8555038,235.665768 C59.1150544,236.86814 59.3893913,238.06764 59.6785146,239.264268 C59.9677335,240.459938 60.2715953,241.65178 60.5900998,242.839792 C60.9087001,244.028761 61.2419431,245.213423 61.5898289,246.393777 C61.937619,247.574131 62.2999562,248.749698 62.6768405,249.920478 C63.0501837,251.075942 63.4376912,252.22662 63.8393629,253.372511 C64.2410347,254.518401 64.6567271,255.659506 65.0864403,256.795824 C65.5161534,257.931184 65.9597437,259.06128 66.4172112,260.18611 C66.8746786,261.31094 67.3459275,262.430026 67.8309579,263.543369 C68.3158925,264.656712 68.814465,265.763832 69.3266755,266.864729 C69.8388859,267.965627 70.3645428,269.060302 70.9036462,270.148755 C71.4426539,271.23625 71.9950123,272.317523 72.5607215,273.392574 C73.1263351,274.466667 73.705108,275.534059 74.2970402,276.59475 C74.8888768,277.654484 75.4936813,278.707038 76.1114538,279.752412 C76.7292262,280.797786 77.3597753,281.835501 78.0031008,282.865559 C78.6463307,283.895616 79.3021457,284.917536 79.9705459,285.931319 C80.638946,286.945103 81.3196442,287.95027 82.0126404,288.946822 C82.7057323,289.944331 83.4109787,290.932745 84.1283795,291.912066 C84.8457803,292.892343 85.5750964,293.863048 86.3163277,294.824179 C87.0575589,295.786268 87.8104661,296.738784 88.5750493,297.681727 C89.3397282,298.624669 90.1158437,299.558518 90.9033959,300.483272 C91.6910439,301.407069 92.4898892,302.321292 93.299932,303.225943 C94.1099748,304.130594 94.9310236,305.025193 95.7630785,305.90974 C96.5950376,306.79333 97.4378113,307.667347 98.2913996,308.531791 C99.1448923,309.395278 100.008865,310.248234 100.883316,311.09066 C101.757768,311.933086 102.642461,312.764503 103.537393,313.584911 C104.432326,314.405319 105.337164,315.214718 106.251908,316.013108 C107.166747,316.811499 108.091252,317.598401 109.025424,318.373816 C109.959499,319.149231 110.903002,319.913158 111.855932,320.665598 C112.808861,321.418037 113.770883,322.158511 114.741996,322.887018 C115.713205,323.616482 116.693124,324.333501 117.681751,325.038076 C118.670378,325.74265 119.667619,326.43478 120.673473,327.114465 C121.679328,327.795107 122.693317,328.462825 123.715441,329.11762 C124.737564,329.773372 125.767823,330.4162 126.806217,331.046105 C127.843654,331.67601 128.888747,332.292992 129.941496,332.897049 C130.995202,333.501107 132.055608,334.092241 133.122713,334.670452 C134.190775,335.248662 135.265537,335.813471 136.346997,336.364877 C137.416974,336.905753 138.493171,337.433705 139.575588,337.948734 C140.658006,338.463762 141.746645,338.965389 142.841504,339.453613 C143.936363,339.941837 145.036965,340.416659 146.143309,340.878079 C147.249653,341.339498 148.36126,341.787516 149.478132,342.222131 C150.59596,342.655789 151.718574,343.076045 152.845973,343.482898 C153.973372,343.889752 155.106034,344.282724 156.243961,344.661816 C157.38093,345.03995 158.522206,345.404683 159.667789,345.756013 C160.814328,346.106385 161.964696,346.443356 163.118893,346.766924 C164.274046,347.089535 165.432549,347.397786 166.594401,347.691678 C167.756254,347.986527 168.921456,348.267016 170.090007,348.533146 C171.259516,348.798319 172.431418,349.049611 173.605712,349.287022 C174.780963,349.524433 175.958607,349.747006 177.138643,349.95474 C178.319636,350.163432 179.502544,350.357286 180.687365,350.536302 C181.873144,350.715317 183.060358,350.879973 184.249008,351.03027 C185.438615,351.180566 186.629657,351.316503 187.822135,351.43808 C189.014613,351.5587 190.208526,351.664961 191.403876,351.756862 C192.599225,351.848763 193.795531,351.925826 194.992794,351.988051 C196.1891,352.051232 197.386363,352.099098 198.584583,352.131646 C199.782804,352.165151 200.981502,352.183819 202.180679,352.187648 C203.3789,352.191477 204.57712,352.180468 205.77534,352.154621 C206.974517,352.129731 208.172737,352.090003 209.370001,352.035437 C210.567264,351.979913 211.76357,351.91003 212.958919,351.825788 C214.155225,351.741545 215.350096,351.642943 216.543531,351.529981 C217.736966,351.416062 218.928486,351.287784 220.118093,351.145146 C221.308657,351.002508 222.496828,350.84551 223.682607,350.674153 C224.869343,350.502796 226.053686,350.316601 227.235636,350.115567 C228.416629,349.914534 229.595709,349.699619 230.772874,349.470824 C231.949082,349.241072 233.122419,348.996959 234.292885,348.738488 C235.463351,348.480016 236.630467,348.207185 237.794234,347.919994 C238.958,347.633761 240.118417,347.332689 241.275484,347.01678 C242.431595,346.701827 243.583877,346.372515 244.732331,346.028844 C245.880784,345.685172 247.024932,345.32762 248.164772,344.956186 C249.296956,344.581881 250.424355,344.193695 251.546969,343.791628 C252.670539,343.389561 253.788846,342.974571 254.90189,342.546657 C256.013976,342.117785 257.121277,341.675511 258.223792,341.219836 C259.326308,340.76416 260.423081,340.29556 261.514113,339.814037 C262.605144,339.331557 263.689954,338.836153 264.768544,338.327825 C265.847133,337.820455 266.919981,337.299683 267.987086,336.765508 C269.053234,336.231333 270.112682,335.684235 271.165432,335.124213 C272.219138,334.565149 273.265667,333.99316 274.305018,333.408249 C275.344368,332.823337 276.376541,332.22598 277.401536,331.616179 C278.426531,331.00542 279.44387,330.383173 280.453552,329.749439 C281.463235,329.114748 282.465261,328.46809 283.45963,327.809466 C284.454,327.150842 285.440235,326.480252 286.418335,325.797695 C287.396434,325.115139 288.366399,324.421095 289.32823,323.715563 C290.289103,323.010031 291.241841,322.292533 292.186444,321.563069 C293.13009,320.834562 294.065123,320.094567 294.991543,319.343085 C295.917962,318.591602 296.834811,317.829111 297.74209,317.055611 C298.650325,316.28211 299.548512,315.497601 300.43665,314.702083 C301.325744,313.906565 302.205269,313.100516 303.075222,312.283937 C303.944219,311.467358 304.803645,310.640249 305.653501,309.80261 C306.5024,308.965928 307.34125,308.118715 308.170051,307.260972 C308.998852,306.403229 309.817604,305.535913 310.626306,304.659024 C311.434052,303.781178 312.231271,302.894238 313.017962,301.998203 C313.804653,301.10121 314.580337,300.195124 315.345016,299.279943 C316.109695,298.364762 316.863368,297.440486 317.606035,296.507117 C318.348702,295.573747 319.079884,294.631283 319.799582,293.679724 C320.519279,292.728166 321.227493,291.76847 321.924221,290.800638 C322.619993,289.831848 323.304759,288.855399 323.978518,287.871293 C324.651321,286.886228 325.31216,285.893506 325.961037,284.893125 C326.609913,283.891787 327.246826,282.883269 327.871777,281.867571 C328.496727,280.850916 329.108757,279.827081 329.707867,278.796067 C330.307934,277.765052 330.89556,276.727336 331.470744,275.68292 C332.045928,274.637545 332.608192,273.58547 333.157536,272.526694 C336.11624,280.85666 340.155926,289.053082 343.660146,297.184887 C348.871256,309.275615 353.845496,321.560197 359.435596,333.475739 C350.960006,343.099499 342.429865,352.191956 332.63786,360.510434 C330.614667,362.222091 328.558456,363.893062 326.469227,365.523348 C324.379041,367.153634 322.257751,368.741798 320.105358,370.287841 C317.952964,371.833885 315.770901,373.336849 313.55917,374.796735 C311.34744,376.256621 309.107476,377.671993 306.83928,379.04285 C304.571083,380.413707 302.276568,381.739092 299.955735,383.019005 C297.634901,384.298918 295.289662,385.531923 292.920019,386.718021 C290.550376,387.905076 288.158242,389.044744 285.743618,390.137026 C283.328994,391.228351 280.893793,392.27181 278.438016,393.267405 C275.982239,394.262999 273.507321,395.209292 271.013262,396.106285 C268.52016,397.004234 266.009831,397.851925 263.482275,398.649358 C260.955677,399.446791 258.413766,400.193966 255.856542,400.890882 C253.300275,401.587798 250.730609,402.233977 248.147545,402.829419 C245.565438,403.423904 242.972325,403.967173 240.368206,404.459226 C237.764087,404.951279 235.151354,405.391638 232.530008,405.780303 C229.908662,406.168968 227.281096,406.50546 224.647308,406.789778 C222.012564,407.074097 219.373034,407.306243 216.728719,407.486216 C215.069203,407.604921 213.40873,407.703045 211.7473,407.780586 C210.08587,407.858128 208.423483,407.915087 206.760139,407.951465 C205.096795,407.9888 203.433451,408.004595 201.770107,408 C200.106763,407.994065 198.443419,407.968696 196.780075,407.922746 C195.117688,407.876795 193.45578,407.809784 191.79435,407.721712 C190.13292,407.634598 188.472926,407.526901 186.814367,407.398623 C185.155808,407.269387 183.499163,407.120048 181.844433,406.950605 C180.189702,406.781163 178.537364,406.59066 176.887419,406.379096 C175.236516,406.168489 173.588964,405.937301 171.94476,405.68553 C170.300557,405.43376 168.659704,405.161886 167.0222,404.869909 C165.384696,404.576974 163.751021,404.264415 162.121173,403.932231 C160.491326,403.59909 158.865785,403.245845 157.244551,402.872497 C155.623317,402.499149 154.006868,402.105698 152.395205,401.692144 C150.784498,401.278589 149.178577,400.844931 147.577441,400.39117 C145.977262,399.938366 144.382346,399.465458 142.792695,398.972448 C141.204,398.479437 139.621527,397.966802 138.045274,397.434542 C136.469978,396.902282 134.900903,396.350397 133.338048,395.778887 C131.775194,395.208335 130.219996,394.618158 128.672455,394.008357 C127.124913,393.398555 125.585028,392.769607 124.052799,392.121514 C122.52057,391.47342 120.996476,390.806659 119.480517,390.121231 C117.964558,389.434845 116.457691,388.73027 114.959915,388.007507 C113.461757,387.283787 111.972787,386.541877 110.493004,385.781779 C109.013221,385.021681 107.543105,384.243394 106.082654,383.446919 C104.622204,382.650443 103.17185,381.835779 101.731593,381.002926 C100.291336,380.170073 98.8616548,379.31951 97.4425487,378.451237 C96.0233468,377.582964 94.615151,376.697459 93.2179611,375.794723 C91.820867,374.89103 90.4351139,373.970583 89.0607017,373.033384 C87.6863853,372.095228 86.3238883,371.140798 84.9732109,370.170093 C83.6226291,369.198431 82.2842497,368.210495 80.9580726,367.206285 C79.6318955,366.201118 78.3183993,365.180155 77.0175839,364.143397 C75.7167685,363.105681 74.4290646,362.05217 73.1544722,360.982863 C71.8797841,359.914514 70.6185425,358.82989 69.3707474,357.728992 C68.1258234,356.633839 66.8944416,355.523847 65.676602,354.399016 C64.4586667,353.274186 63.2546564,352.134518 62.064571,350.980011 C60.8744857,349.826462 59.6986125,348.658074 58.5369514,347.474849 C57.3752904,346.291623 56.2281764,345.094517 55.0956095,343.883529 C53.9631382,342.673499 52.8455491,341.449109 51.742842,340.21036 C50.6401348,338.972568 49.5526926,337.721374 48.4805152,336.456778 C47.4082421,335.192182 46.3515689,333.914662 45.3104954,332.624218 C44.269422,331.333775 43.2441877,330.030886 42.2347924,328.715553 C41.2253972,327.400219 40.2322239,326.07292 39.2552725,324.733654 C38.2782253,323.394388 37.3176394,322.043156 36.3735146,320.679957 C35.4293898,319.316759 34.5019655,317.942551 33.5912416,316.557335 C32.6806134,315.172118 31.7869727,313.775893 30.9103196,312.368659 C30.0336665,310.960467 29.174288,309.542224 28.3321842,308.113928 C27.4900804,306.686591 26.6654906,305.248723 25.8584146,303.800324 C25.0513387,302.351926 24.261968,300.893954 23.4903027,299.42641 C22.7187332,297.958866 21.965156,296.481748 21.2295713,294.995058 C20.4939866,293.509324 19.7765858,292.014976 19.0773688,290.512011 C18.3781518,289.008089 17.6973579,287.49603 17.0349872,285.975834 C16.3726164,284.456595 15.7288123,282.928741 15.1035749,281.392271 C14.4784332,279.856758 13.8720495,278.313586 13.284424,276.762757 C12.6967984,275.212884 12.1281702,273.655832 11.5785393,272.0916 C11.0289084,270.527368 10.4983706,268.956435 9.9869258,267.378801 C9.47557672,265.801166 8.98346424,264.217788 8.51058837,262.628667 C8.03771249,261.039545 7.58426462,259.444679 7.15024477,257.84407 C6.71622491,256.244418 6.30177663,254.6395 5.90689991,253.029318 C5.51202319,251.418178 5.13681374,249.80273 4.78127157,248.182975 C4.42563369,246.564177 4.08980664,244.940592 3.77379042,243.312221 C3.4577742,241.684807 3.16161666,240.053564 2.8853178,238.418491 C2.60901894,236.783419 2.35267447,235.145475 2.11628438,233.504659 C1.87989429,231.862885 1.66350645,230.219197 1.46712084,228.573594 C1.27073523,226.927034 1.09444756,225.278081 0.938257833,223.626735 C0.782068108,221.976345 0.645976325,220.324042 0.529982485,218.669823 C0.408054967,216.97827 0.307134584,215.28576 0.227221336,213.592292 C0.147403793,211.897867 0.0885933845,210.202963 0.0507901116,208.507581 C0.0129868387,206.812198 0,205.116816 0,203.421434 C0,201.726051 0.0304050556,200.030669 0.0769174369,198.335286 C0.123334114,196.639904 0.19085363,194.945479 0.279475987,193.252011 C0.368002638,191.558543 0.477584278,189.866511 0.608220904,188.175916 C0.738761827,186.48532 0.890309884,184.796638 1.06286508,183.109872 C1.23542027,181.422148 1.42888689,179.737296 1.64326495,178.055316 C1.857643,176.373335 2.09293249,174.694227 2.3491334,173.017991 C2.60523861,171.341755 2.8821117,169.668869 3.17975266,167.999334 C3.47739362,166.329798 3.7957546,164.664092 4.1348356,163.002215 C4.4739166,161.341296 4.83357407,159.684684 5.213808,158.032381 C5.59394623,156.379119 5.99461307,154.731124 6.41580852,153.088393 C6.83690827,151.446619 7.27839308,149.809632 7.74026294,148.177432 C8.2020371,146.546189 8.68405275,144.920689 9.18630991,143.300934 C9.68847136,141.681178 10.2106829,140.068124 10.7529445,138.461771 C11.2952062,136.85446 11.8573743,135.254329 12.439449,133.661378 C13.021428,132.069385 13.6231221,130.484571 14.2445314,128.906936 C14.8659406,127.328345 15.5068257,125.758369 16.1671867,124.197009 C16.8276434,122.635649 17.5073367,121.082426 18.2062665,119.53734 C18.9052921,117.992254 19.6233629,116.456263 20.3604789,114.929366 C21.0976905,113.401511 21.8537081,111.883708 22.6285317,110.375957 C23.4033552,108.867249 24.1967933,107.368592 25.0088459,105.879987 C25.8209942,104.391382 26.6514699,102.913307 27.500273,101.445763 C28.3490761,99.9782181 29.2159673,98.521204 30.1009467,97.0747202 C30.9859261,95.6282364 31.8887544,94.1927616 32.8094316,92.7682957 C33.7301088,91.3447872 34.6682999,89.9327663 35.6240049,88.532233 C36.5797099,87.1316998 37.5526896,85.7431328 38.5429439,84.366532 C39.5331983,82.9899313 40.5403923,81.6262542 41.5645261,80.2755006 C42.5885641,78.9237898 43.6293025,77.5850025 44.6867414,76.2591388 C45.7440846,74.9342324 46.8177454,73.6222496 47.9077238,72.3231904 C48.9977023,71.0241311 50.1036155,69.7389528 51.2254635,68.4676553 C87.5372777,27.3261527 137.195418,3.77795188 191.765639,0.323047852 Z" transform="translate(126 262)"/></svg>