<svg xmlns="http://www.w3.org/2000/svg" width="932" height="932" viewBox="0 0 932 932"><path d="M482.174025,48.9161621 L524.06965,8.84080545 L524.034712,0 L379.206817,0 L275.980069,257.551285 L158.547041,0.0324424069 L6.63072886,0.0324424069 L6.63072886,8.84080545 L55.5793333,67.767696 C57.9456326,69.8979144 59.7763826,72.5561953 60.9228473,75.5269216 C62.0693121,78.4971487 62.4990492,81.69597 62.1771207,84.8638463 L62.1771207,316.506625 C62.879374,320.624315 62.6043622,324.85181 61.3735472,328.844722 C60.1427322,332.832642 57.9910519,336.481165 55.091699,339.485831 L0,406.282251 L0,415.056675 L156.076926,415.056675 L156.076926,406.282251 L101.017669,339.485831 C98.094858,336.481165 95.8937655,332.852607 94.5815949,328.869677 C93.2699235,324.891739 92.8806146,320.664244 93.4446133,316.506625 L93.4446133,116.197222 L230.440912,415.086621 L246.367638,415.086621 L364.028761,116.197222 L364.028761,354.439285 C364.028761,360.743094 364.028761,361.980897 359.866151,366.138516 L317.516332,407.225577 L317.516332,416 L523.031493,416 L523.031493,407.225577 L482.174025,367.116779 C480.407162,365.764181 479.03959,363.962379 478.221043,361.891056 C477.402496,359.824725 477.162921,357.573721 477.527274,355.38261 L477.527274,60.649832 C477.162921,58.4562261 477.402496,56.2057213 478.221043,54.1383913 C479.03959,52.0715605 480.407162,50.2662653 482.174025,48.9161621 Z" transform="translate(203.938 263.08)"/></svg>