<?xml version="1.0" encoding="UTF-8"?>
<svg width="932px" height="932px" viewBox="0 0 932 932" version="1.1" xmlns="http://www.w3.org/2000/svg" xmlns:xlink="http://www.w3.org/1999/xlink">
    <title>reddit</title>
    <g id="reddit" stroke="none" stroke-width="1" fill="none" fill-rule="evenodd" stroke-linejoin="round">
        <g transform="translate(180.000000, 212.000000)" id="path1" stroke="#000000" stroke-width="22.4">
            <path d="M571.99322,257.80185 C572.0791,263.681287 571.34911,269.550001 569.803248,275.225593 C568.257378,280.901185 565.917111,286.34074 562.846853,291.361874 C559.787333,296.383001 556.030024,300.953514 551.693019,304.933946 C547.356007,308.914371 542.482246,312.261791 537.211279,314.879638 C537.329363,316.446061 537.42598,318.023213 537.479657,319.600359 C537.608879,322.746181 537.608879,325.895978 537.479657,329.0418 C537.42601,330.618952 537.329363,332.196098 537.211279,333.76252 C537.211279,429.893542 425.136131,508 286.867179,508 C148.598227,508 36.523084,429.893542 36.523084,333.76252 C36.4049966,332.196098 36.30838,330.618952 36.2547044,329.0418 C36.1254826,325.895978 36.1254826,322.746181 36.2547044,319.600359 C36.3083815,318.023213 36.4049966,316.446061 36.523084,314.879638 C19.8098163,307.201686 7.31031785,292.579721 2.33157637,274.882272 C-2.63896345,257.176707 0.422561628,238.182781 10.7050068,222.932894 C20.9785735,207.685286 37.4379399,197.720483 55.7175621,195.681466 C73.9992665,193.633561 92.2584028,199.713777 105.657559,212.311275 C117.947532,203.985989 130.823972,196.560089 144.186078,190.091704 C157.551359,183.632901 171.367522,178.1397 185.527207,173.67647 C199.686892,169.213248 214.157896,165.790721 228.811397,163.419634 C243.464898,161.048547 258.279431,159.750346 273.126166,159.52504 L304.902264,10.6077893 C305.256522,8.88043563 305.95431,7.24964146 306.952679,5.79050943 C307.940318,4.34210657 309.217802,3.09755336 310.68852,2.14268086 C312.169969,1.18780762 313.823185,0.533344267 315.562282,0.2114768 C317.290649,-0.0996615038 319.072686,-0.0674747571 320.790308,0.30803704 L425.99495,21.3366984 C436.612028,3.10828252 458.898237,-4.70236294 478.575793,2.89370446 C498.253357,10.4897715 509.503809,31.2502105 505.10239,51.8711756 C500.711708,72.4921303 481.968106,86.8688747 460.905712,85.78525 C439.83258,84.7016327 422.667044,68.4795213 420.412657,47.5152378 L328.519634,28.2032002 L300.608199,162.09998 C315.272437,162.411117 329.904464,163.784417 344.375475,166.198426 C373.354517,171.026123 401.484478,180.009453 427.895071,192.870489 C441.086056,199.286317 453.797216,206.643952 465.929767,214.886215 C474.653306,206.515582 485.61499,200.847893 497.491156,198.567542 C509.367397,196.279116 521.652549,197.475242 532.863537,202.011523 C544.075784,206.545582 553.73584,214.225152 560.678355,224.123803 C567.622945,234.023273 571.552634,245.719767 571.99322,257.80185 L571.99322,257.80185 Z M145.850024,317.143441 C148.01853,322.346959 151.174668,327.07841 155.168152,331.058835 C159.150898,335.04999 163.885109,338.204288 169.091662,340.37153 C174.303113,342.525521 179.887676,343.63312 185.527207,343.63312 C202.896708,343.63312 218.548578,333.172431 225.204383,317.143441 C231.849451,301.103721 228.167287,282.649999 215.886256,270.376127 C203.605225,258.102256 185.140738,254.422238 169.091662,261.063432 C153.053323,267.715357 142.586539,283.35811 142.586539,300.717485 C142.586539,306.350162 143.692255,311.929193 145.850024,317.143441 L145.850024,317.143441 Z M391.792706,420.162425 C393.993415,418.016645 395.249425,415.087653 395.293496,412.019185 C395.33535,408.939987 394.143709,405.978803 391.99667,403.779376 C389.849637,401.57995 386.918937,400.324672 383.848679,400.281757 C380.767685,400.238805 377.804781,401.429751 375.324957,403.285848 C368.868005,407.914532 362.030303,411.988201 354.885199,415.463159 C347.739666,418.939938 340.313186,421.807588 332.684878,424.035558 C325.062907,426.256446 317.258438,427.833591 309.368089,428.745548 C301.46701,429.657505 293.512247,429.893542 285.578958,429.46439 C277.656406,429.818442 269.712387,429.496604 261.843504,428.509511 C253.972757,427.532249 246.200553,425.881081 238.612604,423.574215 C231.012106,421.278227 223.637047,418.338512 216.541103,414.79797 C209.445159,411.257428 202.660533,407.116073 196.262369,402.427538 C194.040193,400.603624 191.21684,399.670207 188.339816,399.809683 C185.462793,399.949159 182.746794,401.161529 180.707116,403.189287 C178.678167,405.227784 177.465097,407.9422 177.32554,410.817546 C177.185982,413.692892 178.119937,416.514592 179.944914,418.735479 C187.491742,424.421802 195.510912,429.442929 203.916543,433.755951 C212.322182,438.068974 221.092816,441.6417 230.110355,444.45267 C239.127893,447.263647 248.37087,449.291413 257.742674,450.525237 C267.114471,451.74833 276.572156,452.166758 286.008368,451.780515 C295.444579,452.166758 304.902264,451.7483 314.274061,450.525237 C333.044678,448.057744 351.251567,442.385471 368.100192,433.755951 C376.505823,429.442929 384.524993,424.421802 392.071821,418.735479 L391.792706,420.162425 Z M383.913093,347.06637 C389.731554,347.130725 395.507074,346.004207 400.885388,343.772596 C406.263709,341.530254 411.12674,338.225749 415.18463,334.052203 C419.242527,329.878657 422.398666,324.921899 424.481291,319.482344 C426.565388,314.049111 427.518776,308.248139 427.283163,302.434106 C427.283163,285.074732 416.81638,269.431986 400.778041,262.780061 C384.728965,256.138867 366.264478,259.818885 353.983447,272.092756 C341.702416,284.366628 338.020251,302.82035 344.66532,318.860063 C351.321125,334.88906 366.972995,345.349741 384.342495,345.349741 L383.913093,347.06637 Z"></path>
        </g>
    </g>
</svg>