<?xml version="1.0" encoding="UTF-8" standalone="no"?>
<svg
   viewBox="0 0 794.34164 708.37289"
   width="2482.3176"
   height="2213.6653"
   version="1.1"
   id="svg1"
   sodipodi:docname="reddit-4.svg"
   inkscape:export-filename="reddit-4.svg"
   inkscape:export-xdpi="96"
   inkscape:export-ydpi="96"
   xml:space="preserve"
   xmlns:inkscape="http://www.inkscape.org/namespaces/inkscape"
   xmlns:sodipodi="http://sodipodi.sourceforge.net/DTD/sodipodi-0.dtd"
   xmlns="http://www.w3.org/2000/svg"
   xmlns:svg="http://www.w3.org/2000/svg"><defs
     id="defs1" /><sodipodi:namedview
     id="namedview1"
     pagecolor="#ffffff"
     bordercolor="#000000"
     borderopacity="0.25"
     inkscape:showpageshadow="2"
     inkscape:pageopacity="0.0"
     inkscape:pagecheckerboard="0"
     inkscape:deskcolor="#d1d1d1" /><path
     d="m 783.13255,359.32069 c 0.1159,7.93923 -0.86926,15.86398 -2.95548,23.52795 -2.08623,7.66397 -5.24454,15.00921 -9.38801,21.78944 -4.12898,6.78022 -9.19966,12.95196 -15.05267,18.32689 -5.85302,5.37492 -12.43041,9.89507 -19.54385,13.43005 0.15936,2.1152 0.28975,4.24489 0.36219,6.37457 a 155.40621,155.40621 0 0 1 0,12.74914 c -0.0724,2.12969 -0.20283,4.25937 -0.36219,6.37457 0,129.80941 -151.25115,235.27956 -337.85218,235.27956 -186.60103,0 -337.852173,-105.47015 -337.852173,-235.27956 -0.159365,-2.1152 -0.289754,-4.24488 -0.362192,-6.37457 a 155.40621,155.40621 0 0 1 0,-12.74914 c 0.07244,-2.12968 0.202827,-4.25937 0.362192,-6.37457 A 84.662973,84.662973 0 0 1 14.344997,382.38504 84.622408,84.622408 0 0 1 25.64537,312.2358 84.541277,84.541277 0 0 1 86.392118,275.43715 84.60792,84.60792 0 0 1 153.7887,297.89302 415.49877,415.49877 0 0 1 205.78491,267.88908 c 18.03713,-8.72157 36.68275,-16.13925 55.79197,-22.16612 19.10922,-6.02686 38.63858,-10.64843 58.41423,-13.8502 19.77565,-3.20177 39.76862,-4.95478 59.80505,-5.25902 L 422.67963,25.525058 c 0.47809,-2.332512 1.41979,-4.534636 2.76714,-6.504958 1.33287,-1.955834 3.0569,-3.636402 5.04171,-4.925803 1.99929,-1.289402 4.23039,-2.173149 6.57739,-2.607779 2.33252,-0.420142 4.73747,-0.376679 7.05549,0.130389 l 141.97905,28.395809 c 14.32829,-24.61453 44.40467,-35.1615445 70.96054,-24.904283 26.55588,10.257261 41.73894,38.290879 35.799,66.13616 -5.92545,27.845267 -31.2209,47.258737 -59.64568,45.795477 C 604.775,125.57682 581.60923,103.67148 578.56682,75.362603 L 454.55248,49.284817 416.88457,230.09078 c 19.79014,0.42014 39.53681,2.27456 59.06618,5.53429 a 411.96813,411.96813 0 0 1 112.71397,36.01631 412.04637,412.04637 0 0 1 51.32977,29.72868 84.528238,84.528238 0 0 1 42.59371,-22.03573 84.551418,84.551418 0 0 1 47.73684,4.65054 84.58474,84.58474 0 0 1 37.53752,29.85906 84.58474,84.58474 0 0 1 15.26999,45.47676 z m -575.10206,80.13123 c 2.92651,7.02651 7.18588,13.41557 12.57529,18.79049 5.37492,5.38941 11.76398,9.64878 18.79049,12.57529 a 58.02162,58.02162 0 0 0 22.18061,4.40425 c 23.44103,0 44.56403,-14.12547 53.54638,-35.77003 8.96786,-21.65905 3.99859,-46.57782 -12.57529,-63.1517 -16.57388,-16.57388 -41.49265,-21.54315 -63.1517,-12.57529 -21.64456,8.98235 -35.77002,30.10536 -35.77002,53.54639 0,7.60602 1.49222,15.1396 4.40424,22.1806 z m 331.91224,139.11049 c 2.96997,-2.89753 4.66502,-6.85266 4.72298,-10.99613 0.058,-4.15796 -1.55018,-8.15656 -4.44772,-11.12653 -2.89753,-2.96997 -6.85266,-4.66502 -10.99613,-4.72297 -4.15796,-0.058 -8.15655,1.55018 -11.5032,4.05654 a 189.87524,189.87524 0 0 1 -27.5845,16.44349 190.55616,190.55616 0 0 1 -29.96047,11.57564 c -10.28624,2.99895 -20.81877,5.12863 -31.4672,6.36008 -10.66291,1.23145 -21.39827,1.55018 -32.10465,0.97068 -10.69189,0.47809 -21.41275,0.0435 -32.03221,-1.28941 a 186.90527,186.90527 0 0 1 -31.35129,-6.66432 c -10.25726,-3.10036 -20.21028,-7.06997 -29.78662,-11.8509 -9.57634,-4.78093 -18.73254,-10.37316 -27.36719,-16.70427 -2.99894,-2.4629 -6.8092,-3.72333 -10.69189,-3.53499 -3.88269,0.18834 -7.54807,1.82545 -10.30072,4.56361 -2.73817,2.75266 -4.37527,6.41804 -4.56361,10.30073 -0.18834,3.88269 1.07208,7.69294 3.53498,10.69189 10.18483,7.67846 21.00711,14.45868 32.35094,20.28272 11.34384,5.82404 23.18026,10.64843 35.34989,14.44419 12.16963,3.79577 24.6435,6.53394 37.29123,8.20002 12.64772,1.65159 25.41135,2.21661 38.146,1.69505 12.73465,0.52156 25.49828,-0.0435 38.146,-1.69505 a 223.05342,223.05342 0 0 0 72.64112,-22.64421 c 11.34383,-5.82404 22.16611,-12.60426 32.35094,-20.28272 z M 529.30879,479.858 c 7.85231,0.0869 15.64667,-1.43428 22.90498,-4.44771 7.25832,-3.02792 13.82123,-7.49012 19.29756,-13.12582 5.47634,-5.6357 9.73571,-12.329 12.54632,-19.67424 a 57.779676,57.779676 0 0 0 3.78127,-23.02089 c 0,-23.44103 -14.12546,-44.56403 -35.77002,-53.54638 -21.65905,-8.96786 -46.57782,-3.99859 -63.1517,12.57529 -16.57388,16.57388 -21.54315,41.49265 -12.57529,63.15169 8.98235,21.64457 30.10535,35.77003 53.54638,35.77003 z"
     fill="#fff"
     id="path1"
     style="fill:none;stroke:#000000;stroke-width:22.4;stroke-linejoin:round;stroke-dasharray:none;stroke-opacity:1" /></svg>
