<svg xmlns="http://www.w3.org/2000/svg" width="932" height="932" viewBox="0 0 932 932"><g fill="none" transform="translate(243 243)"><g fill="#2566AF"><circle cx="390.811" cy="54.199" r="54.189"/><circle cx="222.495" cy="54.199" r="54.199"/><circle cx="222.505" cy="390.811" r="54.189"/><path d="M249.696893,175.685676 L249.850635,175.685676 C237.602552,166.0717 237.377064,152.901168 237.377064,138.35721 C237.377064,123.813253 237.602552,110.632471 249.850635,101.018495 L249.696893,101.018495 C265.829514,91.6300067 276.704171,74.2059562 276.704171,54.1990465 C276.704171,24.2604279 252.433494,0.0102494415 222.515374,0.0102494415 C202.498215,0.0102494415 185.063915,10.8849068 175.685676,27.0072783 L175.685676,26.8535366 C166.0717,39.0913697 152.901168,39.3168575 138.35721,39.3168575 C123.813253,39.3168575 110.642721,39.1016192 101.038994,26.8535366 L101.038994,27.0072783 C91.6300067,10.8849068 74.2059562,0.0102494415 54.1990465,0.0102494415 C24.2604279,0.0102494415 0,24.2604279 0,54.1990465 C0,84.1274155 24.2604279,108.387843 54.1990465,108.387843 C74.2059562,108.387843 91.6402561,97.5029366 101.028745,81.3805652 L101.028745,81.5445563 C110.642721,69.2964737 123.803003,69.0607366 138.346961,69.0607366 C152.890918,69.0607366 166.061451,69.2862243 175.675427,81.5445563 L175.675427,81.3908147 C180.400419,89.5186217 187.185549,96.2935025 195.323606,101.028745 L195.159615,101.028745 C207.407697,110.642721 207.622936,123.823502 207.622936,138.36746 C207.622936,152.911417 207.407697,166.081949 195.159615,175.695926 L195.303107,175.695926 C179.180736,185.084414 168.306078,202.508464 168.306078,222.515374 C168.306078,252.433494 192.566506,276.693922 222.505125,276.693922 C252.423244,276.693922 276.693922,252.433494 276.693922,222.515374 C276.693922,202.498215 265.829514,185.074164 249.696893,175.685676 L249.696893,175.685676 Z"/></g><g fill="#B8B9BB" transform="translate(0 168)"><ellipse cx="54.153" cy="54.251" rx="54.153" ry="54.251"/><path d="M417.494431,174.973291 C406.319592,165.430413 406.002067,152.624486 406.002067,138.515392 C406.002067,124.365253 406.309349,111.559326 417.535402,101.995925 C434.476908,92.8327098 445.989757,74.8756807 445.989757,54.2507501 C445.989757,24.2881645 421.745171,0 391.836346,0 C361.92752,0 337.672691,24.2881645 337.672691,54.2507501 C337.672691,74.2805334 348.55049,91.7347657 364.682819,101.133988 L363.822428,101.133988 C376.05227,110.758955 376.277611,123.944545 376.277611,138.515392 C376.277611,153.065716 376.062513,166.251306 363.822428,175.876273 L364.662334,175.876273 C348.55049,185.275495 337.682934,202.729728 337.682934,222.74925 C337.682934,252.711836 361.937763,277 391.846588,277 C421.755414,277 446,252.711836 446,222.74925 C445.989757,202.083275 434.456422,184.126246 417.494431,174.973291 Z"/><ellipse cx="54.153" cy="222.749" rx="54.153" ry="54.251"/></g></g></svg>