<svg xmlns="http://www.w3.org/2000/svg" width="932" height="932" viewBox="0 0 932 932"><g fill="none" transform="translate(128 314)"><path fill="#FEFEFE" d="M391.274646 2.26643162C390.897355 45.5541932 391.806059 88.8765399 391.164911 132.156202 384.228185 131.752343 377.290225 132.154013 370.36213 131.886963 368.458414 131.606779 366.420303 131.633046 364.490695 131.557528L364.416716 131.300328 363.316901 131.467782 363.373618 131.061734C364.396989 129.89503 364.739756 129.207704 364.896344 127.736739 365.384603 123.156388 365.083757 118.341821 365.154036 113.734109 365.304459 102.685814 365.351313 91.6375191 365.294596 80.5892244 365.300761 54.5693302 365.834639 28.4509339 365.10595 2.44154658 373.750349 2.28055026 382.680799 2.89290539 391.274646 2.26643162ZM217.280683 172.59353C226.989963 172.805127 236.700065 172.829206 246.410989 172.665765 246.390028 216.162132 246.893083 259.689145 246.33701 303.181134 236.618688 302.977563 226.869542 303.140639 217.148754 303.165811L217.076009 227.66828C217.078475 209.326082 216.751736 190.929161 217.280683 172.59353ZM278.124381 2.18817712C292.143325 2.02517428 306.16268 1.97293165 320.182447 2.03144923 329.636911 2.02915085 339.32071 1.65473317 348.736952 2.36154093 347.941683 10.3309133 348.370758 18.5996229 348.217869 26.6122268 341.566371 26.7005139 334.914873 26.6990546 328.263375 26.6078489L328.104321 113.924546C328.174601 119.893777 328.096924 125.869575 328.07473 131.839901 318.067892 131.977074 308.061875 131.939862 298.056681 131.728265L298.040652 26.6176991 278.533729 26.8015698C278.494274 18.6029063 278.594145 10.376881 278.124381 2.18817712ZM1.0729283 2.18544095C13.880843 2.02470001 26.6892919 1.97544892 39.4982752 2.0376877 49.9663701 2.03757825 60.489949 1.8274403 70.9442345 2.34052713 70.5694096 10.4206598 70.5835889 18.5317658 70.4588116 26.6187936 63.8539202 26.6800838 57.2490288 26.6782597 50.6441373 26.6133212L50.6183681 115.313427C50.6323419 120.822981 50.5842147 126.332171 50.4739866 131.840995 40.4573666 131.964306 30.4410343 131.947159 20.4249897 131.789555 19.8657115 96.7632799 20.2670454 61.6505414 20.3806026 26.6176991 13.7844242 26.7523187 7.18577985 26.5750149.590587837 26.7906251.700076163 22.2157468-.520694002 5.18308073.265575197 2.37117225L1.0729283 2.18544095ZM598.417187 172.814613C608.613903 172.534429 618.887065 172.805857 629.091179 172.855108 629.266262 173.130914 629.440112 173.393587 629.536284 173.701132 630.325389 176.204182 629.695338 196.575524 629.691639 201.16463 629.673144 225.886485 630.211955 250.69918 629.670678 275.411185 629.647252 276.449835 629.628757 277.319938 629.09981 278.276503 640.713628 278.115252 652.327857 278.02587 663.942497 278.008358 664.153336 278.360777 664.380204 278.724141 664.499802 279.110488 665.320965 281.77333 665.334527 300.62555 664.11758 302.723646L663.604661 303.298242C657.463205 303.398933 651.249002 303.175662 645.097682 303.171284 629.392848 303.230385 613.689246 303.13845 597.986878 302.895478 598.49733 302.181884 598.573775 301.622611 598.598434 300.796287 598.85366 292.534144 598.552814 284.189917 598.558979 275.917924L598.561445 220.108786 598.581173 189.593909C598.595968 184.094205 599.037374 178.272727 598.417187 172.814613ZM113.759965 172.672332C135.687221 172.60338 157.609546 173.052112 179.541734 172.692032 179.508444 180.936664 179.223626 189.245868 179.541734 197.482838L142.976579 197.730188C143.041927 206.29331 143.154128 214.847676 142.819991 223.407514 152.612291 223.186431 162.413223 223.565117 172.198125 223.190809 172.280324 231.378163 172.263062 239.565152 172.14634 247.751777 162.388563 247.686109 152.630786 247.712376 142.873009 247.830578 143.307017 266.224216 142.86931 284.626609 143.141798 303.021342 133.365526 302.821054 123.498014 303.119844 113.711879 303.170189L113.620638 234.583132C113.535152 213.946563 113.581594 193.30963 113.759965 172.672332ZM179.745175 2.45872973C193.808507 2.33702484 207.871838 2.3074377 221.93517 2.36996834 228.83614 2.38780817 236.055218 2.78947811 242.9155 2.28481869 242.750281 10.4025645 242.640135 18.5208211 242.585062 26.6395885 231.022207 26.6428719 219.179467 27.2185623 207.647436 26.5990932 207.811833 35.1191656 207.724292 43.637414 207.384812 52.1538382 216.698718 52.1757276 226.010157 52.0619029 235.319131 51.8123641 235.436675 60.2229897 235.446538 68.6339801 235.348722 77.0453354 226.099754 76.7731776 216.848319 76.6823367 207.594418 76.7728127 207.743197 86.829519 207.645792 96.8844011 207.302203 106.937459 219.432227 107.292067 231.573348 106.910097 243.703372 107.146503 243.450612 111.362395 244.430828 115.457896 244.702083 119.648616 244.946212 123.420155 244.328491 127.706093 245.239661 131.348485 245.063345 131.490766 244.936349 131.705281 244.711947 131.774233 242.847686 132.342262 193.883718 132.133219 188.027079 131.884774 184.965598 131.393358 181.429421 131.565189 178.305058 131.404303 177.90804 130.938059 179.27911 130.094224 179.423368 129.439732 180.309878 125.386915 179.815455 120.598615 179.91286 116.43854 180.435642 94.1847121 180.090409 71.8717828 180.091642 49.6113879 180.091642 33.9703385 180.758682 18.0622388 179.745175 2.45872973ZM636.164766.0754151216C643.173005-.276018715 649.945746.567269267 656.302974 3.31329074 664.899287 7.0259468 669.520483 12.9182369 672.554839 20.7995046 673.828503 24.1080828 676.45721 32.2695345 674.755702 35.3789195 668.524238 36.7316826 655.004649 36.4755769 647.937227 36.5697012 648.117242 36.2687224 648.2615 36.0213725 648.316984 35.6798983 648.775651 32.8386581 647.29238 27.4834237 645.139603 25.2704084 644.971918 25.0952934 644.79437 24.9282046 644.606957 24.7691418 644.419545 24.6108087 644.223502 24.4612313 644.018827 24.3204097 643.813331 24.1803178 643.600026 24.050076 643.378913 23.9296845 643.158621 23.8100226 642.931342 23.7005757 642.697076 23.6013439 642.463633 23.5028418 642.224846 23.4152843 641.980717 23.3386715 641.735766 23.2620587 641.487526 23.1974851 641.235999 23.1449506 640.98365 23.0916864 640.729246 23.0504614 640.472787 23.0212756 640.215506 22.9928194 639.957402 22.9760376 639.698477 22.9709301 637.91436 22.9490407 636.061196 23.5597541 634.822055 24.7187963 633.130411 26.3024922 632.906009 28.7125118 633.01821 30.7887186 633.870197 46.5709544 656.470658 57.8056736 666.240765 70.2311745 672.660875 78.3948151 676.687776 87.7481429 676.979992 97.7712854 677.259877 107.347885 674.637336 116.714346 666.968222 123.761629 658.845371 131.22481 649.944513 132.471409 638.787308 132.580856 633.902254 132.616974 628.648541 132.588924 623.974326 131.218243 612.568059 127.872453 605.184995 117.40605 603.145652 107.32709 602.576017 104.511022 603.026053 100.25354 601.534152 97.7296956 601.493463 97.662933 601.449076 97.5972649 601.405922 97.5315968 611.026839 97.3816546 620.403626 96.3999164 629.972758 95.7202514 630.859268 97.0412749 630.67802 98.6687496 630.796386 100.167077 631.057777 103.452671 632.10704 107.77035 635.161123 109.957098 636.312723 110.781233 637.761471 111.069078 639.210219 110.839239 641.201476 110.524032 645.006442 109.27196 646.134615 107.753933 647.24676 106.207449 647.238129 103.736139 647.307176 101.946683 648.175192 79.665493 607.658347 67.1513401 604.017367 36.889286 602.99153 28.3611874 604.637554 18.4146577 610.90724 11.5972134 617.218847 4.73303528 626.353971.917827528 636.164766.0754151216ZM290.224813 171.360064C298.468495 171.015307 307.137554 171.424638 314.450338 175.189609 327.574142 181.946858 328.477913 193.631404 331.894492 205.322516 322.583052 206.824127 313.547799 208.031326 304.05018 208.035704 304.055112 207.947052 304.061277 207.859494 304.064976 207.770842 304.205535 203.608579 303.950309 199.093896 300.442491 195.952771 298.985112 194.64707 297.12825 193.676277 294.996433 193.723339 292.933663 193.768212 291.044743 194.789351 289.742719 196.168382 284.538325 201.683408 289.798203 210.479652 293.933607 215.18915 301.135424 223.392191 311.238434 229.436941 318.690545 237.508646 325.087228 244.438821 330.736727 253.1092 331.830377 262.119959 333.083081 272.437514 332.896902 284.878337 325.109421 293.235699 319.030846 299.758731 308.85509 303.004925 299.611464 303.792942 299.244859 303.819209 298.877843 303.842193 298.510416 303.861893 287.736666 304.4343 277.276093 302.979752 268.994189 296.3221 259.977431 289.074529 258.516353 279.152078 258.019464 268.964765 267.270487 268.176748 276.474658 267.288039 285.755273 266.811946 285.768425 267.926115 285.827608 269.038095 285.932822 270.147886 286.290385 273.564816 286.911805 278.068554 290.207552 280.338482 292.94476 282.224251 295.625251 281.765669 298.801399 281.402305 299.740927 280.824426 300.755667 280.150233 301.484356 279.358933 303.586581 277.072588 303.713578 274.110956 303.455886 271.308022 301.865346 254.034026 281.643296 244.80109 270.815295 232.411706 264.962355 225.714653 260.574191 217.677971 259.455881 209.205691 258.211808 199.77575 260.269646 188.959118 267.158286 181.425891 272.847241 175.207121 281.450952 172.214844 290.224813 171.360064ZM520.250167 172.812424C542.133036 172.897063 564.015906 172.867877 585.898775 172.724866 586.082488 173.067435 586.274833 173.422043 586.369772 173.794162 587.066404 176.545656 587.020784 195.766712 585.670674 197.621836 573.66888 197.545223 561.672017 197.669992 549.670222 197.489405 549.83914 197.756455 549.973535 197.932665 550.080804 198.216132 550.904432 200.388652 550.594955 221.82929 549.635699 223.493977 559.250451 223.215982 568.85164 223.275083 578.470091 222.87013 578.646406 223.174392 578.859711 223.478654 578.974378 223.806995 579.781978 226.123985 579.56744 246.041122 578.466392 247.808689 568.817117 247.72478 559.167841 247.717848 549.518566 247.787894 550.978411 250.085184 550.380417 273.846095 549.898323 278.242575 561.930942 277.948163 574.57635 277.387795 586.562116 278.326849 588.044154 280.091132 587.843179 284.976839 587.453558 287.263184 587.372182 287.737089 587.1934 288.071996 586.968999 288.502122 588.236499 291.117902 587.721114 299.013398 588.009631 302.394211 586.461834 302.54087 584.915682 302.697379 583.371173 302.863738 562.414269 303.767769 540.982669 303.427389 520.009737 302.792598 521.028175 259.494329 519.777937 216.123826 520.250167 172.812424ZM525.741845 2.20295244C535.901572 1.89923743 546.10692 2.04173723 556.272812 2.03735936 567.521258 2.03243425 578.790665 1.90832152 590.036644 2.12075786 592.002009 3.64852644 592.396562 9.88874806 592.572877 12.3272239 592.847831 16.1129904 593.193065 23.061771 592.253536 26.5750149 591.685134 26.9832516 559.471154 26.6253604 556.238289 26.568448 556.413372 26.9022609 556.610648 27.2524909 556.700655 27.6147599 557.188914 29.5979369 557.002735 49.1714116 556.679695 51.1513051 556.608182 51.5858091 556.415838 51.8780322 556.186504 52.2589072 566.025658 52.1523789 575.864811 52.1483659 585.703965 52.2468681 585.824796 52.4416834 585.98385 52.6715218 586.065227 52.8904155 586.828439 54.9305048 586.621299 75.3401535 585.606559 76.8899209 575.859879 76.6338152 566.070045 76.7684349 556.3172 76.7443565 556.401042 76.8899209 556.572426 77.163538 556.632842 77.3386529 557.296183 79.2966571 557.134663 102.02439 556.839982 105.355952 556.782032 106.010444 556.567494 106.508427 556.180339 107.056756 569.009461 107.191376 581.890368 106.753588 594.704694 107.318334 594.873612 107.643391 595.04253 107.979393 595.125139 108.331812 595.814373 111.303294 595.591204 129.738521 594.306443 131.651652 585.073914 132.147447 575.753843 131.962481 566.506518 131.960293 553.048167 131.990208 539.590228 131.936579 526.132699 131.799406L526.103107 48.2728529C526.11667 32.9743722 526.723294 17.466848 525.741845 2.20295244ZM427.743629 291.903731C428.600548 282.434389 430.63126 273.270404 432.320438 263.911604L439.73556 222.655614 445.874551 188.695351C446.863398 183.407973 447.213563 177.978315 449.261537 172.90217 452.625098 172.242206 482.963721 172.649348 487.018981 173.234889 488.529377 179.312472 489.055858 185.616611 490.149508 191.766429L498.204545 237.050064 505.787351 277.766481C507.344601 286.278162 509.301335 294.565478 509.589851 303.226007 500.109494 302.917367 490.313494 302.770708 480.83437 303.049798 478.832016 293.73806 477.465878 284.827992 476.578135 275.38054 470.975489 275.475758 465.427094 275.365217 459.831846 275.166024 457.317807 284.344237 457.213004 293.351712 456.857906 302.749913L446.553921 303.016964 427.125908 302.945823 427.743629 291.903731Z"/><path fill="#152C96" d="M465.235983,213.920661 C465.546693,214.124232 466.239626,214.459139 466.450465,214.715245 C467.833864,216.406199 470.07295,229.076861 470.758485,232.026453 C471.128378,238.516651 473.04689,244.943371 473.499392,251.486103 C469.209866,251.663407 464.947466,251.680919 460.683833,251.179652 C461.553081,249.935241 462.33109,248.647052 462.744137,247.222054 C465.006649,239.402076 465.122549,222.352446 465.235983,213.920661 Z"/><path fill="#FEFEFE" d="M84.1981169 2.17526239C93.8720515 1.90044135 103.594072 2.03615544 113.272939 2.07074065 113.086759 18.8458783 112.523289 35.9589878 113.448022 52.7087338L130.47173 52.4975013C130.008131 35.7291494 130.532146 18.9520417 130.19431 2.18106307 139.841119 1.96764172 149.558208 1.88916832 159.201318 2.22724964 158.583597 16.4686927 158.767311 30.7832462 158.761146 45.0332261L158.780873 98.9303276C158.853619 109.965853 159.537921 120.905066 159.101447 131.948253L152.348434 131.915419C145.06894 131.945335 137.789446 131.938403 130.509952 131.894624 129.944016 113.823855 129.768933 95.0285474 130.539544 76.9665337 124.848123 76.8921098 119.156292 76.8523441 113.46405 76.8472366 112.747691 83.192965 113.206358 89.9009624 113.207591 96.2795249L113.163204 131.828956C103.080743 132.001153 92.999926 131.936944 82.9207531 131.63633 82.3881072 91.8677223 83.0958357 52.0629973 82.7234768 12.2845396 82.7074481 10.6581594 82.0663003 3.17867111 82.9589753 2.25756642L84.1981169 2.17526239ZM343.809978 172.751134C357.108864 172.78944 386.685507 171.670893 397.964778 174.727744 402.499666 175.955737 406.683155 178.321978 410.001095 181.31535 418.671387 189.137516 420.058486 200.095335 419.885869 210.531092 419.723116 220.36708 417.290453 229.19178 409.068965 236.244535 407.881198 237.258013 406.6811 238.259816 405.468673 239.249945 408.81004 246.886052 410.65334 255.386789 412.920784 263.342481 415.780057 273.377662 419.179373 283.404088 420.731691 293.683336 421.573814 296.455625 423.473831 299.659134 423.690835 302.467541 422.507177 303.465696 412.892426 302.967713 410.50415 303.193173 404.383654 302.754291 397.96601 302.970996 391.809758 302.873588 391.261084 298.848133 389.904809 294.890535 388.901166 290.937315L383.670879 269.726515C382.164182 263.700372 380.339377 257.655622 379.693297 251.494859L373.971052 252.056321C373.71336 258.620943 374.483971 265.24795 374.564114 271.821328 374.689878 282.152016 374.292859 292.536333 374.158465 302.871399 364.052988 302.845132 353.983268 303.084821 343.869161 302.908611L343.798881 295.941225C343.044299 290.108802 343.425289 283.909733 343.406794 278.036815L343.441318 243.590607 343.42159 204.481964C343.420357 196.958588 342.99498 189.173633 343.782852 181.688563 343.797648 178.713798 343.877792 175.724805 343.809978 172.751134Z"/><path fill="#244D92" d="M374.524659,195.51389 C377.086784,195.432899 380.594603,195.026851 382.753545,196.462794 C385.876675,198.539 387.237881,202.773499 387.602842,206.056905 C388.251388,211.881666 388.965281,222.986143 384.731239,227.608084 C381.507005,230.011537 378.407302,230.103472 374.376702,230.219486 C374.084486,218.690355 374.212616,207.044115 374.524659,195.51389 Z"/><path fill="#FEFEFE" d="M54.5134646,171.365536 C63.8303293,170.625676 74.2418305,171.662137 82.0169812,176.600379 C91.9116187,182.885912 95.799194,193.677371 97.7682577,203.851551 C101.987504,225.652269 103.893686,273.436764 89.2471562,291.57539 C83.7271198,298.412535 75.8668937,302.182979 66.6347346,303.556537 C66.327148,303.597397 66.0188628,303.633514 65.7098788,303.664889 C55.3146528,304.782341 44.4288254,303.211779 36.0587636,297.337767 C24.3444992,289.118308 21.6532811,273.390796 20.141775,260.966389 C19.2597035,253.71663 19.4636379,246.335534 19.4583361,239.054036 C19.4457597,221.796456 19.0777162,194.928349 31.8578889,181.050488 C37.4644802,174.96196 45.9266455,172.188577 54.5134646,171.365536 Z"/><path fill="#244D92" d="M59.5019648,195.201966 C61.3706642,195.359569 63.2571184,195.582841 64.4792449,196.989233 C67.0560427,199.955243 67.7050816,205.392562 68.1752156,209.078732 C69.3661477,218.418926 68.9588956,228.04806 68.9641974,237.436411 C68.9702389,248.344979 69.5758771,259.776702 67.5392463,270.565973 C66.5130398,276.002198 65.1633003,278.737274 60.0651885,281.968146 C59.3705295,281.85651 58.7434376,281.600404 58.1374295,281.283008 C55.281979,279.78687 53.4639549,276.581172 52.7090033,273.812166 C49.8709377,263.404865 48.8197018,205.748265 54.4190186,198.14937 C55.7780055,196.30519 57.1590626,195.623336 59.5019648,195.201966 Z"/><path fill="#FEFEFE" d="M409.115818,2.20317134 C421.44805,1.99004184 433.780283,1.96822543 446.112515,2.13772212 C449.933099,19.2019454 453.449137,36.3157845 456.66063,53.4792396 C457.670438,58.8804416 457.997177,64.3713901 459.163573,69.7408526 C461.555547,62.4571647 462.167104,54.5178902 463.82669,47.0711265 C466.230995,36.2796671 468.614339,25.4991523 470.780679,14.6671975 C471.609239,10.5268232 472.932223,6.37298689 473.273757,2.17723243 C485.205272,1.86662227 497.179941,2.05487086 509.116388,2.07774525 L509.028847,131.906664 C500.661867,131.801595 492.276393,131.93512 483.906948,131.970143 L483.696109,100.588447 C483.670216,91.4813749 483.789815,82.5067332 483.084552,73.4018497 C482.718358,71.9746628 482.549441,70.7149296 481.503876,69.5482261 C480.735732,69.9137786 480.563115,70.4095729 480.352276,71.1724174 C480.119244,72.0118747 480.148835,72.8819772 479.833193,73.706112 C478.96641,86.1721082 475.175007,100.725256 472.431634,113.143096 C471.034672,119.46584 470.257896,125.658343 468.096488,131.843184 C462.406301,131.97671 456.711182,131.840995 451.022228,131.752343 C450.947016,124.998378 448.79054,117.882144 447.313434,111.255137 L440.075861,79.0383625 C438.916863,73.7433239 438.936591,68.2819261 437.514969,63.0350441 C436.386795,58.8684025 434.680356,54.575897 432.77664,50.6369049 C432.840755,56.1311368 435.196973,59.909242 435.342464,64.1470241 C435.470694,67.9251294 435.129159,71.6999512 435.187109,75.4780565 C435.668792,94.2190055 435.65975,112.959954 435.159984,131.700903 C426.597372,131.967954 418.03476,131.967224 409.472148,131.698715 C408.818671,88.5492938 410.27235,45.3429607 409.115818,2.20317134 Z"/></g></svg>