<?xml version="1.0" encoding="UTF-8"?>
<svg width="932px" height="932px" viewBox="0 0 932 932" version="1.1" xmlns="http://www.w3.org/2000/svg" xmlns:xlink="http://www.w3.org/1999/xlink">
    <title>twitter</title>
    <g id="twitter" stroke="none" stroke-width="1" fill="none" fill-rule="evenodd" stroke-linejoin="round">
        <g transform="translate(161.000000, 262.000000)" id="path1-0" stroke="#000000" stroke-width="22.4">
            <path d="M547.550268,109.038948 C547.921998,113.790943 547.921998,118.542945 547.921998,123.338745 C547.921998,269.468254 422.031276,438 191.834652,438 L191.834652,437.912437 C123.833848,438 57.2455881,420.787701 0,388.33394 C9.88787613,389.385088 19.8253127,389.910662 29.7875316,389.932549 C86.140974,389.973601 140.8836,373.26771 185.217974,342.500128 C131.664828,341.602285 84.703638,310.747124 68.2981984,265.701723 C87.0579011,268.898923 106.387577,268.241972 124.800318,263.796546 C66.4147764,253.372804 24.4099118,208.042646 24.4099118,155.398367 L24.4099118,153.996845 C41.8066245,162.559234 61.284977,167.311228 81.2094213,167.83681 C26.2189664,135.361129 9.26833148,70.7163915 42.4757296,20.1743752 C106.015855,89.2645388 199.764784,131.266094 300.403019,135.71152 C290.316887,97.301337 304.095474,57.0516591 336.608989,30.0506491 C387.014828,-11.8195046 466.291277,-9.67344401 513.673781,34.8464493 C541.701805,29.9630617 568.565095,20.8751322 593.148478,7.99874414 C583.805806,33.5982401 564.253103,55.3435768 538.133257,69.1615893 C562.939666,66.5775669 587.176115,60.7087241 610,51.7521962 C593.198046,74.001198 572.03454,93.3814685 547.550268,109.039006 L547.550268,109.038948 Z"></path>
        </g>
    </g>
</svg>