<svg xmlns="http://www.w3.org/2000/svg" width="932" height="932" viewBox="0 0 932 932"><g transform="translate(168 270)"><path d="M459,0 L459,10.4571029 C445.201218,12.9068821 434.756632,17.2404536 427.666221,23.4578223 C417.508674,32.690566 405.532385,46.821773 397.675343,65.8514775 L237.815518,392 L227.179308,392 L66.6960911,61.6121101 C59.2219003,44.6549873 49.0608316,34.2921031 45.9945997,30.5234331 C41.2034522,24.6828855 35.3103756,20.1137965 28.3154345,16.8161516 C21.3203696,13.5192352 11.8819019,11.3995539 0,10.4571029 L0,0 L156.154555,0 L156.154555,10.4571029 C138.139814,12.1532204 129.551287,15.1678768 124.185415,19.5010816 C118.819236,23.8350149 116.136222,29.3932878 116.136349,36.1759199 C116.136222,45.5970667 120.544024,60.2935224 129.359785,80.2653211 L247.876848,304.95168 L363.754303,83.0915645 C372.761257,61.235597 380.233962,46.0681065 380.23427,37.5890391 C380.233962,32.1253222 377.455101,26.8967757 371.897792,21.9033897 C366.339739,16.9107223 360.05094,13.3779218 346.827811,11.3049734 C345.869277,11.116932 344.240364,10.8343052 341.940881,10.4571029 L341.940881,0 L459,0 Z"/><path d="M596,0 L596,10.4571029 C582.204746,12.9068821 571.762836,17.2404536 564.674221,23.4578223 C554.519234,32.690566 542.545995,46.821773 534.690934,65.8514775 L394.430143,392 L383.796639,392 L235.578197,61.6121101 C228.1059,44.6549873 217.947416,34.2921031 214.881963,30.5234331 C210.092027,24.6828855 204.200452,20.1137965 197.207287,16.8161516 C190.213995,13.5192352 183.878888,11.3995539 172,10.4571029 L172,0 L325.013946,0 L325.013946,10.4571029 C307.00378,12.1532204 298.417433,15.1678768 293.052924,19.5010816 C287.688107,23.8350149 285.005774,29.3932878 285.005896,36.1759199 C285.005774,45.5970667 289.412457,60.2935224 298.22598,80.2653211 L404.488923,304.95168 L500.778502,83.0915645 C509.78316,61.235597 517.253996,46.0681065 517.254289,37.5890391 C517.253996,32.1253222 514.475817,26.8967757 508.919948,21.9033897 C503.363297,16.9107223 493.975147,13.3779218 480.755352,11.3049734 C479.797086,11.116932 478.168552,10.8343052 475.869653,10.4571029 L475.869653,0 L596,0 Z"/></g></svg>