<svg xmlns="http://www.w3.org/2000/svg" width="932" height="932" viewBox="0 0 932 932"><g fill="#D8D8D8" transform="translate(195 195)"><path d="M275.736379 366.142735C277.574516 367.51347 330.215013 517.426416 336.542314 534.064484 329.53873 535.009399 322.52703 537.064149 315.519388 538.229409 307.53835 539.559589 299.514481 540.538299 291.44778 541.165539 283.38108 541.793679 275.302206 542.067195 267.211159 541.986087 257.014619 541.833783 246.857302 541.120478 236.739211 539.846173 226.621119 538.570966 216.604019 536.742419 206.68791 534.360531 210.017927 527.989454 212.447134 520.730238 215.171201 514.064466L231.45609 474.284774 260.528133 403.333712C265.601606 390.952491 270.933419 378.629398 275.736379 366.142735ZM503.478653 137.780241C504.678379 138.856281 505.542668 140.742055 506.362323 142.149289 541.025872 201.672155 549.751272 275.722916 532.182798 342.046735 531.609311 344.188001 531.009222 346.322508 530.382534 348.450255 529.755845 350.577102 529.103007 352.695838 528.424019 354.806463 527.744129 356.917087 527.038992 359.019151 526.308606 361.112653 525.577319 363.206155 524.820334 365.290194 524.037649 367.364771 523.254964 369.439347 522.447032 371.504011 521.613852 373.558761 520.77977 375.61261 519.92044 377.656545 519.035862 379.690568 518.152186 381.723689 517.243262 383.745996 516.30909 385.757488 515.374918 387.768079 514.415949 389.766954 513.432183 391.754114 512.448417 393.741274 511.440305 395.716267 510.407846 397.679094 509.375388 399.64102 508.318584 401.590329 507.237433 403.527021 506.157184 405.462812 505.052589 407.385535 503.923647 409.295191 502.795608 411.203946 501.644124 413.098732 500.469195 414.979549 499.293365 416.859465 498.094992 418.724962 496.874076 420.57604 495.652259 422.427117 494.407898 424.262874 493.140995 426.083311 491.874994 427.902846 490.585999 429.707061 489.27401 431.495955 487.962924 433.283948 486.629745 435.055719 485.274474 436.811269 483.919204 438.566819 482.542743 440.305246 481.145092 442.026549 479.746539 443.747853 478.327247 445.451583 476.887216 447.13774 475.446283 448.823897 473.985061 450.49203 472.503551 452.142138 471.022041 453.792247 469.520242 455.423881 467.998155 457.03704 466.476068 458.650199 464.934594 460.244432 463.373734 461.819741 461.811971 463.394148 460.231273 464.94963 458.631639 466.486187 457.032005 468.021842 455.413435 469.537671 453.775929 471.033673 452.138423 472.529675 450.482883 474.0054 448.809308 475.460848 447.134832 476.915395 445.443224 478.349214 443.734483 479.762306 442.02484 481.176298 440.298065 482.568211 438.554157 483.938044 436.810249 485.308779 435.04966 486.657885 433.272388 487.985361 431.495117 489.311937 429.702066 490.616883 427.893235 491.900201 426.083503 493.182617 424.258441 494.442954 422.41805 495.681212 420.57766 496.918568 418.72194 498.132943 416.850891 499.324338 414.980743 500.516633 413.095718 501.685498 411.195814 502.830931 409.295911 503.976364 407.382481 505.097915 405.455526 506.195584 397.6918 510.567335 389.673792 515.043176 381.370392 518.307795 383.926741 512.985722 386.098961 507.409509 388.419964 501.975236L401.341022 471.677134C416.060542 437.048286 430.405851 402.265332 444.376951 367.328272 457.842192 334.069258 470.654143 300.560609 482.812805 266.802326 490.366883 245.628938 498.379481 223.939158 502.772614 201.864112 507.117055 180.025633 507.037253 159.6782 503.478653 137.780241ZM21.0639851 163.202367C29.7933076 163.196959 38.5078871 162.218249 46.4964095 166.419673 51.8207836 169.21927 59.3698574 174.721133 62.152761 180.183795 63.8840448 183.582243 64.776738 187.571432 65.8804315 191.211855L71.2555268 208.854318 91.1720538 274.160224 165.582092 517.913067C160.827374 515.835787 156.106469 513.684608 151.419379 511.45953 92.6260617 482.091473 46.3817119 434.587543 20.8060509 373.811549 19.9475325 371.730664 19.1146226 369.638965 18.3073214 367.536451 17.5000201 365.434838 16.718643 363.323762 15.9631901 361.203224 15.2077372 359.082686 14.4784339 356.952685 13.7752801 354.813222 13.0720362 352.674659 12.3951223 350.527986 11.7445383 348.373202 11.0940445 346.217517 10.4700609 344.054172 9.87258764 341.883166 9.2750242 339.713061 8.70424156 337.535747 8.16023971 335.351223 7.6161477 333.1667 7.09897174 330.975867 6.60871183 328.778727 6.11836175 326.580685 5.65506298 324.377686 5.21881552 322.169731 4.78256806 319.960875 4.37346208 317.747062 3.99149758 315.528292 3.60953308 313.309522 3.25480024 311.086697 2.92729904 308.859817 2.59988802 306.632035 2.29984391 304.401099 2.0271667 302.167009 1.7544895 299.932018 1.50922429 297.694323 1.29137107 295.453924 1.07360802 293.212624.883347143 290.969522.720588428 288.724618.557739541 286.478812.422528077 284.231654.314954034 281.983145.20728982 279.734635.127217942 277.484774.0747384008 275.233561.0222588594 272.983249-.00258326037 270.732487 0 268.481274.00291717268 266.23006.0332597254 263.979298.0912396999 261.728986.149219674 259.478674.234791985 257.229264.347956632 254.980754.461121279 252.732245.601833177 250.485538.770092325 248.240633.938351474 245.995728 1.13415787 243.753077 1.35751152 241.512678 1.580775 239.27228 1.83149556 237.035035 2.1096732 234.800945 2.38785084 232.566855 2.6933503 230.33682 3.02617158 228.110841 3.35908304 225.883961 3.71922615 223.661586 4.10660091 221.443718 4.49406584 219.225849 4.90862716 217.013388 5.35028488 214.806334 5.79194261 212.598379 6.26060655 210.396732 6.75627672 208.201394 7.25203706 206.005154 7.77462329 203.815223 8.3240354 201.631601 8.8734475 199.448879 9.44955024 197.272917 10.0523436 195.103714 10.655137 192.93451 11.2844406 190.772967 11.9402545 188.619085 12.5960684 186.465202 13.2782123 184.319881 13.9866861 182.183121 14.6950698 180.046361 15.429603 177.918162 16.1902858 175.798525 16.9509687 173.67979 17.7374855 171.570517 18.5498364 169.470706 19.3622774 167.370896 20.200327 165.281449 21.0639851 163.202367Z"/><path d="M263.559232,0.139290211 C314.811997,-1.69254655 366.268999,14.6713752 409.4483,41.6937724 C422.792711,50.0459261 435.161922,59.4384322 447.295788,69.4395228 C436.661918,67.8971084 426.702978,68.7514519 416.573615,72.4445948 C399.868078,78.5344956 386.73602,89.5936474 379.19682,105.832932 C368.299199,129.304397 372.797832,156.858326 391.864948,174.649488 C399.222905,181.515327 408.164715,186.011445 415.038453,193.520745 C422.81841,202.022274 428.324704,212.563682 432.251202,223.337602 C437.382835,237.418048 441.798961,258.802319 440.085261,273.715479 C438.67183,286.026406 431.737227,301.979108 426.973491,313.393785 C415.86442,339.309772 403.982132,364.867078 391.326627,390.065704 C385.824391,401.157299 379.855519,412.104251 374.623796,423.317509 C373.057525,416.658496 370.856901,410.087351 368.928142,403.520262 L358.824478,368.890963 L327.196086,260.360955 L318.213699,229.595128 C314.243919,215.987815 309.551869,202.150696 309.513998,187.807999 C309.491004,179.591702 312.443654,172.783991 318.263744,167.013117 C319.698816,165.589662 321.411164,164.112134 323.406198,163.593039 C327.862901,162.433187 348.489525,163.211829 354.68157,163.20507 C354.814121,155.214525 354.715384,147.207759 354.715384,139.215863 L244.001135,139.218566 L192.423755,139.217214 L192.444043,163.232106 C195.57929,163.157757 198.304709,163.064482 201.203257,164.516325 C206.617577,167.226703 213.223507,175.156416 216.251901,180.332494 C221.092733,188.606918 224.163057,198.344001 227.522829,207.299737 C230.17521,214.368348 233.05347,221.445069 235.401524,228.616418 C243.764436,254.156151 250.374424,280.702981 259.07683,306.061572 L227.284778,379.42291 C220.823573,394.340125 214.182476,409.205972 207.951207,424.219166 C207.928213,424.065059 207.902514,423.910953 207.882226,423.755495 C206.958424,416.835583 204.833543,409.871062 203.207759,403.068758 L194.090115,364.855813 L164.414828,239.927006 L156.346775,206.056073 C155.079421,200.77185 153.089797,194.900942 152.539303,189.511279 C151.919828,183.436248 154.443715,173.399064 158.475713,168.73397 C161.159203,165.628864 164.176777,163.374046 168.383255,163.068537 L168.377845,139.205048 C154.125863,139.428097 139.836008,139.213159 125.579968,139.213159 L30.6364969,139.233436 C40.3910641,119.748457 54.3362849,101.147561 69.2388516,85.3138192 C120.291436,31.0720661 189.517091,2.45750795 263.559232,0.139290211 Z"/></g></svg>