<svg xmlns="http://www.w3.org/2000/svg" width="932" height="932" viewBox="0 0 932 932"><g fill="none" transform="translate(188 270)"><path fill="red" d="M546.332235,61.059342 C539.90266,37.0126465 521.022132,18.1154797 496.999114,11.6785053 C453.501829,0 278.999023,0 278.999023,0 C278.999023,0 104.498562,0 60.9995184,11.6785053 C36.9765013,18.1154797 18.0977887,37.0126465 11.6671005,61.059342 C0,104.600711 0,195.5 0,195.5 C0,195.5 0,286.39968 11.6671005,329.94144 C18.0977887,353.98794 36.9765013,372.88497 60.9995184,379.32083 C104.498562,391 278.999023,391 278.999023,391 C278.999023,391 453.501829,391 496.999114,379.32083 C521.022132,372.88497 539.90266,353.98794 546.332235,329.94144 C558,286.39968 558,195.5 558,195.5 C558,195.5 557.953126,104.600711 546.332235,61.059342 Z"/><polygon fill="#FFF" points="223 279 368 195.501 223 112"/></g></svg>