<?xml version="1.0" encoding="utf-8"?>
<!DOCTYPE svg PUBLIC "-//W3C//DTD SVG 1.0//EN" "http://www.w3.org/TR/2001/REC-SVG-20010904/DTD/svg10.dtd">
<svg version="1.0" xmlns="http://www.w3.org/2000/svg" width="1024px" height="1024px" viewBox="0 0 1024 1024" preserveAspectRatio="xMidYMid meet">
 <g fill="none" stroke="#353535" stroke-width="1">
  <path d="M671.5 499C675.5 497.5 681 495 684 492.5C685.5 491.5 685.5 489.5 687 488C692 484 699 480.5 704.5 477C728 462.5 753 449.5 777.5 436.5C786 432 795 428.5 803 423C805.5 421.5 810 419 809.5 415.5C808 408 799 401 794 396C782 383 771.5 369 760 355.5C755.5 350 748.5 338.5 741 344.5C735.5 349 729 354 725.5 360C719.5 370 716 384 712.5 395C711 399.5 710 404 708 408.5C707.5 410 706 412 704 411.5C702.5 411 700.5 408 699.5 406.5C694.5 401 691 394 688.5 387C683 375 677.5 363.5 674 350.5C670.5 339 669 326 664.5 315C662 309.5 656 306 652 302.5C642 293.5 631 285.5 620 277.5C609.5 270.5 592.5 278 580.5 280.5C577.5 281 570 284 567 282.5C565.5 282 563.5 277 562.5 275.5C561.5 273 562 270.5 561 268C557.5 257.5 554.5 247 552 236C543 201.5 538 166.5 532 131.5C529.5 119.5 527.5 108 525 96C524 91.5 520.5 85 522 80.5C523.5 75 527.5 70 530 65C535.5 54 541 42.5 547.5 31.5C549.5 28 551.5 25 553.5 21.5C554 20 554.5 17.5 556.5 16.5C558.5 16 560.5 18 561.5 19C565 22.5 568.5 26 572 29.5C583 40.5 594.5 52 605.5 63.5C609.5 67.5 617.5 74 619 79.5C620 83.5 618 88.5 617.5 92.5C616 102 614.5 111.5 613 121C608.5 144 601.5 166.5 595.5 189C592 200.5 590.5 212.5 586.5 224C584.5 230.5 582 237.5 578.5 243.5C574.5 251 569 256.5 570 265.5C574.5 264 576 258 578 254C583 243.5 589 233.5 594.5 223.5C611.5 192.5 628.5 161 645 129.5C649.5 120.5 654 111.5 659 102.5C661 98.5 663.5 93 667.5 90.5C681.5 82 699.5 77 715 71C718.5 69.5 727.5 64.5 731 66.5C734.5 68.5 734 80 734.5 83.5C736.5 100.5 739.5 118 740.5 135C741 139.5 741.5 144 742 148.5C742.5 150.5 743 152.5 741.5 154C729.5 164.5 714.5 172.5 701.5 181C671.5 201.5 641.5 221 612 242C601.5 249.5 591.5 257.5 581 265C578.5 267 569.5 273.5 570.5 266M582 225.5L574 248M569.5 270L565 278M565.5 281.5C557.5 288 544.5 285.5 536 292C519 304.5 504 319.5 489 334.5C483 340.5 473.5 349 471 357.5C470 360.5 471.5 363 472 366C472.5 372 473.5 379 473.5 385C473.5 392.5 473.5 400.5 473 408C472.5 410 471.5 415 473 416.5C475 419 482.5 419.5 485.5 421.5C480.5 426 466.5 426.5 472 416.5M651 403.5C643.5 393.5 636 384 629 374C626 370 624.5 365.5 621.5 362C618.5 357.5 615.5 353 612.5 348.5C611 346.5 609 344.5 609 342.5C609 339 615 329.5 618.5 329C621.5 329 625 331 628 332C635.5 334.5 642.5 337.5 649.5 341.5C652.5 343 655.5 344.5 657 347.5C662 356.5 659.5 370.5 660 380C660.5 393.5 662.5 407 662 420.5C661.5 431 660.5 441.5 659.5 452M534.5 336.5C541.5 332.5 549.5 335.5 556.5 336.5C567.5 338 578.5 339 589.5 341C596 342 602 344.5 608.5 343M541 335C540.5 340 535.5 345 533.5 349.5C528 362.5 522.5 376.5 519 390C518 395 517 400.5 517 405.5C517 408 518 411.5 516 413.5C514.5 415 511 416.5 509 417C501.5 420.5 493.5 421.5 485.5 421.5M545 409.5C548 409.5 551.5 409 554 409C555.5 409.5 557.5 410.5 559 409.5C561 408 561.5 400.5 560 398.5C558.5 396 546 392 543.5 393.5C541.5 386 548.5 382.5 553.5 379C559 375 563 369 571 368C575 367.5 579.5 371 583 370C586.5 369.5 580.5 361.5 581.5 359.5C582.5 355.5 593 352.5 596.5 351C598 350 600 349 602 349.5C603.5 350.5 604 353.5 604.5 355C606 360 607 365 608.5 370C609.5 373.5 611.5 377.5 611.5 381C611.5 384 609 388 608 391C606.5 397 605.5 404 604 410C603.5 412.5 604.5 415.5 604 418.5C602.5 424 600 428.5 596 432.5C592.5 436 591 442 585 443C577.5 444 570 444 562.5 443.5C560 443.5 558 444.5 555.5 443C552 441 546 435.5 545 431.5C543 425 546 417.5 544.5 411C543.5 408.5 541.5 409 540 410M555.5 443.5C553 445 548.5 447 545.5 444.5C543.5 443 542.5 438 541 435.5C536 426.5 530.5 415.5 527.5 406C521.5 387 549.5 375 562.5 367.5C567.5 365 574 359.5 580 360M584.5 370C588.5 375 592.5 381.5 595.5 387.5C597.5 391 597.5 394 600.5 396.5C603 398.5 602 401.5 606 402M587.5 376.5C585.5 378 583 379 581.5 381.5C577.5 387 577 395 569 395.5L562.5 386.5L560.5 382L554 379M562 382L568.5 385.5M562 387.5L562 396.5C565 397 566.5 397.5 569 395.5M578.5 388C579.5 390 579 392 580.5 394C584 398 594 398 598 395M568 392.5L572 389.5M745 392.5L732 414L703 462.5L688 486.5M575.5 393.5L582.5 405.5L584 409.5L590 409L603.5 410M543 394L545.5 398.5L551 399L560 401.5M578 395L579.5 394.5M561.5 397L561 398.5M587.5 397L581 400M545.5 399L548 409M602.5 401L601.5 409.5M554 401.5L548 406M583 409.5C581.5 411.5 578 415 578 417.5C578 421.5 587.5 427.5 591 429C593.5 423 584 418.5 581 414M560 410L561 416C556 417 550 423.5 546 427M601 410L590 422.5M704 412C704 420 701 427 699 434.5C695.5 446 692 457.5 688 469C686.5 473.5 684.5 477.5 683 482C682 483.5 681 485.5 681.5 487C682 488.5 684 489 685 490M539.5 413L543.5 413M561 416C566 422.5 573.5 432 563 437.5C562 435 563 430.5 561.5 429C560.5 428 558 428.5 557 428.5C553 428.5 550 430 546.5 427M562 418C559.5 420 557 422.5 554 421M578 419.5C572.5 427 580.5 435 581.5 442.5M566 422.5C569.5 420.5 572.5 420.5 576.5 421M594.5 421L601.5 422M566 422.5L562 428.5M492 440C488 441 484 436.5 482 433.5C483 432.5 484 431.5 485.5 430.5C486.5 430 487.5 429.5 488.5 429C498 425 489.5 439 493.5 439.5C495 440 499 435 498.5 433.5C498.5 431.5 495.5 431 494 430.5M591 429L595 432.5M571 443C571 439 572.5 431.5 576 429.5M633 429.5L636.5 440.5L639.5 453.5L641.5 486C645 485.5 646.5 482 648.5 479C652.5 472 655 465.5 657.5 458M540 464.5C547 464.5 554 465.5 560.5 466.5C564.5 467.5 570 469 574 467.5C579 466 584 460.5 588 457C596.5 450.5 606 444 615.5 438.5C620.5 435.5 627 428.5 632 433.5M480.5 450.5L489 444L489.5 444C490.5 447.5 487.5 455 483 453C478 450.5 476.5 445 476 440C476 437 478 433.5 481.5 433.5M500 434.5C501 435 502 435.5 502.5 436.5C506.5 444 496.5 442.5 495 448C494.5 450.5 498.5 462.5 491 458.5C490 458 489.5 457 488.5 456.5C487.5 456 486 455 485 454C483 457 483.5 461.5 486 464.5C487 465.5 489.5 467.5 491 466C492.5 465 492.5 462 493 460.5M563 437.5L562.5 442.5M495 439.5L497 444M489.5 441L489.5 444M770 441.5C773.5 444.5 779 445 783.5 445.5C789.5 446.5 796 448.5 802 449.5C808 450.5 815 450.5 819.5 455C826.5 461.5 830.5 470 836.5 477.5C850 495.5 863 512.5 875 532C885 548.5 895.5 565 905.5 581C912.5 592 921 603.5 926 616C930 627.5 932 639.5 934.5 651.5C940.5 678 944.5 704 949 730.5C953 752.5 955 775 957.5 797C958.5 806 962.5 816 960.5 825C959.5 830 956.5 834 953.5 838.5C950.5 844 947.5 850 944.5 855.5C943 857.5 941 864.5 938 864.5C936 864.5 935 861 934 859.5C931 854 929.5 847 925.5 842C923.5 839 919 841.5 918 844.5C916.5 848 917.5 853 917 856.5C916 868.5 915.5 880.5 915.5 892.5C915.5 917.5 914.5 943 916 968C917 979 917.5 989.5 918.5 1000.5C919.5 1008 921.5 1016.5 920.5 1024M504 442.5C508 445 515 444.5 517.5 448.5C521 453 511.5 464 506.5 464M511.5 447L515.5 455M491 448L494.5 448M519.5 451.5C527.5 452.5 528.5 457 531 463.5L530.5 464L521 464L517 459.5C519 457.5 520.5 456.5 523.5 456.5M491 467L494 469.5C496 468 498.5 468 500 466.5C501.5 464.5 501 462.5 502 460.5C503.5 458 510.5 458.5 512.5 460M515.5 458.5L516.5 459.5M496.5 459L501.5 459.5M611 463C604 474.5 590 484.5 587 498C591 498 597 494.5 600.5 493C607 490 614 488 621 485.5C627.5 482.5 633 479.5 640.5 480M512 463.5C512.5 466 515 467.5 517.5 468C517.5 472 519 473 523 474C524.5 474 527.5 474.5 528 476.5C528 479 525 481 523.5 482.5C517 488 507.5 485 500.5 481M521 464.5L517.5 468M531.5 464.5C532 469 531.5 471.5 528 474.5M512 465.5C510 467.5 505.5 468 504.5 470C502 476 515 473.5 517.5 472M500 467L504 470.5M494 469.5C495 474.5 501 476.5 504.5 473.5M494 471.5C492 473.5 490.5 475 487.5 475M720.5 545.5C714 546.5 707.5 552 701.5 555C687.5 562 673.5 569.5 659 576C654 578.5 649.5 581.5 644.5 583.5C643 584 640 586 638.5 585C636 583.5 641 578 642 576.5C647 568 653.5 562.5 659.5 554.5C679 529.5 701.5 506 724 483.5C730 477.5 737.5 476.5 745.5 475C748 474.5 752 472.5 754.5 474C759 477 762 485 764 489.5C768.5 497.5 774 507 774.5 516.5C774.5 524 771 533 769.5 540.5C767.5 552 767 566.5 762 577C755.5 590 742.5 601 732.5 611.5C726.5 618 721 625 715 631.5C711.5 635 707 637.5 703.5 641C689 654.5 674 667 659 679.5C652.5 685.5 642.5 691.5 637.5 699C633.5 705.5 630.5 714 626.5 720.5C624.5 723.5 623 726.5 619 727.5C610 729 599.5 727 590.5 727C575.5 726.5 560 727.5 545 726C538 725.5 528.5 727.5 522 724.5C516.5 721.5 512 715.5 507.5 711.5C498 703 489 694.5 479.5 686.5C470 678.5 461 670 452.5 660.5C450 657.5 446 655 444 651.5C442.5 648.5 444 642.5 444 639C444 635.5 442.5 632 442.5 628.5C442 622.5 443.5 615 444 609C444.5 604.5 447 594.5 444.5 590.5C442.5 587 437.5 586.5 434.5 583.5C425.5 572.5 416.5 560 403.5 552.5C397.5 549.5 390.5 546 384 543.5C380 542 376.5 541.5 373 538.5C371.5 540 370.5 541.5 369.5 543C365.5 551 373.5 558 376.5 565C377 566 378.5 567 378.5 568.5C378.5 571.5 373.5 572.5 371.5 573.5C367.5 575 363.5 574.5 359.5 576C354.5 577 351.5 579.5 346 578C345 581.5 347 584 348.5 587C351 593 354 598.5 357 604C359.5 609.5 361.5 617.5 363 623.5C363.5 628 364.5 635.5 367.5 639C369.5 640.5 372.5 641 374.5 642C379.5 644 384 647 389 648M495.5 474C494.5 477 496 478.5 497.5 481M519.5 486C530 492 543 481 553.5 482.5C557.5 483.5 565 485 567.5 488.5C570.5 492 571.5 498.5 575 501C578.5 503 583.5 500 586.5 498.5M641 486.5L639.5 490M486 504.5C479.5 504.5 471.5 507 465 505C466.5 501 470 500.5 473 498.5C477 495.5 482 492 487 491C493 490 500 493 505.5 495C509 496.5 517 496.5 518.5 501C519 504.5 517 507 514 508C507 510.5 499 511.5 492 512.5C488.5 513 485.5 514 482.5 511.5C484.5 509 486.5 505 489 504C494 501.5 505.5 503 505.5 495.5M685.5 493C686.5 497 687 505.5 682.5 507C679.5 508 675.5 506 673.5 509C670.5 514 669.5 520 667 525C664 532.5 659.5 540.5 656 548C653.5 553.5 648.5 559 648 565.5M518.5 499.5C525.5 497 529 501.5 535 503.5C538 505 542 504.5 545 505.5C547.5 506.5 548.5 509 551 510.5C557.5 514 563.5 516.5 570 521C573.5 524 577.5 527 581 530C582 531 583.5 533 585 533.5C587.5 534.5 589.5 531 591 529C594 524.5 596.5 519 598.5 513.5C599 512 600 509.5 599 507.5C598 504.5 592.5 506.5 590 506C587.5 505 585.5 502.5 584 500.5M588.5 498.5L593 505M473 499L476 500M505.5 499.5L508.5 499.5M618.5 518.5C624.5 520.5 628 518.5 633.5 516.5C641 513.5 648 510.5 655 507C658 505.5 665 500 668 501C670.5 501.5 672.5 505 674 507M575.5 501.5C574.5 503 574.5 505.5 573.5 506.5C571.5 508 569 507.5 567 507.5C563 507.5 559.5 507.5 555.5 507C552.5 506.5 550 505 547 506.5M312 576C300.5 578 288.5 579 277 580.5C271.5 581.5 266 584 261.5 579.5C266 576 278 569 274.5 562C268.5 550 254.5 566.5 246.5 556C242 550 241.5 537.5 240 530C239.5 528 238 523 240 521.5C241.5 520.5 244.5 522 246 523C250.5 525 255.5 527 260 529C261.5 529.5 264.5 530 265 532C265 534 263 536.5 262 538.5C259.5 543 255.5 548 255 553C264.5 553 275.5 548.5 284.5 545.5C295 542.5 306 540.5 316.5 538.5C366 527.5 415 517 464.5 505.5M518.5 505.5L521.5 507.5M599.5 507L603 505.5M588.5 506C585 508 577.5 508.5 574 506.5M533.5 509.5L534 509.5M600 510C606 510.5 609.5 515 614.5 518M525 512L529.5 519.5L547 531L556.5 539M372.5 538.5C381.5 532.5 395 531.5 405.5 529.5C431 524 458 521.5 482.5 512M523.5 518.5L528 520M389.5 540.5C393 541.5 397.5 540 401 539.5C410.5 538 419.5 535.5 428.5 533.5C444.5 530.5 460.5 528.5 476.5 525.5C490.5 523 505.5 519.5 520 519.5M629.5 519.5C639.5 527 654 523 664.5 529.5M528 520C528 529 527.5 542.5 532 550.5C529 552.5 523.5 552 520 552.5C513 553.5 505.5 555 498.5 556C495.5 556.5 489 556.5 486.5 558.5C485.5 559.5 486 562 486.5 563.5C487 567 487 576.5 491.5 577C495 577.5 499 574.5 501.5 573C510 568.5 518.5 564 526 559C527.5 558 529.5 558.5 530.5 557.5C531.5 556.5 530.5 553.5 530.5 552M621 520L619 521M584.5 534C583.5 540.5 579.5 546 572.5 545.5M554.5 537C563 534.5 575 536 584 536M287 557.5C283.5 557.5 279.5 560 278 555.5C289 551.5 301 549.5 312.5 547.5C324.5 545 336 542 348 540C354.5 539 366.5 534 372.5 538.5M472.5 543C480 546.5 481.5 553 485.5 559M289.5 556C307 554.5 324.5 549 342 546.5C349 545 357.5 542.5 364.5 544M825 545C830.5 558 839 569.5 845.5 582C847.5 586 851.5 590 852.5 594.5C853.5 599.5 851.5 606 851 611C849 627 845 643 840.5 658.5C831.5 692 821 725.5 810 758.5C806 770.5 803 782 798 793.5C790 812 784.5 832 776.5 850.5C773.5 858 770.5 867.5 761 867M531.5 557.5C537 557 545 555 550 552.5C551.5 551.5 551 549.5 552.5 548.5C556.5 545.5 562 547 565 550L563 554.5L565.5 558.5L569 571.5L571 581.5C577 576 576.5 566.5 577.5 559C578 557 579.5 553 578 551.5C576.5 549 567.5 550 565 550M532 550.5C537.5 550.5 546 547 551 549.5M467.5 549C467.5 551.5 466 553 463.5 553C463.5 558.5 459 557 457 561C456 563.5 456.5 566.5 459.5 565M433 580C434.5 579 437.5 578.5 438 577.5C439.5 575.5 438.5 572 439.5 570C440 568.5 441.5 567.5 442 566C443.5 563 444 559.5 445.5 556.5C449.5 550.5 458 547 463.5 553M456.5 550.5L458 559M552 552.5L562 552M579.5 552C587 553.5 594 559 600.5 563C606.5 567 613 569 619 573.5C623.5 577 630.5 585.5 637 585M466.5 553L472 563L484.5 558.5M249 557.5L254.5 553.5M272 557L278 555.5M463.5 557C464.5 558.5 468 565 468 567C467 572.5 460 569 458.5 566.5M531 559C532.5 565.5 530.5 576 536 580.5C541.5 585 550.5 587.5 557 589C559.5 589.5 562.5 590.5 565 590C568 589.5 569 587.5 571.5 586C573 585 574.5 585.5 576 585C578.5 584 580.5 582 583 580.5C584.5 579.5 588 578 588 575.5C588 572 581 565.5 578.5 563.5M249 560C246 562.5 241.5 562.5 238 563C231 564 223.5 565.5 216.5 567C189 573.5 161 577 133.5 581.5C130 582.5 127 585 123 585.5C114 586.5 105.5 587.5 96.5 588.5C93.5 588.5 88.5 588 86 589.5C77 594.5 86 603.5 93.5 603.5C105.5 603 118 600 130 598.5C147 596.5 164.5 594.5 181.5 591.5M604.5 562.5L604.5 564.5M472 563L479 570.5M472 564L468.5 566M570.5 581C567 584 561.5 582 557.5 581C556 580.5 553.5 580 553 578.5C552.5 576.5 554.5 574.5 555.5 573.5C558.5 570 561.5 566 565.5 564M87.5 587.5C92 581 99.5 575 105.5 570C107.5 568 109 565 111.5 564.5C114 564.5 116.5 567 118.5 568.5C123 572 128 576.5 131 581.5M457.5 566L444.5 568.5L446.5 574M345.5 578C345.5 574 350.5 575.5 353 574C355 573 355.5 570.5 357.5 570C360 569 363 569 365.5 569C369 568.5 372.5 567 376 566.5M424.5 569.5L433 569.5L441 566.5M606 566.5C602 571 595 575 589 576M442 567L444 569M456 567.5L454 572.5M468 568.5C472 572.5 474.5 575 480.5 575M335 572C341 572 350 568 355 572M314.5 575.5L331 573M355 573L358 576M488.5 575.5L484.5 577.5M438.5 578C441.5 580.5 444.5 584 443.5 588.5M255.5 579L259.5 581C257.5 582.5 252.5 584.5 250 584C247.5 583.5 245 581 242.5 583C241 584 239.5 590.5 241.5 592C243.5 593 251 592.5 253 592.5C266.5 591.5 280.5 589 294 588C299.5 587.5 308 585.5 313 588C308 592 298.5 591.5 292 592.5C277 594.5 261.5 597 246.5 600.5M259.5 580.5L261.5 579.5M251 580L254 582.5M571 582L572 585M185.5 591C198.5 588 212.5 587.5 225.5 585.5C230.5 584.5 236.5 581.5 241 584M313 588L346 584.5M766.5 585C766.5 597 769 609 770.5 621C772.5 644 774.5 667.5 775 691C775.5 717 772 743 769.5 769C766.5 800 765 832 759 862.5M635 585.5C632.5 589 629.5 593.5 625.5 596C622.5 598 619.5 598.5 616.5 600.5C609.5 605 602.5 610 595.5 614C591.5 616.5 587 621.5 582.5 623C574.5 625 565 624 557 624C546 624 534.5 625 523.5 625M241 592.5L237.5 597.5M446 595C452 597 455.5 607.5 459 612.5C462.5 617 465.5 622 469.5 625.5C473.5 629 479.5 631.5 484 634.5C497 642.5 511.5 653 526.5 656.5C540 660 554 660 568 662.5C572.5 663 578 662.5 582.5 664.5C590 668 596 678 601 684M625 597C623 605.5 616.5 613 612 620.5C604 634 596.5 649 587.5 662M454.5 600.5C462 601 469 605.5 476 608.5C489.5 613.5 504.5 617 517 624.5M353 614.5L358 609.5M716 632.5C713 658.5 712 685 710 711C709.5 717 708.5 723.5 708 729.5C708 730.5 707 735 709 735C711.5 735 713 731.5 713.5 730C715.5 725 718.5 720 721 715C730.5 693.5 740 671.5 752 651M411.5 650.5L431.5 650L438.5 651.5M899.5 650C900 662.5 901 675.5 900.5 688C900 706 898 724 896 742C894 764.5 892.5 787 889.5 809.5C888 822.5 887 836 885 849C884.5 853 885 860.5 883 863.5C879 869.5 869.5 871 863.5 873.5C855.5 877.5 848 883 839.5 886.5C836 888 831 888 827.5 889C819 891 810 893.5 801.5 893.5M582.5 663.5L584.5 663.5M923.5 723C926.5 747.5 929 772.5 932 797C933 804.5 934 811.5 935 819C935.5 822 937 825 936.5 828C935 833.5 926 834.5 924.5 840.5M709 735.5C707 739.5 707 744 705 748C682 789 655.5 828 632 869C627.5 877 623 885 619 893C617.5 896.5 614.5 900 614.5 904C614.5 909 619.5 916 623 919C626 921.5 632 919.5 636 919C648.5 917.5 661.5 915 674 912C679.5 910.5 685.5 911 691 910.5C708 909 725 908.5 742 906.5C761 904 780 896 799.5 894.5M705.5 749.5L701.5 794.5L694.5 860.5M884.5 862C889.5 861.5 893 858 897 855.5C903.5 851.5 909.5 847 917 845M869.5 873C862.5 883.5 847 886.5 839 896C836.5 899 834.5 903.5 832.5 907C827.5 915.5 822.5 924 818 932.5C810 947 801.5 960.5 794 975C791 981 788 987 784.5 992.5C782.5 995 780 999 779.5 1002C779.5 1004.5 781.5 1007 782.5 1009C784.5 1013.5 788 1019 789 1024M838.5 887.5C837.5 893.5 833 897 829 902C824 908.5 820 916 815.5 923C802 943 788 963.5 772.5 982C765 990.5 758.5 999.5 751.5 1008C747 1013 742 1018.5 738.5 1024M837 894L838.5 895.5M664 915.5C657 928 646 939 636.5 949.5C623.5 964 611.5 979.5 599 994.5C593 1001.5 587 1008.5 581.5 1016C579.5 1018.5 577 1021 575.5 1024"/>
 </g>
</svg>