<?xml version="1.0" encoding="utf-8"?>
<!DOCTYPE svg PUBLIC "-//W3C//DTD SVG 1.0//EN" "http://www.w3.org/TR/2001/REC-SVG-20010904/DTD/svg10.dtd">
<svg version="1.0" xmlns="http://www.w3.org/2000/svg" width="1024px" height="1024px" viewBox="0 0 1024 1024" preserveAspectRatio="xMidYMid meet">
 <g fill="none" stroke="#000000" stroke-width="0.5">
  <path d="M847.25 19.75C848 17 848.75 14.75 852 14.25M845.25 15.50L848.25 15.50M339 55C340.50 56.50 342 57.75 343.25 59.25C344.50 61 345 62.50 346.75 63.75C348 64.75 350.75 66 350.75 67.75C350.50 69.50 348.25 70 347 70.50L347.25 73C350.25 73.25 351 73 353 70.75L350.75 68.50M353 59.50C353 62 352.50 65 350.75 66.75M496.75 233.50C496.75 235 497.25 237.75 496.50 239C496 240.25 494.75 240.25 494.25 241.50C493 245.25 492.25 249.25 491 253C489.50 258.75 488.50 264.75 487 270.50C485.25 277 483.25 283.50 481.75 290.25C481.25 293 479.75 296 478.75 298.75C478.50 299.75 478.50 301.50 477.75 302.50C476.75 304 474.50 303.25 473.75 301.75C472.50 299.50 471 295.25 470.75 292.75C470.75 290.25 471.75 288.25 472.50 285.75C474 279.25 476.50 273 478 266.50C482.75 248 487.75 229.50 494 211.50C497 203 500.50 194.50 503 186C504 183.25 505.25 180.75 505.75 177.75C507.50 177.50 507.75 175 508 173.50C509.25 168.75 512 165.25 514.50 161C517.75 155.25 521.50 149.75 525 144.25C531 134.50 537.50 124.25 546.50 117C549.75 114.50 553.25 113 556.75 111.25C563 107.50 569 103.75 575.25 100.25C582.75 95.75 590.25 91.50 597.75 87C603.75 83.50 609.75 79.75 616.50 77.75C622.50 76 629 75.75 635.25 75C647.75 73 660 70.50 672.50 68.75C681.25 67.25 690 66.50 698.75 65C703.75 64 708.75 63.25 714 62.50C715.75 62.25 717.25 61.25 719 61.25C723.50 61.50 728 63.25 732.25 64.50C736.50 66 741 67 745.50 68.50C756.50 72 767.25 75.50 778.25 78.75C783.25 80.25 790 81.50 793 86M353 70.75L357 68L363.25 67M341 71L347 70.50M354.50 70.50L358.25 73L360 76M120.25 71C120.75 72 121 73.50 121.75 74.25C122.75 75.50 124.75 74.25 126 74M358.50 72.75C359.75 71.75 361 71.75 362.50 71.75M347.25 73C345.25 74.50 342.25 75.25 339.75 75.50M351.75 73.25L349.50 77M121.50 74.50L120.50 77M799.75 89.75C804.50 96 809.50 102 814.25 108.25C817.50 113 820.25 118 823.50 122.75C824.25 124 825.50 124.75 826.50 126C830 130.75 833.25 135.75 836.50 140.75C838.75 144.25 841 148 843.50 151.50C845.50 154.25 847.75 157.25 849 160.50C851.75 168.25 851.50 177 852 185.25C853 198.75 853.50 212.50 854 226C855.75 266.25 854.50 306.50 851.75 346.50C851 356.25 851.50 365.75 850.75 375.50C850.75 376.50 850 377.50 850 378.50C849.75 380 850.75 381.50 851 383C851.25 384.50 851 386.25 850.75 387.75M619.50 142C618.50 145.75 618.50 150 618.25 153.75C618 158.75 617 164 616.50 169C614.75 183.75 611.25 198.75 611.25 213.75C611.25 219 612 224.50 613.25 229.75C614 232.75 615.75 237.25 615 240.25C614.75 241.50 612.25 242.50 611.25 243.50C609.25 246 607.25 249 605.50 251.75C600 259.50 595.75 268.25 590.50 276.25C589 278.50 588 281.50 586 283.50C585.25 284.50 584 284.75 583.25 285.75C582.75 287 582.75 288.75 582.50 290.25M543.75 230.50C546 226.75 548 222.75 550.50 219C554.75 212.75 559.75 207.25 563.75 201C568 194.50 572.75 188.50 577.25 182.25C581 177 584.50 171.25 588.75 166C589.75 164.50 591.50 163.75 592.50 162.25C593.50 160.75 593.75 159 595 157.50C595.50 157 597.25 155.50 598 156.50C598.50 157 598 158.25 597.75 158.75C597 161 594.75 162.50 594.25 164.75C593 169.25 590.75 173.25 588.75 177.50C586.25 183.25 583.75 189.25 581.50 195C578.25 203 575.50 211.25 571.75 219.25C570.50 221.75 569.50 224.25 568.50 226.75C567.75 228.50 566.50 230.25 566.50 232.25C566.50 234.50 568.50 236.25 569.25 238.25C571.50 245 575 252 576.50 259C577.50 264.75 579.25 270.25 580.50 275.75C581.25 279 581.25 282.50 583.50 285M536.75 159C534.50 164.50 532 170 530.25 175.75C529 180 528.75 184.50 527.75 188.75C527.25 190.25 526.50 191.25 526 192.75C525.25 196.50 524.50 200.25 523.75 204C520.75 215.75 517.25 227.25 514.75 239C513.50 245.25 511.75 251.50 510.50 257.75C510 259.50 508 262.75 509.75 264.50C511.50 265.75 513 262.75 513.75 261.75C516.75 257 520.25 253 523 248.25C525 245 527.50 242.25 529.50 239C532.25 234.75 534.50 230 537 225.50C537.75 224.25 539.25 224 540 223C541.50 220.25 541.75 217.25 542.75 214.25C544 211 545.75 207.75 547 204.50C548.50 200.25 551.50 196 551.50 191.25M592.50 162.50L594.50 163.50M367.75 168.75L365 170M505.75 176.75L505.50 177.50M669.25 196.75C669.25 200.25 668 203.75 668.25 207.25C668.25 208.25 669 208.75 669.25 209.75C669.50 210.75 669.25 212.50 669.25 213.50C668.25 223.50 666 233.25 664.50 243.25C663.25 250.25 659.75 257.75 660.25 265C661.25 280.50 665.75 295.50 668 310.75C668.50 313 668.50 316 669.50 318C670.50 319.50 672.50 320.25 672.25 322.25C669.25 347 663.50 371.50 657.75 395.75C656 403.50 653.50 411 651.75 418.75C650.50 423.25 649 427.50 649 432.25C653.25 432 656.25 427.75 659 425C662.25 422 665 417.75 667.75 414.25C672.25 408.50 677 402.75 681.75 397.25C685.75 392.50 690 388.25 693.25 383C695.75 378.50 696.75 373.50 699 368.75C705.75 353 710.50 336.50 715.25 320C718.75 307.75 721.75 295.50 724.75 283C727.75 271.25 730.75 259.25 731.50 247C731.75 241.50 730.25 236.50 730.25 231.25M96 199L96.25 199M667.25 225.50L662 224.25C662.25 222.50 662.25 220.75 662.75 219C663.25 217.50 664.25 216.25 664.75 214.75C665.25 212 665.50 209.50 668 208M811.50 215L811.75 215M664.75 215.25L668.50 217.25M539.75 223.50C541 225 540.75 226.25 540.75 228C540.75 232 540.25 238 538.25 241.50C537.50 242.75 535.50 242.75 535.25 244.25C534.25 247 534 249.75 533 252.50C532.50 253.75 531.25 254.75 530.50 256C529 258 528 260.50 526.75 262.75C524.75 266.75 522.25 270.75 520.50 275C519.75 277 519.25 279.25 518.25 281C517.50 282.25 516.25 282.75 515.50 284C514.25 286 514.25 288.75 513 290.75C510.25 295.50 508.50 300.50 506 305.50C505.25 307.25 503.25 310 503.75 312C504 313.25 506.25 312.25 507 311.75C508.25 311 508.50 309.75 509.50 308.75C511 307.25 513.50 306.75 513.75 304.50C515.75 305.25 522 306.75 522.25 303.25M661.75 224.50C660.50 228 657.75 232.75 660.75 235.75M682 233.75C682 255 679.50 275.75 676.50 296.75C675.75 302.75 675.50 309.75 673.50 315.50C672.75 317.25 673.50 319 672.25 320.75M659 234.25L656.50 240L652.25 248M496.75 239.50C498.25 241.50 498.50 244.50 498.75 247C499.75 254 501.50 261.25 503.25 268C503.75 269.75 503 273.50 505.50 274.25C506.75 274.50 507.25 273.50 507.75 272.50C509 270.25 509.50 267.50 510.25 265M615 241C616 242.50 615.75 244.50 616 246.25C616.50 250 617.50 254 617.50 257.75C617.25 259.50 617.25 263.50 619.25 264.25C621 264.75 621.50 261.75 622.75 261.25C627.75 259 632.25 256 637.25 253.50C638.75 252.75 641.75 249.50 643.25 251.50C644.50 253.25 646 258.75 645.25 260.75C645 262.25 643.25 261.75 642.50 262.75C640.25 265.75 638.75 270.25 637.50 273.75C636.75 276 637.75 279.50 637.50 282C637.25 283.50 637 286 636.50 287.50C636 288.75 635 289.25 634.50 290.50C634 292.75 635.25 295 632.50 296.50C630.75 297.50 630 295.50 629.50 294.25C628.75 292.25 631.25 291 630.50 289.50C630.25 288.75 629.50 288.75 628.75 288.50C628 288.25 627.25 287.25 626.25 287.75C625 288.25 625 291.25 626 292C626.75 292.50 627.75 292.25 628.50 292.50M538 242C542.25 245.50 545.50 252.25 548 257.25C548.50 258.50 548.25 260 549 261.25C551.25 264.75 554.25 268.25 556.25 272C557.50 274 557.75 276.25 558.75 278.50C559 279.25 560 279.75 560.25 280.50C561.75 283 562.50 286 563.50 288.75C564.25 291.25 566.25 294.25 566.50 296.75C566.75 300.50 565.25 303.50 564.50 307C563.75 310.25 563 314.75 561 317.75C560 319.25 558.25 318.50 556.75 318.50C556 318.75 555.25 319.50 554.50 319.50C553 320 551 319.25 549.75 318.75C548.75 318.25 545.75 316.75 545 318.25C544.25 319.75 545.75 322 546.50 323C548.50 326.50 549.75 330 551 333.75L552.75 332.50M634.50 244C630.75 247.75 627.50 251.75 624 255.75C622.75 257.50 620 259 622 261.25M537.25 252.25C537.25 253.75 537.50 255.50 537.25 257C537 258.75 536 260.25 536.25 262C536.50 263.50 538 264.50 538 266C538 267.75 537.25 271.25 538 272.75C538.50 273.25 539.50 273.25 540.25 273.75C540.75 274.25 540.75 275.75 541.75 275.75C545 275.75 544.25 269.50 544.75 267.75C545 266.75 545.75 266 545.75 264.75C545.75 263.25 544.50 262.25 544.25 260.75M641 256.50L642.50 262.50M541 261L541.50 260.75M545.75 263.75L548.50 261.50M645.75 261.50L649 274.75L651.25 288L652.50 290L653 294.75C651.25 294.75 649.75 292.75 648.25 293C647 293.50 646.75 294.75 645.75 295.50C644.25 297 641.50 297.25 640.50 299.25C639.50 301 641.50 303.50 641.50 305.25C641.25 306.75 640.50 308 640.25 309.50C640 312 640.50 314.50 640.50 317C640.50 318.25 640 320.25 640.50 321.50C641 322.25 642.25 322.50 643 323C645.25 325.50 647.25 328.50 646 332C645 334.25 641.25 334.25 641.25 336.75C641.25 339.50 643.50 343 644.75 345.25C645.25 346 646.25 346.25 646.25 347.25C646.50 349.25 646 352 644.75 353.50C643.25 354.75 641.25 355.25 639.75 356C634.50 359 629.25 361.75 623.50 363.50C622.25 363.75 621.75 365 620.75 365.50C618.25 367 615.75 367.75 613.25 368.75C612 369.50 611 370.75 609.50 370.25C608 369.75 606.75 368.25 605.75 367.25C602.75 364.25 599.75 361.50 597.25 358C594 353 590.25 348.50 587.25 343.25C586.75 342.50 585.75 342 585.50 341.25C584.75 339.75 585.50 338.25 585.25 336.75C584.50 333.50 583.50 330.25 582.75 327C582.25 322.50 581.75 318.75 582 314.25C582 313 582.25 310 583.50 309.25C584.50 308.75 586.75 309.75 587.75 310C588.75 310.25 589.50 310.75 590.25 311.25C589.25 312.25 589.25 313.50 588.25 314.75C587 316.25 583.50 316.25 582 315.25M536.25 263C534.25 265 534.75 268 534.75 270.50C534.75 271.50 534.25 272.75 535 273.25C535.75 274 537 273.25 537.75 273.25M619.25 264.50C618.50 265.75 617.25 266 616.25 267C613.75 269.25 611.25 271.50 608.75 274C606.25 276.50 605 279.25 603 281.75C602 282.75 600.50 283.50 599.50 284.50C598.75 285.25 598.75 286.50 598 287.25C597.25 288 596 288.50 595.25 289.25C593.50 291 592.25 293.50 590.75 295.50C588.50 298.75 583.25 304.50 584 308.75M619 265.25L621.75 275.50L624.50 278L628.25 283L632 280.50L633.50 277.25L636.75 275.50M552.50 266.75L550.75 269M801 269L800.75 275.50L800 288.75L798 317.75L794.25 365L791.75 391.75L793.25 417.25L794 423.25M550 271.75C549 273.50 550 275.50 551.75 273.50M535.25 274.25C534.75 277.75 534 282 534.75 285.50C536 285 537.50 283.50 539 284.25C540 284.75 539.75 287.25 541.25 287C544.25 286.75 543.75 284.50 545 282.50C545.50 281.75 546.75 281.50 547.25 280.75C548.25 279.25 548.75 276.25 549.25 274.50M505.75 274.50L505.75 280.50M541.50 276L542 280.25L544.25 279M622 276.50C620.50 278.50 621 284.25 622.50 286.25C623 287.25 624.50 287.50 625.25 288.25M520 277.75L522.25 278.75M558.50 278.75C556.50 280.25 554.25 281.50 553 283.75C552.25 285.25 552.50 287 551.50 288.50C549.75 287.25 547.75 287.50 546.25 289M542 280.25C542 281.75 543 282 544.50 282M524.50 280.75L526.75 285.50L530.25 288.75C529 290 526.25 289.25 525.25 290.50C523.50 292.50 525.25 295.75 521.50 296.50C520 297 518.75 295.25 518.50 294C518 291.50 518.75 289.75 520.75 288.25L518.25 281.50M547.25 281C549.25 283 549.75 283.75 552.75 284.25M542 281.50L540 284.75M603.25 282C605 283.50 606.25 285.25 607.75 286.75C612 290.25 616 294.25 619.75 298.50C621.50 300.50 618 303 621 304M628.25 283L627.25 287M549.50 284L548.50 287.50M944.25 284.25L941 288C943 289.50 945.25 288.25 943.50 286M946.50 284.50L944.75 286.75M936 284.75C937.25 286.50 938.25 288.75 940.75 288M534.50 285.25L531.75 289.50L531.25 289L531 289L530.75 289L530.50 288.75M535.25 285.50C536.75 287 538.75 290.75 540 287.25M526.25 286L524.25 289L524.50 289.25L524.75 289.50L525 289.75L525.25 290M622 286.75L621.50 293M738.25 286.75C738.25 290.25 737.25 293.75 736.75 297.25C736.50 300.50 736.75 303.75 735.50 306.75C735.25 308 733.75 308.50 733.50 309.75C732.25 313.75 732.25 318.25 731.75 322.50C731.50 324.50 732.25 324.75 732.75 326.50C733.50 328.25 733.50 330.50 733.75 332.25C734 334.50 733 336.50 733 338.75C732.75 344.25 733.25 349.50 732 355C731.50 356.50 730.25 357.50 729.75 359C727.25 364.50 725.25 370.75 721.50 375.75C721 376.50 719.75 376.75 719.25 377.50C716.75 381 714.50 385 711.75 388.25C704 397.25 693.75 404.75 683 409M598.25 287.50C599.50 288.75 600.75 290.50 602.25 291.75C603.25 292.50 604.75 293 605.75 294C607 295.75 606.75 297.50 607.75 299.25C608.50 301 609.75 302.25 610.50 304C611 305 610.50 306.25 611 307.25C611.25 308.25 612.50 308.50 612.75 309.75C612.75 311 612.25 312.25 612.25 313.50C612.50 315 614.50 317.25 615.50 318M520.75 288C522 289 522.75 289 524.25 289M641 289.50L644.25 288M938.50 288C936.50 290 933.50 289.75 930.75 289.25M551.50 288.50C551.25 290 551 291.25 550 292.50C549.50 293.25 548.50 293.50 547.75 294.25C546.25 295.75 544.25 300 545.50 302.50C546.25 304.50 549.50 304.25 551.25 304.25C554.75 304.25 559.25 305.25 557.75 300L553.50 300.75M651.25 288.50C650 289.75 649 291 648.75 292.75M939.25 288.50L942 297M538 289C537.25 289.75 534.75 290.75 534.75 292C535 294 536.50 294.50 537.50 295.75C538 296.50 538 297.50 538.25 298.25C538.75 299.75 540 301.25 540.25 302.75C540.50 305 540 308.50 539.25 310.50C539 311.75 538 314.50 538.75 316C539.25 317 543.50 317.25 544.75 318M539.50 289.25L540 293.25M519.25 326.75C515.25 328.25 517.25 331.25 519.25 333.25L521.75 328C518.75 325.75 520.25 324.75 522 322.25C522.75 321.75 522.25 320.50 523.25 320.25C524.75 319.50 527 320 528.50 320.25C529 317.75 528.75 315.25 528 312.75C527.75 311.75 526.75 310.50 526.75 309.50C526.75 308.50 528 307.50 528 306.50C528.25 303.50 529 300.75 529.50 297.75C530 294.25 529.25 292.25 532 289.50L534.50 291.75M631.25 290C632.50 289.50 633.25 289.50 634.50 290.25M840 290.25C840.25 295.25 839.75 300.50 840.50 305.25C840.75 307 842.25 307.50 842.75 309C843.75 312 844 318.25 843.25 321.25C843 322.25 842.25 323 841.75 323.75M513.25 291C514.75 292.25 516.25 292 518 292M939.25 291L935.50 295.25M625.75 292.25C623.75 295 626.75 300 626.75 303.25C626.75 304.50 626.50 306.50 628.25 306.50C630.25 306.25 633.75 303.75 635.25 302.50C637 300.75 636.75 299.25 639.75 300M268.50 292.75C269.25 297.25 268.25 302 268 306.50C267.50 313.75 267.25 321 267.25 328.25M943.75 293.25L944.75 293.25M565.50 294.50C563.75 296 560.50 297.25 558.25 297C557 297 556 296.25 554.75 296.50C551.75 297 549.75 299 547 296M653 294.75C653.75 296 653.50 297 653.75 298.50C654.50 301 655 303.75 655.75 306.25C656 307.25 656.75 309 656 310C654.50 311.25 652 308.50 650.75 309.75C649.75 310.75 649 314.25 650.50 314.50M634.50 295C636.25 296.75 636 297.75 636.50 299.75M607 295.25C612.25 295.75 614.25 301.50 619.25 302.25M646 296C646.75 297.50 647.25 303.25 645.75 304.50C645.25 305.25 643.75 305 643 305.50L644.25 309.50L649.75 311.75M519.75 297C519 300.50 516 301.25 514 304M557.75 297.25L557.75 300M766.50 298.75L766 299.25M557.75 304C559.75 305.50 562 306.25 564.50 306.25M619.50 304C619.50 307.25 616.25 309.50 613 309.75M549 304.75C549.75 309.50 554.25 313.75 556.50 318M646.25 304.75C647.75 306.25 649.75 307.25 650.50 309.25M624 305.25L626 307.25C624 309.75 620.75 313 620 316C619.75 317 620.50 318.50 620.50 319.50C620.50 320.75 620 322.50 621 323.75C622.75 326.25 625.75 327.25 627 330.25C628.25 333.25 630.25 336 631.75 339C632.25 340 632.75 342 633.75 342.50C634.75 343.25 636.25 342.25 637 341.50C638 343.50 637.50 346 637.50 348.25C637.75 350.25 638.75 354 639.75 355.75M641.75 305.50L643 305.50M520.75 305.75C520.75 307.75 524.75 309.50 525.25 307.50M840.75 306.50C839 308.75 839 313.25 839 316C839 322.75 839.50 329.25 839 336C838.50 344.25 838.75 352.50 837.75 360.75C836.75 368 834.75 374.75 833.25 381.75C832 389.50 831 397 828.50 404.50M626 307.25L627.25 306.75M521 307.25C519 311 519.75 319 513.75 319.25C512.25 319.25 510.75 318 509.25 317.75M735.50 307.25C737.75 309.50 737 312.50 737 315.50C737 321.75 736.75 328 737 334.25C737.75 353 740 371.75 740.50 390.50C740.75 396.50 740.25 402.25 740.25 408.25C740.25 410.50 739.75 413.75 740.75 415.75C744.25 414.25 746 411.50 748 408.50C750.50 404.75 753 401.25 755 397.25C758.75 390.50 762.75 384 766 377C770 368 773 358.25 775.50 348.75C776 347.50 776.75 346.75 777.25 345.50C777.50 344.25 777.25 342.75 778 341.75C778.50 340.75 779.75 340.50 780.50 339.75C781.25 338.75 781.25 337.75 782 336.75C782.50 336 783.25 335.75 783.75 335C784.50 334.25 785.25 330.75 784.25 330C783.50 329.25 782 330.75 781.50 331.25C780.50 333 780.75 335 782 336.50M600.75 316C598.75 315.50 594.50 316.25 593 314.75C592 314 591.75 312.25 590.75 311.25C592.50 309.75 594.50 310 596.75 309.75C601.50 309 606 308.75 610.50 307.75M525.25 308.25L526.50 309.50M791.25 308.50L786.75 321.50L784.25 329.50M526.50 309.75C524.50 311.75 521.75 317 522.50 320M656.25 310C657 311.25 656.75 312.75 657.25 314C658.50 319.25 658 326.25 654.75 331L647 327.75M590.25 311.25L590.75 311.25M244.25 311.50C246.75 313.50 248 317.75 249.75 320.50C252.50 325.25 256 329.25 258.50 334M503.25 312.50L502.50 319.50M610 312.50L612 313.75M612.25 314C610.25 316 609 317.50 608.50 320.25C608.25 321.25 608 323 609.25 323.25C610.75 323.75 613.75 322.25 615.50 322.25C616 324.75 619 324.50 621 324.25M649.75 314.50L648.25 317.50L642.50 322.25M588.25 315C589.50 316 591.25 316 592.50 315M613.75 315L619.75 315.75M538.25 316.50L537.75 317.75M518.25 316.75C519.50 318 520.25 318.75 522 318.75M287.75 317C284.25 320.75 281.25 325 277.50 328.75C276.25 330 274.75 332 273.25 332.50C272 332.75 271.50 331.25 271.75 330.25C272.50 328 274 325.50 275.50 323.50M541.75 317.25L541.25 322.75L541.25 333C544.25 333.25 548 335.50 550.75 337L551.25 334M258.50 318C258.25 321.25 259.75 326.75 261.50 329.75M301 318.25C300 320.75 296.75 322.50 294.75 324.25C289.25 329.25 283.50 333.75 277.75 338.25M560 319C560 324.25 557.50 329.25 556.75 334.50C556.50 336 556.25 339.25 554.25 339.50C552.75 339.75 552 337.50 551 336.75M528.75 320.25L531.50 321L532 324.50C533.50 324.50 535 324.50 536.25 323.75M823 320.50C823 325.50 823.50 331.50 822 336.50C821.50 338 819.75 338.50 819.25 340C817.50 344.75 816.50 350.25 815 355.25C813.25 360.50 812.50 365.75 811 371C809.25 377.50 807 383.75 805 390.25C802 399.75 798.25 409.25 796.25 419M615.50 322.25C616.75 321 618.25 320.75 620 320.75M528.75 321C527.25 326.50 525.25 330.75 526 336.50C526.25 337.75 525.75 340.75 527.25 341.25C529.25 341.75 529.50 338.50 530 337.50C530.25 336.50 531.50 336 531.75 335C532 334 531.50 332.50 531.50 331.50C531.50 329.25 531.75 327.25 532 325M585.50 337.75C588.50 337.75 590.75 335.75 593 333.75C594.50 332.75 596 331.50 597.50 330.50C598.75 329.75 600.25 329.25 601.50 328.25C602.25 327.50 602.25 326.25 603 325.25C604 323.50 606.25 322.75 608 322M843.25 322C844.50 324.50 843.25 328 843.50 330.75C845.25 341.75 844 353 844.75 364C845 368.75 844.25 376.25 849.75 378.25M515.75 322.25C513 325.50 514 330 511.25 333C508.25 330 505.75 326.75 504.50 322.75M522.50 322.25L524.75 324.75C525.75 324.25 526.50 324.25 527.50 324.75M609.25 323.50L607 327L602 328.50M524.75 324.75C524.75 326.50 524.75 327.50 526 328.75M731.50 324.75C728.25 328.75 728.50 335.75 727.50 340.50C726 346.25 724 352 722.25 357.50C720.75 362 720 367 717.50 371.25C716.75 373 715 374 713.75 375.50C707.75 383 701.25 389.75 694.75 396.75C691.50 400 687.75 402.75 686 407.25M607.50 327.75C608.25 333.75 606.25 338.75 604 344C603.25 345.75 600.50 349.50 601.25 351.50C601.50 352.25 602.75 352 603.25 351.75C604.75 351 606.25 349.25 607.50 348.25C612 344.25 617 340.75 622 337.25C624 336 626.25 335 628.25 333.25M521.75 328L524.50 328M637.75 328C635.75 329.75 635.75 333.50 637 335.75C638.25 335 639.50 335.25 640.75 336M629 333.25C631.25 331 633 330 636 330M654.75 331.25C653.25 335.50 652 339 649.50 342.75C648.25 344.25 648.25 345.50 646.50 346.50M511.25 333C511.75 334.25 513.25 336.25 514.25 337C515 337.50 515.75 337.75 516.25 338.25C516.75 339.25 516.75 340.75 517 341.75C517.75 344.75 520.75 350.25 524 350.75L524.75 353.25M519.25 333.25C519 335 518 336.75 516.50 337.75M541 333.25C540.75 335.75 540.50 338.25 540.25 340.75C540 341.75 539 343 539 344C539.25 346.25 541.50 350 539.75 352C537.25 355.25 531.25 354.50 528 357M511.25 333.75C508 336.50 506.25 341 503.50 344.25C498.25 350 492.25 354.50 486.25 359.25C483.50 361.25 480.75 364 477.75 365.75C475.75 367 472.25 368.50 471.25 370.75C470.25 373.50 473 372.50 474.25 372M734 334.25L736.75 334.25M202 334.75L206.25 335.25L213.25 335.75L217 337L224 337.25L253.25 341.25M532 335L536.25 339.25L540 337.25M625.50 335.50C625.75 336.25 625.75 337.25 626.50 338C627.25 338.75 629.25 337 630 336.50M637 335.75L637 341.50M822 337.25C823.75 339.25 823.50 341.25 823.50 343.75L823.50 355.25C823.50 371 824.50 386.75 825.25 402.50M626.75 338.50C625.50 344.50 624.25 350.50 623.25 356.50C622.75 358.75 621 361.50 622.50 363.75M536.25 339.25C536.25 341 537 342.50 538.50 343.25M780.50 339.75C782.25 341.75 781.50 345.25 779.75 347.25L777 346M554 340C552.75 345.75 546.25 350.50 540.50 351.25M527.25 341.50L525.50 349.25C528.25 350.25 527 354.25 528.75 356.25M276.75 342L301.25 342.50L312.75 343.25M634 343C634.25 345.25 634.75 346.75 637 347.75M779.75 347.25C779.75 349.50 778.75 352.25 779 354.50C779 355.50 779.75 356 780 356.75C780.50 358 780.25 360.25 779.75 361.50C779.25 363 777.50 363.50 776.50 364.75C775 366.50 774.50 371.50 775.75 373.25C779.25 370 780 367.50 780 362.75M281.25 347.75L291.25 349M525.50 349.25L524 350.75M291.75 373C287.50 368.25 283.25 363.50 279 358.75C278.25 357.75 277.25 356.75 276.25 356C275.50 355.50 274.25 355.50 273.75 354.50C273 352.75 274.75 349.75 276.75 350.50C279.50 351.50 282 355 284 357M601.25 352L600.75 352.50M775 352.25L778.75 354.75M225 376.75C234.50 369.50 243.75 361.50 253.50 354.50C254.25 354 255.50 353.25 256.25 354C257 354.50 257 355.25 257.75 355.50C258.75 355.50 259.75 354.50 260.50 353.75M267 354.50C268.50 360.75 271.25 367.25 271.25 373.75M778.25 354.75C776.50 357 776.75 361.50 776 364.25M273.75 355C272 357.25 273.50 358.50 274.25 360.75C275.50 365.75 276 372.25 279 376.50M257.75 355.75C253.25 362.25 247 367.50 241.50 373M17.50 363.50L17.75 363.50M782.25 364.25L780.75 366M472.75 373.50C473.50 375 475.50 375.75 476.75 376.50C479 378 481 379.50 483.25 381.25C490.50 386.50 498.75 391.25 505.75 397C509.75 400.25 514 404.50 519.50 404.25C528.50 403.50 537.25 401 546 399.50C548 399 552.75 396.75 554.75 398C555.75 398.50 555 400.25 554.50 401C553.25 403.75 551.25 406.25 549.75 409C545.25 417.25 539.75 424.75 535.25 432.75C533.25 436.25 531.50 441 528 443M775.50 373.50C775.50 375.75 773.75 376.25 773.25 378.25C771.25 385.50 769.50 392 764.50 398C762.75 400 761.50 402.25 759.75 404.25C758.50 405.50 757 407 757.50 409C760 416.75 769.25 410.25 772.75 407C775.25 404.75 778.75 400.75 779.75 397.50C780.50 395.50 779.50 393.75 779.25 391.75C778.75 386.75 779.25 379.75 775.50 375.75M690.25 383.50L691.50 385.25M685.75 411.25C688.75 417.25 694 415.50 699.75 415.25C705 415.25 710.25 414.75 715 413.25C716.25 412.75 717.50 413.50 718.75 412.75C719.50 412.25 720 411.25 720.75 410.75C725.25 407.75 730 404.75 734.75 402C736.75 400.75 737.50 399.25 739.75 398.75M436 428.75C437.75 429 437 431.25 436.75 432.50C435.75 435.25 434 437.75 432.50 440.25C432 441.25 432 442.50 430.75 443C428.75 444 425 443.50 426.50 440.50C427 439.75 428 439.25 428.25 438.50C429.25 436.50 429.25 433.75 430.50 432C431.25 431 432.25 430 433.25 429.25C434 428.75 435.25 429 435.75 428.25C436.75 426.75 436.75 424.50 437.50 423C438.50 421.50 441.75 420 442 418.25C442.25 416.25 439.75 416.25 439 415.25C438.25 414 438.75 412.75 438 411.50C440.25 409.75 442.50 409.25 445 408.25C445.75 408 446.50 407.25 447.50 407C450 406.75 451.75 407.50 454 408.25C458.75 409.50 463.50 411.50 468 413.50C472 415.25 477.25 416.75 480.50 420C485 424.50 487.25 431 490.50 436.50C492.25 439.50 494 442.75 495.75 446C496.50 447.75 497.50 449.25 497.75 451.25C497.75 453.50 496.50 455 495.50 456.75C494 459.75 493 462.50 491 465.25C489 468 487 471.50 484.25 473.75C483.25 474.50 482 474.50 481 475.50C480 476.25 480.25 477.75 479.25 478.50C476 481.25 471.75 482.75 468.25 485C465 487.25 461.25 489.75 457.75 491.50C454 493.25 450.75 497 446.50 498C444.25 498.50 442.25 497 440 496.50C433.25 495.50 425.75 493.50 419.25 491.25C416.25 490.25 412.75 489.75 412.75 485.75C409.25 485.50 409 483.25 407 480.75C405.75 479 403.75 477.25 402.50 475.50C400.75 473 399.75 469.50 398.75 466.75C398.25 465 394.25 460 392.25 460.25C387 461 381.50 463.75 376.75 466C369.25 469 361.50 472.25 354 475.50C352 476.25 349.50 476.50 347.50 477.50C344.25 478.75 341 480.75 337.75 482.25C324 488.25 310.25 494 296.50 499.75C282 506 268 513.25 253.75 519.50C251.75 520.25 248.75 521.50 247.50 523.50C246.25 525.25 246.25 528 245.75 530C245 534.75 244.25 539.50 243.50 544.25C243 546.75 242.50 549.25 242.25 551.75C242.25 552.50 242 553.75 242.75 554.25C243.75 554.75 245 554.25 245.75 553.75C247.75 552.75 250 551.75 252 551.25C255.25 550.25 258.50 548.50 261.75 547C268.50 544.25 275.50 541.25 282.25 538.50C298.50 531.75 314.75 525 331 518.25C334.75 516.75 339 516 342.50 514.50C346.25 512.75 350 510.50 353.75 508.75C362.25 505 371 502 379.50 498.25C386 495.50 392.25 491.75 399.25 490.50C399.25 496.75 397 503.25 395.50 509.25C392.25 524 388 538.75 384.75 553.50C383.75 558.50 382.25 563.50 380.75 568.25C380.50 569.50 378.75 572.25 380 573.50C381.25 574.50 386 571 387.50 570.25C395 566.25 402 561.75 409.25 557.25C421.50 549.50 433.75 541.75 446 534.25C452 530.25 458.75 527 464.50 522.75C469 519.75 473.75 517 478.25 514.25C479.25 513.75 481.75 511.50 483.25 512.50C484 513 483.75 514.25 484 515C484.25 517.25 484.75 519.75 485.25 522C486.75 531 489.25 539.75 490.75 548.75C492.25 555.75 493.75 562.75 495.50 569.75C496 572.50 497.75 576.25 496.25 579C495.25 581 491 580.25 489 580.75C481.75 582.25 474.25 583.25 466.75 584C443.50 586.50 420.25 587.75 397 589.50C390.50 590 384 590 377.50 590.50C374 590.75 372.25 592.75 368.75 591.25C356.25 586.25 344.75 578.75 332.50 573.25C329.75 572 326.75 570.50 324 569.25C322.75 568.50 321.25 567.75 319.75 568C318.25 568.50 318 570.75 317.25 572C315.50 576 314.25 580.25 312.50 584.25C305.25 600.75 298.75 617.50 291.25 633.75C287.50 641.75 284.50 649.75 281 657.75C270.75 681.75 260 705.50 249.50 729.25C245.50 738 241.75 746.50 237.50 755C235.75 758.50 232 763.75 232 768C232.25 770.25 234 772.75 235 774.75L242 788.75C248.25 801.50 254.75 814.50 261.75 827C264 831.50 266.25 835.75 269 840M449.75 407.50L449.75 408.50M409 436.75L407 436.75C407.25 433.25 409.75 433.25 411 430.75C412.75 427.50 414.75 425.25 417 422.50C418.25 421 419.25 418.75 420.75 417.75C421.75 417.25 422.75 417 423.75 416.50C427.50 414.25 433.50 411.75 438 411.50M719 412.75L721.25 417L724.75 419.25L729.50 423.75L732.50 425L744.75 437.25M448.25 414.25C448.25 419 452 421.75 453.50 425.75C454.25 428 452.50 427.50 452.50 429.25C452.25 430.75 453 432.50 453 434M740.50 416L739.75 419.75M719 417L720.50 417M442 418.75C444.75 421 446.75 425 450.25 421.50M448.75 423L449.25 427.50L452.50 428.50M729 423.50C725 427.75 718.50 428.75 713.50 431.25C696.75 440 679 446.50 661.75 454.25C656.25 456.75 650.75 459.25 645.25 461.25C642 462.50 639.25 464.25 635.75 464.25C635.75 462.50 636.75 461.25 636.75 459.50C636.75 457.50 635.75 456 635.50 454.25C635.25 450.50 635.75 446.25 635.75 442.25C635.75 440.75 636.75 436 635.50 434.75C634 433.25 629.25 435.50 627.75 436C620.50 438.75 613.25 441.50 606 443.75C598.25 446 590.75 448.75 583.25 451.25C578.25 453 573 455 567.75 455C566 455 564.50 454 563 453.75C557.50 452.25 552.25 450.25 546.75 448.50C542 446.75 534 445.50 530.50 441.75M1011.50 426.75L1010 430.75L1011.25 433.25L1012 438.25L1019 432.25M1006 427.25L1007.25 430.50M437.50 428.75C441 428.75 445.50 429.25 448.75 428M454 428.50C457.50 429.75 455.50 434.25 455 437C454.75 438.25 454.25 439.75 455.50 440.50M1011.50 429.75L1011.50 432.50M456.75 431C458.50 432 459.75 434 461.25 435.50C463 436.75 465 438 466.50 439.50C468.25 441.50 469 445.50 469.25 448.25C469.50 450 470.25 452.25 469.25 454C466.75 457.50 462.50 457.50 459.50 460C458.75 460.50 456.50 462 457.25 463.25C457.75 464.25 460.25 464 461.25 464.75C465.25 467.75 470.50 472.50 475.75 472.75C476.75 472.75 478.50 473 479.50 472.50C480 472 480 471.25 480.50 470.75C482 469 484.25 470.75 485.50 472M410.75 431.50C412 432.25 413.25 432.25 414.50 433.25C417.25 435 418.25 436.50 421.75 436.75C422 439.50 424 440 426.25 440.50M1009.50 431.50L1009.25 433M421.75 436.75C423.75 435 427.25 432.50 430 432.50M648.75 432.50L645.25 439.25M637.50 432.75L636 434.75M998.75 435.50L1005 438.50L1008 441.25L1011.50 441.50L1012.50 451.50M407 436.75C402.75 441.25 400 447.25 396.75 452.50C396.25 453.50 395 453.50 394.25 454.25C393.25 455.50 392.50 458 392.50 459.75M347.50 477.25C346.25 474.75 349.75 472 350.75 469.75C354.25 461 359.75 453.50 364.75 445.50C366 443.50 369 437.50 371.75 437.50C373.75 437.50 376.25 441.50 377.50 443C382.25 448.25 387 453.50 392.25 458M1012 438.25L1011.50 441.50M1021.25 439.25L1023.75 439.25M748.50 439.50C748.50 443.25 741.25 445 738.25 446.50C727.25 452 716 456.75 705.25 462.75C695.25 468.50 684.50 473 674.25 478C660.50 484.75 647 492.25 632.75 498C629.25 499.50 625.50 500.25 622 501.50C609 506.50 596.25 511.25 583.50 516.25C578.25 518.50 573 520.75 567.50 522.75C565.50 523.75 563 523.50 561 524.50C560 524.75 559.75 526 559 526.50C556.75 527.75 554 528.75 551.75 530C549.25 531.25 546.75 532.75 544 533.75C543 534.25 541.75 534.50 541.50 535.50C540.50 537.75 544.25 539 545.75 539.75C551.25 542.25 556.75 545.25 562 548.50C567.50 551.75 573.75 554 579.50 557.25C584.50 560 589.50 562.75 594.75 565.25C595.75 565.75 596.25 566.75 597.25 567.25C598.75 567.75 600.50 568 602 568.50C606.75 570 611.50 572 616 573.75C621.50 576 627.25 579.75 633.25 581C635.50 581.50 637.25 580.50 639 579.25C642.25 577 645 574.50 648 572C654 567.50 660 563.25 665.75 558.50C672.25 553 678.50 547.25 686 543.50C691.50 540.75 698 540 703.75 537.75C720 531.25 736.50 524.75 753 518.75C759.75 516.50 767.25 514.50 773.50 511.25C775 510.50 778 510.25 779 509C780 507.75 779 506 779 504.75C778.25 500.25 775 496.50 773 492.50C767.50 481.25 761 470.25 755 459C753 455 750.50 450.75 748 446.75C747.25 445.50 746.75 444.25 745.75 443M454.75 440.25C453.25 441.25 451.25 440.50 449.50 440.75C445.50 442 441.25 442.25 437 443.25C435 443.50 433.25 444.25 431.50 443M467 441L465.50 442.25M453.75 441.25C453.75 445 451.25 449 452 452.75C453 457.25 456.50 456.75 458.50 453.25C456.75 452.25 454.25 452.25 452.25 452.25M1011.75 441.25C1013.75 443 1017.50 443.75 1020 444M1007.75 441.50L1003.50 446.50L996.75 453.25M997.50 442.75C1000 442.75 1003.25 441.75 1005.50 443M427 443.50C423.25 447 417.25 448 412.75 449.75C409.50 451 406.75 453 403.25 453C400.75 453 398.75 455 396.50 453.25M428.50 443.75C430.50 446.50 428.75 450 429.75 453C431.25 459 436.25 463.50 436.25 469.75L436.25 470C434 468.50 432.25 466.50 434.25 464M448.50 449.75C449.25 447.25 450.25 446.50 452.75 446.25M458.50 453.25C461.75 452.75 466 452.25 468.50 454.50M390.25 455.25C391.50 454.25 393 453 394.50 453.75M404.50 453.50C404.25 456.75 405.75 461.75 404 464.50C406.25 466 410.50 465.50 413.25 466C420.25 467.25 426.75 470.75 434.25 468.75M469.25 454.50L473.25 456.50L475.25 460.75L480.25 470.25M454.25 456.75L452.50 460.25L449.75 461.75L437.25 470.25C440.50 473.50 446 476.75 447.25 481.25L447.50 481.50C450.50 479.25 452.75 483.50 449.75 485.25C449 485.75 448.25 485.75 447.50 485.75L447.25 481.75M454.25 457.50L460 459.50M452.75 460.50C454 462 454.75 462.50 456.75 462.50M398.50 465C400.50 464.25 402 464.25 404 464.50M635.75 464.25C633.25 466.50 630 467 627 468.25C621 470.75 615 473 608.75 475.25C591.25 481.50 573.50 488 557 496.25C551 499.25 544.50 501 538.50 504C537.25 504.75 533 506 533.25 507.75C533.25 510 538.50 511.50 540 512.25C545 514.75 549.75 517.50 554.50 520C556.75 521 559.50 521.50 560.25 524.25M447.25 486C444.50 486 441 486.75 438.50 485.50C437.25 485 436.75 483.75 435.50 483C434.25 482.50 432.25 483 431.25 481.75C429.75 480.25 431 477.75 429.75 476L434.25 473L437.25 470.25M84.75 471.25C86 471.75 88 474.25 88.50 471.75M480.25 472.75L480.75 475.25M475.50 473C474.75 477 472.75 477 469.50 479C463.75 482.50 456.50 483.50 450.50 486L451.25 488M88.25 473.50C89 475.75 89.50 476 91.25 477.50C91.75 478 92 478.75 92.75 479C93.50 479 94.25 478.25 94.75 478C96.75 477 98.75 476.25 100.75 475M94.25 473.75L91.75 478M402.50 476C400.75 478.25 401.25 482.50 401.25 485.25C401.25 486 401 487.75 401.50 488.25C403.25 489.50 408.50 486.50 409.75 485.50M412.75 485.75C417.50 482 424 477.75 429.75 476M92 478.75L90.75 481L88.75 480.25M93.25 479.25L95.50 481.75M190.75 481.75L191.75 480.50M90.50 481.25L88.75 484.25M431 482L426 487M450 486L450.50 486M401.25 488.25L399.25 490.50M532.25 507.75L532.75 507.75M779.50 508.50C781.50 510.50 781 513.50 781.50 516.25C782.75 522.50 783.25 529 784.50 535.25C786.75 544.50 787.50 554.50 788.50 564C789.50 572.25 791.50 581 791.50 589.25C791.50 604 789 618.50 788.25 633.25C787.25 654.25 785 675 785 696C785 702.50 784.50 709.25 785 715.75C785.25 717.75 785 719.75 785.25 721.75C785.50 723 786 724.25 785.50 725.75C785 727 783.25 727.50 782.50 728.50C780.50 731 779.25 734.25 777.50 737C771.75 746 766.50 755 760.50 763.75C757.50 768 754 772.25 751.50 776.75C734 806.50 714.75 835.25 696.75 864.75C686.50 881.75 677 899.50 667.50 917C660.75 929.25 653.50 941.25 647 953.75C638.75 969.50 630.25 985.50 621.75 1001.25L613.75 1016.50C612.50 1018.75 610.75 1021.50 610 1024M342.75 515C343.50 518.25 339.25 522.75 338.25 526C336 532.25 333.50 538.75 331.25 545C329.75 549.25 329 554.25 327 558.25M997 550.25L999 549.75M596.50 567.25C593.25 570.50 589.50 574.25 587 578C585.75 579.50 586 581.50 585 583C577.75 594.25 571.25 605.75 564.25 617.25C559 626 553 634.50 547.75 643.25C536.75 661.50 526.50 680 516.25 698.75C510.50 709.50 505 720.50 499.25 731.50C496.75 736.75 494.25 743.50 490.25 747.75C489 749.25 487 748.75 485.50 749.50C481.50 751.50 477.50 753.50 473.25 755.25C459.75 761 446.50 767.25 433.25 773C413.25 782 393.25 791.25 373 799.75C360 805.25 346.25 810.25 333.50 816.50C321.50 822.25 309 827.25 296.75 832.50C291.25 835 285.75 837.50 280 839.75C278.50 840.25 277.50 841.25 276 841.50M379.25 572.75L375.50 575L363 582.75M380.50 577.75C379.50 578.75 378 579.25 377 580.25C375 582.25 372.25 588.25 373.50 591M359.25 730.50C356 727.75 350.25 734 347 735.25C345 736 343.50 737.50 341.75 738.50C338.75 740.50 335.50 742.25 332.50 744C326.75 747.25 321.25 750.75 315.50 754C313.50 755.25 311 756 309 757.25C305.75 759.25 301.75 761 299 763.75C298 764.75 296.75 766.75 298 768.25C299.25 769.50 302 768.50 303.25 768C307.75 766 312.25 763.75 316.75 761.75C323.25 758.50 330 755.25 336 751C339.25 748.75 342 746 345 743.75C348 741.25 351.25 739.25 354.25 736.75C356.50 734.75 357.75 732.25 359.50 730C361.75 727.50 365 725.75 367.75 723.75C371 721 374.50 718.50 377.50 715.75C379.75 713.50 382 710.75 384.75 709C386.75 707.50 388.75 707.75 390.75 706.75C398.25 702.25 405.50 697.25 412.75 692.50C447.25 670 482.25 648 516.25 624.75C532.50 613.75 548.75 602.75 565 591.75C569.50 588.75 573.75 585.50 578.25 582.50C581 580.75 583.25 579 586.50 578.25M454.25 585.50L455.75 586.75M373.50 592.25C374.50 594.75 376.50 595.25 378.75 596.50C382.25 598.25 385.75 600.25 389.50 602C404 609.25 419 615.75 432.75 624.25C437 626.75 441.75 629.75 445.50 633C446.50 634 448.50 635.25 448.75 636.75C449.25 638.75 446.50 640.75 445.25 642C441.50 645.75 437.50 649.50 433.75 653.50C422.50 666 411.25 679 399.75 691.50C395.75 695.75 387.75 701.25 387.25 707.50M771 604.75L774 602.75M773.25 603.75L774 606.50M716.75 617.50L713.25 624.75L702.75 648.25L697.75 660.75L695 669.25L689 678.25L673.25 704L636 762.50L559.50 877L534.75 912.75L523.50 930.25L476 999.25L460.75 1020.25L457.25 1024M106.50 620.50L108.75 618.25M415 653.50L415 654M785.25 726.50C787 729.50 784.25 733.50 783.50 736.50C783 738 782.75 740 782.50 741.50C779.50 755.75 775.50 769.50 772.50 783.75C770.50 792 768.25 800 766.50 808.25C761.75 827.25 758.75 846.50 754.25 865.50C750.50 880.25 746.75 895.25 744 910.25C742.25 918.75 740.25 926.75 738.75 935.25C737.25 942.25 736.25 949.50 734.50 956.50C733.50 960.50 733 964.50 732 968.50C731.75 970 731.75 971.50 731 973L730 971.50L730.25 971.25L730.50 971.25L730.75 971.50L731 971.75L731.25 972L731.50 972.25M779 734.75L783.25 736.75M712.50 735.75L713 735.50M489 749C489 752.25 487.50 754 486.25 756.75C483.50 762.50 480.50 768 477.75 773.50C468.25 793.25 459 813 449.75 832.75C444.25 844.25 439.50 856 434.25 867.75C426.50 885.50 418.75 903 411.25 920.75C407.25 930.25 404.25 940.25 400.75 950C391.25 974.50 381.75 999.25 373.25 1024M90 787.75L94.75 795.50L100.50 788.25M918 791.25C918 792.50 914 799.25 917.25 798M910 792C910.25 793.25 911 794.25 911.25 795.50C911.25 796.75 911 798.25 911.50 799.50C911.75 800.50 913 801.25 912.50 802.25C911.25 805.25 905.50 804 902.75 804.75M85.75 795L94.50 795.75M94.75 796C95 797.75 96.50 800.50 98.50 800.75M95 797L102.25 796.25M906.50 796.50L910.75 799.25M94.75 797.50L89.25 803.50M915.50 798L913 801.25M913.25 802.50L913.50 803.50L916.25 803L921.50 799.50L927.50 798.75M92.75 799.75L93.25 803.50M916.50 803.25L922 809.50M913.50 803.50C912.25 807.75 908.25 810.50 905.25 813.50M918 804.50C920.25 803 923 804.25 925.50 804.25M913.50 804.50C915.75 806.75 916 809.75 916.50 812.75M908 807.25C909.25 806.75 909.75 807 910.75 807.75M516.75 850.25L512 855.50M913.75 860L917.25 859.25M110.75 876.25L112.75 883.50L116.25 886.75C119 884.50 120 882.25 121.50 879M114.50 877.25C115 879.75 116.75 883 115.25 885.25M116.25 886.75L116.50 891L104 892M127.75 894.25C126.25 893.75 121.75 892.50 122.25 890.25C122.50 888.75 128 888.50 129.25 888.50M122 899.75C119 897.50 119.25 894 117 891.50C118.50 890 120 890 122 890M116.50 891L117 891.50M116.75 891.25L110.50 900.50M119.75 898.75L119.75 899.50M856.50 900.50L856 906.75C858.50 905.75 860 903.50 861.75 901.75M853.25 902L855.75 904.50M859 914.50L856.50 909.25L860 908.50L862.50 907L865.75 906.50M856.25 907L852.50 908.50L850.75 911L847.75 913.25M848.50 907.75L852.25 908.50M855.75 907.75L856.75 909M860.50 908.50C862.25 909.75 863.50 909 865.25 908.50M856.50 909.75C854.75 911.50 854.25 913.25 853.75 915.75M181.50 966.75C179.75 970.75 179.25 976.50 176 979.75C173 976.75 172.50 971.50 172 967.25M188 968.50C186.25 970.75 184.75 973.25 183 975.50C182.50 976.25 181.25 977.25 182 978.25C182.75 979.75 184 979 185 978.25C187.50 976.50 190 975.50 192.50 973.75M731 973L729.75 977L729.25 983.50L723.50 1013L721.25 1024M181.25 978.25L182.75 979.50M155 979.50C162 981.50 169 983.50 176.25 983.50L176.50 983.50L176 979.75M182.50 979.75L176.50 984L175.50 987.75L163.25 1002.75M177.25 983.75C180.50 987 185 987.50 189.25 988.75C190.75 989.25 192.25 990.25 193.75 990.50M176 987.50C180 991.50 178.50 999 181.25 1003.75M174 1000.25L173.50 1004.75M507.75 1005.25L508.50 1004.75"/>
 </g>
</svg>